M48
; DRILL file {KiCad (6.0.7-1)-1} date Monday, September 19, 2022 at 06:34:38 pm
; FORMAT={-:-/ absolute / inch / decimal}
; #@! TF.CreationDate,2022-09-19T18:34:38-07:00
; #@! TF.GenerationSoftware,Kicad,Pcbnew,(6.0.7-1)-1
; #@! TF.FileFunction,Plated,1,2,PTH
FMAT,2
INCH
; #@! TA.AperFunction,Plated,PTH,ViaDrill
T1C0.0157
; #@! TA.AperFunction,Plated,PTH,ComponentDrill
T2C0.0394
; #@! TA.AperFunction,Plated,PTH,ComponentDrill
T3C0.0429
; #@! TA.AperFunction,Plated,PTH,ComponentDrill
T4C0.0433
; #@! TA.AperFunction,Plated,PTH,ComponentDrill
T5C0.0460
%
G90
G05
T1
X3.4488Y-3.5906
X3.6142Y-2.7913
X3.6299Y-3.2795
X3.6299Y-3.3307
X3.7165Y-3.9016
X3.9567Y-3.1929
X4.0118Y-2.8701
X4.0276Y-3.8976
X4.0354Y-2.4528
X4.0866Y-4.0315
X4.1795Y-3.4502
X4.1811Y-3.3583
X4.185Y-3.7992
X4.2515Y-3.8893
X4.2756Y-3.0669
X4.3Y-2.4528
X4.3001Y-3.8907
X4.3819Y-3.1969
X4.4261Y-3.3396
X4.4562Y-3.7485
X4.5039Y-3.748
X4.5276Y-2.5591
X4.5472Y-2.9134
X4.5591Y-3.5
X4.5591Y-3.9252
X4.6378Y-3.8898
X4.6654Y-3.7008
X4.685Y-3.1811
X4.7795Y-3.4715
X4.7913Y-2.6378
X4.8346Y-2.6772
X4.8346Y-3.4685
X4.8455Y-3.937
X4.9685Y-3.5433
X5.0Y-2.4567
X5.0433Y-3.7874
X5.0433Y-3.8425
X5.0906Y-3.7283
X5.1811Y-3.8858
X5.2308Y-3.5723
X5.2902Y-3.5327
X5.3543Y-3.5945
X5.3937Y-3.5945
X5.4016Y-3.6378
X5.4094Y-3.7443
X5.4409Y-3.6614
X5.4803Y-2.7677
X5.5Y-3.7913
X5.5039Y-3.5906
X5.5354Y-3.6181
X5.5394Y-3.8071
X5.5551Y-3.6969
X5.5669Y-3.5906
X5.5787Y-3.9803
X5.6102Y-3.8701
X5.6772Y-3.8622
X5.685Y-3.7795
X5.8622Y-4.2638
X6.1457Y-2.7717
X6.1772Y-3.1811
X6.311Y-3.9055
X6.3189Y-3.6496
X6.6024Y-3.0644
X6.6036Y-3.2283
X6.6417Y-3.4567
T2
X4.4252Y-4.0732
X4.4252Y-4.1732
X4.5252Y-4.0732
X4.5252Y-4.1732
X4.6252Y-4.0732
X4.6252Y-4.1732
X4.7252Y-4.0732
X4.7252Y-4.1732
X4.7415Y-3.0039
X4.8252Y-4.0732
X4.8252Y-4.1732
X4.8415Y-3.0039
X4.9252Y-4.0732
X4.9252Y-4.1732
X5.0252Y-4.0732
X5.0252Y-4.1732
X5.1252Y-4.0732
X5.1252Y-4.1732
X5.15Y-3.08
X5.15Y-3.18
X5.15Y-3.28
X5.2252Y-4.0732
X5.2252Y-4.1732
X5.25Y-3.08
X5.25Y-3.18
X5.25Y-3.28
X5.3252Y-4.0732
X5.3252Y-4.1732
X5.4252Y-4.0732
X5.4252Y-4.1732
X5.5252Y-4.0732
X5.5252Y-4.1732
X5.6252Y-4.0732
X5.6252Y-4.1732
X6.6309Y-3.7022
X6.6309Y-3.8022
X6.7309Y-3.7022
X6.7309Y-3.8022
X6.8858Y-3.6969
X6.8858Y-3.7969
T3
X5.4906Y-2.8778
X5.5906Y-2.8778
X5.6906Y-2.8778
X6.1795Y-2.8817
X6.2795Y-2.8817
X6.3795Y-2.8817
T4
X5.472Y-3.0914
X5.472Y-3.2686
X5.728Y-3.0914
X5.728Y-3.2686
T5
X6.7436Y-3.0807
X6.7436Y-3.1807
X6.7436Y-3.2807
X6.7436Y-3.3807
T0
M30
