%TF.GenerationSoftware,KiCad,Pcbnew,(6.0.7-1)-1*%
%TF.CreationDate,2022-09-19T18:34:45-07:00*%
%TF.ProjectId,telemetry-emulator-pcb,74656c65-6d65-4747-9279-2d656d756c61,rev?*%
%TF.SameCoordinates,Original*%
%TF.FileFunction,Soldermask,Top*%
%TF.FilePolarity,Negative*%
%FSLAX46Y46*%
G04 Gerber Fmt 4.6, Leading zero omitted, Abs format (unit mm)*
G04 Created by KiCad (PCBNEW (6.0.7-1)-1) date 2022-09-19 18:34:45*
%MOMM*%
%LPD*%
G01*
G04 APERTURE LIST*
G04 Aperture macros list*
%AMRoundRect*
0 Rectangle with rounded corners*
0 $1 Rounding radius*
0 $2 $3 $4 $5 $6 $7 $8 $9 X,Y pos of 4 corners*
0 Add a 4 corners polygon primitive as box body*
4,1,4,$2,$3,$4,$5,$6,$7,$8,$9,$2,$3,0*
0 Add four circle primitives for the rounded corners*
1,1,$1+$1,$2,$3*
1,1,$1+$1,$4,$5*
1,1,$1+$1,$6,$7*
1,1,$1+$1,$8,$9*
0 Add four rect primitives between the rounded corners*
20,1,$1+$1,$2,$3,$4,$5,0*
20,1,$1+$1,$4,$5,$6,$7,0*
20,1,$1+$1,$6,$7,$8,$9,0*
20,1,$1+$1,$8,$9,$2,$3,0*%
G04 Aperture macros list end*
%ADD10RoundRect,0.250000X-0.250000X-0.475000X0.250000X-0.475000X0.250000X0.475000X-0.250000X0.475000X0*%
%ADD11RoundRect,0.250000X-0.262500X-0.450000X0.262500X-0.450000X0.262500X0.450000X-0.262500X0.450000X0*%
%ADD12C,3.200000*%
%ADD13RoundRect,0.250000X0.650000X-0.325000X0.650000X0.325000X-0.650000X0.325000X-0.650000X-0.325000X0*%
%ADD14RoundRect,0.150000X0.150000X-0.825000X0.150000X0.825000X-0.150000X0.825000X-0.150000X-0.825000X0*%
%ADD15RoundRect,0.250000X0.625000X-0.375000X0.625000X0.375000X-0.625000X0.375000X-0.625000X-0.375000X0*%
%ADD16RoundRect,0.070000X0.650000X0.300000X-0.650000X0.300000X-0.650000X-0.300000X0.650000X-0.300000X0*%
%ADD17RoundRect,0.250000X0.475000X-0.250000X0.475000X0.250000X-0.475000X0.250000X-0.475000X-0.250000X0*%
%ADD18RoundRect,0.250000X-0.450000X0.262500X-0.450000X-0.262500X0.450000X-0.262500X0.450000X0.262500X0*%
%ADD19RoundRect,0.243750X-0.243750X-0.456250X0.243750X-0.456250X0.243750X0.456250X-0.243750X0.456250X0*%
%ADD20C,2.000000*%
%ADD21R,4.500000X2.000000*%
%ADD22R,1.700000X1.700000*%
%ADD23O,1.700000X1.700000*%
%ADD24RoundRect,0.250000X0.250000X0.475000X-0.250000X0.475000X-0.250000X-0.475000X0.250000X-0.475000X0*%
%ADD25RoundRect,0.250000X0.262500X0.450000X-0.262500X0.450000X-0.262500X-0.450000X0.262500X-0.450000X0*%
%ADD26RoundRect,0.150000X-0.825000X-0.150000X0.825000X-0.150000X0.825000X0.150000X-0.825000X0.150000X0*%
%ADD27RoundRect,0.250000X-0.475000X0.250000X-0.475000X-0.250000X0.475000X-0.250000X0.475000X0.250000X0*%
%ADD28C,3.400000*%
%ADD29R,1.690000X1.690000*%
%ADD30C,1.690000*%
%ADD31RoundRect,0.150000X-0.150000X0.875000X-0.150000X-0.875000X0.150000X-0.875000X0.150000X0.875000X0*%
%ADD32C,3.454400*%
%ADD33C,1.676400*%
%ADD34RoundRect,0.250000X0.450000X-0.262500X0.450000X0.262500X-0.450000X0.262500X-0.450000X-0.262500X0*%
%ADD35R,1.600000X0.550000*%
%ADD36R,0.550000X1.600000*%
%ADD37R,1.380000X0.450000*%
%ADD38R,1.300000X1.650000*%
%ADD39R,1.900000X1.000000*%
%ADD40R,1.900000X1.800000*%
%ADD41R,1.550000X1.425000*%
%ADD42RoundRect,0.243750X0.243750X0.456250X-0.243750X0.456250X-0.243750X-0.456250X0.243750X-0.456250X0*%
%ADD43R,0.600000X0.450000*%
%ADD44RoundRect,0.250000X-0.325000X-0.650000X0.325000X-0.650000X0.325000X0.650000X-0.325000X0.650000X0*%
%ADD45R,2.000000X4.500000*%
G04 APERTURE END LIST*
D10*
%TO.C,C6*%
X156530000Y-92642000D03*
X158430000Y-92642000D03*
%TD*%
D11*
%TO.C,R2*%
X96087500Y-97300000D03*
X97912500Y-97300000D03*
%TD*%
%TO.C,R1*%
X96087500Y-90106000D03*
X97912500Y-90106000D03*
%TD*%
D12*
%TO.C,H3*%
X179500000Y-104000000D03*
%TD*%
D13*
%TO.C,C3*%
X94400000Y-74675000D03*
X94400000Y-71725000D03*
%TD*%
D14*
%TO.C,U1*%
X108155000Y-96975000D03*
X109425000Y-96975000D03*
X110695000Y-96975000D03*
X111965000Y-96975000D03*
X113235000Y-96975000D03*
X114505000Y-96975000D03*
X115775000Y-96975000D03*
X117045000Y-96975000D03*
X117045000Y-92025000D03*
X115775000Y-92025000D03*
X114505000Y-92025000D03*
X113235000Y-92025000D03*
X111965000Y-92025000D03*
X110695000Y-92025000D03*
X109425000Y-92025000D03*
X108155000Y-92025000D03*
%TD*%
D10*
%TO.C,C5*%
X156750000Y-99200000D03*
X158650000Y-99200000D03*
%TD*%
D15*
%TO.C,F1*%
X91800000Y-79200000D03*
X91800000Y-76400000D03*
%TD*%
D16*
%TO.C,Q1*%
X164282500Y-80897000D03*
X164282500Y-78997000D03*
X162182500Y-79947000D03*
%TD*%
D17*
%TO.C,C10*%
X104648000Y-64196000D03*
X104648000Y-62296000D03*
%TD*%
D18*
%TO.C,R12*%
X167732500Y-84534500D03*
X167732500Y-86359500D03*
%TD*%
D19*
%TO.C,D4*%
X100362500Y-100900000D03*
X102237500Y-100900000D03*
%TD*%
D20*
%TO.C,S1*%
X138990000Y-78522000D03*
X145490000Y-78522000D03*
X138990000Y-83022000D03*
X145490000Y-83022000D03*
%TD*%
D21*
%TO.C,Y2*%
X103700000Y-68834000D03*
X112200000Y-68834000D03*
%TD*%
D10*
%TO.C,C8*%
X111950000Y-88900000D03*
X113850000Y-88900000D03*
%TD*%
D22*
%TO.C,H1*%
X130810000Y-78232000D03*
D23*
X133350000Y-78232000D03*
X130810000Y-80772000D03*
X133350000Y-80772000D03*
X130810000Y-83312000D03*
X133350000Y-83312000D03*
%TD*%
D24*
%TO.C,C1*%
X131550000Y-91900000D03*
X129650000Y-91900000D03*
%TD*%
D25*
%TO.C,R6*%
X120412500Y-97600000D03*
X118587500Y-97600000D03*
%TD*%
D12*
%TO.C,H4*%
X90500000Y-104000000D03*
%TD*%
D24*
%TO.C,C4*%
X113850000Y-99700000D03*
X111950000Y-99700000D03*
%TD*%
D26*
%TO.C,IC3*%
X119445000Y-66929000D03*
X119445000Y-68199000D03*
X119445000Y-69469000D03*
X119445000Y-70739000D03*
X124395000Y-70739000D03*
X124395000Y-69469000D03*
X124395000Y-68199000D03*
X124395000Y-66929000D03*
%TD*%
D27*
%TO.C,C2*%
X91800000Y-72750000D03*
X91800000Y-74650000D03*
%TD*%
D17*
%TO.C,C9*%
X110998000Y-64196000D03*
X110998000Y-62296000D03*
%TD*%
D28*
%TO.C,J7*%
X138190000Y-64455000D03*
X145810000Y-64455000D03*
D29*
X139460000Y-73095000D03*
D30*
X142000000Y-73095000D03*
X144540000Y-73095000D03*
%TD*%
D17*
%TO.C,C7*%
X108100000Y-89650000D03*
X108100000Y-87750000D03*
%TD*%
D31*
%TO.C,IC2*%
X113792000Y-73836000D03*
X112522000Y-73836000D03*
X111252000Y-73836000D03*
X109982000Y-73836000D03*
X108712000Y-73836000D03*
X107442000Y-73836000D03*
X106172000Y-73836000D03*
X104902000Y-73836000D03*
X103632000Y-73836000D03*
X103632000Y-83136000D03*
X104902000Y-83136000D03*
X106172000Y-83136000D03*
X107442000Y-83136000D03*
X108712000Y-83136000D03*
X109982000Y-83136000D03*
X111252000Y-83136000D03*
X112522000Y-83136000D03*
X113792000Y-83136000D03*
%TD*%
D12*
%TO.C,H2*%
X179500000Y-65500000D03*
%TD*%
D24*
%TO.C,C13*%
X117450000Y-69500000D03*
X115550000Y-69500000D03*
%TD*%
D12*
%TO.C,H5*%
X90500000Y-65500000D03*
%TD*%
D28*
%TO.C,J8*%
X163310000Y-64555000D03*
X155690000Y-64555000D03*
D29*
X156960000Y-73195000D03*
D30*
X159500000Y-73195000D03*
X162040000Y-73195000D03*
%TD*%
D10*
%TO.C,C11*%
X115550000Y-80800000D03*
X117450000Y-80800000D03*
%TD*%
D11*
%TO.C,R4*%
X96187500Y-100900000D03*
X98012500Y-100900000D03*
%TD*%
D18*
%TO.C,R10*%
X124714000Y-62333500D03*
X124714000Y-64158500D03*
%TD*%
D32*
%TO.C,J6*%
X179928501Y-87139500D03*
X179928501Y-76979500D03*
D33*
X171288500Y-78249500D03*
X171288500Y-80789500D03*
X171288500Y-83329500D03*
X171288500Y-85869500D03*
%TD*%
D11*
%TO.C,R13*%
X126487500Y-71600000D03*
X128312500Y-71600000D03*
%TD*%
%TO.C,R5*%
X118587500Y-95600000D03*
X120412500Y-95600000D03*
%TD*%
D34*
%TO.C,R7*%
X100500000Y-79412500D03*
X100500000Y-77587500D03*
%TD*%
D18*
%TO.C,R8*%
X158732500Y-78947000D03*
X158732500Y-80772000D03*
%TD*%
D16*
%TO.C,Q2*%
X164282500Y-86397000D03*
X164282500Y-84497000D03*
X162182500Y-85447000D03*
%TD*%
D35*
%TO.C,IC1*%
X142934000Y-96780000D03*
X142934000Y-95980000D03*
X142934000Y-95180000D03*
X142934000Y-94380000D03*
X142934000Y-93580000D03*
X142934000Y-92780000D03*
X142934000Y-91980000D03*
X142934000Y-91180000D03*
D36*
X141484000Y-89730000D03*
X140684000Y-89730000D03*
X139884000Y-89730000D03*
X139084000Y-89730000D03*
X138284000Y-89730000D03*
X137484000Y-89730000D03*
X136684000Y-89730000D03*
X135884000Y-89730000D03*
D35*
X134434000Y-91180000D03*
X134434000Y-91980000D03*
X134434000Y-92780000D03*
X134434000Y-93580000D03*
X134434000Y-94380000D03*
X134434000Y-95180000D03*
X134434000Y-95980000D03*
X134434000Y-96780000D03*
D36*
X135884000Y-98230000D03*
X136684000Y-98230000D03*
X137484000Y-98230000D03*
X138284000Y-98230000D03*
X139084000Y-98230000D03*
X139884000Y-98230000D03*
X140684000Y-98230000D03*
X141484000Y-98230000D03*
%TD*%
D37*
%TO.C,J1*%
X89560000Y-83700000D03*
X89560000Y-84350000D03*
X89560000Y-85000000D03*
X89560000Y-85650000D03*
X89560000Y-86300000D03*
D38*
X86900000Y-81625000D03*
X86900000Y-88375000D03*
D39*
X86900000Y-86550000D03*
D40*
X86900000Y-83850000D03*
D41*
X89475000Y-82512500D03*
X89475000Y-87487500D03*
%TD*%
D42*
%TO.C,D1*%
X101737500Y-90106000D03*
X99862500Y-90106000D03*
%TD*%
D18*
%TO.C,R11*%
X167732500Y-78947000D03*
X167732500Y-80772000D03*
%TD*%
D22*
%TO.C,J5*%
X174900000Y-93900000D03*
D23*
X174900000Y-96440000D03*
%TD*%
D22*
%TO.C,J4*%
X122975000Y-76300000D03*
D23*
X120435000Y-76300000D03*
%TD*%
D43*
%TO.C,D5*%
X169350000Y-71400000D03*
X171450000Y-71400000D03*
%TD*%
D42*
%TO.C,D3*%
X101937500Y-93700000D03*
X100062500Y-93700000D03*
%TD*%
D19*
%TO.C,D2*%
X100362500Y-97300000D03*
X102237500Y-97300000D03*
%TD*%
D44*
%TO.C,C12*%
X115625000Y-83100000D03*
X118575000Y-83100000D03*
%TD*%
D11*
%TO.C,R3*%
X96087500Y-93706000D03*
X97912500Y-93706000D03*
%TD*%
D45*
%TO.C,Y1*%
X151892000Y-91694000D03*
X151892000Y-100194000D03*
%TD*%
D22*
%TO.C,J2*%
X168425000Y-96575000D03*
D23*
X168425000Y-94035000D03*
X170965000Y-96575000D03*
X170965000Y-94035000D03*
%TD*%
D18*
%TO.C,R9*%
X158732500Y-84447000D03*
X158732500Y-86272000D03*
%TD*%
D22*
%TO.C,J3*%
X112400000Y-106000000D03*
D23*
X112400000Y-103460000D03*
X114940000Y-106000000D03*
X114940000Y-103460000D03*
X117480000Y-106000000D03*
X117480000Y-103460000D03*
X120020000Y-106000000D03*
X120020000Y-103460000D03*
X122560000Y-106000000D03*
X122560000Y-103460000D03*
X125100000Y-106000000D03*
X125100000Y-103460000D03*
X127640000Y-106000000D03*
X127640000Y-103460000D03*
X130180000Y-106000000D03*
X130180000Y-103460000D03*
X132720000Y-106000000D03*
X132720000Y-103460000D03*
X135260000Y-106000000D03*
X135260000Y-103460000D03*
X137800000Y-106000000D03*
X137800000Y-103460000D03*
X140340000Y-106000000D03*
X140340000Y-103460000D03*
X142880000Y-106000000D03*
X142880000Y-103460000D03*
%TD*%
M02*
