%TF.GenerationSoftware,KiCad,Pcbnew,(6.0.7-1)-1*%
%TF.CreationDate,2022-11-21T17:18:22-08:00*%
%TF.ProjectId,telemetry-emulator-pcb,74656c65-6d65-4747-9279-2d656d756c61,rev?*%
%TF.SameCoordinates,Original*%
%TF.FileFunction,Copper,L2,Bot*%
%TF.FilePolarity,Positive*%
%FSLAX46Y46*%
G04 Gerber Fmt 4.6, Leading zero omitted, Abs format (unit mm)*
G04 Created by KiCad (PCBNEW (6.0.7-1)-1) date 2022-11-21 17:18:22*
%MOMM*%
%LPD*%
G01*
G04 APERTURE LIST*
%TA.AperFunction,ComponentPad*%
%ADD10C,2.000000*%
%TD*%
%TA.AperFunction,ComponentPad*%
%ADD11R,1.700000X1.700000*%
%TD*%
%TA.AperFunction,ComponentPad*%
%ADD12O,1.700000X1.700000*%
%TD*%
%TA.AperFunction,ComponentPad*%
%ADD13R,1.690000X1.690000*%
%TD*%
%TA.AperFunction,ComponentPad*%
%ADD14C,1.690000*%
%TD*%
%TA.AperFunction,ComponentPad*%
%ADD15C,1.676400*%
%TD*%
%TA.AperFunction,ViaPad*%
%ADD16C,0.800000*%
%TD*%
%TA.AperFunction,Conductor*%
%ADD17C,0.250000*%
%TD*%
G04 APERTURE END LIST*
D10*
X138990000Y-78522000D03*
X145490000Y-78522000D03*
X138990000Y-83022000D03*
X145490000Y-83022000D03*
D11*
X130810000Y-78232000D03*
D12*
X133350000Y-78232000D03*
X130810000Y-80772000D03*
X133350000Y-80772000D03*
X130810000Y-83312000D03*
X133350000Y-83312000D03*
D13*
X139460000Y-73095000D03*
D14*
X142000000Y-73095000D03*
X144540000Y-73095000D03*
D13*
X156960000Y-73195000D03*
D14*
X159500000Y-73195000D03*
X162040000Y-73195000D03*
D15*
X171288500Y-78249500D03*
X171288500Y-80789500D03*
X171288500Y-83329500D03*
X171288500Y-85869500D03*
D11*
X174900000Y-93900000D03*
D12*
X174900000Y-96440000D03*
D11*
X122975000Y-76300000D03*
D12*
X120435000Y-76300000D03*
D11*
X168425000Y-96575000D03*
D12*
X168425000Y-94035000D03*
X170965000Y-96575000D03*
X170965000Y-94035000D03*
D11*
X112400000Y-106000000D03*
D12*
X112400000Y-103460000D03*
X114940000Y-106000000D03*
X114940000Y-103460000D03*
X117480000Y-106000000D03*
X117480000Y-103460000D03*
X120020000Y-106000000D03*
X120020000Y-103460000D03*
X122560000Y-106000000D03*
X122560000Y-103460000D03*
X125100000Y-106000000D03*
X125100000Y-103460000D03*
X127640000Y-106000000D03*
X127640000Y-103460000D03*
X130180000Y-106000000D03*
X130180000Y-103460000D03*
X132720000Y-106000000D03*
X132720000Y-103460000D03*
X135260000Y-106000000D03*
X135260000Y-103460000D03*
X137800000Y-106000000D03*
X137800000Y-103460000D03*
X140340000Y-106000000D03*
X140340000Y-103460000D03*
X142880000Y-106000000D03*
X142880000Y-103460000D03*
D16*
X131600000Y-98700000D03*
X106158698Y-87634100D03*
X139200000Y-70300000D03*
X106300000Y-96500000D03*
X101900000Y-72900000D03*
X115000000Y-65000000D03*
X119000000Y-80800000D03*
X141100000Y-93900000D03*
X122800000Y-68000000D03*
X126200000Y-90000000D03*
X109220000Y-62300000D03*
X127000000Y-62400000D03*
X160300000Y-99200000D03*
X156100000Y-70400000D03*
X94400000Y-99100000D03*
X115800000Y-99300000D03*
X91800000Y-70900000D03*
X87600000Y-91200000D03*
X102500000Y-62300000D03*
X160500000Y-92700000D03*
X148900000Y-108300000D03*
X134370000Y-89730000D03*
X132862652Y-90737348D03*
X108600000Y-77900000D03*
X136000000Y-91300000D03*
X137400000Y-95104500D03*
X115800000Y-88900000D03*
X144200000Y-98100000D03*
X144400000Y-96000000D03*
X141400000Y-91200000D03*
X140600000Y-91900000D03*
X139800000Y-91200000D03*
X123075500Y-100000000D03*
X138200000Y-93000000D03*
X103800000Y-102400000D03*
X137200000Y-92400000D03*
X102300000Y-99000000D03*
X112421924Y-84825500D03*
X122800000Y-88100000D03*
X129300000Y-94700000D03*
X106200000Y-85300000D03*
X121400000Y-88175500D03*
X136999503Y-91300000D03*
X128100000Y-96200000D03*
X141700000Y-101100000D03*
X139700000Y-96300000D03*
X156900000Y-80800000D03*
X142500000Y-98300000D03*
X121700000Y-67000000D03*
X115500000Y-74000000D03*
X114400000Y-95200000D03*
X92200000Y-83300000D03*
X113187701Y-95212299D03*
X92200000Y-84600000D03*
X108000000Y-98800000D03*
X115800000Y-95200000D03*
X109223375Y-98823375D03*
X117200000Y-98800000D03*
X168700000Y-87800000D03*
X167730500Y-82000000D03*
X167700000Y-77835000D03*
X111300000Y-81200000D03*
X100500000Y-81100000D03*
X128100000Y-97600000D03*
X140700000Y-96700000D03*
D17*
X135400000Y-101800000D02*
X136140000Y-101800000D01*
X136140000Y-101800000D02*
X137800000Y-103460000D01*
X132300000Y-98700000D02*
X135400000Y-101800000D01*
X131600000Y-98700000D02*
X132300000Y-98700000D01*
X134370000Y-89730000D02*
X129942792Y-89730000D01*
X129942792Y-89730000D02*
X119040000Y-100632792D01*
X119040000Y-100632792D02*
X119040000Y-101900000D01*
X119040000Y-101900000D02*
X117480000Y-103460000D01*
X129571840Y-90737348D02*
X132862652Y-90737348D01*
X120020000Y-100289188D02*
X129571840Y-90737348D01*
X120020000Y-103460000D02*
X120020000Y-100289188D01*
X131985000Y-79407000D02*
X133350000Y-80772000D01*
X115540000Y-103460000D02*
X114940000Y-103460000D01*
X128828000Y-78600000D02*
X129635000Y-79407000D01*
X135500000Y-90800000D02*
X135500000Y-89500000D01*
X135500000Y-89500000D02*
X135000000Y-89000000D01*
X129635000Y-79407000D02*
X131985000Y-79407000D01*
X135000000Y-89000000D02*
X130036396Y-89000000D01*
X108600000Y-77900000D02*
X109300000Y-78600000D01*
X130036396Y-89000000D02*
X115576396Y-103460000D01*
X115576396Y-103460000D02*
X114940000Y-103460000D01*
X136000000Y-91300000D02*
X135500000Y-90800000D01*
X109300000Y-78600000D02*
X128828000Y-78600000D01*
X136512000Y-85500000D02*
X138990000Y-83022000D01*
X127400000Y-88900000D02*
X130810000Y-85490000D01*
X115800000Y-88900000D02*
X127400000Y-88900000D01*
X138990000Y-93514500D02*
X138990000Y-83022000D01*
X137400000Y-95104500D02*
X138990000Y-93514500D01*
X130810000Y-85490000D02*
X130810000Y-83312000D01*
X132998000Y-85500000D02*
X130810000Y-83312000D01*
X136512000Y-85500000D02*
X132998000Y-85500000D01*
X145800000Y-99654502D02*
X145800000Y-106027208D01*
X144200000Y-98100000D02*
X144245498Y-98100000D01*
X144245498Y-98100000D02*
X145800000Y-99654502D01*
X145800000Y-106027208D02*
X144527208Y-107300000D01*
X131480000Y-107300000D02*
X130180000Y-106000000D01*
X144527208Y-107300000D02*
X131480000Y-107300000D01*
X144713604Y-107750000D02*
X129390000Y-107750000D01*
X146250000Y-97850000D02*
X146250000Y-106213604D01*
X146250000Y-106213604D02*
X144713604Y-107750000D01*
X129390000Y-107750000D02*
X127640000Y-106000000D01*
X144400000Y-96000000D02*
X146250000Y-97850000D01*
X127300000Y-108200000D02*
X125100000Y-106000000D01*
X146700000Y-106400000D02*
X144900000Y-108200000D01*
X146700000Y-96000000D02*
X146700000Y-106400000D01*
X144900000Y-108200000D02*
X127300000Y-108200000D01*
X141400000Y-91200000D02*
X141900000Y-91200000D01*
X141900000Y-91200000D02*
X146700000Y-96000000D01*
X147150000Y-106586396D02*
X145086396Y-108650000D01*
X140600000Y-91900000D02*
X140600000Y-90800000D01*
X147150000Y-95550000D02*
X147150000Y-106586396D01*
X125210000Y-108650000D02*
X122560000Y-106000000D01*
X145086396Y-108650000D02*
X125210000Y-108650000D01*
X141200000Y-90200000D02*
X141800000Y-90200000D01*
X140600000Y-90800000D02*
X141200000Y-90200000D01*
X141800000Y-90200000D02*
X147150000Y-95550000D01*
X145272792Y-109100000D02*
X123120000Y-109100000D01*
X123120000Y-109100000D02*
X120020000Y-106000000D01*
X140800000Y-89700000D02*
X142000000Y-89700000D01*
X147600000Y-106772792D02*
X145272792Y-109100000D01*
X139800000Y-91200000D02*
X139800000Y-90700000D01*
X147600000Y-95300000D02*
X147600000Y-106772792D01*
X139800000Y-90700000D02*
X140800000Y-89700000D01*
X142000000Y-89700000D02*
X147600000Y-95300000D01*
X103800000Y-102400000D02*
X108575000Y-107175000D01*
X129438604Y-93125000D02*
X138075000Y-93125000D01*
X116305000Y-107175000D02*
X117480000Y-106000000D01*
X138075000Y-93125000D02*
X138200000Y-93000000D01*
X123075500Y-99488104D02*
X129438604Y-93125000D01*
X108575000Y-107175000D02*
X116305000Y-107175000D01*
X123075500Y-100000000D02*
X123075500Y-99488104D01*
X137200000Y-92400000D02*
X136925000Y-92675000D01*
X136925000Y-92675000D02*
X129252208Y-92675000D01*
X109825000Y-104825000D02*
X113765000Y-104825000D01*
X102300000Y-99000000D02*
X104000000Y-99000000D01*
X121300000Y-104100000D02*
X120700000Y-104700000D01*
X104000000Y-99000000D02*
X109825000Y-104825000D01*
X113765000Y-104825000D02*
X114940000Y-106000000D01*
X116240000Y-104700000D02*
X114940000Y-106000000D01*
X120700000Y-104700000D02*
X116240000Y-104700000D01*
X129252208Y-92675000D02*
X121300000Y-100627208D01*
X121300000Y-100627208D02*
X121300000Y-104100000D01*
X123800000Y-99400000D02*
X123800000Y-102220000D01*
X122800000Y-88100000D02*
X120300000Y-85600000D01*
X112897424Y-84825500D02*
X112421924Y-84825500D01*
X127800000Y-95400000D02*
X123800000Y-99400000D01*
X129300000Y-94700000D02*
X128600000Y-95400000D01*
X120300000Y-85600000D02*
X113671924Y-85600000D01*
X123800000Y-102220000D02*
X122560000Y-103460000D01*
X128600000Y-95400000D02*
X127800000Y-95400000D01*
X113671924Y-85600000D02*
X112897424Y-84825500D01*
X108300000Y-85300000D02*
X106200000Y-85300000D01*
X121400000Y-88100000D02*
X119400000Y-86100000D01*
X109100000Y-86100000D02*
X108300000Y-85300000D01*
X119400000Y-86100000D02*
X109100000Y-86100000D01*
X121400000Y-88175500D02*
X121400000Y-88100000D01*
X136999503Y-91300000D02*
X136999503Y-90199503D01*
X117500000Y-100900000D02*
X114960000Y-100900000D01*
X135350000Y-88550000D02*
X129850000Y-88550000D01*
X129850000Y-88550000D02*
X117500000Y-100900000D01*
X136999503Y-90199503D02*
X135350000Y-88550000D01*
X114960000Y-100900000D02*
X112400000Y-103460000D01*
X141700000Y-102100000D02*
X140340000Y-103460000D01*
X141700000Y-101100000D02*
X141700000Y-102100000D01*
X139600000Y-96200000D02*
X139700000Y-96300000D01*
X128100000Y-96200000D02*
X139600000Y-96200000D01*
X157730000Y-80800000D02*
X170965000Y-94035000D01*
X156900000Y-80800000D02*
X157730000Y-80800000D01*
X144100000Y-99600000D02*
X144100000Y-104000000D01*
X143300000Y-104800000D02*
X133920000Y-104800000D01*
X142800000Y-98300000D02*
X144100000Y-99600000D01*
X133920000Y-104800000D02*
X132720000Y-106000000D01*
X142500000Y-98300000D02*
X142800000Y-98300000D01*
X144100000Y-104000000D02*
X143300000Y-104800000D01*
X115500000Y-74000000D02*
X119300000Y-74000000D01*
X121100000Y-72200000D02*
X121100000Y-67600000D01*
X119300000Y-74000000D02*
X121100000Y-72200000D01*
X121100000Y-67600000D02*
X121700000Y-67000000D01*
X92200000Y-83300000D02*
X94300000Y-85400000D01*
X94300000Y-85400000D02*
X102900000Y-85400000D01*
X105800000Y-88300000D02*
X105800000Y-91800000D01*
X112500000Y-93300000D02*
X114400000Y-95200000D01*
X105800000Y-91800000D02*
X107300000Y-93300000D01*
X107300000Y-93300000D02*
X112500000Y-93300000D01*
X102900000Y-85400000D02*
X105800000Y-88300000D01*
X111725402Y-93750000D02*
X113187701Y-95212299D01*
X105331802Y-91968198D02*
X107113604Y-93750000D01*
X92200000Y-84600000D02*
X93600000Y-86000000D01*
X107113604Y-93750000D02*
X111725402Y-93750000D01*
X93600000Y-86000000D02*
X102863604Y-86000000D01*
X102863604Y-86000000D02*
X105331802Y-88468198D01*
X105331802Y-88468198D02*
X105331802Y-91968198D01*
X110576752Y-96200000D02*
X108000000Y-98776752D01*
X115800000Y-95200000D02*
X114800000Y-96200000D01*
X114800000Y-96200000D02*
X110576752Y-96200000D01*
X108000000Y-98776752D02*
X108000000Y-98800000D01*
X110746750Y-97300000D02*
X109223375Y-98823375D01*
X117200000Y-98800000D02*
X115700000Y-97300000D01*
X115700000Y-97300000D02*
X110746750Y-97300000D01*
X169235000Y-76300000D02*
X174200000Y-76300000D01*
X174200000Y-76300000D02*
X174900000Y-77000000D01*
X167730500Y-82000000D02*
X167730500Y-77865500D01*
X174900000Y-77000000D02*
X174900000Y-93900000D01*
X167730500Y-82000000D02*
X167730500Y-86830500D01*
X167730500Y-86830500D02*
X168700000Y-87800000D01*
X167700000Y-77835000D02*
X169235000Y-76300000D01*
X167730500Y-77865500D02*
X167700000Y-77835000D01*
X100500000Y-81100000D02*
X100600000Y-81200000D01*
X100600000Y-81200000D02*
X111300000Y-81200000D01*
X140700000Y-96700000D02*
X140200000Y-97200000D01*
X128500000Y-97200000D02*
X128100000Y-97600000D01*
X140200000Y-97200000D02*
X128500000Y-97200000D01*
%TA.AperFunction,Conductor*%
G36*
X179970018Y-60510000D02*
G01*
X179984851Y-60512310D01*
X179984855Y-60512310D01*
X179993724Y-60513691D01*
X180014183Y-60511016D01*
X180036007Y-60510072D01*
X180385965Y-60525352D01*
X180396913Y-60526310D01*
X180774498Y-60576019D01*
X180785307Y-60577926D01*
X181157114Y-60660353D01*
X181167731Y-60663198D01*
X181530939Y-60777718D01*
X181541254Y-60781471D01*
X181893123Y-60927220D01*
X181903067Y-60931858D01*
X182240867Y-61107705D01*
X182250387Y-61113201D01*
X182571574Y-61317820D01*
X182580578Y-61324124D01*
X182882716Y-61555962D01*
X182891137Y-61563028D01*
X183171914Y-61820314D01*
X183179686Y-61828086D01*
X183436972Y-62108863D01*
X183444038Y-62117284D01*
X183675876Y-62419422D01*
X183682180Y-62428426D01*
X183728189Y-62500646D01*
X183862062Y-62710783D01*
X183886799Y-62749613D01*
X183892294Y-62759132D01*
X184046855Y-63056039D01*
X184068138Y-63096924D01*
X184072780Y-63106877D01*
X184198025Y-63409245D01*
X184218526Y-63458739D01*
X184222282Y-63469061D01*
X184292035Y-63690285D01*
X184336802Y-63832268D01*
X184339647Y-63842885D01*
X184421576Y-64212442D01*
X184422073Y-64214685D01*
X184423981Y-64225502D01*
X184464968Y-64536837D01*
X184473690Y-64603086D01*
X184474648Y-64614035D01*
X184482308Y-64789463D01*
X184489603Y-64956552D01*
X184488223Y-64981429D01*
X184486309Y-64993724D01*
X184487473Y-65002626D01*
X184487473Y-65002628D01*
X184490436Y-65025283D01*
X184491500Y-65041621D01*
X184491500Y-104950633D01*
X184490000Y-104970018D01*
X184487690Y-104984851D01*
X184487690Y-104984855D01*
X184486309Y-104993724D01*
X184488984Y-105014183D01*
X184489928Y-105036007D01*
X184476939Y-105333500D01*
X184474648Y-105385964D01*
X184473690Y-105396913D01*
X184424265Y-105772342D01*
X184423982Y-105774490D01*
X184422074Y-105785307D01*
X184414459Y-105819658D01*
X184339647Y-106157114D01*
X184336802Y-106167731D01*
X184225260Y-106521498D01*
X184222285Y-106530932D01*
X184218529Y-106541254D01*
X184075260Y-106887137D01*
X184072784Y-106893114D01*
X184068142Y-106903067D01*
X183906430Y-107213713D01*
X183892295Y-107240867D01*
X183886799Y-107250387D01*
X183682180Y-107571574D01*
X183675876Y-107580578D01*
X183444038Y-107882716D01*
X183436972Y-107891137D01*
X183179686Y-108171914D01*
X183171914Y-108179686D01*
X182891137Y-108436972D01*
X182882716Y-108444038D01*
X182580578Y-108675876D01*
X182571574Y-108682180D01*
X182250387Y-108886799D01*
X182240868Y-108892294D01*
X181903067Y-109068142D01*
X181893123Y-109072780D01*
X181541254Y-109218529D01*
X181530939Y-109222282D01*
X181338407Y-109282988D01*
X181167732Y-109336802D01*
X181157115Y-109339647D01*
X180785307Y-109422074D01*
X180774498Y-109423981D01*
X180413564Y-109471498D01*
X180396914Y-109473690D01*
X180385965Y-109474648D01*
X180043446Y-109489603D01*
X180018571Y-109488223D01*
X180006276Y-109486309D01*
X179997374Y-109487473D01*
X179997372Y-109487473D01*
X179982323Y-109489441D01*
X179974714Y-109490436D01*
X179958379Y-109491500D01*
X146081386Y-109491500D01*
X146013265Y-109471498D01*
X145966772Y-109417842D01*
X145956668Y-109347568D01*
X145986162Y-109282988D01*
X145992291Y-109276405D01*
X146954980Y-108313717D01*
X147992253Y-107276444D01*
X148000539Y-107268904D01*
X148007018Y-107264792D01*
X148024900Y-107245750D01*
X148053643Y-107215141D01*
X148056398Y-107212299D01*
X148076135Y-107192562D01*
X148078615Y-107189365D01*
X148086320Y-107180343D01*
X148111159Y-107153892D01*
X148116586Y-107148113D01*
X148120405Y-107141167D01*
X148120407Y-107141164D01*
X148126348Y-107130358D01*
X148137199Y-107113839D01*
X148144758Y-107104093D01*
X148149614Y-107097833D01*
X148152759Y-107090564D01*
X148152762Y-107090560D01*
X148167174Y-107057255D01*
X148172391Y-107046605D01*
X148193695Y-107007852D01*
X148198733Y-106988229D01*
X148205137Y-106969526D01*
X148210033Y-106958212D01*
X148210033Y-106958211D01*
X148213181Y-106950937D01*
X148214420Y-106943114D01*
X148214423Y-106943104D01*
X148220099Y-106907268D01*
X148222505Y-106895648D01*
X148231528Y-106860503D01*
X148231528Y-106860502D01*
X148233500Y-106852822D01*
X148233500Y-106832568D01*
X148235051Y-106812857D01*
X148235664Y-106808990D01*
X148238220Y-106792849D01*
X148234059Y-106748830D01*
X148233500Y-106736973D01*
X148233500Y-104132703D01*
X177390743Y-104132703D01*
X177391302Y-104136947D01*
X177391302Y-104136951D01*
X177405132Y-104242001D01*
X177428268Y-104417734D01*
X177504129Y-104695036D01*
X177505813Y-104698984D01*
X177614807Y-104954514D01*
X177616923Y-104959476D01*
X177653628Y-105020805D01*
X177739602Y-105164457D01*
X177764561Y-105206161D01*
X177944313Y-105430528D01*
X177994867Y-105478502D01*
X178120414Y-105597641D01*
X178152851Y-105628423D01*
X178386317Y-105796186D01*
X178390112Y-105798195D01*
X178390113Y-105798196D01*
X178411869Y-105809715D01*
X178640392Y-105930712D01*
X178910373Y-106029511D01*
X179191264Y-106090755D01*
X179219841Y-106093004D01*
X179414282Y-106108307D01*
X179414291Y-106108307D01*
X179416739Y-106108500D01*
X179572271Y-106108500D01*
X179574407Y-106108354D01*
X179574418Y-106108354D01*
X179782548Y-106094165D01*
X179782554Y-106094164D01*
X179786825Y-106093873D01*
X179791020Y-106093004D01*
X179791022Y-106093004D01*
X179934747Y-106063240D01*
X180068342Y-106035574D01*
X180339343Y-105939607D01*
X180594812Y-105807750D01*
X180598313Y-105805289D01*
X180598317Y-105805287D01*
X180730178Y-105712613D01*
X180830023Y-105642441D01*
X180908403Y-105569606D01*
X181037479Y-105449661D01*
X181037481Y-105449658D01*
X181040622Y-105446740D01*
X181222713Y-105224268D01*
X181372927Y-104979142D01*
X181488483Y-104715898D01*
X181567244Y-104439406D01*
X181607751Y-104154784D01*
X181607845Y-104136951D01*
X181609235Y-103871583D01*
X181609235Y-103871576D01*
X181609257Y-103867297D01*
X181571732Y-103582266D01*
X181495871Y-103304964D01*
X181450924Y-103199588D01*
X181384763Y-103044476D01*
X181384761Y-103044472D01*
X181383077Y-103040524D01*
X181308527Y-102915960D01*
X181237643Y-102797521D01*
X181237640Y-102797517D01*
X181235439Y-102793839D01*
X181055687Y-102569472D01*
X180847149Y-102371577D01*
X180633322Y-102217926D01*
X180617172Y-102206321D01*
X180617171Y-102206320D01*
X180613683Y-102203814D01*
X180596221Y-102194568D01*
X180531078Y-102160077D01*
X180359608Y-102069288D01*
X180089627Y-101970489D01*
X179808736Y-101909245D01*
X179777685Y-101906801D01*
X179585718Y-101891693D01*
X179585709Y-101891693D01*
X179583261Y-101891500D01*
X179427729Y-101891500D01*
X179425593Y-101891646D01*
X179425582Y-101891646D01*
X179217452Y-101905835D01*
X179217446Y-101905836D01*
X179213175Y-101906127D01*
X179208980Y-101906996D01*
X179208978Y-101906996D01*
X179072416Y-101935277D01*
X178931658Y-101964426D01*
X178660657Y-102060393D01*
X178656848Y-102062359D01*
X178510180Y-102138060D01*
X178405188Y-102192250D01*
X178401687Y-102194711D01*
X178401683Y-102194713D01*
X178362068Y-102222555D01*
X178169977Y-102357559D01*
X178154892Y-102371577D01*
X178052345Y-102466870D01*
X177959378Y-102553260D01*
X177777287Y-102775732D01*
X177627073Y-103020858D01*
X177511517Y-103284102D01*
X177432756Y-103560594D01*
X177392249Y-103845216D01*
X177392227Y-103849505D01*
X177392226Y-103849512D01*
X177390765Y-104128417D01*
X177390743Y-104132703D01*
X148233500Y-104132703D01*
X148233500Y-95378767D01*
X148234027Y-95367584D01*
X148235702Y-95360091D01*
X148233562Y-95292000D01*
X148233500Y-95288043D01*
X148233500Y-95260144D01*
X148232996Y-95256153D01*
X148232063Y-95244311D01*
X148231834Y-95237006D01*
X148230674Y-95200111D01*
X148228462Y-95192497D01*
X148228461Y-95192492D01*
X148225023Y-95180659D01*
X148221012Y-95161295D01*
X148219467Y-95149064D01*
X148218474Y-95141203D01*
X148215557Y-95133836D01*
X148215556Y-95133831D01*
X148202198Y-95100092D01*
X148198354Y-95088865D01*
X148194352Y-95075090D01*
X148186018Y-95046407D01*
X148175707Y-95028972D01*
X148167012Y-95011224D01*
X148159552Y-94992383D01*
X148133564Y-94956613D01*
X148127048Y-94946693D01*
X148108580Y-94915465D01*
X148108578Y-94915462D01*
X148104542Y-94908638D01*
X148090221Y-94894317D01*
X148077380Y-94879283D01*
X148070131Y-94869306D01*
X148065472Y-94862893D01*
X148031395Y-94834702D01*
X148022616Y-94826712D01*
X142503652Y-89307747D01*
X142496112Y-89299461D01*
X142492000Y-89292982D01*
X142466034Y-89268598D01*
X142442349Y-89246357D01*
X142439507Y-89243602D01*
X142419770Y-89223865D01*
X142416573Y-89221385D01*
X142407551Y-89213680D01*
X142396446Y-89203252D01*
X142375321Y-89183414D01*
X142368375Y-89179595D01*
X142368372Y-89179593D01*
X142357566Y-89173652D01*
X142341047Y-89162801D01*
X142340583Y-89162441D01*
X142325041Y-89150386D01*
X142317772Y-89147241D01*
X142317768Y-89147238D01*
X142284463Y-89132826D01*
X142273813Y-89127609D01*
X142235060Y-89106305D01*
X142215437Y-89101267D01*
X142196734Y-89094863D01*
X142185420Y-89089967D01*
X142185419Y-89089967D01*
X142178145Y-89086819D01*
X142170322Y-89085580D01*
X142170312Y-89085577D01*
X142134476Y-89079901D01*
X142122856Y-89077495D01*
X142087711Y-89068472D01*
X142087710Y-89068472D01*
X142080030Y-89066500D01*
X142059776Y-89066500D01*
X142040065Y-89064949D01*
X142027886Y-89063020D01*
X142020057Y-89061780D01*
X141990786Y-89064547D01*
X141976039Y-89065941D01*
X141964181Y-89066500D01*
X140878768Y-89066500D01*
X140867585Y-89065973D01*
X140860092Y-89064298D01*
X140852166Y-89064547D01*
X140852165Y-89064547D01*
X140792002Y-89066438D01*
X140788044Y-89066500D01*
X140760144Y-89066500D01*
X140756154Y-89067004D01*
X140744320Y-89067936D01*
X140700111Y-89069326D01*
X140692495Y-89071539D01*
X140692493Y-89071539D01*
X140680652Y-89074979D01*
X140661293Y-89078988D01*
X140659983Y-89079154D01*
X140641203Y-89081526D01*
X140633837Y-89084442D01*
X140633831Y-89084444D01*
X140600098Y-89097800D01*
X140588868Y-89101645D01*
X140572828Y-89106305D01*
X140546407Y-89113981D01*
X140539584Y-89118016D01*
X140528966Y-89124295D01*
X140511213Y-89132992D01*
X140503568Y-89136019D01*
X140492383Y-89140448D01*
X140478705Y-89150386D01*
X140456612Y-89166437D01*
X140446695Y-89172951D01*
X140408638Y-89195458D01*
X140394317Y-89209779D01*
X140379284Y-89222619D01*
X140362893Y-89234528D01*
X140357843Y-89240632D01*
X140357838Y-89240637D01*
X140334707Y-89268598D01*
X140326717Y-89277379D01*
X139838595Y-89765500D01*
X139776283Y-89799525D01*
X139705467Y-89794460D01*
X139648632Y-89751913D01*
X139623821Y-89685393D01*
X139623500Y-89676404D01*
X139623500Y-84473566D01*
X139643502Y-84405445D01*
X139683665Y-84366133D01*
X139875202Y-84248759D01*
X139875208Y-84248755D01*
X139879416Y-84246176D01*
X140059969Y-84091969D01*
X140214176Y-83911416D01*
X140216755Y-83907208D01*
X140216759Y-83907202D01*
X140335654Y-83713183D01*
X140338240Y-83708963D01*
X140353735Y-83671556D01*
X140427211Y-83494167D01*
X140427212Y-83494165D01*
X140429105Y-83489594D01*
X140455755Y-83378590D01*
X140483380Y-83263524D01*
X140483381Y-83263518D01*
X140484535Y-83258711D01*
X140503165Y-83022000D01*
X143976835Y-83022000D01*
X143995465Y-83258711D01*
X143996619Y-83263518D01*
X143996620Y-83263524D01*
X144024245Y-83378590D01*
X144050895Y-83489594D01*
X144052788Y-83494165D01*
X144052789Y-83494167D01*
X144126266Y-83671556D01*
X144141760Y-83708963D01*
X144144346Y-83713183D01*
X144263241Y-83907202D01*
X144263245Y-83907208D01*
X144265824Y-83911416D01*
X144420031Y-84091969D01*
X144600584Y-84246176D01*
X144604792Y-84248755D01*
X144604798Y-84248759D01*
X144768603Y-84349139D01*
X144803037Y-84370240D01*
X144807607Y-84372133D01*
X144807611Y-84372135D01*
X145017833Y-84459211D01*
X145022406Y-84461105D01*
X145074310Y-84473566D01*
X145248476Y-84515380D01*
X145248482Y-84515381D01*
X145253289Y-84516535D01*
X145490000Y-84535165D01*
X145726711Y-84516535D01*
X145731518Y-84515381D01*
X145731524Y-84515380D01*
X145905690Y-84473566D01*
X145957594Y-84461105D01*
X145962167Y-84459211D01*
X146172389Y-84372135D01*
X146172393Y-84372133D01*
X146176963Y-84370240D01*
X146211397Y-84349139D01*
X146375202Y-84248759D01*
X146375208Y-84248755D01*
X146379416Y-84246176D01*
X146559969Y-84091969D01*
X146714176Y-83911416D01*
X146716755Y-83907208D01*
X146716759Y-83907202D01*
X146835654Y-83713183D01*
X146838240Y-83708963D01*
X146853735Y-83671556D01*
X146927211Y-83494167D01*
X146927212Y-83494165D01*
X146929105Y-83489594D01*
X146955755Y-83378590D01*
X146983380Y-83263524D01*
X146983381Y-83263518D01*
X146984535Y-83258711D01*
X147003165Y-83022000D01*
X146984535Y-82785289D01*
X146980571Y-82768774D01*
X146930260Y-82559218D01*
X146929105Y-82554406D01*
X146911856Y-82512763D01*
X146840135Y-82339611D01*
X146840133Y-82339607D01*
X146838240Y-82335037D01*
X146743369Y-82180222D01*
X146716759Y-82136798D01*
X146716755Y-82136792D01*
X146714176Y-82132584D01*
X146571993Y-81966109D01*
X146563177Y-81955787D01*
X146559969Y-81952031D01*
X146379416Y-81797824D01*
X146375208Y-81795245D01*
X146375202Y-81795241D01*
X146181183Y-81676346D01*
X146176963Y-81673760D01*
X146172393Y-81671867D01*
X146172389Y-81671865D01*
X145962167Y-81584789D01*
X145962165Y-81584788D01*
X145957594Y-81582895D01*
X145877391Y-81563640D01*
X145731524Y-81528620D01*
X145731518Y-81528619D01*
X145726711Y-81527465D01*
X145490000Y-81508835D01*
X145253289Y-81527465D01*
X145248482Y-81528619D01*
X145248476Y-81528620D01*
X145102609Y-81563640D01*
X145022406Y-81582895D01*
X145017835Y-81584788D01*
X145017833Y-81584789D01*
X144807611Y-81671865D01*
X144807607Y-81671867D01*
X144803037Y-81673760D01*
X144798817Y-81676346D01*
X144604798Y-81795241D01*
X144604792Y-81795245D01*
X144600584Y-81797824D01*
X144420031Y-81952031D01*
X144416823Y-81955787D01*
X144408007Y-81966109D01*
X144265824Y-82132584D01*
X144263245Y-82136792D01*
X144263241Y-82136798D01*
X144236631Y-82180222D01*
X144141760Y-82335037D01*
X144139867Y-82339607D01*
X144139865Y-82339611D01*
X144068144Y-82512763D01*
X144050895Y-82554406D01*
X144049740Y-82559218D01*
X143999430Y-82768774D01*
X143995465Y-82785289D01*
X143976835Y-83022000D01*
X140503165Y-83022000D01*
X140484535Y-82785289D01*
X140480571Y-82768774D01*
X140430260Y-82559218D01*
X140429105Y-82554406D01*
X140411856Y-82512763D01*
X140340135Y-82339611D01*
X140340133Y-82339607D01*
X140338240Y-82335037D01*
X140243369Y-82180222D01*
X140216759Y-82136798D01*
X140216755Y-82136792D01*
X140214176Y-82132584D01*
X140071993Y-81966109D01*
X140063177Y-81955787D01*
X140059969Y-81952031D01*
X139879416Y-81797824D01*
X139875208Y-81795245D01*
X139875202Y-81795241D01*
X139681183Y-81676346D01*
X139676963Y-81673760D01*
X139672393Y-81671867D01*
X139672389Y-81671865D01*
X139462167Y-81584789D01*
X139462165Y-81584788D01*
X139457594Y-81582895D01*
X139377391Y-81563640D01*
X139231524Y-81528620D01*
X139231518Y-81528619D01*
X139226711Y-81527465D01*
X138990000Y-81508835D01*
X138753289Y-81527465D01*
X138748482Y-81528619D01*
X138748476Y-81528620D01*
X138602609Y-81563640D01*
X138522406Y-81582895D01*
X138517835Y-81584788D01*
X138517833Y-81584789D01*
X138307611Y-81671865D01*
X138307607Y-81671867D01*
X138303037Y-81673760D01*
X138298817Y-81676346D01*
X138104798Y-81795241D01*
X138104792Y-81795245D01*
X138100584Y-81797824D01*
X137920031Y-81952031D01*
X137916823Y-81955787D01*
X137908007Y-81966109D01*
X137765824Y-82132584D01*
X137763245Y-82136792D01*
X137763241Y-82136798D01*
X137736631Y-82180222D01*
X137641760Y-82335037D01*
X137639867Y-82339607D01*
X137639865Y-82339611D01*
X137568144Y-82512763D01*
X137550895Y-82554406D01*
X137549740Y-82559218D01*
X137499430Y-82768774D01*
X137495465Y-82785289D01*
X137476835Y-83022000D01*
X137495465Y-83258711D01*
X137496619Y-83263518D01*
X137496620Y-83263524D01*
X137549060Y-83481950D01*
X137545513Y-83552858D01*
X137515636Y-83600459D01*
X136286500Y-84829595D01*
X136224188Y-84863621D01*
X136197405Y-84866500D01*
X133753059Y-84866500D01*
X133684938Y-84846498D01*
X133638445Y-84792842D01*
X133628341Y-84722568D01*
X133657835Y-84657988D01*
X133716851Y-84619814D01*
X133842255Y-84582191D01*
X133851842Y-84578433D01*
X134043095Y-84484739D01*
X134051945Y-84479464D01*
X134225328Y-84355792D01*
X134233200Y-84349139D01*
X134384052Y-84198812D01*
X134390730Y-84190965D01*
X134515003Y-84018020D01*
X134520313Y-84009183D01*
X134614670Y-83818267D01*
X134618469Y-83808672D01*
X134680377Y-83604910D01*
X134682555Y-83594837D01*
X134683986Y-83583962D01*
X134681775Y-83569778D01*
X134668617Y-83566000D01*
X133222000Y-83566000D01*
X133153879Y-83545998D01*
X133107386Y-83492342D01*
X133096000Y-83440000D01*
X133096000Y-83184000D01*
X133116002Y-83115879D01*
X133169658Y-83069386D01*
X133222000Y-83058000D01*
X134668344Y-83058000D01*
X134681875Y-83054027D01*
X134683180Y-83044947D01*
X134641214Y-82877875D01*
X134637894Y-82868124D01*
X134552972Y-82672814D01*
X134548105Y-82663739D01*
X134432426Y-82484926D01*
X134426136Y-82476757D01*
X134282806Y-82319240D01*
X134275273Y-82312215D01*
X134108139Y-82180222D01*
X134099556Y-82174520D01*
X134062602Y-82154120D01*
X134012631Y-82103687D01*
X133997859Y-82034245D01*
X134022975Y-81967839D01*
X134050327Y-81941232D01*
X134116820Y-81893803D01*
X134229860Y-81813173D01*
X134242041Y-81801035D01*
X134369761Y-81673760D01*
X134388096Y-81655489D01*
X134403014Y-81634729D01*
X134515435Y-81478277D01*
X134518453Y-81474077D01*
X134525193Y-81460441D01*
X134615136Y-81278453D01*
X134615137Y-81278451D01*
X134617430Y-81273811D01*
X134682370Y-81060069D01*
X134711529Y-80838590D01*
X134711917Y-80822721D01*
X134712472Y-80800000D01*
X155986496Y-80800000D01*
X155987186Y-80806565D01*
X156002950Y-80956547D01*
X156006458Y-80989928D01*
X156065473Y-81171556D01*
X156160960Y-81336944D01*
X156165378Y-81341851D01*
X156165379Y-81341852D01*
X156205685Y-81386616D01*
X156288747Y-81478866D01*
X156443248Y-81591118D01*
X156449276Y-81593802D01*
X156449278Y-81593803D01*
X156596022Y-81659137D01*
X156617712Y-81668794D01*
X156711112Y-81688647D01*
X156798056Y-81707128D01*
X156798061Y-81707128D01*
X156804513Y-81708500D01*
X156995487Y-81708500D01*
X157001939Y-81707128D01*
X157001944Y-81707128D01*
X157088888Y-81688647D01*
X157182288Y-81668794D01*
X157203978Y-81659137D01*
X157350722Y-81593803D01*
X157350724Y-81593802D01*
X157356752Y-81591118D01*
X157376063Y-81577088D01*
X157425182Y-81541401D01*
X157492050Y-81517542D01*
X157561202Y-81533623D01*
X157588338Y-81554242D01*
X168495086Y-92460990D01*
X168529112Y-92523302D01*
X168524047Y-92594117D01*
X168481500Y-92650953D01*
X168414980Y-92675764D01*
X168404459Y-92676076D01*
X168356962Y-92675495D01*
X168335080Y-92675228D01*
X168335078Y-92675228D01*
X168329911Y-92675165D01*
X168109091Y-92708955D01*
X167896756Y-92778357D01*
X167698607Y-92881507D01*
X167694474Y-92884610D01*
X167694471Y-92884612D01*
X167524100Y-93012530D01*
X167519965Y-93015635D01*
X167365629Y-93177138D01*
X167239743Y-93361680D01*
X167224003Y-93395590D01*
X167159497Y-93534557D01*
X167145688Y-93564305D01*
X167085989Y-93779570D01*
X167062251Y-94001695D01*
X167062548Y-94006848D01*
X167062548Y-94006851D01*
X167073288Y-94193121D01*
X167075110Y-94224715D01*
X167076247Y-94229761D01*
X167076248Y-94229767D01*
X167097197Y-94322721D01*
X167124222Y-94442639D01*
X167208266Y-94649616D01*
X167255822Y-94727221D01*
X167322291Y-94835688D01*
X167324987Y-94840088D01*
X167471250Y-95008938D01*
X167475230Y-95012242D01*
X167479981Y-95016187D01*
X167519616Y-95075090D01*
X167521113Y-95146071D01*
X167483997Y-95206593D01*
X167443725Y-95231112D01*
X167355095Y-95264338D01*
X167328295Y-95274385D01*
X167211739Y-95361739D01*
X167124385Y-95478295D01*
X167073255Y-95614684D01*
X167066500Y-95676866D01*
X167066500Y-97473134D01*
X167073255Y-97535316D01*
X167124385Y-97671705D01*
X167211739Y-97788261D01*
X167328295Y-97875615D01*
X167464684Y-97926745D01*
X167526866Y-97933500D01*
X169323134Y-97933500D01*
X169385316Y-97926745D01*
X169521705Y-97875615D01*
X169638261Y-97788261D01*
X169725615Y-97671705D01*
X169747799Y-97612529D01*
X169769598Y-97554382D01*
X169812240Y-97497618D01*
X169878802Y-97472918D01*
X169948150Y-97488126D01*
X169982817Y-97516114D01*
X170011250Y-97548938D01*
X170183126Y-97691632D01*
X170376000Y-97804338D01*
X170584692Y-97884030D01*
X170589760Y-97885061D01*
X170589763Y-97885062D01*
X170697017Y-97906883D01*
X170803597Y-97928567D01*
X170808772Y-97928757D01*
X170808774Y-97928757D01*
X171021673Y-97936564D01*
X171021677Y-97936564D01*
X171026837Y-97936753D01*
X171031957Y-97936097D01*
X171031959Y-97936097D01*
X171243288Y-97909025D01*
X171243289Y-97909025D01*
X171248416Y-97908368D01*
X171253366Y-97906883D01*
X171457429Y-97845661D01*
X171457434Y-97845659D01*
X171462384Y-97844174D01*
X171662994Y-97745896D01*
X171844860Y-97616173D01*
X171850156Y-97610896D01*
X171977324Y-97484171D01*
X172003096Y-97458489D01*
X172020772Y-97433891D01*
X172130435Y-97281277D01*
X172133453Y-97277077D01*
X172147335Y-97248990D01*
X172230136Y-97081453D01*
X172230137Y-97081451D01*
X172232430Y-97076811D01*
X172277490Y-96928502D01*
X172295865Y-96868023D01*
X172295865Y-96868021D01*
X172297370Y-96863069D01*
X172326529Y-96641590D01*
X172326890Y-96626827D01*
X172328074Y-96578365D01*
X172328074Y-96578361D01*
X172328156Y-96575000D01*
X172309852Y-96352361D01*
X172255431Y-96135702D01*
X172166354Y-95930840D01*
X172094467Y-95819719D01*
X172047822Y-95747617D01*
X172047820Y-95747614D01*
X172045014Y-95743277D01*
X171894670Y-95578051D01*
X171890619Y-95574852D01*
X171890615Y-95574848D01*
X171723414Y-95442800D01*
X171723410Y-95442798D01*
X171719359Y-95439598D01*
X171678053Y-95416796D01*
X171628084Y-95366364D01*
X171613312Y-95296921D01*
X171638428Y-95230516D01*
X171665780Y-95203909D01*
X171725823Y-95161081D01*
X171844860Y-95076173D01*
X172003096Y-94918489D01*
X172062594Y-94835689D01*
X172130435Y-94741277D01*
X172133453Y-94737077D01*
X172151778Y-94700000D01*
X172230136Y-94541453D01*
X172230137Y-94541451D01*
X172232430Y-94536811D01*
X172285183Y-94363181D01*
X172295865Y-94328023D01*
X172295865Y-94328021D01*
X172297370Y-94323069D01*
X172326529Y-94101590D01*
X172328156Y-94035000D01*
X172309852Y-93812361D01*
X172255431Y-93595702D01*
X172166354Y-93390840D01*
X172045014Y-93203277D01*
X171894670Y-93038051D01*
X171890619Y-93034852D01*
X171890615Y-93034848D01*
X171723414Y-92902800D01*
X171723410Y-92902798D01*
X171719359Y-92899598D01*
X171523789Y-92791638D01*
X171518920Y-92789914D01*
X171518916Y-92789912D01*
X171318087Y-92718795D01*
X171318083Y-92718794D01*
X171313212Y-92717069D01*
X171308119Y-92716162D01*
X171308116Y-92716161D01*
X171098373Y-92678800D01*
X171098367Y-92678799D01*
X171093284Y-92677894D01*
X171019452Y-92676992D01*
X170875081Y-92675228D01*
X170875079Y-92675228D01*
X170869911Y-92675165D01*
X170649091Y-92708955D01*
X170636532Y-92713060D01*
X170565568Y-92715210D01*
X170508294Y-92682389D01*
X158233652Y-80407747D01*
X158226112Y-80399461D01*
X158222000Y-80392982D01*
X158172348Y-80346356D01*
X158169507Y-80343602D01*
X158149770Y-80323865D01*
X158146573Y-80321385D01*
X158137551Y-80313680D01*
X158105321Y-80283414D01*
X158098375Y-80279595D01*
X158098372Y-80279593D01*
X158087566Y-80273652D01*
X158071047Y-80262801D01*
X158065048Y-80258148D01*
X158055041Y-80250386D01*
X158047772Y-80247241D01*
X158047768Y-80247238D01*
X158014463Y-80232826D01*
X158003813Y-80227609D01*
X157965060Y-80206305D01*
X157945437Y-80201267D01*
X157926734Y-80194863D01*
X157915420Y-80189967D01*
X157915419Y-80189967D01*
X157908145Y-80186819D01*
X157900322Y-80185580D01*
X157900312Y-80185577D01*
X157864476Y-80179901D01*
X157852856Y-80177495D01*
X157817711Y-80168472D01*
X157817710Y-80168472D01*
X157810030Y-80166500D01*
X157789776Y-80166500D01*
X157770065Y-80164949D01*
X157757886Y-80163020D01*
X157750057Y-80161780D01*
X157742165Y-80162526D01*
X157706039Y-80165941D01*
X157694181Y-80166500D01*
X157608200Y-80166500D01*
X157540079Y-80146498D01*
X157520853Y-80130157D01*
X157520580Y-80130460D01*
X157515668Y-80126037D01*
X157511253Y-80121134D01*
X157419717Y-80054629D01*
X157362094Y-80012763D01*
X157362093Y-80012762D01*
X157356752Y-80008882D01*
X157350724Y-80006198D01*
X157350722Y-80006197D01*
X157188319Y-79933891D01*
X157188318Y-79933891D01*
X157182288Y-79931206D01*
X157088887Y-79911353D01*
X157001944Y-79892872D01*
X157001939Y-79892872D01*
X156995487Y-79891500D01*
X156804513Y-79891500D01*
X156798061Y-79892872D01*
X156798056Y-79892872D01*
X156711113Y-79911353D01*
X156617712Y-79931206D01*
X156611682Y-79933891D01*
X156611681Y-79933891D01*
X156449278Y-80006197D01*
X156449276Y-80006198D01*
X156443248Y-80008882D01*
X156437907Y-80012762D01*
X156437906Y-80012763D01*
X156408298Y-80034275D01*
X156288747Y-80121134D01*
X156284326Y-80126044D01*
X156284325Y-80126045D01*
X156175203Y-80247238D01*
X156160960Y-80263056D01*
X156065473Y-80428444D01*
X156006458Y-80610072D01*
X155986496Y-80800000D01*
X134712472Y-80800000D01*
X134713074Y-80775365D01*
X134713074Y-80775361D01*
X134713156Y-80772000D01*
X134694852Y-80549361D01*
X134640431Y-80332702D01*
X134551354Y-80127840D01*
X134490824Y-80034275D01*
X134432822Y-79944617D01*
X134432820Y-79944614D01*
X134430014Y-79940277D01*
X134279670Y-79775051D01*
X134275619Y-79771852D01*
X134275615Y-79771848D01*
X134253864Y-79754670D01*
X138122160Y-79754670D01*
X138127887Y-79762320D01*
X138299042Y-79867205D01*
X138307837Y-79871687D01*
X138517988Y-79958734D01*
X138527373Y-79961783D01*
X138748554Y-80014885D01*
X138758301Y-80016428D01*
X138985070Y-80034275D01*
X138994930Y-80034275D01*
X139221699Y-80016428D01*
X139231446Y-80014885D01*
X139452627Y-79961783D01*
X139462012Y-79958734D01*
X139672163Y-79871687D01*
X139680958Y-79867205D01*
X139848445Y-79764568D01*
X139857400Y-79754670D01*
X144622160Y-79754670D01*
X144627887Y-79762320D01*
X144799042Y-79867205D01*
X144807837Y-79871687D01*
X145017988Y-79958734D01*
X145027373Y-79961783D01*
X145248554Y-80014885D01*
X145258301Y-80016428D01*
X145485070Y-80034275D01*
X145494930Y-80034275D01*
X145721699Y-80016428D01*
X145731446Y-80014885D01*
X145952627Y-79961783D01*
X145962012Y-79958734D01*
X146172163Y-79871687D01*
X146180958Y-79867205D01*
X146348445Y-79764568D01*
X146357907Y-79754110D01*
X146354124Y-79745334D01*
X145502812Y-78894022D01*
X145488868Y-78886408D01*
X145487035Y-78886539D01*
X145480420Y-78890790D01*
X144628920Y-79742290D01*
X144622160Y-79754670D01*
X139857400Y-79754670D01*
X139857907Y-79754110D01*
X139854124Y-79745334D01*
X139002812Y-78894022D01*
X138988868Y-78886408D01*
X138987035Y-78886539D01*
X138980420Y-78890790D01*
X138128920Y-79742290D01*
X138122160Y-79754670D01*
X134253864Y-79754670D01*
X134108414Y-79639800D01*
X134108410Y-79639798D01*
X134104359Y-79636598D01*
X134063053Y-79613796D01*
X134013084Y-79563364D01*
X133998312Y-79493921D01*
X134023428Y-79427516D01*
X134050780Y-79400909D01*
X134094603Y-79369650D01*
X134229860Y-79273173D01*
X134264937Y-79238219D01*
X134338892Y-79164521D01*
X134388096Y-79115489D01*
X134409058Y-79086318D01*
X134515435Y-78938277D01*
X134518453Y-78934077D01*
X134525193Y-78920441D01*
X134615136Y-78738453D01*
X134615137Y-78738451D01*
X134617430Y-78733811D01*
X134673269Y-78550023D01*
X134680286Y-78526930D01*
X137477725Y-78526930D01*
X137495572Y-78753699D01*
X137497115Y-78763446D01*
X137550217Y-78984627D01*
X137553266Y-78994012D01*
X137640313Y-79204163D01*
X137644795Y-79212958D01*
X137747432Y-79380445D01*
X137757890Y-79389907D01*
X137766666Y-79386124D01*
X138617978Y-78534812D01*
X138624356Y-78523132D01*
X139354408Y-78523132D01*
X139354539Y-78524965D01*
X139358790Y-78531580D01*
X140210290Y-79383080D01*
X140222670Y-79389840D01*
X140230320Y-79384113D01*
X140335205Y-79212958D01*
X140339687Y-79204163D01*
X140426734Y-78994012D01*
X140429783Y-78984627D01*
X140482885Y-78763446D01*
X140484428Y-78753699D01*
X140502275Y-78526930D01*
X143977725Y-78526930D01*
X143995572Y-78753699D01*
X143997115Y-78763446D01*
X144050217Y-78984627D01*
X144053266Y-78994012D01*
X144140313Y-79204163D01*
X144144795Y-79212958D01*
X144247432Y-79380445D01*
X144257890Y-79389907D01*
X144266666Y-79386124D01*
X145117978Y-78534812D01*
X145124356Y-78523132D01*
X145854408Y-78523132D01*
X145854539Y-78524965D01*
X145858790Y-78531580D01*
X146710290Y-79383080D01*
X146722670Y-79389840D01*
X146730320Y-79384113D01*
X146835205Y-79212958D01*
X146839687Y-79204163D01*
X146926734Y-78994012D01*
X146929783Y-78984627D01*
X146982885Y-78763446D01*
X146984428Y-78753699D01*
X147002275Y-78526930D01*
X147002275Y-78517070D01*
X146984428Y-78290301D01*
X146982885Y-78280554D01*
X146929783Y-78059373D01*
X146926734Y-78049988D01*
X146839687Y-77839837D01*
X146837222Y-77835000D01*
X166786496Y-77835000D01*
X166787186Y-77841565D01*
X166804501Y-78006305D01*
X166806458Y-78024928D01*
X166865473Y-78206556D01*
X166960960Y-78371944D01*
X166965378Y-78376851D01*
X166965379Y-78376852D01*
X167064636Y-78487088D01*
X167095354Y-78551095D01*
X167097000Y-78571398D01*
X167097000Y-81297476D01*
X167076998Y-81365597D01*
X167064642Y-81381779D01*
X166991460Y-81463056D01*
X166895973Y-81628444D01*
X166836958Y-81810072D01*
X166836268Y-81816633D01*
X166836268Y-81816635D01*
X166829320Y-81882745D01*
X166816996Y-82000000D01*
X166817686Y-82006565D01*
X166835894Y-82179800D01*
X166836958Y-82189928D01*
X166895973Y-82371556D01*
X166991460Y-82536944D01*
X167064637Y-82618215D01*
X167095353Y-82682221D01*
X167097000Y-82702524D01*
X167097000Y-86751733D01*
X167096473Y-86762916D01*
X167094798Y-86770409D01*
X167095047Y-86778335D01*
X167095047Y-86778336D01*
X167096938Y-86838486D01*
X167097000Y-86842445D01*
X167097000Y-86870356D01*
X167097497Y-86874290D01*
X167097497Y-86874291D01*
X167097505Y-86874356D01*
X167098438Y-86886193D01*
X167099827Y-86930389D01*
X167105478Y-86949839D01*
X167109487Y-86969200D01*
X167112026Y-86989297D01*
X167114945Y-86996668D01*
X167114945Y-86996670D01*
X167128304Y-87030412D01*
X167132149Y-87041642D01*
X167144482Y-87084093D01*
X167148515Y-87090912D01*
X167148517Y-87090917D01*
X167154793Y-87101528D01*
X167163488Y-87119276D01*
X167170948Y-87138117D01*
X167175610Y-87144533D01*
X167175610Y-87144534D01*
X167196936Y-87173887D01*
X167203452Y-87183807D01*
X167225958Y-87221862D01*
X167240279Y-87236183D01*
X167253119Y-87251216D01*
X167265028Y-87267607D01*
X167271134Y-87272658D01*
X167299105Y-87295798D01*
X167307884Y-87303788D01*
X167752878Y-87748782D01*
X167786904Y-87811094D01*
X167789092Y-87824703D01*
X167792575Y-87857840D01*
X167805712Y-87982826D01*
X167806458Y-87989928D01*
X167865473Y-88171556D01*
X167868776Y-88177278D01*
X167868777Y-88177279D01*
X167881959Y-88200110D01*
X167960960Y-88336944D01*
X167965378Y-88341851D01*
X167965379Y-88341852D01*
X167984471Y-88363056D01*
X168088747Y-88478866D01*
X168243248Y-88591118D01*
X168249276Y-88593802D01*
X168249278Y-88593803D01*
X168411681Y-88666109D01*
X168417712Y-88668794D01*
X168511113Y-88688647D01*
X168598056Y-88707128D01*
X168598061Y-88707128D01*
X168604513Y-88708500D01*
X168795487Y-88708500D01*
X168801939Y-88707128D01*
X168801944Y-88707128D01*
X168888887Y-88688647D01*
X168982288Y-88668794D01*
X168988319Y-88666109D01*
X169150722Y-88593803D01*
X169150724Y-88593802D01*
X169156752Y-88591118D01*
X169311253Y-88478866D01*
X169415529Y-88363056D01*
X169434621Y-88341852D01*
X169434622Y-88341851D01*
X169439040Y-88336944D01*
X169518041Y-88200110D01*
X169531223Y-88177279D01*
X169531224Y-88177278D01*
X169534527Y-88171556D01*
X169593542Y-87989928D01*
X169594289Y-87982826D01*
X169612814Y-87806565D01*
X169613504Y-87800000D01*
X169605382Y-87722721D01*
X169594232Y-87616635D01*
X169594232Y-87616633D01*
X169593542Y-87610072D01*
X169534527Y-87428444D01*
X169439040Y-87263056D01*
X169414844Y-87236183D01*
X169315675Y-87126045D01*
X169315674Y-87126044D01*
X169311253Y-87121134D01*
X169201842Y-87041642D01*
X169162094Y-87012763D01*
X169162093Y-87012762D01*
X169156752Y-87008882D01*
X169150724Y-87006198D01*
X169150722Y-87006197D01*
X169098598Y-86982990D01*
X170539564Y-86982990D01*
X170548858Y-86995004D01*
X170608321Y-87036640D01*
X170617816Y-87042123D01*
X170821332Y-87137023D01*
X170831624Y-87140769D01*
X171048527Y-87198888D01*
X171059322Y-87200791D01*
X171283025Y-87220363D01*
X171293975Y-87220363D01*
X171517678Y-87200791D01*
X171528473Y-87198888D01*
X171745376Y-87140769D01*
X171755668Y-87137023D01*
X171959184Y-87042123D01*
X171968679Y-87036640D01*
X172028977Y-86994419D01*
X172037352Y-86983942D01*
X172030285Y-86970496D01*
X171301311Y-86241521D01*
X171287368Y-86233908D01*
X171285534Y-86234039D01*
X171278920Y-86238290D01*
X170545991Y-86971220D01*
X170539564Y-86982990D01*
X169098598Y-86982990D01*
X168988319Y-86933891D01*
X168988318Y-86933891D01*
X168982288Y-86931206D01*
X168888888Y-86911353D01*
X168801944Y-86892872D01*
X168801939Y-86892872D01*
X168795487Y-86891500D01*
X168739595Y-86891500D01*
X168671474Y-86871498D01*
X168650499Y-86854595D01*
X168400904Y-86604999D01*
X168366879Y-86542687D01*
X168364000Y-86515904D01*
X168364000Y-85874975D01*
X169937637Y-85874975D01*
X169957209Y-86098678D01*
X169959112Y-86109473D01*
X170017231Y-86326376D01*
X170020977Y-86336668D01*
X170115877Y-86540184D01*
X170121360Y-86549679D01*
X170163581Y-86609977D01*
X170174058Y-86618352D01*
X170187504Y-86611285D01*
X170916479Y-85882311D01*
X170922856Y-85870632D01*
X171652908Y-85870632D01*
X171653039Y-85872466D01*
X171657290Y-85879080D01*
X172390220Y-86612009D01*
X172401990Y-86618436D01*
X172414004Y-86609142D01*
X172455640Y-86549679D01*
X172461123Y-86540184D01*
X172556023Y-86336668D01*
X172559769Y-86326376D01*
X172617888Y-86109473D01*
X172619791Y-86098678D01*
X172639363Y-85874975D01*
X172639363Y-85864025D01*
X172619791Y-85640322D01*
X172617888Y-85629527D01*
X172559769Y-85412624D01*
X172556023Y-85402332D01*
X172461123Y-85198816D01*
X172455640Y-85189321D01*
X172413419Y-85129023D01*
X172402942Y-85120648D01*
X172389496Y-85127715D01*
X171660521Y-85856689D01*
X171652908Y-85870632D01*
X170922856Y-85870632D01*
X170924092Y-85868368D01*
X170923961Y-85866534D01*
X170919710Y-85859920D01*
X170186780Y-85126991D01*
X170175010Y-85120564D01*
X170162996Y-85129858D01*
X170121360Y-85189321D01*
X170115877Y-85198816D01*
X170020977Y-85402332D01*
X170017231Y-85412624D01*
X169959112Y-85629527D01*
X169957209Y-85640322D01*
X169937637Y-85864025D01*
X169937637Y-85874975D01*
X168364000Y-85874975D01*
X168364000Y-82702524D01*
X168384002Y-82634403D01*
X168396358Y-82618221D01*
X168469540Y-82536944D01*
X168565027Y-82371556D01*
X168624042Y-82189928D01*
X168625107Y-82179800D01*
X168643314Y-82006565D01*
X168644004Y-82000000D01*
X168631680Y-81882745D01*
X168624732Y-81816635D01*
X168624732Y-81816633D01*
X168624042Y-81810072D01*
X168565027Y-81628444D01*
X168469540Y-81463056D01*
X168396363Y-81381785D01*
X168365647Y-81317779D01*
X168364000Y-81297476D01*
X168364000Y-78503651D01*
X168384002Y-78435530D01*
X168396364Y-78419340D01*
X168434621Y-78376852D01*
X168434622Y-78376851D01*
X168439040Y-78371944D01*
X168534527Y-78206556D01*
X168593542Y-78024928D01*
X168595500Y-78006305D01*
X168610907Y-77859708D01*
X168637920Y-77794051D01*
X168647122Y-77783782D01*
X169460501Y-76970404D01*
X169522813Y-76936379D01*
X169549596Y-76933500D01*
X170420423Y-76933500D01*
X170488544Y-76953502D01*
X170535037Y-77007158D01*
X170545141Y-77077432D01*
X170515647Y-77142012D01*
X170492699Y-77162709D01*
X170419551Y-77213927D01*
X170252927Y-77380551D01*
X170117769Y-77573578D01*
X170115448Y-77578556D01*
X170115446Y-77578559D01*
X170051060Y-77716635D01*
X170018182Y-77787142D01*
X170016760Y-77792450D01*
X170016759Y-77792452D01*
X169970124Y-77966500D01*
X169957194Y-78014755D01*
X169936656Y-78249500D01*
X169957194Y-78484245D01*
X169958618Y-78489559D01*
X169958618Y-78489560D01*
X169967614Y-78523132D01*
X170018182Y-78711858D01*
X170020504Y-78716838D01*
X170020505Y-78716840D01*
X170111575Y-78912138D01*
X170117769Y-78925422D01*
X170252927Y-79118449D01*
X170419551Y-79285073D01*
X170424063Y-79288232D01*
X170606945Y-79416287D01*
X170651274Y-79471744D01*
X170658583Y-79542363D01*
X170626553Y-79605724D01*
X170606945Y-79622713D01*
X170419551Y-79753927D01*
X170252927Y-79920551D01*
X170117769Y-80113578D01*
X170115448Y-80118556D01*
X170115446Y-80118559D01*
X170038573Y-80283414D01*
X170018182Y-80327142D01*
X170016760Y-80332450D01*
X170016759Y-80332452D01*
X169966049Y-80521707D01*
X169957194Y-80554755D01*
X169936656Y-80789500D01*
X169957194Y-81024245D01*
X169958618Y-81029559D01*
X169958618Y-81029560D01*
X170000114Y-81184425D01*
X170018182Y-81251858D01*
X170020504Y-81256838D01*
X170020505Y-81256840D01*
X170109246Y-81447144D01*
X170117769Y-81465422D01*
X170252927Y-81658449D01*
X170419551Y-81825073D01*
X170505603Y-81885327D01*
X170606945Y-81956287D01*
X170651274Y-82011744D01*
X170658583Y-82082363D01*
X170626553Y-82145724D01*
X170606945Y-82162713D01*
X170577451Y-82183365D01*
X170419551Y-82293927D01*
X170252927Y-82460551D01*
X170117769Y-82653578D01*
X170115448Y-82658556D01*
X170115446Y-82658559D01*
X170111118Y-82667840D01*
X170018182Y-82867142D01*
X170016760Y-82872450D01*
X170016759Y-82872452D01*
X169958639Y-83089361D01*
X169957194Y-83094755D01*
X169936656Y-83329500D01*
X169957194Y-83564245D01*
X169958618Y-83569559D01*
X169958618Y-83569560D01*
X170000114Y-83724425D01*
X170018182Y-83791858D01*
X170020504Y-83796838D01*
X170020505Y-83796840D01*
X170083075Y-83931020D01*
X170117769Y-84005422D01*
X170252927Y-84198449D01*
X170419551Y-84365073D01*
X170590453Y-84484739D01*
X170607381Y-84496592D01*
X170651709Y-84552049D01*
X170659018Y-84622668D01*
X170626988Y-84686029D01*
X170607381Y-84703018D01*
X170548023Y-84744581D01*
X170539648Y-84755058D01*
X170546715Y-84768504D01*
X171275689Y-85497479D01*
X171289632Y-85505092D01*
X171291466Y-85504961D01*
X171298080Y-85500710D01*
X172031009Y-84767780D01*
X172037436Y-84756010D01*
X172028142Y-84743996D01*
X171969619Y-84703018D01*
X171925291Y-84647561D01*
X171917982Y-84576942D01*
X171950013Y-84513581D01*
X171969619Y-84496592D01*
X171986547Y-84484739D01*
X172157449Y-84365073D01*
X172324073Y-84198449D01*
X172459231Y-84005422D01*
X172493926Y-83931020D01*
X172556495Y-83796840D01*
X172556496Y-83796838D01*
X172558818Y-83791858D01*
X172576887Y-83724425D01*
X172618382Y-83569560D01*
X172618382Y-83569559D01*
X172619806Y-83564245D01*
X172640344Y-83329500D01*
X172619806Y-83094755D01*
X172618361Y-83089361D01*
X172560241Y-82872452D01*
X172560240Y-82872450D01*
X172558818Y-82867142D01*
X172465882Y-82667840D01*
X172461554Y-82658559D01*
X172461552Y-82658556D01*
X172459231Y-82653578D01*
X172324073Y-82460551D01*
X172157449Y-82293927D01*
X171999549Y-82183365D01*
X171970055Y-82162713D01*
X171925726Y-82107256D01*
X171918417Y-82036637D01*
X171950447Y-81973276D01*
X171970055Y-81956287D01*
X172071397Y-81885327D01*
X172157449Y-81825073D01*
X172324073Y-81658449D01*
X172459231Y-81465422D01*
X172467755Y-81447144D01*
X172556495Y-81256840D01*
X172556496Y-81256838D01*
X172558818Y-81251858D01*
X172576887Y-81184425D01*
X172618382Y-81029560D01*
X172618382Y-81029559D01*
X172619806Y-81024245D01*
X172640344Y-80789500D01*
X172619806Y-80554755D01*
X172610951Y-80521707D01*
X172560241Y-80332452D01*
X172560240Y-80332450D01*
X172558818Y-80327142D01*
X172538427Y-80283414D01*
X172461554Y-80118559D01*
X172461552Y-80118556D01*
X172459231Y-80113578D01*
X172324073Y-79920551D01*
X172157449Y-79753927D01*
X171970055Y-79622713D01*
X171925726Y-79567256D01*
X171918417Y-79496637D01*
X171950447Y-79433276D01*
X171970055Y-79416287D01*
X172152937Y-79288232D01*
X172157449Y-79285073D01*
X172324073Y-79118449D01*
X172459231Y-78925422D01*
X172465426Y-78912138D01*
X172556495Y-78716840D01*
X172556496Y-78716838D01*
X172558818Y-78711858D01*
X172609387Y-78523132D01*
X172618382Y-78489560D01*
X172618382Y-78489559D01*
X172619806Y-78484245D01*
X172640344Y-78249500D01*
X172619806Y-78014755D01*
X172606876Y-77966500D01*
X172560241Y-77792452D01*
X172560240Y-77792450D01*
X172558818Y-77787142D01*
X172525940Y-77716635D01*
X172461554Y-77578559D01*
X172461552Y-77578556D01*
X172459231Y-77573578D01*
X172324073Y-77380551D01*
X172157449Y-77213927D01*
X172084305Y-77162711D01*
X172039978Y-77107257D01*
X172032669Y-77036637D01*
X172064699Y-76973277D01*
X172125900Y-76937291D01*
X172156577Y-76933500D01*
X173885406Y-76933500D01*
X173953527Y-76953502D01*
X173974501Y-76970405D01*
X174229595Y-77225499D01*
X174263621Y-77287811D01*
X174266500Y-77314594D01*
X174266500Y-92415500D01*
X174246498Y-92483621D01*
X174192842Y-92530114D01*
X174140500Y-92541500D01*
X174001866Y-92541500D01*
X173939684Y-92548255D01*
X173803295Y-92599385D01*
X173686739Y-92686739D01*
X173599385Y-92803295D01*
X173548255Y-92939684D01*
X173541500Y-93001866D01*
X173541500Y-94798134D01*
X173548255Y-94860316D01*
X173599385Y-94996705D01*
X173686739Y-95113261D01*
X173803295Y-95200615D01*
X173811704Y-95203767D01*
X173811705Y-95203768D01*
X173920451Y-95244535D01*
X173977216Y-95287176D01*
X174001916Y-95353738D01*
X173986709Y-95423087D01*
X173967316Y-95449568D01*
X173844535Y-95578051D01*
X173840629Y-95582138D01*
X173837715Y-95586410D01*
X173837714Y-95586411D01*
X173763327Y-95695458D01*
X173714743Y-95766680D01*
X173620688Y-95969305D01*
X173560989Y-96184570D01*
X173537251Y-96406695D01*
X173537548Y-96411848D01*
X173537548Y-96411851D01*
X173544761Y-96536944D01*
X173550110Y-96629715D01*
X173551247Y-96634761D01*
X173551248Y-96634767D01*
X173572275Y-96728069D01*
X173599222Y-96847639D01*
X173683266Y-97054616D01*
X173693647Y-97071556D01*
X173789788Y-97228444D01*
X173799987Y-97245088D01*
X173946250Y-97413938D01*
X174069323Y-97516115D01*
X174108859Y-97548938D01*
X174118126Y-97556632D01*
X174311000Y-97669338D01*
X174315825Y-97671180D01*
X174315826Y-97671181D01*
X174332060Y-97677380D01*
X174519692Y-97749030D01*
X174524760Y-97750061D01*
X174524763Y-97750062D01*
X174603883Y-97766159D01*
X174738597Y-97793567D01*
X174743772Y-97793757D01*
X174743774Y-97793757D01*
X174956673Y-97801564D01*
X174956677Y-97801564D01*
X174961837Y-97801753D01*
X174966957Y-97801097D01*
X174966959Y-97801097D01*
X175178288Y-97774025D01*
X175178289Y-97774025D01*
X175183416Y-97773368D01*
X175188366Y-97771883D01*
X175392429Y-97710661D01*
X175392434Y-97710659D01*
X175397384Y-97709174D01*
X175597994Y-97610896D01*
X175779860Y-97481173D01*
X175802624Y-97458489D01*
X175869847Y-97391500D01*
X175938096Y-97323489D01*
X175945804Y-97312763D01*
X176065435Y-97146277D01*
X176068453Y-97142077D01*
X176073509Y-97131848D01*
X176165136Y-96946453D01*
X176165137Y-96946451D01*
X176167430Y-96941811D01*
X176232370Y-96728069D01*
X176261529Y-96506590D01*
X176262511Y-96466405D01*
X176263074Y-96443365D01*
X176263074Y-96443361D01*
X176263156Y-96440000D01*
X176244852Y-96217361D01*
X176190431Y-96000702D01*
X176101354Y-95795840D01*
X176019897Y-95669926D01*
X175982822Y-95612617D01*
X175982820Y-95612614D01*
X175980014Y-95608277D01*
X175976532Y-95604450D01*
X175832798Y-95446488D01*
X175801746Y-95382642D01*
X175810141Y-95312143D01*
X175855317Y-95257375D01*
X175881761Y-95243706D01*
X175988297Y-95203767D01*
X175996705Y-95200615D01*
X176113261Y-95113261D01*
X176200615Y-94996705D01*
X176251745Y-94860316D01*
X176258500Y-94798134D01*
X176258500Y-93001866D01*
X176251745Y-92939684D01*
X176200615Y-92803295D01*
X176113261Y-92686739D01*
X175996705Y-92599385D01*
X175860316Y-92548255D01*
X175798134Y-92541500D01*
X175659500Y-92541500D01*
X175591379Y-92521498D01*
X175544886Y-92467842D01*
X175533500Y-92415500D01*
X175533500Y-87186426D01*
X177688288Y-87186426D01*
X177688651Y-87190574D01*
X177688651Y-87190578D01*
X177697857Y-87295798D01*
X177714174Y-87482296D01*
X177715084Y-87486369D01*
X177715085Y-87486373D01*
X177770599Y-87734729D01*
X177778962Y-87772144D01*
X177780405Y-87776067D01*
X177780406Y-87776069D01*
X177799043Y-87826722D01*
X177881516Y-88050876D01*
X178020033Y-88313597D01*
X178192080Y-88555691D01*
X178194924Y-88558740D01*
X178194929Y-88558747D01*
X178298830Y-88670166D01*
X178394634Y-88772903D01*
X178397863Y-88775556D01*
X178397868Y-88775560D01*
X178406674Y-88782793D01*
X178624136Y-88961418D01*
X178627693Y-88963624D01*
X178627698Y-88963627D01*
X178817850Y-89081526D01*
X178876554Y-89117924D01*
X178880360Y-89119635D01*
X178880361Y-89119635D01*
X179109512Y-89222620D01*
X179147454Y-89239672D01*
X179432076Y-89324521D01*
X179436196Y-89325174D01*
X179436198Y-89325174D01*
X179554614Y-89343929D01*
X179725420Y-89370982D01*
X179767738Y-89372904D01*
X179816887Y-89375136D01*
X179816906Y-89375136D01*
X179818306Y-89375200D01*
X180003841Y-89375200D01*
X180005933Y-89375061D01*
X180005935Y-89375061D01*
X180220677Y-89360798D01*
X180224848Y-89360521D01*
X180228941Y-89359696D01*
X180228946Y-89359695D01*
X180368579Y-89331539D01*
X180515989Y-89301816D01*
X180796809Y-89205122D01*
X180800540Y-89203254D01*
X180800544Y-89203252D01*
X181058629Y-89074013D01*
X181058631Y-89074012D01*
X181062373Y-89072138D01*
X181308016Y-88905199D01*
X181529423Y-88707238D01*
X181722703Y-88481735D01*
X181724978Y-88478232D01*
X181882189Y-88236148D01*
X181882191Y-88236145D01*
X181884461Y-88232649D01*
X181903529Y-88192493D01*
X181985470Y-88019924D01*
X182011855Y-87964358D01*
X182013216Y-87960121D01*
X182101369Y-87685555D01*
X182102647Y-87681575D01*
X182155241Y-87389269D01*
X182163886Y-87198888D01*
X182168525Y-87096744D01*
X182168525Y-87096739D01*
X182168714Y-87092574D01*
X182163276Y-87030412D01*
X182146656Y-86840458D01*
X182142828Y-86796704D01*
X182141917Y-86792627D01*
X182078952Y-86510934D01*
X182078950Y-86510927D01*
X182078040Y-86506856D01*
X181975486Y-86228124D01*
X181965140Y-86208500D01*
X181847996Y-85986318D01*
X181836969Y-85965403D01*
X181664922Y-85723309D01*
X181662078Y-85720260D01*
X181662073Y-85720253D01*
X181499023Y-85545405D01*
X181462368Y-85506097D01*
X181459139Y-85503444D01*
X181459134Y-85503440D01*
X181236103Y-85320241D01*
X181232866Y-85317582D01*
X181229309Y-85315376D01*
X181229304Y-85315373D01*
X180984001Y-85163279D01*
X180980448Y-85161076D01*
X180904606Y-85126991D01*
X180713360Y-85041041D01*
X180713358Y-85041040D01*
X180709548Y-85039328D01*
X180463375Y-84965941D01*
X180428925Y-84955671D01*
X180428923Y-84955671D01*
X180424926Y-84954479D01*
X180420806Y-84953826D01*
X180420804Y-84953826D01*
X180224413Y-84922721D01*
X180131582Y-84908018D01*
X180089264Y-84906096D01*
X180040115Y-84903864D01*
X180040096Y-84903864D01*
X180038696Y-84903800D01*
X179853161Y-84903800D01*
X179851069Y-84903939D01*
X179851067Y-84903939D01*
X179704408Y-84913680D01*
X179632154Y-84918479D01*
X179628061Y-84919304D01*
X179628056Y-84919305D01*
X179507559Y-84943602D01*
X179341013Y-84977184D01*
X179060193Y-85073878D01*
X179056462Y-85075746D01*
X179056458Y-85075748D01*
X178798373Y-85204987D01*
X178794629Y-85206862D01*
X178548986Y-85373801D01*
X178327579Y-85571762D01*
X178324862Y-85574932D01*
X178324861Y-85574933D01*
X178278068Y-85629527D01*
X178134299Y-85797265D01*
X178132025Y-85800767D01*
X178132024Y-85800768D01*
X177991871Y-86016586D01*
X177972541Y-86046351D01*
X177970753Y-86050117D01*
X177970750Y-86050122D01*
X177928918Y-86138220D01*
X177845147Y-86314642D01*
X177843868Y-86318625D01*
X177843867Y-86318628D01*
X177800088Y-86454984D01*
X177754355Y-86597425D01*
X177701761Y-86889731D01*
X177698061Y-86971220D01*
X177690482Y-87138117D01*
X177688288Y-87186426D01*
X175533500Y-87186426D01*
X175533500Y-77078763D01*
X175534027Y-77067579D01*
X175535701Y-77060091D01*
X175534643Y-77026426D01*
X177688288Y-77026426D01*
X177688651Y-77030574D01*
X177688651Y-77030578D01*
X177699636Y-77156134D01*
X177714174Y-77322296D01*
X177715084Y-77326369D01*
X177715085Y-77326373D01*
X177777854Y-77607185D01*
X177778962Y-77612144D01*
X177780405Y-77616067D01*
X177780406Y-77616069D01*
X177786771Y-77633368D01*
X177881516Y-77890876D01*
X177883463Y-77894569D01*
X177883464Y-77894571D01*
X177941336Y-78004334D01*
X178020033Y-78153597D01*
X178192080Y-78395691D01*
X178194924Y-78398740D01*
X178194929Y-78398747D01*
X178297918Y-78509188D01*
X178394634Y-78612903D01*
X178397863Y-78615556D01*
X178397868Y-78615560D01*
X178493123Y-78693803D01*
X178624136Y-78801418D01*
X178627693Y-78803624D01*
X178627698Y-78803627D01*
X178838093Y-78934077D01*
X178876554Y-78957924D01*
X178880360Y-78959635D01*
X178880361Y-78959635D01*
X179139582Y-79076134D01*
X179147454Y-79079672D01*
X179304020Y-79126346D01*
X179392628Y-79152761D01*
X179432076Y-79164521D01*
X179436196Y-79165174D01*
X179436198Y-79165174D01*
X179554614Y-79183929D01*
X179725420Y-79210982D01*
X179767738Y-79212904D01*
X179816887Y-79215136D01*
X179816906Y-79215136D01*
X179818306Y-79215200D01*
X180003841Y-79215200D01*
X180005933Y-79215061D01*
X180005935Y-79215061D01*
X180220677Y-79200798D01*
X180224848Y-79200521D01*
X180228941Y-79199696D01*
X180228946Y-79199695D01*
X180378544Y-79169530D01*
X180515989Y-79141816D01*
X180796809Y-79045122D01*
X180800540Y-79043254D01*
X180800544Y-79043252D01*
X181058629Y-78914013D01*
X181058631Y-78914012D01*
X181062373Y-78912138D01*
X181308016Y-78745199D01*
X181529423Y-78547238D01*
X181540074Y-78534812D01*
X181675462Y-78376852D01*
X181722703Y-78321735D01*
X181739909Y-78295240D01*
X181882189Y-78076148D01*
X181882191Y-78076145D01*
X181884461Y-78072649D01*
X181889138Y-78062801D01*
X182010059Y-77808140D01*
X182011855Y-77804358D01*
X182015598Y-77792702D01*
X182074878Y-77608066D01*
X182102647Y-77521575D01*
X182155241Y-77229269D01*
X182163483Y-77047763D01*
X182168525Y-76936744D01*
X182168525Y-76936739D01*
X182168714Y-76932574D01*
X182142828Y-76636704D01*
X182141917Y-76632627D01*
X182078952Y-76350934D01*
X182078950Y-76350927D01*
X182078040Y-76346856D01*
X181975486Y-76068124D01*
X181963068Y-76044570D01*
X181858562Y-75846357D01*
X181836969Y-75805403D01*
X181664922Y-75563309D01*
X181662078Y-75560260D01*
X181662073Y-75560253D01*
X181515777Y-75403371D01*
X181462368Y-75346097D01*
X181459139Y-75343444D01*
X181459134Y-75343440D01*
X181241407Y-75164598D01*
X181232866Y-75157582D01*
X181229309Y-75155376D01*
X181229304Y-75155373D01*
X180984001Y-75003279D01*
X180980448Y-75001076D01*
X180938156Y-74982069D01*
X180713360Y-74881041D01*
X180713358Y-74881040D01*
X180709548Y-74879328D01*
X180424926Y-74794479D01*
X180420806Y-74793826D01*
X180420804Y-74793826D01*
X180302388Y-74775071D01*
X180131582Y-74748018D01*
X180089264Y-74746096D01*
X180040115Y-74743864D01*
X180040096Y-74743864D01*
X180038696Y-74743800D01*
X179853161Y-74743800D01*
X179851069Y-74743939D01*
X179851067Y-74743939D01*
X179697856Y-74754115D01*
X179632154Y-74758479D01*
X179628061Y-74759304D01*
X179628056Y-74759305D01*
X179489532Y-74787237D01*
X179341013Y-74817184D01*
X179060193Y-74913878D01*
X179056462Y-74915746D01*
X179056458Y-74915748D01*
X178878683Y-75004771D01*
X178794629Y-75046862D01*
X178548986Y-75213801D01*
X178327579Y-75411762D01*
X178324862Y-75414932D01*
X178324861Y-75414933D01*
X178297881Y-75446411D01*
X178134299Y-75637265D01*
X178132025Y-75640767D01*
X178132024Y-75640768D01*
X178027924Y-75801069D01*
X177972541Y-75886351D01*
X177970753Y-75890117D01*
X177970750Y-75890122D01*
X177962381Y-75907747D01*
X177845147Y-76154642D01*
X177754355Y-76437425D01*
X177701761Y-76729731D01*
X177695232Y-76873500D01*
X177689394Y-77002077D01*
X177688288Y-77026426D01*
X175534643Y-77026426D01*
X175533562Y-76992032D01*
X175533500Y-76988075D01*
X175533500Y-76960144D01*
X175532994Y-76956138D01*
X175532061Y-76944292D01*
X175531813Y-76936379D01*
X175530673Y-76900110D01*
X175525022Y-76880658D01*
X175521014Y-76861306D01*
X175519468Y-76849068D01*
X175519467Y-76849066D01*
X175518474Y-76841203D01*
X175502194Y-76800086D01*
X175498359Y-76788885D01*
X175486018Y-76746406D01*
X175481985Y-76739587D01*
X175481983Y-76739582D01*
X175475707Y-76728971D01*
X175467010Y-76711221D01*
X175459552Y-76692383D01*
X175433571Y-76656623D01*
X175427053Y-76646701D01*
X175408578Y-76615460D01*
X175408574Y-76615455D01*
X175404542Y-76608637D01*
X175390218Y-76594313D01*
X175377376Y-76579278D01*
X175365472Y-76562893D01*
X175331406Y-76534711D01*
X175322627Y-76526722D01*
X174703652Y-75907747D01*
X174696112Y-75899461D01*
X174692000Y-75892982D01*
X174642348Y-75846356D01*
X174639507Y-75843602D01*
X174619770Y-75823865D01*
X174616573Y-75821385D01*
X174607551Y-75813680D01*
X174594122Y-75801069D01*
X174575321Y-75783414D01*
X174568375Y-75779595D01*
X174568372Y-75779593D01*
X174557566Y-75773652D01*
X174541047Y-75762801D01*
X174540583Y-75762441D01*
X174525041Y-75750386D01*
X174517772Y-75747241D01*
X174517768Y-75747238D01*
X174484463Y-75732826D01*
X174473813Y-75727609D01*
X174435060Y-75706305D01*
X174415437Y-75701267D01*
X174396734Y-75694863D01*
X174385420Y-75689967D01*
X174385419Y-75689967D01*
X174378145Y-75686819D01*
X174370322Y-75685580D01*
X174370312Y-75685577D01*
X174334476Y-75679901D01*
X174322856Y-75677495D01*
X174287711Y-75668472D01*
X174287710Y-75668472D01*
X174280030Y-75666500D01*
X174259776Y-75666500D01*
X174240065Y-75664949D01*
X174227886Y-75663020D01*
X174220057Y-75661780D01*
X174190786Y-75664547D01*
X174176039Y-75665941D01*
X174164181Y-75666500D01*
X169313767Y-75666500D01*
X169302584Y-75665973D01*
X169295091Y-75664298D01*
X169287165Y-75664547D01*
X169287164Y-75664547D01*
X169227001Y-75666438D01*
X169223043Y-75666500D01*
X169195144Y-75666500D01*
X169191154Y-75667004D01*
X169179320Y-75667936D01*
X169135111Y-75669326D01*
X169127497Y-75671538D01*
X169127492Y-75671539D01*
X169115659Y-75674977D01*
X169096296Y-75678988D01*
X169076203Y-75681526D01*
X169068836Y-75684443D01*
X169068831Y-75684444D01*
X169035092Y-75697802D01*
X169023865Y-75701646D01*
X168981407Y-75713982D01*
X168974581Y-75718019D01*
X168963972Y-75724293D01*
X168946224Y-75732988D01*
X168927383Y-75740448D01*
X168920967Y-75745110D01*
X168920966Y-75745110D01*
X168891613Y-75766436D01*
X168881693Y-75772952D01*
X168850465Y-75791420D01*
X168850462Y-75791422D01*
X168843638Y-75795458D01*
X168829317Y-75809779D01*
X168814284Y-75822619D01*
X168797893Y-75834528D01*
X168789217Y-75845016D01*
X168769702Y-75868605D01*
X168761712Y-75877384D01*
X167749500Y-76889595D01*
X167687188Y-76923621D01*
X167660405Y-76926500D01*
X167604513Y-76926500D01*
X167598061Y-76927872D01*
X167598056Y-76927872D01*
X167511112Y-76946353D01*
X167417712Y-76966206D01*
X167411682Y-76968891D01*
X167411681Y-76968891D01*
X167249278Y-77041197D01*
X167249276Y-77041198D01*
X167243248Y-77043882D01*
X167088747Y-77156134D01*
X167084326Y-77161044D01*
X167084325Y-77161045D01*
X166970185Y-77287811D01*
X166960960Y-77298056D01*
X166865473Y-77463444D01*
X166806458Y-77645072D01*
X166805768Y-77651633D01*
X166805768Y-77651635D01*
X166789717Y-77804358D01*
X166786496Y-77835000D01*
X146837222Y-77835000D01*
X146835205Y-77831042D01*
X146732568Y-77663555D01*
X146722110Y-77654093D01*
X146713334Y-77657876D01*
X145862022Y-78509188D01*
X145854408Y-78523132D01*
X145124356Y-78523132D01*
X145125592Y-78520868D01*
X145125461Y-78519035D01*
X145121210Y-78512420D01*
X144269710Y-77660920D01*
X144257330Y-77654160D01*
X144249680Y-77659887D01*
X144144795Y-77831042D01*
X144140313Y-77839837D01*
X144053266Y-78049988D01*
X144050217Y-78059373D01*
X143997115Y-78280554D01*
X143995572Y-78290301D01*
X143977725Y-78517070D01*
X143977725Y-78526930D01*
X140502275Y-78526930D01*
X140502275Y-78517070D01*
X140484428Y-78290301D01*
X140482885Y-78280554D01*
X140429783Y-78059373D01*
X140426734Y-78049988D01*
X140339687Y-77839837D01*
X140335205Y-77831042D01*
X140232568Y-77663555D01*
X140222110Y-77654093D01*
X140213334Y-77657876D01*
X139362022Y-78509188D01*
X139354408Y-78523132D01*
X138624356Y-78523132D01*
X138625592Y-78520868D01*
X138625461Y-78519035D01*
X138621210Y-78512420D01*
X137769710Y-77660920D01*
X137757330Y-77654160D01*
X137749680Y-77659887D01*
X137644795Y-77831042D01*
X137640313Y-77839837D01*
X137553266Y-78049988D01*
X137550217Y-78059373D01*
X137497115Y-78280554D01*
X137495572Y-78290301D01*
X137477725Y-78517070D01*
X137477725Y-78526930D01*
X134680286Y-78526930D01*
X134680865Y-78525023D01*
X134680865Y-78525021D01*
X134682370Y-78520069D01*
X134711529Y-78298590D01*
X134712595Y-78254975D01*
X134713074Y-78235365D01*
X134713074Y-78235361D01*
X134713156Y-78232000D01*
X134694852Y-78009361D01*
X134640431Y-77792702D01*
X134551354Y-77587840D01*
X134440595Y-77416632D01*
X134432822Y-77404617D01*
X134432820Y-77404614D01*
X134430014Y-77400277D01*
X134329570Y-77289890D01*
X138122093Y-77289890D01*
X138125876Y-77298666D01*
X138977188Y-78149978D01*
X138991132Y-78157592D01*
X138992965Y-78157461D01*
X138999580Y-78153210D01*
X139851080Y-77301710D01*
X139857534Y-77289890D01*
X144622093Y-77289890D01*
X144625876Y-77298666D01*
X145477188Y-78149978D01*
X145491132Y-78157592D01*
X145492965Y-78157461D01*
X145499580Y-78153210D01*
X146351080Y-77301710D01*
X146357840Y-77289330D01*
X146352113Y-77281680D01*
X146180958Y-77176795D01*
X146172163Y-77172313D01*
X145962012Y-77085266D01*
X145952627Y-77082217D01*
X145731446Y-77029115D01*
X145721699Y-77027572D01*
X145494930Y-77009725D01*
X145485070Y-77009725D01*
X145258301Y-77027572D01*
X145248554Y-77029115D01*
X145027373Y-77082217D01*
X145017988Y-77085266D01*
X144807837Y-77172313D01*
X144799042Y-77176795D01*
X144631555Y-77279432D01*
X144622093Y-77289890D01*
X139857534Y-77289890D01*
X139857840Y-77289330D01*
X139852113Y-77281680D01*
X139680958Y-77176795D01*
X139672163Y-77172313D01*
X139462012Y-77085266D01*
X139452627Y-77082217D01*
X139231446Y-77029115D01*
X139221699Y-77027572D01*
X138994930Y-77009725D01*
X138985070Y-77009725D01*
X138758301Y-77027572D01*
X138748554Y-77029115D01*
X138527373Y-77082217D01*
X138517988Y-77085266D01*
X138307837Y-77172313D01*
X138299042Y-77176795D01*
X138131555Y-77279432D01*
X138122093Y-77289890D01*
X134329570Y-77289890D01*
X134279670Y-77235051D01*
X134275619Y-77231852D01*
X134275615Y-77231848D01*
X134108414Y-77099800D01*
X134108410Y-77099798D01*
X134104359Y-77096598D01*
X133908789Y-76988638D01*
X133903920Y-76986914D01*
X133903916Y-76986912D01*
X133703087Y-76915795D01*
X133703083Y-76915794D01*
X133698212Y-76914069D01*
X133693119Y-76913162D01*
X133693116Y-76913161D01*
X133483373Y-76875800D01*
X133483367Y-76875799D01*
X133478284Y-76874894D01*
X133404452Y-76873992D01*
X133260081Y-76872228D01*
X133260079Y-76872228D01*
X133254911Y-76872165D01*
X133034091Y-76905955D01*
X132821756Y-76975357D01*
X132793512Y-76990060D01*
X132682666Y-77047763D01*
X132623607Y-77078507D01*
X132619474Y-77081610D01*
X132619471Y-77081612D01*
X132462587Y-77199404D01*
X132444965Y-77212635D01*
X132371139Y-77289890D01*
X132364283Y-77297064D01*
X132302759Y-77332494D01*
X132231846Y-77329037D01*
X132174060Y-77287791D01*
X132155207Y-77254243D01*
X132113767Y-77143703D01*
X132110615Y-77135295D01*
X132023261Y-77018739D01*
X131906705Y-76931385D01*
X131770316Y-76880255D01*
X131708134Y-76873500D01*
X129911866Y-76873500D01*
X129849684Y-76880255D01*
X129713295Y-76931385D01*
X129596739Y-77018739D01*
X129509385Y-77135295D01*
X129458255Y-77271684D01*
X129451500Y-77333866D01*
X129451500Y-78024750D01*
X129431498Y-78092871D01*
X129377842Y-78139364D01*
X129307568Y-78149468D01*
X129248919Y-78122388D01*
X129247772Y-78123867D01*
X129247770Y-78123865D01*
X129244573Y-78121385D01*
X129235551Y-78113680D01*
X129209100Y-78088841D01*
X129203321Y-78083414D01*
X129196375Y-78079595D01*
X129196372Y-78079593D01*
X129185566Y-78073652D01*
X129169047Y-78062801D01*
X129164627Y-78059373D01*
X129153041Y-78050386D01*
X129145772Y-78047241D01*
X129145768Y-78047238D01*
X129112463Y-78032826D01*
X129101813Y-78027609D01*
X129063060Y-78006305D01*
X129043437Y-78001267D01*
X129024734Y-77994863D01*
X129013420Y-77989967D01*
X129013419Y-77989967D01*
X129006145Y-77986819D01*
X128998322Y-77985580D01*
X128998312Y-77985577D01*
X128962476Y-77979901D01*
X128950856Y-77977495D01*
X128915711Y-77968472D01*
X128915710Y-77968472D01*
X128908030Y-77966500D01*
X128887776Y-77966500D01*
X128868065Y-77964949D01*
X128855886Y-77963020D01*
X128848057Y-77961780D01*
X128840165Y-77962526D01*
X128804039Y-77965941D01*
X128792181Y-77966500D01*
X109633945Y-77966500D01*
X109565824Y-77946498D01*
X109519331Y-77892842D01*
X109508635Y-77853671D01*
X109494232Y-77716635D01*
X109494232Y-77716633D01*
X109493542Y-77710072D01*
X109434527Y-77528444D01*
X109339040Y-77363056D01*
X109319337Y-77341173D01*
X109215675Y-77226045D01*
X109215674Y-77226044D01*
X109211253Y-77221134D01*
X109056752Y-77108882D01*
X109050724Y-77106198D01*
X109050722Y-77106197D01*
X108888319Y-77033891D01*
X108888318Y-77033891D01*
X108882288Y-77031206D01*
X108788888Y-77011353D01*
X108701944Y-76992872D01*
X108701939Y-76992872D01*
X108695487Y-76991500D01*
X108504513Y-76991500D01*
X108498061Y-76992872D01*
X108498056Y-76992872D01*
X108411112Y-77011353D01*
X108317712Y-77031206D01*
X108311682Y-77033891D01*
X108311681Y-77033891D01*
X108149278Y-77106197D01*
X108149276Y-77106198D01*
X108143248Y-77108882D01*
X107988747Y-77221134D01*
X107984326Y-77226044D01*
X107984325Y-77226045D01*
X107880664Y-77341173D01*
X107860960Y-77363056D01*
X107765473Y-77528444D01*
X107706458Y-77710072D01*
X107705768Y-77716633D01*
X107705768Y-77716635D01*
X107694018Y-77828435D01*
X107686496Y-77900000D01*
X107687186Y-77906565D01*
X107705010Y-78076148D01*
X107706458Y-78089928D01*
X107765473Y-78271556D01*
X107860960Y-78436944D01*
X107865378Y-78441851D01*
X107865379Y-78441852D01*
X107949081Y-78534812D01*
X107988747Y-78578866D01*
X108143248Y-78691118D01*
X108149276Y-78693802D01*
X108149278Y-78693803D01*
X108269990Y-78747547D01*
X108317712Y-78768794D01*
X108411112Y-78788647D01*
X108498056Y-78807128D01*
X108498061Y-78807128D01*
X108504513Y-78808500D01*
X108560406Y-78808500D01*
X108628527Y-78828502D01*
X108649501Y-78845405D01*
X108796343Y-78992247D01*
X108803887Y-79000537D01*
X108808000Y-79007018D01*
X108813777Y-79012443D01*
X108857667Y-79053658D01*
X108860509Y-79056413D01*
X108880230Y-79076134D01*
X108883425Y-79078612D01*
X108892447Y-79086318D01*
X108924679Y-79116586D01*
X108931628Y-79120406D01*
X108942432Y-79126346D01*
X108958956Y-79137199D01*
X108974959Y-79149613D01*
X109015543Y-79167176D01*
X109026173Y-79172383D01*
X109064940Y-79193695D01*
X109072617Y-79195666D01*
X109072622Y-79195668D01*
X109084558Y-79198732D01*
X109103266Y-79205137D01*
X109121855Y-79213181D01*
X109129680Y-79214420D01*
X109129682Y-79214421D01*
X109165519Y-79220097D01*
X109177140Y-79222504D01*
X109212289Y-79231528D01*
X109219970Y-79233500D01*
X109240231Y-79233500D01*
X109259940Y-79235051D01*
X109279943Y-79238219D01*
X109287835Y-79237473D01*
X109293062Y-79236979D01*
X109323954Y-79234059D01*
X109335811Y-79233500D01*
X128513406Y-79233500D01*
X128581527Y-79253502D01*
X128602501Y-79270405D01*
X129131343Y-79799247D01*
X129138887Y-79807537D01*
X129143000Y-79814018D01*
X129148777Y-79819443D01*
X129192667Y-79860658D01*
X129195509Y-79863413D01*
X129215230Y-79883134D01*
X129218425Y-79885612D01*
X129227447Y-79893318D01*
X129259679Y-79923586D01*
X129266628Y-79927406D01*
X129277432Y-79933346D01*
X129293956Y-79944199D01*
X129309959Y-79956613D01*
X129350543Y-79974176D01*
X129361173Y-79979383D01*
X129399940Y-80000695D01*
X129407617Y-80002666D01*
X129407622Y-80002668D01*
X129419558Y-80005732D01*
X129438266Y-80012137D01*
X129456855Y-80020181D01*
X129464682Y-80021421D01*
X129464683Y-80021421D01*
X129482337Y-80024217D01*
X129546490Y-80054629D01*
X129584018Y-80114897D01*
X129583004Y-80185887D01*
X129576915Y-80201716D01*
X129563570Y-80230467D01*
X129530688Y-80301305D01*
X129470989Y-80516570D01*
X129447251Y-80738695D01*
X129447548Y-80743848D01*
X129447548Y-80743851D01*
X129453011Y-80838590D01*
X129460110Y-80961715D01*
X129461247Y-80966761D01*
X129461248Y-80966767D01*
X129464989Y-80983365D01*
X129509222Y-81179639D01*
X129556555Y-81296206D01*
X129576710Y-81345842D01*
X129593266Y-81386616D01*
X129637104Y-81458153D01*
X129707291Y-81572688D01*
X129709987Y-81577088D01*
X129856250Y-81745938D01*
X129922615Y-81801035D01*
X130005495Y-81869843D01*
X130028126Y-81888632D01*
X130098595Y-81929811D01*
X130101445Y-81931476D01*
X130150169Y-81983114D01*
X130163240Y-82052897D01*
X130136509Y-82118669D01*
X130096055Y-82152027D01*
X130083607Y-82158507D01*
X130079474Y-82161610D01*
X130079471Y-82161612D01*
X129909100Y-82289530D01*
X129904965Y-82292635D01*
X129901393Y-82296373D01*
X129769978Y-82433891D01*
X129750629Y-82454138D01*
X129624743Y-82638680D01*
X129608899Y-82672814D01*
X129556690Y-82785289D01*
X129530688Y-82841305D01*
X129470989Y-83056570D01*
X129447251Y-83278695D01*
X129447548Y-83283848D01*
X129447548Y-83283851D01*
X129453011Y-83378590D01*
X129460110Y-83501715D01*
X129461247Y-83506761D01*
X129461248Y-83506767D01*
X129472967Y-83558765D01*
X129509222Y-83719639D01*
X129593266Y-83926616D01*
X129638328Y-84000151D01*
X129657660Y-84031697D01*
X129709987Y-84117088D01*
X129856250Y-84285938D01*
X129958125Y-84370516D01*
X130013676Y-84416635D01*
X130028126Y-84428632D01*
X130085674Y-84462260D01*
X130114070Y-84478853D01*
X130162794Y-84530491D01*
X130176500Y-84587641D01*
X130176500Y-85175405D01*
X130156498Y-85243526D01*
X130139595Y-85264500D01*
X127174500Y-88229595D01*
X127112188Y-88263621D01*
X127085405Y-88266500D01*
X123835942Y-88266500D01*
X123767821Y-88246498D01*
X123721328Y-88192842D01*
X123710632Y-88127331D01*
X123712814Y-88106568D01*
X123712814Y-88106565D01*
X123713504Y-88100000D01*
X123707871Y-88046407D01*
X123694232Y-87916635D01*
X123694232Y-87916633D01*
X123693542Y-87910072D01*
X123634527Y-87728444D01*
X123539040Y-87563056D01*
X123469995Y-87486373D01*
X123415675Y-87426045D01*
X123415674Y-87426044D01*
X123411253Y-87421134D01*
X123256752Y-87308882D01*
X123250724Y-87306198D01*
X123250722Y-87306197D01*
X123088319Y-87233891D01*
X123088318Y-87233891D01*
X123082288Y-87231206D01*
X122988888Y-87211353D01*
X122901944Y-87192872D01*
X122901939Y-87192872D01*
X122895487Y-87191500D01*
X122839594Y-87191500D01*
X122771473Y-87171498D01*
X122750499Y-87154595D01*
X120803652Y-85207747D01*
X120796112Y-85199461D01*
X120792000Y-85192982D01*
X120742348Y-85146356D01*
X120739507Y-85143602D01*
X120719770Y-85123865D01*
X120716573Y-85121385D01*
X120707551Y-85113680D01*
X120703709Y-85110072D01*
X120675321Y-85083414D01*
X120668375Y-85079595D01*
X120668372Y-85079593D01*
X120657566Y-85073652D01*
X120641047Y-85062801D01*
X120632922Y-85056499D01*
X120625041Y-85050386D01*
X120617772Y-85047241D01*
X120617768Y-85047238D01*
X120584463Y-85032826D01*
X120573813Y-85027609D01*
X120535060Y-85006305D01*
X120515437Y-85001267D01*
X120496734Y-84994863D01*
X120485420Y-84989967D01*
X120485419Y-84989967D01*
X120478145Y-84986819D01*
X120470322Y-84985580D01*
X120470312Y-84985577D01*
X120434476Y-84979901D01*
X120422856Y-84977495D01*
X120387711Y-84968472D01*
X120387710Y-84968472D01*
X120380030Y-84966500D01*
X120359776Y-84966500D01*
X120340065Y-84964949D01*
X120327886Y-84963020D01*
X120320057Y-84961780D01*
X120283127Y-84965271D01*
X120276039Y-84965941D01*
X120264181Y-84966500D01*
X113986519Y-84966500D01*
X113918398Y-84946498D01*
X113897424Y-84929595D01*
X113401076Y-84433247D01*
X113393536Y-84424961D01*
X113389424Y-84418482D01*
X113339772Y-84371856D01*
X113336931Y-84369102D01*
X113317194Y-84349365D01*
X113313997Y-84346885D01*
X113304975Y-84339180D01*
X113278524Y-84314341D01*
X113272745Y-84308914D01*
X113265799Y-84305095D01*
X113265796Y-84305093D01*
X113254990Y-84299152D01*
X113238471Y-84288301D01*
X113230387Y-84282031D01*
X113222465Y-84275886D01*
X113215196Y-84272741D01*
X113215192Y-84272738D01*
X113181887Y-84258326D01*
X113171237Y-84253109D01*
X113132484Y-84231805D01*
X113125831Y-84230097D01*
X113079055Y-84197587D01*
X113033177Y-84146634D01*
X112878676Y-84034382D01*
X112872648Y-84031698D01*
X112872646Y-84031697D01*
X112710243Y-83959391D01*
X112710242Y-83959391D01*
X112704212Y-83956706D01*
X112583370Y-83931020D01*
X112523868Y-83918372D01*
X112523863Y-83918372D01*
X112517411Y-83917000D01*
X112326437Y-83917000D01*
X112319985Y-83918372D01*
X112319980Y-83918372D01*
X112260478Y-83931020D01*
X112139636Y-83956706D01*
X112133606Y-83959391D01*
X112133605Y-83959391D01*
X111971202Y-84031697D01*
X111971200Y-84031698D01*
X111965172Y-84034382D01*
X111810671Y-84146634D01*
X111806253Y-84151541D01*
X111806249Y-84151545D01*
X111697127Y-84272738D01*
X111682884Y-84288556D01*
X111667997Y-84314341D01*
X111598975Y-84433891D01*
X111587397Y-84453944D01*
X111528382Y-84635572D01*
X111527692Y-84642133D01*
X111527692Y-84642135D01*
X111512843Y-84783414D01*
X111508420Y-84825500D01*
X111509110Y-84832065D01*
X111527575Y-85007747D01*
X111528382Y-85015428D01*
X111587397Y-85197056D01*
X111590700Y-85202778D01*
X111590701Y-85202779D01*
X111633841Y-85277500D01*
X111650579Y-85346496D01*
X111627358Y-85413588D01*
X111571551Y-85457475D01*
X111524722Y-85466500D01*
X109414595Y-85466500D01*
X109346474Y-85446498D01*
X109325499Y-85429595D01*
X109071310Y-85175405D01*
X108803647Y-84907742D01*
X108796113Y-84899463D01*
X108792000Y-84892982D01*
X108742348Y-84846356D01*
X108739507Y-84843602D01*
X108719770Y-84823865D01*
X108716573Y-84821385D01*
X108707551Y-84813680D01*
X108703761Y-84810121D01*
X108675321Y-84783414D01*
X108668375Y-84779595D01*
X108668372Y-84779593D01*
X108657566Y-84773652D01*
X108641047Y-84762801D01*
X108635048Y-84758148D01*
X108625041Y-84750386D01*
X108617772Y-84747241D01*
X108617768Y-84747238D01*
X108584463Y-84732826D01*
X108573813Y-84727609D01*
X108535060Y-84706305D01*
X108515437Y-84701267D01*
X108496734Y-84694863D01*
X108485420Y-84689967D01*
X108485419Y-84689967D01*
X108478145Y-84686819D01*
X108470322Y-84685580D01*
X108470312Y-84685577D01*
X108434476Y-84679901D01*
X108422856Y-84677495D01*
X108387711Y-84668472D01*
X108387710Y-84668472D01*
X108380030Y-84666500D01*
X108359776Y-84666500D01*
X108340065Y-84664949D01*
X108327886Y-84663020D01*
X108320057Y-84661780D01*
X108312165Y-84662526D01*
X108276039Y-84665941D01*
X108264181Y-84666500D01*
X106908200Y-84666500D01*
X106840079Y-84646498D01*
X106820853Y-84630157D01*
X106820580Y-84630460D01*
X106815668Y-84626037D01*
X106811253Y-84621134D01*
X106715278Y-84551404D01*
X106662094Y-84512763D01*
X106662093Y-84512762D01*
X106656752Y-84508882D01*
X106650724Y-84506198D01*
X106650722Y-84506197D01*
X106488319Y-84433891D01*
X106488318Y-84433891D01*
X106482288Y-84431206D01*
X106361093Y-84405445D01*
X106301944Y-84392872D01*
X106301939Y-84392872D01*
X106295487Y-84391500D01*
X106104513Y-84391500D01*
X106098061Y-84392872D01*
X106098056Y-84392872D01*
X106038907Y-84405445D01*
X105917712Y-84431206D01*
X105911682Y-84433891D01*
X105911681Y-84433891D01*
X105749278Y-84506197D01*
X105749276Y-84506198D01*
X105743248Y-84508882D01*
X105737907Y-84512762D01*
X105737906Y-84512763D01*
X105713506Y-84530491D01*
X105588747Y-84621134D01*
X105584326Y-84626044D01*
X105584325Y-84626045D01*
X105475203Y-84747238D01*
X105460960Y-84763056D01*
X105365473Y-84928444D01*
X105306458Y-85110072D01*
X105305768Y-85116633D01*
X105305768Y-85116635D01*
X105302644Y-85146357D01*
X105286496Y-85300000D01*
X105287186Y-85306565D01*
X105303996Y-85466500D01*
X105306458Y-85489928D01*
X105365473Y-85671556D01*
X105460960Y-85836944D01*
X105465378Y-85841851D01*
X105465379Y-85841852D01*
X105547899Y-85933500D01*
X105588747Y-85978866D01*
X105686822Y-86050122D01*
X105722037Y-86075707D01*
X105743248Y-86091118D01*
X105749276Y-86093802D01*
X105749278Y-86093803D01*
X105849041Y-86138220D01*
X105917712Y-86168794D01*
X106011112Y-86188647D01*
X106098056Y-86207128D01*
X106098061Y-86207128D01*
X106104513Y-86208500D01*
X106295487Y-86208500D01*
X106301939Y-86207128D01*
X106301944Y-86207128D01*
X106388888Y-86188647D01*
X106482288Y-86168794D01*
X106550959Y-86138220D01*
X106650722Y-86093803D01*
X106650724Y-86093802D01*
X106656752Y-86091118D01*
X106677964Y-86075707D01*
X106805278Y-85983207D01*
X106811253Y-85978866D01*
X106815668Y-85973963D01*
X106820580Y-85969540D01*
X106821705Y-85970789D01*
X106875014Y-85937949D01*
X106908200Y-85933500D01*
X107985405Y-85933500D01*
X108053526Y-85953502D01*
X108074501Y-85970405D01*
X108336139Y-86232044D01*
X108596353Y-86492258D01*
X108603887Y-86500537D01*
X108608000Y-86507018D01*
X108653430Y-86549679D01*
X108657651Y-86553643D01*
X108660493Y-86556398D01*
X108680230Y-86576135D01*
X108683427Y-86578615D01*
X108692447Y-86586318D01*
X108724679Y-86616586D01*
X108731625Y-86620405D01*
X108731628Y-86620407D01*
X108742434Y-86626348D01*
X108758953Y-86637199D01*
X108774959Y-86649614D01*
X108782228Y-86652759D01*
X108782232Y-86652762D01*
X108815537Y-86667174D01*
X108826187Y-86672391D01*
X108864940Y-86693695D01*
X108872615Y-86695666D01*
X108872616Y-86695666D01*
X108884562Y-86698733D01*
X108903267Y-86705137D01*
X108921855Y-86713181D01*
X108929678Y-86714420D01*
X108929688Y-86714423D01*
X108965524Y-86720099D01*
X108977144Y-86722505D01*
X109012289Y-86731528D01*
X109019970Y-86733500D01*
X109040224Y-86733500D01*
X109059934Y-86735051D01*
X109079943Y-86738220D01*
X109087835Y-86737474D01*
X109123961Y-86734059D01*
X109135819Y-86733500D01*
X119085406Y-86733500D01*
X119153527Y-86753502D01*
X119174501Y-86770405D01*
X120452853Y-88048758D01*
X120486879Y-88111070D01*
X120489069Y-88151014D01*
X120488791Y-88153661D01*
X120461783Y-88219320D01*
X120403565Y-88259954D01*
X120363480Y-88266500D01*
X116508200Y-88266500D01*
X116440079Y-88246498D01*
X116420853Y-88230157D01*
X116420580Y-88230460D01*
X116415668Y-88226037D01*
X116411253Y-88221134D01*
X116350892Y-88177279D01*
X116262094Y-88112763D01*
X116262093Y-88112762D01*
X116256752Y-88108882D01*
X116250724Y-88106198D01*
X116250722Y-88106197D01*
X116088319Y-88033891D01*
X116088318Y-88033891D01*
X116082288Y-88031206D01*
X115960138Y-88005242D01*
X115901944Y-87992872D01*
X115901939Y-87992872D01*
X115895487Y-87991500D01*
X115704513Y-87991500D01*
X115698061Y-87992872D01*
X115698056Y-87992872D01*
X115639862Y-88005242D01*
X115517712Y-88031206D01*
X115511682Y-88033891D01*
X115511681Y-88033891D01*
X115349278Y-88106197D01*
X115349276Y-88106198D01*
X115343248Y-88108882D01*
X115188747Y-88221134D01*
X115184326Y-88226044D01*
X115184325Y-88226045D01*
X115070764Y-88352168D01*
X115060960Y-88363056D01*
X115057659Y-88368774D01*
X114992441Y-88481735D01*
X114965473Y-88528444D01*
X114906458Y-88710072D01*
X114886496Y-88900000D01*
X114887186Y-88906565D01*
X114905471Y-89080533D01*
X114906458Y-89089928D01*
X114965473Y-89271556D01*
X115060960Y-89436944D01*
X115065378Y-89441851D01*
X115065379Y-89441852D01*
X115147452Y-89533003D01*
X115188747Y-89578866D01*
X115343248Y-89691118D01*
X115349276Y-89693802D01*
X115349278Y-89693803D01*
X115511681Y-89766109D01*
X115517712Y-89768794D01*
X115611112Y-89788647D01*
X115698056Y-89807128D01*
X115698061Y-89807128D01*
X115704513Y-89808500D01*
X115895487Y-89808500D01*
X115901939Y-89807128D01*
X115901944Y-89807128D01*
X115988887Y-89788647D01*
X116082288Y-89768794D01*
X116088319Y-89766109D01*
X116250722Y-89693803D01*
X116250724Y-89693802D01*
X116256752Y-89691118D01*
X116411253Y-89578866D01*
X116415668Y-89573963D01*
X116420580Y-89569540D01*
X116421705Y-89570789D01*
X116475014Y-89537949D01*
X116508200Y-89533500D01*
X127321233Y-89533500D01*
X127332416Y-89534027D01*
X127339909Y-89535702D01*
X127347835Y-89535453D01*
X127347836Y-89535453D01*
X127407986Y-89533562D01*
X127411945Y-89533500D01*
X127439856Y-89533500D01*
X127443791Y-89533003D01*
X127443856Y-89532995D01*
X127455693Y-89532062D01*
X127487951Y-89531048D01*
X127491970Y-89530922D01*
X127499889Y-89530673D01*
X127519343Y-89525021D01*
X127538700Y-89521013D01*
X127550930Y-89519468D01*
X127550931Y-89519468D01*
X127558797Y-89518474D01*
X127566168Y-89515555D01*
X127566170Y-89515555D01*
X127599912Y-89502196D01*
X127611142Y-89498351D01*
X127645983Y-89488229D01*
X127645984Y-89488229D01*
X127653593Y-89486018D01*
X127660412Y-89481985D01*
X127660417Y-89481983D01*
X127671028Y-89475707D01*
X127688781Y-89467010D01*
X127699679Y-89462695D01*
X127770377Y-89456219D01*
X127833356Y-89488994D01*
X127868618Y-89550614D01*
X127864967Y-89621517D01*
X127835151Y-89668944D01*
X118262201Y-99241894D01*
X118199889Y-99275920D01*
X118129074Y-99270855D01*
X118072238Y-99228308D01*
X118047427Y-99161788D01*
X118053273Y-99113863D01*
X118091502Y-98996206D01*
X118093542Y-98989928D01*
X118103393Y-98896206D01*
X118112814Y-98806565D01*
X118113504Y-98800000D01*
X118095473Y-98628444D01*
X118094232Y-98616635D01*
X118094232Y-98616633D01*
X118093542Y-98610072D01*
X118034527Y-98428444D01*
X118015580Y-98395626D01*
X117982903Y-98339029D01*
X117939040Y-98263056D01*
X117858541Y-98173652D01*
X117815675Y-98126045D01*
X117815674Y-98126044D01*
X117811253Y-98121134D01*
X117704826Y-98043810D01*
X117662094Y-98012763D01*
X117662093Y-98012762D01*
X117656752Y-98008882D01*
X117650724Y-98006198D01*
X117650722Y-98006197D01*
X117488319Y-97933891D01*
X117488318Y-97933891D01*
X117482288Y-97931206D01*
X117377935Y-97909025D01*
X117301944Y-97892872D01*
X117301939Y-97892872D01*
X117295487Y-97891500D01*
X117239595Y-97891500D01*
X117171474Y-97871498D01*
X117150500Y-97854595D01*
X116203652Y-96907747D01*
X116196112Y-96899461D01*
X116192000Y-96892982D01*
X116142348Y-96846356D01*
X116139507Y-96843602D01*
X116119770Y-96823865D01*
X116116573Y-96821385D01*
X116107551Y-96813680D01*
X116081100Y-96788841D01*
X116075321Y-96783414D01*
X116068375Y-96779595D01*
X116068372Y-96779593D01*
X116057566Y-96773652D01*
X116041047Y-96762801D01*
X116040583Y-96762441D01*
X116025041Y-96750386D01*
X116017772Y-96747241D01*
X116017768Y-96747238D01*
X115984463Y-96732826D01*
X115973813Y-96727609D01*
X115935060Y-96706305D01*
X115915437Y-96701267D01*
X115896734Y-96694863D01*
X115885420Y-96689967D01*
X115885419Y-96689967D01*
X115878145Y-96686819D01*
X115870322Y-96685580D01*
X115870312Y-96685577D01*
X115834476Y-96679901D01*
X115822856Y-96677495D01*
X115787711Y-96668472D01*
X115787710Y-96668472D01*
X115780030Y-96666500D01*
X115759776Y-96666500D01*
X115740065Y-96664949D01*
X115727886Y-96663020D01*
X115720057Y-96661780D01*
X115712165Y-96662526D01*
X115676039Y-96665941D01*
X115664181Y-96666500D01*
X115533594Y-96666500D01*
X115465473Y-96646498D01*
X115418980Y-96592842D01*
X115408876Y-96522568D01*
X115438370Y-96457988D01*
X115444499Y-96451405D01*
X115750499Y-96145405D01*
X115812811Y-96111379D01*
X115839594Y-96108500D01*
X115895487Y-96108500D01*
X115901939Y-96107128D01*
X115901944Y-96107128D01*
X115988887Y-96088647D01*
X116082288Y-96068794D01*
X116121769Y-96051216D01*
X116250722Y-95993803D01*
X116250724Y-95993802D01*
X116256752Y-95991118D01*
X116411253Y-95878866D01*
X116473195Y-95810072D01*
X116534621Y-95741852D01*
X116534622Y-95741851D01*
X116539040Y-95736944D01*
X116619697Y-95597243D01*
X116631223Y-95577279D01*
X116631224Y-95577278D01*
X116634527Y-95571556D01*
X116693542Y-95389928D01*
X116699669Y-95331638D01*
X116712814Y-95206565D01*
X116713504Y-95200000D01*
X116709436Y-95161295D01*
X116694232Y-95016635D01*
X116694232Y-95016633D01*
X116693542Y-95010072D01*
X116634527Y-94828444D01*
X116617028Y-94798134D01*
X116564160Y-94706565D01*
X116539040Y-94663056D01*
X116522629Y-94644829D01*
X116415675Y-94526045D01*
X116415674Y-94526044D01*
X116411253Y-94521134D01*
X116296273Y-94437596D01*
X116262094Y-94412763D01*
X116262093Y-94412762D01*
X116256752Y-94408882D01*
X116250724Y-94406198D01*
X116250722Y-94406197D01*
X116088319Y-94333891D01*
X116088318Y-94333891D01*
X116082288Y-94331206D01*
X115985801Y-94310697D01*
X115901944Y-94292872D01*
X115901939Y-94292872D01*
X115895487Y-94291500D01*
X115704513Y-94291500D01*
X115698061Y-94292872D01*
X115698056Y-94292872D01*
X115614199Y-94310697D01*
X115517712Y-94331206D01*
X115511682Y-94333891D01*
X115511681Y-94333891D01*
X115349278Y-94406197D01*
X115349276Y-94406198D01*
X115343248Y-94408882D01*
X115337907Y-94412762D01*
X115337906Y-94412763D01*
X115296786Y-94442639D01*
X115188747Y-94521134D01*
X115184325Y-94526045D01*
X115184313Y-94526056D01*
X115120306Y-94556775D01*
X115049852Y-94548013D01*
X115015687Y-94526056D01*
X115015675Y-94526045D01*
X115011253Y-94521134D01*
X114903215Y-94442639D01*
X114862094Y-94412763D01*
X114862093Y-94412762D01*
X114856752Y-94408882D01*
X114850724Y-94406198D01*
X114850722Y-94406197D01*
X114688319Y-94333891D01*
X114688318Y-94333891D01*
X114682288Y-94331206D01*
X114585801Y-94310697D01*
X114501944Y-94292872D01*
X114501939Y-94292872D01*
X114495487Y-94291500D01*
X114439594Y-94291500D01*
X114371473Y-94271498D01*
X114350499Y-94254595D01*
X113691607Y-93595702D01*
X113003652Y-92907747D01*
X112996112Y-92899461D01*
X112992000Y-92892982D01*
X112942348Y-92846356D01*
X112939507Y-92843602D01*
X112919770Y-92823865D01*
X112916573Y-92821385D01*
X112907551Y-92813680D01*
X112881100Y-92788841D01*
X112875321Y-92783414D01*
X112868375Y-92779595D01*
X112868372Y-92779593D01*
X112857566Y-92773652D01*
X112841047Y-92762801D01*
X112840583Y-92762441D01*
X112825041Y-92750386D01*
X112817772Y-92747241D01*
X112817768Y-92747238D01*
X112784463Y-92732826D01*
X112773813Y-92727609D01*
X112735060Y-92706305D01*
X112715437Y-92701267D01*
X112696734Y-92694863D01*
X112685420Y-92689967D01*
X112685419Y-92689967D01*
X112678145Y-92686819D01*
X112670322Y-92685580D01*
X112670312Y-92685577D01*
X112634476Y-92679901D01*
X112622856Y-92677495D01*
X112587711Y-92668472D01*
X112587710Y-92668472D01*
X112580030Y-92666500D01*
X112559776Y-92666500D01*
X112540065Y-92664949D01*
X112527886Y-92663020D01*
X112520057Y-92661780D01*
X112512165Y-92662526D01*
X112476039Y-92665941D01*
X112464181Y-92666500D01*
X107614595Y-92666500D01*
X107546474Y-92646498D01*
X107525500Y-92629595D01*
X106470405Y-91574500D01*
X106436379Y-91512188D01*
X106433500Y-91485405D01*
X106433500Y-88378763D01*
X106434027Y-88367579D01*
X106435701Y-88360091D01*
X106433562Y-88292032D01*
X106433500Y-88288075D01*
X106433500Y-88260144D01*
X106432994Y-88256138D01*
X106432061Y-88244292D01*
X106431627Y-88230460D01*
X106430673Y-88200110D01*
X106425022Y-88180658D01*
X106421014Y-88161306D01*
X106419467Y-88149063D01*
X106418474Y-88141203D01*
X106412982Y-88127331D01*
X106402200Y-88100097D01*
X106398355Y-88088870D01*
X106392217Y-88067745D01*
X106386018Y-88046407D01*
X106381984Y-88039585D01*
X106381981Y-88039579D01*
X106375706Y-88028968D01*
X106367010Y-88011218D01*
X106362472Y-87999756D01*
X106362469Y-87999751D01*
X106359552Y-87992383D01*
X106337313Y-87961773D01*
X106333573Y-87956625D01*
X106327057Y-87946707D01*
X106310043Y-87917939D01*
X106304542Y-87908637D01*
X106290218Y-87894313D01*
X106277376Y-87879278D01*
X106265472Y-87862893D01*
X106231406Y-87834711D01*
X106222627Y-87826722D01*
X103403652Y-85007747D01*
X103396112Y-84999461D01*
X103392000Y-84992982D01*
X103342348Y-84946356D01*
X103339507Y-84943602D01*
X103319770Y-84923865D01*
X103316573Y-84921385D01*
X103307551Y-84913680D01*
X103281100Y-84888841D01*
X103275321Y-84883414D01*
X103268375Y-84879595D01*
X103268372Y-84879593D01*
X103257566Y-84873652D01*
X103241047Y-84862801D01*
X103231755Y-84855594D01*
X103225041Y-84850386D01*
X103217772Y-84847241D01*
X103217768Y-84847238D01*
X103184463Y-84832826D01*
X103173813Y-84827609D01*
X103135060Y-84806305D01*
X103115437Y-84801267D01*
X103096734Y-84794863D01*
X103085420Y-84789967D01*
X103085419Y-84789967D01*
X103078145Y-84786819D01*
X103070322Y-84785580D01*
X103070312Y-84785577D01*
X103034476Y-84779901D01*
X103022856Y-84777495D01*
X102987711Y-84768472D01*
X102987710Y-84768472D01*
X102980030Y-84766500D01*
X102959776Y-84766500D01*
X102940065Y-84764949D01*
X102927886Y-84763020D01*
X102920057Y-84761780D01*
X102912165Y-84762526D01*
X102876039Y-84765941D01*
X102864181Y-84766500D01*
X94614595Y-84766500D01*
X94546474Y-84746498D01*
X94525500Y-84729595D01*
X93147122Y-83351217D01*
X93113096Y-83288905D01*
X93110907Y-83275292D01*
X93094232Y-83116635D01*
X93094232Y-83116633D01*
X93093542Y-83110072D01*
X93034527Y-82928444D01*
X92939040Y-82763056D01*
X92850973Y-82665247D01*
X92815675Y-82626045D01*
X92815674Y-82626044D01*
X92811253Y-82621134D01*
X92656752Y-82508882D01*
X92650724Y-82506198D01*
X92650722Y-82506197D01*
X92488319Y-82433891D01*
X92488318Y-82433891D01*
X92482288Y-82431206D01*
X92388887Y-82411353D01*
X92301944Y-82392872D01*
X92301939Y-82392872D01*
X92295487Y-82391500D01*
X92104513Y-82391500D01*
X92098061Y-82392872D01*
X92098056Y-82392872D01*
X92011113Y-82411353D01*
X91917712Y-82431206D01*
X91911682Y-82433891D01*
X91911681Y-82433891D01*
X91749278Y-82506197D01*
X91749276Y-82506198D01*
X91743248Y-82508882D01*
X91588747Y-82621134D01*
X91584326Y-82626044D01*
X91584325Y-82626045D01*
X91549028Y-82665247D01*
X91460960Y-82763056D01*
X91365473Y-82928444D01*
X91306458Y-83110072D01*
X91286496Y-83300000D01*
X91306458Y-83489928D01*
X91365473Y-83671556D01*
X91460960Y-83836944D01*
X91465378Y-83841851D01*
X91465379Y-83841852D01*
X91486843Y-83865690D01*
X91517561Y-83929697D01*
X91508796Y-84000151D01*
X91486843Y-84034310D01*
X91460960Y-84063056D01*
X91457659Y-84068774D01*
X91387112Y-84190965D01*
X91365473Y-84228444D01*
X91306458Y-84410072D01*
X91305768Y-84416633D01*
X91305768Y-84416635D01*
X91299229Y-84478853D01*
X91286496Y-84600000D01*
X91287186Y-84606565D01*
X91305307Y-84778973D01*
X91306458Y-84789928D01*
X91365473Y-84971556D01*
X91368776Y-84977278D01*
X91368777Y-84977279D01*
X91393948Y-85020876D01*
X91460960Y-85136944D01*
X91465378Y-85141851D01*
X91465379Y-85141852D01*
X91519088Y-85201502D01*
X91588747Y-85278866D01*
X91642035Y-85317582D01*
X91716182Y-85371453D01*
X91743248Y-85391118D01*
X91749276Y-85393802D01*
X91749278Y-85393803D01*
X91892289Y-85457475D01*
X91917712Y-85468794D01*
X91986263Y-85483365D01*
X92098056Y-85507128D01*
X92098061Y-85507128D01*
X92104513Y-85508500D01*
X92160405Y-85508500D01*
X92228526Y-85528502D01*
X92249501Y-85545405D01*
X92673191Y-85969096D01*
X93096353Y-86392258D01*
X93103887Y-86400537D01*
X93108000Y-86407018D01*
X93157651Y-86453643D01*
X93160493Y-86456398D01*
X93180230Y-86476135D01*
X93183427Y-86478615D01*
X93192447Y-86486318D01*
X93224679Y-86516586D01*
X93231625Y-86520405D01*
X93231628Y-86520407D01*
X93242434Y-86526348D01*
X93258953Y-86537199D01*
X93274959Y-86549614D01*
X93282228Y-86552759D01*
X93282232Y-86552762D01*
X93315537Y-86567174D01*
X93326187Y-86572391D01*
X93364940Y-86593695D01*
X93372615Y-86595666D01*
X93372616Y-86595666D01*
X93384562Y-86598733D01*
X93403267Y-86605137D01*
X93421855Y-86613181D01*
X93429678Y-86614420D01*
X93429688Y-86614423D01*
X93465524Y-86620099D01*
X93477144Y-86622505D01*
X93510704Y-86631121D01*
X93519970Y-86633500D01*
X93540224Y-86633500D01*
X93559934Y-86635051D01*
X93579943Y-86638220D01*
X93587835Y-86637474D01*
X93623961Y-86634059D01*
X93635819Y-86633500D01*
X102549010Y-86633500D01*
X102617131Y-86653502D01*
X102638105Y-86670405D01*
X104661397Y-88693698D01*
X104695423Y-88756010D01*
X104698302Y-88782793D01*
X104698302Y-91889431D01*
X104697775Y-91900614D01*
X104696100Y-91908107D01*
X104696349Y-91916033D01*
X104696349Y-91916034D01*
X104698240Y-91976184D01*
X104698302Y-91980143D01*
X104698302Y-92008054D01*
X104698799Y-92011988D01*
X104698799Y-92011989D01*
X104698807Y-92012054D01*
X104699740Y-92023891D01*
X104701129Y-92068087D01*
X104706780Y-92087537D01*
X104710789Y-92106898D01*
X104713328Y-92126995D01*
X104716247Y-92134366D01*
X104716247Y-92134368D01*
X104729606Y-92168110D01*
X104733451Y-92179340D01*
X104745784Y-92221791D01*
X104749817Y-92228610D01*
X104749819Y-92228615D01*
X104756095Y-92239226D01*
X104764790Y-92256974D01*
X104772250Y-92275815D01*
X104776912Y-92282231D01*
X104776912Y-92282232D01*
X104798238Y-92311585D01*
X104804754Y-92321505D01*
X104827260Y-92359560D01*
X104841581Y-92373881D01*
X104854421Y-92388914D01*
X104866330Y-92405305D01*
X104872436Y-92410356D01*
X104900407Y-92433496D01*
X104909186Y-92441486D01*
X106609947Y-94142247D01*
X106617491Y-94150537D01*
X106621604Y-94157018D01*
X106627381Y-94162443D01*
X106671271Y-94203658D01*
X106674113Y-94206413D01*
X106693835Y-94226135D01*
X106696959Y-94228558D01*
X106696963Y-94228562D01*
X106697028Y-94228612D01*
X106706049Y-94236317D01*
X106738283Y-94266586D01*
X106745231Y-94270405D01*
X106745233Y-94270407D01*
X106756036Y-94276346D01*
X106772563Y-94287202D01*
X106782302Y-94294757D01*
X106782304Y-94294758D01*
X106788564Y-94299614D01*
X106829144Y-94317174D01*
X106839792Y-94322391D01*
X106860711Y-94333891D01*
X106878544Y-94343695D01*
X106886220Y-94345666D01*
X106886223Y-94345667D01*
X106898166Y-94348733D01*
X106916871Y-94355137D01*
X106935459Y-94363181D01*
X106943282Y-94364420D01*
X106943292Y-94364423D01*
X106979128Y-94370099D01*
X106990748Y-94372505D01*
X107025893Y-94381528D01*
X107033574Y-94383500D01*
X107053828Y-94383500D01*
X107073538Y-94385051D01*
X107093547Y-94388220D01*
X107101439Y-94387474D01*
X107137565Y-94384059D01*
X107149423Y-94383500D01*
X111410808Y-94383500D01*
X111478929Y-94403502D01*
X111499903Y-94420405D01*
X112240579Y-95161081D01*
X112274605Y-95223393D01*
X112276793Y-95237002D01*
X112282067Y-95287176D01*
X112293032Y-95391500D01*
X112294159Y-95402227D01*
X112296198Y-95408503D01*
X112297431Y-95414302D01*
X112292030Y-95485093D01*
X112249214Y-95541726D01*
X112182576Y-95566220D01*
X112174185Y-95566500D01*
X110655520Y-95566500D01*
X110644337Y-95565973D01*
X110636844Y-95564298D01*
X110628918Y-95564547D01*
X110628917Y-95564547D01*
X110568754Y-95566438D01*
X110564796Y-95566500D01*
X110536896Y-95566500D01*
X110532906Y-95567004D01*
X110521072Y-95567936D01*
X110476863Y-95569326D01*
X110469247Y-95571539D01*
X110469245Y-95571539D01*
X110457404Y-95574979D01*
X110438045Y-95578988D01*
X110436735Y-95579154D01*
X110417955Y-95581526D01*
X110410589Y-95584442D01*
X110410583Y-95584444D01*
X110376850Y-95597800D01*
X110365620Y-95601645D01*
X110330769Y-95611770D01*
X110323159Y-95613981D01*
X110316336Y-95618016D01*
X110305718Y-95624295D01*
X110287965Y-95632992D01*
X110280320Y-95636019D01*
X110269135Y-95640448D01*
X110262720Y-95645109D01*
X110233364Y-95666437D01*
X110223447Y-95672951D01*
X110185390Y-95695458D01*
X110171069Y-95709779D01*
X110156036Y-95722619D01*
X110139645Y-95734528D01*
X110111454Y-95768605D01*
X110103464Y-95777384D01*
X108026252Y-97854595D01*
X107963940Y-97888621D01*
X107937157Y-97891500D01*
X107904513Y-97891500D01*
X107898061Y-97892872D01*
X107898056Y-97892872D01*
X107822065Y-97909025D01*
X107717712Y-97931206D01*
X107711682Y-97933891D01*
X107711681Y-97933891D01*
X107549278Y-98006197D01*
X107549276Y-98006198D01*
X107543248Y-98008882D01*
X107537907Y-98012762D01*
X107537906Y-98012763D01*
X107495174Y-98043810D01*
X107388747Y-98121134D01*
X107384326Y-98126044D01*
X107384325Y-98126045D01*
X107341460Y-98173652D01*
X107260960Y-98263056D01*
X107217097Y-98339029D01*
X107184421Y-98395626D01*
X107165473Y-98428444D01*
X107106458Y-98610072D01*
X107105768Y-98616633D01*
X107105768Y-98616635D01*
X107104527Y-98628444D01*
X107086496Y-98800000D01*
X107087186Y-98806565D01*
X107096608Y-98896206D01*
X107106458Y-98989928D01*
X107165473Y-99171556D01*
X107168776Y-99177278D01*
X107168777Y-99177279D01*
X107186803Y-99208500D01*
X107260960Y-99336944D01*
X107265378Y-99341851D01*
X107265379Y-99341852D01*
X107384325Y-99473955D01*
X107388747Y-99478866D01*
X107543248Y-99591118D01*
X107549276Y-99593802D01*
X107549278Y-99593803D01*
X107711679Y-99666108D01*
X107717712Y-99668794D01*
X107783365Y-99682749D01*
X107898056Y-99707128D01*
X107898061Y-99707128D01*
X107904513Y-99708500D01*
X108095487Y-99708500D01*
X108101939Y-99707128D01*
X108101944Y-99707128D01*
X108216635Y-99682749D01*
X108282288Y-99668794D01*
X108288321Y-99666108D01*
X108450722Y-99593803D01*
X108450724Y-99593802D01*
X108456752Y-99591118D01*
X108521542Y-99544045D01*
X108588407Y-99520188D01*
X108657559Y-99536268D01*
X108669657Y-99544043D01*
X108766623Y-99614493D01*
X108772651Y-99617177D01*
X108772653Y-99617178D01*
X108919756Y-99682672D01*
X108941087Y-99692169D01*
X109017918Y-99708500D01*
X109121431Y-99730503D01*
X109121436Y-99730503D01*
X109127888Y-99731875D01*
X109318862Y-99731875D01*
X109325314Y-99730503D01*
X109325319Y-99730503D01*
X109428832Y-99708500D01*
X109505663Y-99692169D01*
X109526994Y-99682672D01*
X109674097Y-99617178D01*
X109674099Y-99617177D01*
X109680127Y-99614493D01*
X109834628Y-99502241D01*
X109842226Y-99493803D01*
X109957996Y-99365227D01*
X109957997Y-99365226D01*
X109962415Y-99360319D01*
X110057902Y-99194931D01*
X110116917Y-99013303D01*
X110120537Y-98978866D01*
X110134282Y-98848082D01*
X110161295Y-98782425D01*
X110170497Y-98772157D01*
X110972249Y-97970405D01*
X111034561Y-97936379D01*
X111061344Y-97933500D01*
X115385406Y-97933500D01*
X115453527Y-97953502D01*
X115474501Y-97970405D01*
X116252878Y-98748782D01*
X116286904Y-98811094D01*
X116289092Y-98824703D01*
X116306458Y-98989928D01*
X116365473Y-99171556D01*
X116368776Y-99177278D01*
X116368777Y-99177279D01*
X116386803Y-99208500D01*
X116460960Y-99336944D01*
X116465378Y-99341851D01*
X116465379Y-99341852D01*
X116584325Y-99473955D01*
X116588747Y-99478866D01*
X116743248Y-99591118D01*
X116749276Y-99593802D01*
X116749278Y-99593803D01*
X116911679Y-99666108D01*
X116917712Y-99668794D01*
X116983365Y-99682749D01*
X117098056Y-99707128D01*
X117098061Y-99707128D01*
X117104513Y-99708500D01*
X117295487Y-99708500D01*
X117301939Y-99707128D01*
X117301944Y-99707128D01*
X117416635Y-99682749D01*
X117482288Y-99668794D01*
X117488315Y-99666111D01*
X117488323Y-99666108D01*
X117497551Y-99661999D01*
X117567918Y-99652565D01*
X117632215Y-99682672D01*
X117670028Y-99742761D01*
X117669352Y-99813754D01*
X117637894Y-99866201D01*
X117274500Y-100229595D01*
X117212188Y-100263621D01*
X117185405Y-100266500D01*
X115038768Y-100266500D01*
X115027585Y-100265973D01*
X115020092Y-100264298D01*
X115012166Y-100264547D01*
X115012165Y-100264547D01*
X114952002Y-100266438D01*
X114948044Y-100266500D01*
X114920144Y-100266500D01*
X114916154Y-100267004D01*
X114904320Y-100267936D01*
X114860111Y-100269326D01*
X114852497Y-100271538D01*
X114852492Y-100271539D01*
X114840659Y-100274977D01*
X114821296Y-100278988D01*
X114801203Y-100281526D01*
X114793836Y-100284443D01*
X114793831Y-100284444D01*
X114760092Y-100297802D01*
X114748865Y-100301646D01*
X114706407Y-100313982D01*
X114699581Y-100318019D01*
X114688972Y-100324293D01*
X114671224Y-100332988D01*
X114652383Y-100340448D01*
X114645967Y-100345110D01*
X114645966Y-100345110D01*
X114616613Y-100366436D01*
X114606693Y-100372952D01*
X114575465Y-100391420D01*
X114575462Y-100391422D01*
X114568638Y-100395458D01*
X114554317Y-100409779D01*
X114539284Y-100422619D01*
X114522893Y-100434528D01*
X114517842Y-100440634D01*
X114494702Y-100468605D01*
X114486712Y-100477384D01*
X112857345Y-102106750D01*
X112795033Y-102140776D01*
X112746154Y-102141702D01*
X112533373Y-102103800D01*
X112533367Y-102103799D01*
X112528284Y-102102894D01*
X112454452Y-102101992D01*
X112310081Y-102100228D01*
X112310079Y-102100228D01*
X112304911Y-102100165D01*
X112084091Y-102133955D01*
X111871756Y-102203357D01*
X111843769Y-102217926D01*
X111767017Y-102257881D01*
X111673607Y-102306507D01*
X111669474Y-102309610D01*
X111669471Y-102309612D01*
X111499100Y-102437530D01*
X111494965Y-102440635D01*
X111340629Y-102602138D01*
X111214743Y-102786680D01*
X111120688Y-102989305D01*
X111060989Y-103204570D01*
X111037251Y-103426695D01*
X111050110Y-103649715D01*
X111051247Y-103654761D01*
X111051248Y-103654767D01*
X111075304Y-103761508D01*
X111099222Y-103867639D01*
X111157908Y-104012165D01*
X111160316Y-104018096D01*
X111167412Y-104088737D01*
X111135190Y-104152001D01*
X111073880Y-104187801D01*
X111043573Y-104191500D01*
X110139594Y-104191500D01*
X110071473Y-104171498D01*
X110050499Y-104154595D01*
X107288887Y-101392982D01*
X104503652Y-98607747D01*
X104496112Y-98599461D01*
X104492000Y-98592982D01*
X104442348Y-98546356D01*
X104439507Y-98543602D01*
X104419770Y-98523865D01*
X104416573Y-98521385D01*
X104407551Y-98513680D01*
X104400574Y-98507128D01*
X104375321Y-98483414D01*
X104368375Y-98479595D01*
X104368372Y-98479593D01*
X104357566Y-98473652D01*
X104341047Y-98462801D01*
X104335048Y-98458148D01*
X104325041Y-98450386D01*
X104317772Y-98447241D01*
X104317768Y-98447238D01*
X104284463Y-98432826D01*
X104273813Y-98427609D01*
X104235060Y-98406305D01*
X104215437Y-98401267D01*
X104196734Y-98394863D01*
X104185420Y-98389967D01*
X104185419Y-98389967D01*
X104178145Y-98386819D01*
X104170322Y-98385580D01*
X104170312Y-98385577D01*
X104134476Y-98379901D01*
X104122856Y-98377495D01*
X104087711Y-98368472D01*
X104087710Y-98368472D01*
X104080030Y-98366500D01*
X104059776Y-98366500D01*
X104040065Y-98364949D01*
X104027886Y-98363020D01*
X104020057Y-98361780D01*
X104012165Y-98362526D01*
X103976039Y-98365941D01*
X103964181Y-98366500D01*
X103008200Y-98366500D01*
X102940079Y-98346498D01*
X102920853Y-98330157D01*
X102920580Y-98330460D01*
X102915668Y-98326037D01*
X102911253Y-98321134D01*
X102774038Y-98221441D01*
X102762094Y-98212763D01*
X102762093Y-98212762D01*
X102756752Y-98208882D01*
X102750724Y-98206198D01*
X102750722Y-98206197D01*
X102588319Y-98133891D01*
X102588318Y-98133891D01*
X102582288Y-98131206D01*
X102488887Y-98111353D01*
X102401944Y-98092872D01*
X102401939Y-98092872D01*
X102395487Y-98091500D01*
X102204513Y-98091500D01*
X102198061Y-98092872D01*
X102198056Y-98092872D01*
X102111113Y-98111353D01*
X102017712Y-98131206D01*
X102011682Y-98133891D01*
X102011681Y-98133891D01*
X101849278Y-98206197D01*
X101849276Y-98206198D01*
X101843248Y-98208882D01*
X101837907Y-98212762D01*
X101837906Y-98212763D01*
X101825962Y-98221441D01*
X101688747Y-98321134D01*
X101684326Y-98326044D01*
X101684325Y-98326045D01*
X101575203Y-98447238D01*
X101560960Y-98463056D01*
X101465473Y-98628444D01*
X101406458Y-98810072D01*
X101405768Y-98816633D01*
X101405768Y-98816635D01*
X101403118Y-98841852D01*
X101386496Y-99000000D01*
X101387186Y-99006565D01*
X101405129Y-99177279D01*
X101406458Y-99189928D01*
X101465473Y-99371556D01*
X101560960Y-99536944D01*
X101565378Y-99541851D01*
X101565379Y-99541852D01*
X101679678Y-99668794D01*
X101688747Y-99678866D01*
X101843248Y-99791118D01*
X101849276Y-99793802D01*
X101849278Y-99793803D01*
X102011681Y-99866109D01*
X102017712Y-99868794D01*
X102111112Y-99888647D01*
X102198056Y-99907128D01*
X102198061Y-99907128D01*
X102204513Y-99908500D01*
X102395487Y-99908500D01*
X102401939Y-99907128D01*
X102401944Y-99907128D01*
X102488888Y-99888647D01*
X102582288Y-99868794D01*
X102588319Y-99866109D01*
X102750722Y-99793803D01*
X102750724Y-99793802D01*
X102756752Y-99791118D01*
X102823310Y-99742761D01*
X102896639Y-99689484D01*
X102911253Y-99678866D01*
X102915668Y-99673963D01*
X102920580Y-99669540D01*
X102921705Y-99670789D01*
X102975014Y-99637949D01*
X103008200Y-99633500D01*
X103685406Y-99633500D01*
X103753527Y-99653502D01*
X103774501Y-99670405D01*
X106548468Y-102444373D01*
X109321348Y-105217253D01*
X109328888Y-105225539D01*
X109333000Y-105232018D01*
X109338777Y-105237443D01*
X109382651Y-105278643D01*
X109385493Y-105281398D01*
X109405230Y-105301135D01*
X109408427Y-105303615D01*
X109417447Y-105311318D01*
X109449679Y-105341586D01*
X109456625Y-105345405D01*
X109456628Y-105345407D01*
X109467434Y-105351348D01*
X109483953Y-105362199D01*
X109499959Y-105374614D01*
X109507228Y-105377759D01*
X109507232Y-105377762D01*
X109540537Y-105392174D01*
X109551187Y-105397391D01*
X109589940Y-105418695D01*
X109597615Y-105420666D01*
X109597616Y-105420666D01*
X109609562Y-105423733D01*
X109628266Y-105430137D01*
X109636038Y-105433500D01*
X109646855Y-105438181D01*
X109654678Y-105439420D01*
X109654688Y-105439423D01*
X109690524Y-105445099D01*
X109702144Y-105447505D01*
X109737289Y-105456528D01*
X109744970Y-105458500D01*
X109765224Y-105458500D01*
X109784934Y-105460051D01*
X109804943Y-105463220D01*
X109812835Y-105462474D01*
X109848961Y-105459059D01*
X109860819Y-105458500D01*
X110916000Y-105458500D01*
X110984121Y-105478502D01*
X111030614Y-105532158D01*
X111042000Y-105584500D01*
X111042000Y-105727885D01*
X111046475Y-105743124D01*
X111047865Y-105744329D01*
X111055548Y-105746000D01*
X112528000Y-105746000D01*
X112596121Y-105766002D01*
X112642614Y-105819658D01*
X112654000Y-105872000D01*
X112654000Y-106128000D01*
X112633998Y-106196121D01*
X112580342Y-106242614D01*
X112528000Y-106254000D01*
X111060116Y-106254000D01*
X111044877Y-106258475D01*
X111043672Y-106259865D01*
X111042001Y-106267548D01*
X111042001Y-106415500D01*
X111021999Y-106483621D01*
X110968343Y-106530114D01*
X110916001Y-106541500D01*
X108889594Y-106541500D01*
X108821473Y-106521498D01*
X108800499Y-106504595D01*
X104747122Y-102451217D01*
X104713096Y-102388905D01*
X104710907Y-102375292D01*
X104710254Y-102369074D01*
X104694495Y-102219137D01*
X104694232Y-102216635D01*
X104694232Y-102216633D01*
X104693542Y-102210072D01*
X104634527Y-102028444D01*
X104539040Y-101863056D01*
X104423201Y-101734403D01*
X104415675Y-101726045D01*
X104415674Y-101726044D01*
X104411253Y-101721134D01*
X104256752Y-101608882D01*
X104250724Y-101606198D01*
X104250722Y-101606197D01*
X104088319Y-101533891D01*
X104088318Y-101533891D01*
X104082288Y-101531206D01*
X103988887Y-101511353D01*
X103901944Y-101492872D01*
X103901939Y-101492872D01*
X103895487Y-101491500D01*
X103704513Y-101491500D01*
X103698061Y-101492872D01*
X103698056Y-101492872D01*
X103611113Y-101511353D01*
X103517712Y-101531206D01*
X103511682Y-101533891D01*
X103511681Y-101533891D01*
X103349278Y-101606197D01*
X103349276Y-101606198D01*
X103343248Y-101608882D01*
X103188747Y-101721134D01*
X103184326Y-101726044D01*
X103184325Y-101726045D01*
X103176800Y-101734403D01*
X103060960Y-101863056D01*
X102965473Y-102028444D01*
X102906458Y-102210072D01*
X102905768Y-102216633D01*
X102905768Y-102216635D01*
X102890957Y-102357559D01*
X102886496Y-102400000D01*
X102887186Y-102406565D01*
X102890441Y-102437530D01*
X102906458Y-102589928D01*
X102965473Y-102771556D01*
X102968776Y-102777278D01*
X102968777Y-102777279D01*
X102978338Y-102793839D01*
X103060960Y-102936944D01*
X103065378Y-102941851D01*
X103065379Y-102941852D01*
X103150904Y-103036837D01*
X103188747Y-103078866D01*
X103343248Y-103191118D01*
X103349276Y-103193802D01*
X103349278Y-103193803D01*
X103511681Y-103266109D01*
X103517712Y-103268794D01*
X103609151Y-103288230D01*
X103698056Y-103307128D01*
X103698061Y-103307128D01*
X103704513Y-103308500D01*
X103760406Y-103308500D01*
X103828527Y-103328502D01*
X103849501Y-103345405D01*
X105960623Y-105456528D01*
X108071348Y-107567253D01*
X108078888Y-107575539D01*
X108083000Y-107582018D01*
X108088777Y-107587443D01*
X108132651Y-107628643D01*
X108135493Y-107631398D01*
X108155230Y-107651135D01*
X108158427Y-107653615D01*
X108167447Y-107661318D01*
X108199679Y-107691586D01*
X108206625Y-107695405D01*
X108206628Y-107695407D01*
X108217434Y-107701348D01*
X108233953Y-107712199D01*
X108249959Y-107724614D01*
X108257228Y-107727759D01*
X108257232Y-107727762D01*
X108290537Y-107742174D01*
X108301187Y-107747391D01*
X108339940Y-107768695D01*
X108347615Y-107770666D01*
X108347616Y-107770666D01*
X108359562Y-107773733D01*
X108378267Y-107780137D01*
X108396855Y-107788181D01*
X108404678Y-107789420D01*
X108404688Y-107789423D01*
X108440524Y-107795099D01*
X108452144Y-107797505D01*
X108483959Y-107805673D01*
X108494970Y-107808500D01*
X108515224Y-107808500D01*
X108534934Y-107810051D01*
X108554943Y-107813220D01*
X108562835Y-107812474D01*
X108581580Y-107810702D01*
X108598962Y-107809059D01*
X108610819Y-107808500D01*
X116226233Y-107808500D01*
X116237416Y-107809027D01*
X116244909Y-107810702D01*
X116252835Y-107810453D01*
X116252836Y-107810453D01*
X116312986Y-107808562D01*
X116316945Y-107808500D01*
X116344856Y-107808500D01*
X116348791Y-107808003D01*
X116348856Y-107807995D01*
X116360693Y-107807062D01*
X116392951Y-107806048D01*
X116396970Y-107805922D01*
X116404889Y-107805673D01*
X116424343Y-107800021D01*
X116443700Y-107796013D01*
X116455930Y-107794468D01*
X116455931Y-107794468D01*
X116463797Y-107793474D01*
X116471168Y-107790555D01*
X116471170Y-107790555D01*
X116504912Y-107777196D01*
X116516142Y-107773351D01*
X116550983Y-107763229D01*
X116550984Y-107763229D01*
X116558593Y-107761018D01*
X116565412Y-107756985D01*
X116565417Y-107756983D01*
X116576028Y-107750707D01*
X116593776Y-107742012D01*
X116612617Y-107734552D01*
X116648387Y-107708564D01*
X116658307Y-107702048D01*
X116689535Y-107683580D01*
X116689538Y-107683578D01*
X116696362Y-107679542D01*
X116710683Y-107665221D01*
X116725717Y-107652380D01*
X116735694Y-107645131D01*
X116742107Y-107640472D01*
X116770298Y-107606395D01*
X116778288Y-107597616D01*
X117024549Y-107351355D01*
X117086861Y-107317329D01*
X117138762Y-107316979D01*
X117318597Y-107353567D01*
X117323772Y-107353757D01*
X117323774Y-107353757D01*
X117536673Y-107361564D01*
X117536677Y-107361564D01*
X117541837Y-107361753D01*
X117546957Y-107361097D01*
X117546959Y-107361097D01*
X117758288Y-107334025D01*
X117758289Y-107334025D01*
X117763416Y-107333368D01*
X117768369Y-107331882D01*
X117972429Y-107270661D01*
X117972434Y-107270659D01*
X117977384Y-107269174D01*
X118177994Y-107170896D01*
X118359860Y-107041173D01*
X118386333Y-107014793D01*
X118500119Y-106901403D01*
X118518096Y-106883489D01*
X118648453Y-106702077D01*
X118649776Y-106703028D01*
X118696645Y-106659857D01*
X118766580Y-106647625D01*
X118832026Y-106675144D01*
X118859875Y-106706994D01*
X118919987Y-106805088D01*
X119066250Y-106973938D01*
X119238126Y-107116632D01*
X119431000Y-107229338D01*
X119435825Y-107231180D01*
X119435826Y-107231181D01*
X119486122Y-107250387D01*
X119639692Y-107309030D01*
X119644760Y-107310061D01*
X119644763Y-107310062D01*
X119752012Y-107331882D01*
X119858597Y-107353567D01*
X119863772Y-107353757D01*
X119863774Y-107353757D01*
X120076673Y-107361564D01*
X120076677Y-107361564D01*
X120081837Y-107361753D01*
X120086957Y-107361097D01*
X120086959Y-107361097D01*
X120298288Y-107334025D01*
X120298289Y-107334025D01*
X120303416Y-107333368D01*
X120308367Y-107331883D01*
X120308370Y-107331882D01*
X120349829Y-107319444D01*
X120420825Y-107319028D01*
X120475131Y-107351035D01*
X122400500Y-109276405D01*
X122434526Y-109338717D01*
X122429461Y-109409533D01*
X122386914Y-109466368D01*
X122320394Y-109491179D01*
X122311405Y-109491500D01*
X90049367Y-109491500D01*
X90029982Y-109490000D01*
X90015149Y-109487690D01*
X90015145Y-109487690D01*
X90006276Y-109486309D01*
X89985817Y-109488984D01*
X89963993Y-109489928D01*
X89614035Y-109474648D01*
X89603086Y-109473690D01*
X89586436Y-109471498D01*
X89225502Y-109423981D01*
X89214693Y-109422074D01*
X88842885Y-109339647D01*
X88832268Y-109336802D01*
X88661593Y-109282988D01*
X88469061Y-109222282D01*
X88458746Y-109218529D01*
X88106877Y-109072780D01*
X88096933Y-109068142D01*
X87759132Y-108892294D01*
X87749613Y-108886799D01*
X87428426Y-108682180D01*
X87419422Y-108675876D01*
X87117284Y-108444038D01*
X87108863Y-108436972D01*
X86828086Y-108179686D01*
X86820314Y-108171914D01*
X86563028Y-107891137D01*
X86555962Y-107882716D01*
X86324124Y-107580578D01*
X86317820Y-107571574D01*
X86113201Y-107250387D01*
X86107705Y-107240867D01*
X86093570Y-107213713D01*
X85931858Y-106903067D01*
X85927216Y-106893114D01*
X85924741Y-106887137D01*
X85781471Y-106541254D01*
X85777715Y-106530932D01*
X85774741Y-106521498D01*
X85663198Y-106167731D01*
X85660353Y-106157114D01*
X85585541Y-105819658D01*
X85577926Y-105785307D01*
X85576018Y-105774490D01*
X85575736Y-105772342D01*
X85526310Y-105396913D01*
X85525352Y-105385964D01*
X85517986Y-105217253D01*
X85510561Y-105047206D01*
X85512188Y-105020805D01*
X85512769Y-105017352D01*
X85512770Y-105017345D01*
X85513576Y-105012552D01*
X85513729Y-105000000D01*
X85509773Y-104972376D01*
X85508500Y-104954514D01*
X85508500Y-104132703D01*
X88390743Y-104132703D01*
X88391302Y-104136947D01*
X88391302Y-104136951D01*
X88405132Y-104242001D01*
X88428268Y-104417734D01*
X88504129Y-104695036D01*
X88505813Y-104698984D01*
X88614807Y-104954514D01*
X88616923Y-104959476D01*
X88653628Y-105020805D01*
X88739602Y-105164457D01*
X88764561Y-105206161D01*
X88944313Y-105430528D01*
X88994867Y-105478502D01*
X89120414Y-105597641D01*
X89152851Y-105628423D01*
X89386317Y-105796186D01*
X89390112Y-105798195D01*
X89390113Y-105798196D01*
X89411869Y-105809715D01*
X89640392Y-105930712D01*
X89910373Y-106029511D01*
X90191264Y-106090755D01*
X90219841Y-106093004D01*
X90414282Y-106108307D01*
X90414291Y-106108307D01*
X90416739Y-106108500D01*
X90572271Y-106108500D01*
X90574407Y-106108354D01*
X90574418Y-106108354D01*
X90782548Y-106094165D01*
X90782554Y-106094164D01*
X90786825Y-106093873D01*
X90791020Y-106093004D01*
X90791022Y-106093004D01*
X90934747Y-106063240D01*
X91068342Y-106035574D01*
X91339343Y-105939607D01*
X91594812Y-105807750D01*
X91598313Y-105805289D01*
X91598317Y-105805287D01*
X91730178Y-105712613D01*
X91830023Y-105642441D01*
X91908403Y-105569606D01*
X92037479Y-105449661D01*
X92037481Y-105449658D01*
X92040622Y-105446740D01*
X92222713Y-105224268D01*
X92372927Y-104979142D01*
X92488483Y-104715898D01*
X92567244Y-104439406D01*
X92607751Y-104154784D01*
X92607845Y-104136951D01*
X92609235Y-103871583D01*
X92609235Y-103871576D01*
X92609257Y-103867297D01*
X92571732Y-103582266D01*
X92495871Y-103304964D01*
X92450924Y-103199588D01*
X92384763Y-103044476D01*
X92384761Y-103044472D01*
X92383077Y-103040524D01*
X92308527Y-102915960D01*
X92237643Y-102797521D01*
X92237640Y-102797517D01*
X92235439Y-102793839D01*
X92055687Y-102569472D01*
X91847149Y-102371577D01*
X91633322Y-102217926D01*
X91617172Y-102206321D01*
X91617171Y-102206320D01*
X91613683Y-102203814D01*
X91596221Y-102194568D01*
X91531078Y-102160077D01*
X91359608Y-102069288D01*
X91089627Y-101970489D01*
X90808736Y-101909245D01*
X90777685Y-101906801D01*
X90585718Y-101891693D01*
X90585709Y-101891693D01*
X90583261Y-101891500D01*
X90427729Y-101891500D01*
X90425593Y-101891646D01*
X90425582Y-101891646D01*
X90217452Y-101905835D01*
X90217446Y-101905836D01*
X90213175Y-101906127D01*
X90208980Y-101906996D01*
X90208978Y-101906996D01*
X90072416Y-101935277D01*
X89931658Y-101964426D01*
X89660657Y-102060393D01*
X89656848Y-102062359D01*
X89510180Y-102138060D01*
X89405188Y-102192250D01*
X89401687Y-102194711D01*
X89401683Y-102194713D01*
X89362068Y-102222555D01*
X89169977Y-102357559D01*
X89154892Y-102371577D01*
X89052345Y-102466870D01*
X88959378Y-102553260D01*
X88777287Y-102775732D01*
X88627073Y-103020858D01*
X88511517Y-103284102D01*
X88432756Y-103560594D01*
X88392249Y-103845216D01*
X88392227Y-103849505D01*
X88392226Y-103849512D01*
X88390765Y-104128417D01*
X88390743Y-104132703D01*
X85508500Y-104132703D01*
X85508500Y-81100000D01*
X99586496Y-81100000D01*
X99587186Y-81106565D01*
X99601899Y-81246548D01*
X99606458Y-81289928D01*
X99665473Y-81471556D01*
X99760960Y-81636944D01*
X99765378Y-81641851D01*
X99765379Y-81641852D01*
X99862072Y-81749240D01*
X99888747Y-81778866D01*
X99987843Y-81850864D01*
X100031724Y-81882745D01*
X100043248Y-81891118D01*
X100049276Y-81893802D01*
X100049278Y-81893803D01*
X100198479Y-81960231D01*
X100217712Y-81968794D01*
X100304479Y-81987237D01*
X100398056Y-82007128D01*
X100398061Y-82007128D01*
X100404513Y-82008500D01*
X100595487Y-82008500D01*
X100601939Y-82007128D01*
X100601944Y-82007128D01*
X100695521Y-81987237D01*
X100782288Y-81968794D01*
X100801521Y-81960231D01*
X100950722Y-81893803D01*
X100950724Y-81893802D01*
X100956752Y-81891118D01*
X100968277Y-81882745D01*
X101002935Y-81857564D01*
X101069803Y-81833706D01*
X101076996Y-81833500D01*
X110591800Y-81833500D01*
X110659921Y-81853502D01*
X110679147Y-81869843D01*
X110679420Y-81869540D01*
X110684332Y-81873963D01*
X110688747Y-81878866D01*
X110697640Y-81885327D01*
X110832642Y-81983412D01*
X110843248Y-81991118D01*
X110849276Y-81993802D01*
X110849278Y-81993803D01*
X110996837Y-82059500D01*
X111017712Y-82068794D01*
X111111112Y-82088647D01*
X111198056Y-82107128D01*
X111198061Y-82107128D01*
X111204513Y-82108500D01*
X111395487Y-82108500D01*
X111401939Y-82107128D01*
X111401944Y-82107128D01*
X111488888Y-82088647D01*
X111582288Y-82068794D01*
X111603163Y-82059500D01*
X111750722Y-81993803D01*
X111750724Y-81993802D01*
X111756752Y-81991118D01*
X111767359Y-81983412D01*
X111894219Y-81891242D01*
X111911253Y-81878866D01*
X111919650Y-81869540D01*
X112034621Y-81741852D01*
X112034622Y-81741851D01*
X112039040Y-81736944D01*
X112126887Y-81584789D01*
X112131223Y-81577279D01*
X112131224Y-81577278D01*
X112134527Y-81571556D01*
X112193542Y-81389928D01*
X112203393Y-81296206D01*
X112212814Y-81206565D01*
X112213504Y-81200000D01*
X112193542Y-81010072D01*
X112134527Y-80828444D01*
X112039040Y-80663056D01*
X111997243Y-80616635D01*
X111915675Y-80526045D01*
X111915674Y-80526044D01*
X111911253Y-80521134D01*
X111775800Y-80422721D01*
X111762094Y-80412763D01*
X111762093Y-80412762D01*
X111756752Y-80408882D01*
X111750724Y-80406198D01*
X111750722Y-80406197D01*
X111588319Y-80333891D01*
X111588318Y-80333891D01*
X111582288Y-80331206D01*
X111488887Y-80311353D01*
X111401944Y-80292872D01*
X111401939Y-80292872D01*
X111395487Y-80291500D01*
X111204513Y-80291500D01*
X111198061Y-80292872D01*
X111198056Y-80292872D01*
X111111113Y-80311353D01*
X111017712Y-80331206D01*
X111011682Y-80333891D01*
X111011681Y-80333891D01*
X110849278Y-80406197D01*
X110849276Y-80406198D01*
X110843248Y-80408882D01*
X110837907Y-80412762D01*
X110837906Y-80412763D01*
X110824200Y-80422721D01*
X110688747Y-80521134D01*
X110684332Y-80526037D01*
X110679420Y-80530460D01*
X110678295Y-80529211D01*
X110624986Y-80562051D01*
X110591800Y-80566500D01*
X101298239Y-80566500D01*
X101230118Y-80546498D01*
X101204603Y-80524810D01*
X101197801Y-80517255D01*
X101111253Y-80421134D01*
X100974038Y-80321441D01*
X100962094Y-80312763D01*
X100962093Y-80312762D01*
X100956752Y-80308882D01*
X100950724Y-80306198D01*
X100950722Y-80306197D01*
X100788319Y-80233891D01*
X100788318Y-80233891D01*
X100782288Y-80231206D01*
X100688888Y-80211353D01*
X100601944Y-80192872D01*
X100601939Y-80192872D01*
X100595487Y-80191500D01*
X100404513Y-80191500D01*
X100398061Y-80192872D01*
X100398056Y-80192872D01*
X100311112Y-80211353D01*
X100217712Y-80231206D01*
X100211682Y-80233891D01*
X100211681Y-80233891D01*
X100049278Y-80306197D01*
X100049276Y-80306198D01*
X100043248Y-80308882D01*
X100037907Y-80312762D01*
X100037906Y-80312763D01*
X100025962Y-80321441D01*
X99888747Y-80421134D01*
X99884326Y-80426044D01*
X99884325Y-80426045D01*
X99790310Y-80530460D01*
X99760960Y-80563056D01*
X99665473Y-80728444D01*
X99606458Y-80910072D01*
X99605768Y-80916633D01*
X99605768Y-80916635D01*
X99595948Y-81010072D01*
X99586496Y-81100000D01*
X85508500Y-81100000D01*
X85508500Y-76266695D01*
X119072251Y-76266695D01*
X119072548Y-76271848D01*
X119072548Y-76271851D01*
X119082095Y-76437425D01*
X119085110Y-76489715D01*
X119086247Y-76494761D01*
X119086248Y-76494767D01*
X119110304Y-76601508D01*
X119134222Y-76707639D01*
X119169522Y-76794572D01*
X119215595Y-76908037D01*
X119218266Y-76914616D01*
X119254213Y-76973277D01*
X119331747Y-77099800D01*
X119334987Y-77105088D01*
X119481250Y-77273938D01*
X119653126Y-77416632D01*
X119846000Y-77529338D01*
X119850825Y-77531180D01*
X119850826Y-77531181D01*
X119908415Y-77553172D01*
X120054692Y-77609030D01*
X120059760Y-77610061D01*
X120059763Y-77610062D01*
X120167017Y-77631883D01*
X120273597Y-77653567D01*
X120278772Y-77653757D01*
X120278774Y-77653757D01*
X120491673Y-77661564D01*
X120491677Y-77661564D01*
X120496837Y-77661753D01*
X120501957Y-77661097D01*
X120501959Y-77661097D01*
X120713288Y-77634025D01*
X120713289Y-77634025D01*
X120718416Y-77633368D01*
X120723366Y-77631883D01*
X120927429Y-77570661D01*
X120927434Y-77570659D01*
X120932384Y-77569174D01*
X121132994Y-77470896D01*
X121314860Y-77341173D01*
X121423091Y-77233319D01*
X121485462Y-77199404D01*
X121556268Y-77204592D01*
X121613030Y-77247238D01*
X121630012Y-77278341D01*
X121663914Y-77368774D01*
X121674385Y-77396705D01*
X121761739Y-77513261D01*
X121878295Y-77600615D01*
X122014684Y-77651745D01*
X122076866Y-77658500D01*
X123873134Y-77658500D01*
X123935316Y-77651745D01*
X124071705Y-77600615D01*
X124188261Y-77513261D01*
X124275615Y-77396705D01*
X124326745Y-77260316D01*
X124333500Y-77198134D01*
X124333500Y-75401866D01*
X124326745Y-75339684D01*
X124275615Y-75203295D01*
X124188261Y-75086739D01*
X124071705Y-74999385D01*
X123935316Y-74948255D01*
X123873134Y-74941500D01*
X122076866Y-74941500D01*
X122014684Y-74948255D01*
X121878295Y-74999385D01*
X121761739Y-75086739D01*
X121674385Y-75203295D01*
X121671233Y-75211703D01*
X121629919Y-75321907D01*
X121587277Y-75378671D01*
X121520716Y-75403371D01*
X121451367Y-75388163D01*
X121418743Y-75362476D01*
X121368151Y-75306875D01*
X121368142Y-75306866D01*
X121364670Y-75303051D01*
X121360619Y-75299852D01*
X121360615Y-75299848D01*
X121193414Y-75167800D01*
X121193410Y-75167798D01*
X121189359Y-75164598D01*
X121181467Y-75160241D01*
X121137136Y-75135769D01*
X120993789Y-75056638D01*
X120988920Y-75054914D01*
X120988916Y-75054912D01*
X120788087Y-74983795D01*
X120788083Y-74983794D01*
X120783212Y-74982069D01*
X120778119Y-74981162D01*
X120778116Y-74981161D01*
X120568373Y-74943800D01*
X120568367Y-74943799D01*
X120563284Y-74942894D01*
X120489452Y-74941992D01*
X120345081Y-74940228D01*
X120345079Y-74940228D01*
X120339911Y-74940165D01*
X120119091Y-74973955D01*
X119906756Y-75043357D01*
X119708607Y-75146507D01*
X119704474Y-75149610D01*
X119704471Y-75149612D01*
X119615270Y-75216586D01*
X119529965Y-75280635D01*
X119490525Y-75321907D01*
X119436280Y-75378671D01*
X119375629Y-75442138D01*
X119249743Y-75626680D01*
X119211011Y-75710121D01*
X119164752Y-75809779D01*
X119155688Y-75829305D01*
X119095989Y-76044570D01*
X119072251Y-76266695D01*
X85508500Y-76266695D01*
X85508500Y-74000000D01*
X114586496Y-74000000D01*
X114587186Y-74006565D01*
X114605236Y-74178297D01*
X114606458Y-74189928D01*
X114665473Y-74371556D01*
X114668776Y-74377278D01*
X114668777Y-74377279D01*
X114680097Y-74396885D01*
X114760960Y-74536944D01*
X114765378Y-74541851D01*
X114765379Y-74541852D01*
X114847452Y-74633003D01*
X114888747Y-74678866D01*
X115043248Y-74791118D01*
X115049276Y-74793802D01*
X115049278Y-74793803D01*
X115211681Y-74866109D01*
X115217712Y-74868794D01*
X115311112Y-74888647D01*
X115398056Y-74907128D01*
X115398061Y-74907128D01*
X115404513Y-74908500D01*
X115595487Y-74908500D01*
X115601939Y-74907128D01*
X115601944Y-74907128D01*
X115688888Y-74888647D01*
X115782288Y-74868794D01*
X115788319Y-74866109D01*
X115950722Y-74793803D01*
X115950724Y-74793802D01*
X115956752Y-74791118D01*
X116021880Y-74743800D01*
X116089671Y-74694546D01*
X116111253Y-74678866D01*
X116115668Y-74673963D01*
X116120580Y-74669540D01*
X116121705Y-74670789D01*
X116175014Y-74637949D01*
X116208200Y-74633500D01*
X119221233Y-74633500D01*
X119232416Y-74634027D01*
X119239909Y-74635702D01*
X119247835Y-74635453D01*
X119247836Y-74635453D01*
X119307986Y-74633562D01*
X119311945Y-74633500D01*
X119339856Y-74633500D01*
X119343791Y-74633003D01*
X119343856Y-74632995D01*
X119355693Y-74632062D01*
X119387951Y-74631048D01*
X119391970Y-74630922D01*
X119399889Y-74630673D01*
X119419343Y-74625021D01*
X119438700Y-74621013D01*
X119450930Y-74619468D01*
X119450931Y-74619468D01*
X119458797Y-74618474D01*
X119466168Y-74615555D01*
X119466170Y-74615555D01*
X119499912Y-74602196D01*
X119511142Y-74598351D01*
X119545983Y-74588229D01*
X119545984Y-74588229D01*
X119553593Y-74586018D01*
X119560412Y-74581985D01*
X119560417Y-74581983D01*
X119571028Y-74575707D01*
X119588776Y-74567012D01*
X119607617Y-74559552D01*
X119643387Y-74533564D01*
X119653307Y-74527048D01*
X119684535Y-74508580D01*
X119684538Y-74508578D01*
X119691362Y-74504542D01*
X119705683Y-74490221D01*
X119720717Y-74477380D01*
X119730694Y-74470131D01*
X119737107Y-74465472D01*
X119765298Y-74431395D01*
X119773288Y-74422616D01*
X120207770Y-73988134D01*
X138106500Y-73988134D01*
X138113255Y-74050316D01*
X138164385Y-74186705D01*
X138251739Y-74303261D01*
X138368295Y-74390615D01*
X138504684Y-74441745D01*
X138566866Y-74448500D01*
X140353134Y-74448500D01*
X140415316Y-74441745D01*
X140551705Y-74390615D01*
X140668261Y-74303261D01*
X140733511Y-74216198D01*
X141243632Y-74216198D01*
X141248913Y-74223252D01*
X141408923Y-74316754D01*
X141418210Y-74321204D01*
X141616400Y-74396885D01*
X141626302Y-74399762D01*
X141834174Y-74442054D01*
X141844426Y-74443277D01*
X142056422Y-74451050D01*
X142066708Y-74450583D01*
X142277138Y-74423626D01*
X142287224Y-74421483D01*
X142490420Y-74360521D01*
X142500015Y-74356760D01*
X142690520Y-74263433D01*
X142699379Y-74258152D01*
X142745663Y-74225139D01*
X142754063Y-74214440D01*
X142747074Y-74201284D01*
X142012812Y-73467022D01*
X141998868Y-73459408D01*
X141997035Y-73459539D01*
X141990420Y-73463790D01*
X141250392Y-74203818D01*
X141243632Y-74216198D01*
X140733511Y-74216198D01*
X140755615Y-74186705D01*
X140806745Y-74050316D01*
X140813500Y-73988134D01*
X140813500Y-73962042D01*
X140833502Y-73893921D01*
X140888519Y-73847271D01*
X141627978Y-73107812D01*
X141634356Y-73096132D01*
X142364408Y-73096132D01*
X142364539Y-73097965D01*
X142368790Y-73104580D01*
X143106892Y-73842682D01*
X143118902Y-73849240D01*
X143130643Y-73840270D01*
X143160701Y-73798439D01*
X143164094Y-73792793D01*
X143216326Y-73744706D01*
X143286264Y-73732491D01*
X143351704Y-73760027D01*
X143379527Y-73791855D01*
X143444036Y-73897125D01*
X143589760Y-74065353D01*
X143593735Y-74068653D01*
X143593739Y-74068657D01*
X143621291Y-74091531D01*
X143761003Y-74207522D01*
X143765455Y-74210124D01*
X143765460Y-74210127D01*
X143946979Y-74316198D01*
X143953167Y-74319814D01*
X144161091Y-74399212D01*
X144166157Y-74400243D01*
X144166158Y-74400243D01*
X144180992Y-74403261D01*
X144379191Y-74443585D01*
X144503163Y-74448131D01*
X144596445Y-74451552D01*
X144596449Y-74451552D01*
X144601609Y-74451741D01*
X144606729Y-74451085D01*
X144606731Y-74451085D01*
X144679639Y-74441745D01*
X144822373Y-74423460D01*
X144827321Y-74421975D01*
X144827328Y-74421974D01*
X145030610Y-74360986D01*
X145035553Y-74359503D01*
X145041153Y-74356760D01*
X145184153Y-74286705D01*
X145235425Y-74261587D01*
X145416621Y-74132341D01*
X145460983Y-74088134D01*
X155606500Y-74088134D01*
X155613255Y-74150316D01*
X155664385Y-74286705D01*
X155751739Y-74403261D01*
X155868295Y-74490615D01*
X156004684Y-74541745D01*
X156066866Y-74548500D01*
X157853134Y-74548500D01*
X157915316Y-74541745D01*
X158051705Y-74490615D01*
X158168261Y-74403261D01*
X158233511Y-74316198D01*
X158743632Y-74316198D01*
X158748913Y-74323252D01*
X158908923Y-74416754D01*
X158918210Y-74421204D01*
X159116400Y-74496885D01*
X159126302Y-74499762D01*
X159334174Y-74542054D01*
X159344426Y-74543277D01*
X159556422Y-74551050D01*
X159566708Y-74550583D01*
X159777138Y-74523626D01*
X159787224Y-74521483D01*
X159990420Y-74460521D01*
X160000015Y-74456760D01*
X160190520Y-74363433D01*
X160199379Y-74358152D01*
X160245663Y-74325139D01*
X160254063Y-74314440D01*
X160247074Y-74301284D01*
X159512812Y-73567022D01*
X159498868Y-73559408D01*
X159497035Y-73559539D01*
X159490420Y-73563790D01*
X158750392Y-74303818D01*
X158743632Y-74316198D01*
X158233511Y-74316198D01*
X158255615Y-74286705D01*
X158306745Y-74150316D01*
X158313500Y-74088134D01*
X158313500Y-74062042D01*
X158333502Y-73993921D01*
X158388519Y-73947271D01*
X159127978Y-73207812D01*
X159134356Y-73196132D01*
X159864408Y-73196132D01*
X159864539Y-73197965D01*
X159868790Y-73204580D01*
X160606892Y-73942682D01*
X160618902Y-73949240D01*
X160630643Y-73940270D01*
X160660701Y-73898439D01*
X160664094Y-73892793D01*
X160716326Y-73844706D01*
X160786264Y-73832491D01*
X160851704Y-73860027D01*
X160879527Y-73891855D01*
X160944036Y-73997125D01*
X161089760Y-74165353D01*
X161093735Y-74168653D01*
X161093739Y-74168657D01*
X161161772Y-74225139D01*
X161261003Y-74307522D01*
X161265455Y-74310124D01*
X161265460Y-74310127D01*
X161417911Y-74399212D01*
X161453167Y-74419814D01*
X161661091Y-74499212D01*
X161666157Y-74500243D01*
X161666158Y-74500243D01*
X161707136Y-74508580D01*
X161879191Y-74543585D01*
X162003163Y-74548131D01*
X162096445Y-74551552D01*
X162096449Y-74551552D01*
X162101609Y-74551741D01*
X162106729Y-74551085D01*
X162106731Y-74551085D01*
X162179639Y-74541745D01*
X162322373Y-74523460D01*
X162327321Y-74521975D01*
X162327328Y-74521974D01*
X162530610Y-74460986D01*
X162535553Y-74459503D01*
X162541153Y-74456760D01*
X162676171Y-74390615D01*
X162735425Y-74361587D01*
X162798279Y-74316754D01*
X162912418Y-74235339D01*
X162916621Y-74232341D01*
X162944839Y-74204222D01*
X163070614Y-74078885D01*
X163074275Y-74075237D01*
X163084189Y-74061441D01*
X163201134Y-73898693D01*
X163204152Y-73894493D01*
X163221187Y-73860027D01*
X163300472Y-73699606D01*
X163300473Y-73699604D01*
X163302766Y-73694964D01*
X163367467Y-73482008D01*
X163369440Y-73467022D01*
X163396081Y-73264666D01*
X163396081Y-73264662D01*
X163396518Y-73261345D01*
X163397826Y-73207812D01*
X163398057Y-73198365D01*
X163398057Y-73198361D01*
X163398139Y-73195000D01*
X163390011Y-73096132D01*
X163380326Y-72978332D01*
X163380325Y-72978326D01*
X163379902Y-72973181D01*
X163344053Y-72830461D01*
X163326940Y-72762329D01*
X163326939Y-72762325D01*
X163325681Y-72757318D01*
X163280140Y-72652581D01*
X163238993Y-72557947D01*
X163238991Y-72557944D01*
X163236933Y-72553210D01*
X163219343Y-72526020D01*
X163118850Y-72370682D01*
X163118846Y-72370676D01*
X163116039Y-72366338D01*
X163101004Y-72349814D01*
X162969727Y-72205542D01*
X162969725Y-72205540D01*
X162966249Y-72201720D01*
X162962198Y-72198521D01*
X162962194Y-72198517D01*
X162795638Y-72066979D01*
X162795634Y-72066977D01*
X162791583Y-72063777D01*
X162764556Y-72048857D01*
X162739269Y-72034898D01*
X162596732Y-71956214D01*
X162591863Y-71954490D01*
X162591859Y-71954488D01*
X162391806Y-71883645D01*
X162391802Y-71883644D01*
X162386931Y-71881919D01*
X162381838Y-71881012D01*
X162381835Y-71881011D01*
X162172901Y-71843794D01*
X162172895Y-71843793D01*
X162167812Y-71842888D01*
X162084407Y-71841869D01*
X161950431Y-71840232D01*
X161950429Y-71840232D01*
X161945261Y-71840169D01*
X161725254Y-71873835D01*
X161513700Y-71942982D01*
X161509112Y-71945370D01*
X161509108Y-71945372D01*
X161320869Y-72043363D01*
X161316280Y-72045752D01*
X161312147Y-72048855D01*
X161312144Y-72048857D01*
X161150621Y-72170132D01*
X161138296Y-72179386D01*
X161134724Y-72183124D01*
X160995090Y-72329243D01*
X160984528Y-72340295D01*
X160981614Y-72344567D01*
X160981613Y-72344568D01*
X160969373Y-72362511D01*
X160886177Y-72484473D01*
X160872788Y-72504100D01*
X160817877Y-72549103D01*
X160747352Y-72557274D01*
X160683605Y-72526020D01*
X160662908Y-72501536D01*
X160629448Y-72449814D01*
X160618762Y-72440611D01*
X160609195Y-72445015D01*
X159872022Y-73182188D01*
X159864408Y-73196132D01*
X159134356Y-73196132D01*
X159135592Y-73193868D01*
X159135461Y-73192035D01*
X159131210Y-73185420D01*
X158393448Y-72447658D01*
X158379113Y-72439830D01*
X158328911Y-72389627D01*
X158313500Y-72329243D01*
X158313500Y-72301866D01*
X158306745Y-72239684D01*
X158255615Y-72103295D01*
X158234408Y-72074998D01*
X158744793Y-72074998D01*
X158751538Y-72087328D01*
X159487188Y-72822978D01*
X159501132Y-72830592D01*
X159502965Y-72830461D01*
X159509580Y-72826210D01*
X160249830Y-72085960D01*
X160256850Y-72073104D01*
X160250189Y-72063962D01*
X160246777Y-72061695D01*
X160061053Y-71959171D01*
X160051654Y-71954946D01*
X159851678Y-71884131D01*
X159841707Y-71881497D01*
X159632854Y-71844294D01*
X159622602Y-71843325D01*
X159410466Y-71840733D01*
X159400182Y-71841453D01*
X159190482Y-71873541D01*
X159180455Y-71875930D01*
X158978813Y-71941837D01*
X158969304Y-71945834D01*
X158781136Y-72043788D01*
X158772411Y-72049282D01*
X158753247Y-72063671D01*
X158744793Y-72074998D01*
X158234408Y-72074998D01*
X158168261Y-71986739D01*
X158051705Y-71899385D01*
X157915316Y-71848255D01*
X157853134Y-71841500D01*
X156066866Y-71841500D01*
X156004684Y-71848255D01*
X155868295Y-71899385D01*
X155751739Y-71986739D01*
X155664385Y-72103295D01*
X155613255Y-72239684D01*
X155606500Y-72301866D01*
X155606500Y-74088134D01*
X145460983Y-74088134D01*
X145574275Y-73975237D01*
X145594371Y-73947271D01*
X145701134Y-73798693D01*
X145704152Y-73794493D01*
X145721187Y-73760027D01*
X145800472Y-73599606D01*
X145800473Y-73599604D01*
X145802766Y-73594964D01*
X145867467Y-73382008D01*
X145872142Y-73346498D01*
X145896081Y-73164666D01*
X145896081Y-73164662D01*
X145896518Y-73161345D01*
X145897189Y-73133891D01*
X145898057Y-73098365D01*
X145898057Y-73098361D01*
X145898139Y-73095000D01*
X145887712Y-72968170D01*
X145880326Y-72878332D01*
X145880325Y-72878326D01*
X145879902Y-72873181D01*
X145844053Y-72730461D01*
X145826940Y-72662329D01*
X145826939Y-72662325D01*
X145825681Y-72657318D01*
X145770890Y-72531306D01*
X145738993Y-72457947D01*
X145738991Y-72457944D01*
X145736933Y-72453210D01*
X145734127Y-72448872D01*
X145618850Y-72270682D01*
X145618846Y-72270676D01*
X145616039Y-72266338D01*
X145598935Y-72247540D01*
X145469727Y-72105542D01*
X145469725Y-72105540D01*
X145466249Y-72101720D01*
X145462198Y-72098521D01*
X145462194Y-72098517D01*
X145295638Y-71966979D01*
X145295634Y-71966977D01*
X145291583Y-71963777D01*
X145283240Y-71959171D01*
X145184693Y-71904771D01*
X145096732Y-71856214D01*
X145091863Y-71854490D01*
X145091859Y-71854488D01*
X144891806Y-71783645D01*
X144891802Y-71783644D01*
X144886931Y-71781919D01*
X144881838Y-71781012D01*
X144881835Y-71781011D01*
X144672901Y-71743794D01*
X144672895Y-71743793D01*
X144667812Y-71742888D01*
X144584407Y-71741869D01*
X144450431Y-71740232D01*
X144450429Y-71740232D01*
X144445261Y-71740169D01*
X144225254Y-71773835D01*
X144013700Y-71842982D01*
X144009112Y-71845370D01*
X144009108Y-71845372D01*
X143821601Y-71942982D01*
X143816280Y-71945752D01*
X143812147Y-71948855D01*
X143812144Y-71948857D01*
X143644140Y-72074998D01*
X143638296Y-72079386D01*
X143622315Y-72096109D01*
X143492183Y-72232285D01*
X143484528Y-72240295D01*
X143382661Y-72389627D01*
X143372788Y-72404100D01*
X143317877Y-72449103D01*
X143247352Y-72457274D01*
X143183605Y-72426020D01*
X143162908Y-72401536D01*
X143129448Y-72349814D01*
X143118762Y-72340611D01*
X143109195Y-72345015D01*
X142372022Y-73082188D01*
X142364408Y-73096132D01*
X141634356Y-73096132D01*
X141635592Y-73093868D01*
X141635461Y-73092035D01*
X141631210Y-73085420D01*
X140893448Y-72347658D01*
X140879113Y-72339830D01*
X140828911Y-72289627D01*
X140813500Y-72229243D01*
X140813500Y-72201866D01*
X140806745Y-72139684D01*
X140755615Y-72003295D01*
X140734408Y-71974998D01*
X141244793Y-71974998D01*
X141251538Y-71987328D01*
X141987188Y-72722978D01*
X142001132Y-72730592D01*
X142002965Y-72730461D01*
X142009580Y-72726210D01*
X142749830Y-71985960D01*
X142756850Y-71973104D01*
X142750189Y-71963962D01*
X142746777Y-71961695D01*
X142561053Y-71859171D01*
X142551654Y-71854946D01*
X142351678Y-71784131D01*
X142341707Y-71781497D01*
X142132854Y-71744294D01*
X142122602Y-71743325D01*
X141910466Y-71740733D01*
X141900182Y-71741453D01*
X141690482Y-71773541D01*
X141680455Y-71775930D01*
X141478813Y-71841837D01*
X141469304Y-71845834D01*
X141281136Y-71943788D01*
X141272411Y-71949282D01*
X141253247Y-71963671D01*
X141244793Y-71974998D01*
X140734408Y-71974998D01*
X140668261Y-71886739D01*
X140551705Y-71799385D01*
X140415316Y-71748255D01*
X140353134Y-71741500D01*
X138566866Y-71741500D01*
X138504684Y-71748255D01*
X138368295Y-71799385D01*
X138251739Y-71886739D01*
X138164385Y-72003295D01*
X138113255Y-72139684D01*
X138106500Y-72201866D01*
X138106500Y-73988134D01*
X120207770Y-73988134D01*
X121492247Y-72703657D01*
X121500537Y-72696113D01*
X121507018Y-72692000D01*
X121553659Y-72642332D01*
X121556413Y-72639491D01*
X121576134Y-72619770D01*
X121578612Y-72616575D01*
X121586318Y-72607553D01*
X121611158Y-72581101D01*
X121616586Y-72575321D01*
X121622732Y-72564142D01*
X121626346Y-72557568D01*
X121637199Y-72541045D01*
X121644753Y-72531306D01*
X121649613Y-72525041D01*
X121667176Y-72484457D01*
X121672383Y-72473827D01*
X121693695Y-72435060D01*
X121695666Y-72427383D01*
X121695668Y-72427378D01*
X121698732Y-72415442D01*
X121705138Y-72396730D01*
X121710034Y-72385417D01*
X121713181Y-72378145D01*
X121715658Y-72362511D01*
X121720097Y-72334481D01*
X121722504Y-72322860D01*
X121731528Y-72287711D01*
X121731528Y-72287710D01*
X121733500Y-72280030D01*
X121733500Y-72259769D01*
X121735051Y-72240058D01*
X121735606Y-72236558D01*
X121738219Y-72220057D01*
X121734059Y-72176046D01*
X121733500Y-72164189D01*
X121733500Y-68023709D01*
X121753502Y-67955588D01*
X121807158Y-67909095D01*
X121833303Y-67900462D01*
X121854292Y-67896001D01*
X121982288Y-67868794D01*
X121988319Y-67866109D01*
X122150722Y-67793803D01*
X122150724Y-67793802D01*
X122156752Y-67791118D01*
X122311253Y-67678866D01*
X122387781Y-67593873D01*
X122434621Y-67541852D01*
X122434622Y-67541851D01*
X122439040Y-67536944D01*
X122534527Y-67371556D01*
X122593542Y-67189928D01*
X122596785Y-67159079D01*
X122612814Y-67006565D01*
X122613504Y-67000000D01*
X122593542Y-66810072D01*
X122534527Y-66628444D01*
X122512128Y-66589647D01*
X122476480Y-66527904D01*
X122439040Y-66463056D01*
X122388700Y-66407147D01*
X122315675Y-66326045D01*
X122315674Y-66326044D01*
X122311253Y-66321134D01*
X122156752Y-66208882D01*
X122150724Y-66206198D01*
X122150722Y-66206197D01*
X121988319Y-66133891D01*
X121988318Y-66133891D01*
X121982288Y-66131206D01*
X121888888Y-66111353D01*
X121801944Y-66092872D01*
X121801939Y-66092872D01*
X121795487Y-66091500D01*
X121604513Y-66091500D01*
X121598061Y-66092872D01*
X121598056Y-66092872D01*
X121511112Y-66111353D01*
X121417712Y-66131206D01*
X121411682Y-66133891D01*
X121411681Y-66133891D01*
X121249278Y-66206197D01*
X121249276Y-66206198D01*
X121243248Y-66208882D01*
X121088747Y-66321134D01*
X121084326Y-66326044D01*
X121084325Y-66326045D01*
X121011301Y-66407147D01*
X120960960Y-66463056D01*
X120923520Y-66527904D01*
X120887873Y-66589647D01*
X120865473Y-66628444D01*
X120806458Y-66810072D01*
X120805768Y-66816633D01*
X120805768Y-66816635D01*
X120789093Y-66975292D01*
X120762080Y-67040949D01*
X120752878Y-67051217D01*
X120707747Y-67096348D01*
X120699461Y-67103888D01*
X120692982Y-67108000D01*
X120687557Y-67113777D01*
X120646357Y-67157651D01*
X120643602Y-67160493D01*
X120623865Y-67180230D01*
X120621385Y-67183427D01*
X120613682Y-67192447D01*
X120583414Y-67224679D01*
X120579595Y-67231625D01*
X120579593Y-67231628D01*
X120573652Y-67242434D01*
X120562801Y-67258953D01*
X120550386Y-67274959D01*
X120547241Y-67282228D01*
X120547238Y-67282232D01*
X120532826Y-67315537D01*
X120527609Y-67326187D01*
X120506305Y-67364940D01*
X120504334Y-67372615D01*
X120504334Y-67372616D01*
X120501267Y-67384562D01*
X120494863Y-67403266D01*
X120486819Y-67421855D01*
X120485580Y-67429678D01*
X120485577Y-67429688D01*
X120479901Y-67465524D01*
X120477495Y-67477144D01*
X120466500Y-67519970D01*
X120466500Y-67540224D01*
X120464949Y-67559934D01*
X120461780Y-67579943D01*
X120462526Y-67587835D01*
X120465941Y-67623961D01*
X120466500Y-67635819D01*
X120466500Y-71885405D01*
X120446498Y-71953526D01*
X120429595Y-71974500D01*
X119074500Y-73329595D01*
X119012188Y-73363621D01*
X118985405Y-73366500D01*
X116208200Y-73366500D01*
X116140079Y-73346498D01*
X116120853Y-73330157D01*
X116120580Y-73330460D01*
X116115668Y-73326037D01*
X116111253Y-73321134D01*
X115956752Y-73208882D01*
X115950724Y-73206198D01*
X115950722Y-73206197D01*
X115788319Y-73133891D01*
X115788318Y-73133891D01*
X115782288Y-73131206D01*
X115688887Y-73111353D01*
X115601944Y-73092872D01*
X115601939Y-73092872D01*
X115595487Y-73091500D01*
X115404513Y-73091500D01*
X115398061Y-73092872D01*
X115398056Y-73092872D01*
X115311113Y-73111353D01*
X115217712Y-73131206D01*
X115211682Y-73133891D01*
X115211681Y-73133891D01*
X115049278Y-73206197D01*
X115049276Y-73206198D01*
X115043248Y-73208882D01*
X114888747Y-73321134D01*
X114884326Y-73326044D01*
X114884325Y-73326045D01*
X114850492Y-73363621D01*
X114760960Y-73463056D01*
X114757659Y-73468774D01*
X114681238Y-73601139D01*
X114665473Y-73628444D01*
X114606458Y-73810072D01*
X114605768Y-73816633D01*
X114605768Y-73816635D01*
X114598073Y-73889854D01*
X114586496Y-74000000D01*
X85508500Y-74000000D01*
X85508500Y-65632703D01*
X88390743Y-65632703D01*
X88428268Y-65917734D01*
X88429401Y-65921874D01*
X88429401Y-65921876D01*
X88439015Y-65957017D01*
X88504129Y-66195036D01*
X88505813Y-66198984D01*
X88594603Y-66407147D01*
X88616923Y-66459476D01*
X88659618Y-66530814D01*
X88755493Y-66691009D01*
X88764561Y-66706161D01*
X88944313Y-66930528D01*
X89034303Y-67015925D01*
X89131330Y-67108000D01*
X89152851Y-67128423D01*
X89386317Y-67296186D01*
X89390112Y-67298195D01*
X89390113Y-67298196D01*
X89411869Y-67309715D01*
X89640392Y-67430712D01*
X89664699Y-67439607D01*
X89863312Y-67512289D01*
X89910373Y-67529511D01*
X90191264Y-67590755D01*
X90219841Y-67593004D01*
X90414282Y-67608307D01*
X90414291Y-67608307D01*
X90416739Y-67608500D01*
X90572271Y-67608500D01*
X90574407Y-67608354D01*
X90574418Y-67608354D01*
X90782548Y-67594165D01*
X90782554Y-67594164D01*
X90786825Y-67593873D01*
X90791020Y-67593004D01*
X90791022Y-67593004D01*
X91038026Y-67541852D01*
X91068342Y-67535574D01*
X91339343Y-67439607D01*
X91594812Y-67307750D01*
X91598313Y-67305289D01*
X91598317Y-67305287D01*
X91771807Y-67183356D01*
X91830023Y-67142441D01*
X91983308Y-67000000D01*
X92037479Y-66949661D01*
X92037481Y-66949658D01*
X92040622Y-66946740D01*
X92222713Y-66724268D01*
X92372927Y-66479142D01*
X92453132Y-66296431D01*
X92486757Y-66219830D01*
X92488483Y-66215898D01*
X92491247Y-66206197D01*
X92566068Y-65943534D01*
X92567244Y-65939406D01*
X92607751Y-65654784D01*
X92607838Y-65638360D01*
X92609235Y-65371583D01*
X92609235Y-65371576D01*
X92609257Y-65367297D01*
X92608163Y-65358983D01*
X92572292Y-65086522D01*
X92571732Y-65082266D01*
X92495871Y-64804964D01*
X92414433Y-64614036D01*
X92384763Y-64544476D01*
X92384761Y-64544472D01*
X92383077Y-64540524D01*
X92359635Y-64501355D01*
X135977042Y-64501355D01*
X135977405Y-64505503D01*
X135977405Y-64505507D01*
X135993708Y-64691849D01*
X136002613Y-64793625D01*
X136003523Y-64797697D01*
X136003524Y-64797702D01*
X136060646Y-65053250D01*
X136066613Y-65079947D01*
X136068057Y-65083870D01*
X136068057Y-65083872D01*
X136069032Y-65086522D01*
X136167919Y-65355288D01*
X136169866Y-65358981D01*
X136169867Y-65358983D01*
X136175582Y-65369823D01*
X136304751Y-65614813D01*
X136474705Y-65853961D01*
X136674794Y-66068531D01*
X136901504Y-66254752D01*
X137150851Y-66409354D01*
X137154668Y-66411070D01*
X137154671Y-66411071D01*
X137228709Y-66444345D01*
X137418456Y-66529620D01*
X137506406Y-66555839D01*
X137695618Y-66612247D01*
X137695626Y-66612249D01*
X137699615Y-66613438D01*
X137703731Y-66614090D01*
X137703736Y-66614091D01*
X137985922Y-66658784D01*
X137985927Y-66658784D01*
X137989390Y-66659333D01*
X138038486Y-66661563D01*
X138079732Y-66663436D01*
X138079751Y-66663436D01*
X138081151Y-66663500D01*
X138264420Y-66663500D01*
X138482742Y-66648999D01*
X138770341Y-66591009D01*
X139047744Y-66495492D01*
X139051486Y-66493618D01*
X139051491Y-66493616D01*
X139306333Y-66366000D01*
X139306335Y-66365999D01*
X139310077Y-66364125D01*
X139534261Y-66211770D01*
X139549273Y-66201568D01*
X139549276Y-66201566D01*
X139552732Y-66199217D01*
X139771445Y-66003665D01*
X139962373Y-65780905D01*
X140068019Y-65618225D01*
X140119884Y-65538360D01*
X140119887Y-65538355D01*
X140122163Y-65534850D01*
X140248007Y-65269823D01*
X140337694Y-64990480D01*
X140389649Y-64701730D01*
X140397862Y-64520858D01*
X140398748Y-64501355D01*
X143597042Y-64501355D01*
X143597405Y-64505503D01*
X143597405Y-64505507D01*
X143613708Y-64691849D01*
X143622613Y-64793625D01*
X143623523Y-64797697D01*
X143623524Y-64797702D01*
X143680646Y-65053250D01*
X143686613Y-65079947D01*
X143688057Y-65083870D01*
X143688057Y-65083872D01*
X143689032Y-65086522D01*
X143787919Y-65355288D01*
X143789866Y-65358981D01*
X143789867Y-65358983D01*
X143795582Y-65369823D01*
X143924751Y-65614813D01*
X144094705Y-65853961D01*
X144294794Y-66068531D01*
X144521504Y-66254752D01*
X144770851Y-66409354D01*
X144774668Y-66411070D01*
X144774671Y-66411071D01*
X144848709Y-66444345D01*
X145038456Y-66529620D01*
X145126406Y-66555839D01*
X145315618Y-66612247D01*
X145315626Y-66612249D01*
X145319615Y-66613438D01*
X145323731Y-66614090D01*
X145323736Y-66614091D01*
X145605922Y-66658784D01*
X145605927Y-66658784D01*
X145609390Y-66659333D01*
X145658486Y-66661563D01*
X145699732Y-66663436D01*
X145699751Y-66663436D01*
X145701151Y-66663500D01*
X145884420Y-66663500D01*
X146102742Y-66648999D01*
X146390341Y-66591009D01*
X146667744Y-66495492D01*
X146671486Y-66493618D01*
X146671491Y-66493616D01*
X146926333Y-66366000D01*
X146926335Y-66365999D01*
X146930077Y-66364125D01*
X147154261Y-66211770D01*
X147169273Y-66201568D01*
X147169276Y-66201566D01*
X147172732Y-66199217D01*
X147391445Y-66003665D01*
X147582373Y-65780905D01*
X147688019Y-65618225D01*
X147739884Y-65538360D01*
X147739887Y-65538355D01*
X147742163Y-65534850D01*
X147868007Y-65269823D01*
X147957694Y-64990480D01*
X148009649Y-64701730D01*
X148014207Y-64601355D01*
X153477042Y-64601355D01*
X153477405Y-64605503D01*
X153477405Y-64605507D01*
X153478151Y-64614036D01*
X153502613Y-64893625D01*
X153503523Y-64897697D01*
X153503524Y-64897702D01*
X153547505Y-65094460D01*
X153566613Y-65179947D01*
X153667919Y-65455288D01*
X153669866Y-65458981D01*
X153669867Y-65458983D01*
X153760598Y-65631070D01*
X153804751Y-65714813D01*
X153974705Y-65953961D01*
X154174794Y-66168531D01*
X154401504Y-66354752D01*
X154650851Y-66509354D01*
X154654668Y-66511070D01*
X154654671Y-66511071D01*
X154692127Y-66527904D01*
X154918456Y-66629620D01*
X154935594Y-66634729D01*
X155195618Y-66712247D01*
X155195626Y-66712249D01*
X155199615Y-66713438D01*
X155203731Y-66714090D01*
X155203736Y-66714091D01*
X155485922Y-66758784D01*
X155485927Y-66758784D01*
X155489390Y-66759333D01*
X155538486Y-66761563D01*
X155579732Y-66763436D01*
X155579751Y-66763436D01*
X155581151Y-66763500D01*
X155764420Y-66763500D01*
X155982742Y-66748999D01*
X156270341Y-66691009D01*
X156547744Y-66595492D01*
X156551486Y-66593618D01*
X156551491Y-66593616D01*
X156806333Y-66466000D01*
X156806335Y-66465999D01*
X156810077Y-66464125D01*
X157052732Y-66299217D01*
X157156769Y-66206197D01*
X157268328Y-66106452D01*
X157268329Y-66106451D01*
X157271445Y-66103665D01*
X157462373Y-65880905D01*
X157568019Y-65718225D01*
X157619884Y-65638360D01*
X157619887Y-65638355D01*
X157622163Y-65634850D01*
X157748007Y-65369823D01*
X157751488Y-65358983D01*
X157836416Y-65094460D01*
X157837694Y-65090480D01*
X157889649Y-64801730D01*
X157898422Y-64608540D01*
X157898748Y-64601355D01*
X161097042Y-64601355D01*
X161097405Y-64605503D01*
X161097405Y-64605507D01*
X161098151Y-64614036D01*
X161122613Y-64893625D01*
X161123523Y-64897697D01*
X161123524Y-64897702D01*
X161167505Y-65094460D01*
X161186613Y-65179947D01*
X161287919Y-65455288D01*
X161289866Y-65458981D01*
X161289867Y-65458983D01*
X161380598Y-65631070D01*
X161424751Y-65714813D01*
X161594705Y-65953961D01*
X161794794Y-66168531D01*
X162021504Y-66354752D01*
X162270851Y-66509354D01*
X162274668Y-66511070D01*
X162274671Y-66511071D01*
X162312127Y-66527904D01*
X162538456Y-66629620D01*
X162555594Y-66634729D01*
X162815618Y-66712247D01*
X162815626Y-66712249D01*
X162819615Y-66713438D01*
X162823731Y-66714090D01*
X162823736Y-66714091D01*
X163105922Y-66758784D01*
X163105927Y-66758784D01*
X163109390Y-66759333D01*
X163158486Y-66761563D01*
X163199732Y-66763436D01*
X163199751Y-66763436D01*
X163201151Y-66763500D01*
X163384420Y-66763500D01*
X163602742Y-66748999D01*
X163890341Y-66691009D01*
X164167744Y-66595492D01*
X164171486Y-66593618D01*
X164171491Y-66593616D01*
X164426333Y-66466000D01*
X164426335Y-66465999D01*
X164430077Y-66464125D01*
X164672732Y-66299217D01*
X164776769Y-66206197D01*
X164888328Y-66106452D01*
X164888329Y-66106451D01*
X164891445Y-66103665D01*
X165082373Y-65880905D01*
X165188019Y-65718225D01*
X165239884Y-65638360D01*
X165239887Y-65638355D01*
X165242163Y-65634850D01*
X165243182Y-65632703D01*
X177390743Y-65632703D01*
X177428268Y-65917734D01*
X177429401Y-65921874D01*
X177429401Y-65921876D01*
X177439015Y-65957017D01*
X177504129Y-66195036D01*
X177505813Y-66198984D01*
X177594603Y-66407147D01*
X177616923Y-66459476D01*
X177659618Y-66530814D01*
X177755493Y-66691009D01*
X177764561Y-66706161D01*
X177944313Y-66930528D01*
X178034303Y-67015925D01*
X178131330Y-67108000D01*
X178152851Y-67128423D01*
X178386317Y-67296186D01*
X178390112Y-67298195D01*
X178390113Y-67298196D01*
X178411869Y-67309715D01*
X178640392Y-67430712D01*
X178664699Y-67439607D01*
X178863312Y-67512289D01*
X178910373Y-67529511D01*
X179191264Y-67590755D01*
X179219841Y-67593004D01*
X179414282Y-67608307D01*
X179414291Y-67608307D01*
X179416739Y-67608500D01*
X179572271Y-67608500D01*
X179574407Y-67608354D01*
X179574418Y-67608354D01*
X179782548Y-67594165D01*
X179782554Y-67594164D01*
X179786825Y-67593873D01*
X179791020Y-67593004D01*
X179791022Y-67593004D01*
X180038026Y-67541852D01*
X180068342Y-67535574D01*
X180339343Y-67439607D01*
X180594812Y-67307750D01*
X180598313Y-67305289D01*
X180598317Y-67305287D01*
X180771807Y-67183356D01*
X180830023Y-67142441D01*
X180983308Y-67000000D01*
X181037479Y-66949661D01*
X181037481Y-66949658D01*
X181040622Y-66946740D01*
X181222713Y-66724268D01*
X181372927Y-66479142D01*
X181453132Y-66296431D01*
X181486757Y-66219830D01*
X181488483Y-66215898D01*
X181491247Y-66206197D01*
X181566068Y-65943534D01*
X181567244Y-65939406D01*
X181607751Y-65654784D01*
X181607838Y-65638360D01*
X181609235Y-65371583D01*
X181609235Y-65371576D01*
X181609257Y-65367297D01*
X181608163Y-65358983D01*
X181572292Y-65086522D01*
X181571732Y-65082266D01*
X181495871Y-64804964D01*
X181414433Y-64614036D01*
X181384763Y-64544476D01*
X181384761Y-64544472D01*
X181383077Y-64540524D01*
X181235439Y-64293839D01*
X181055687Y-64069472D01*
X180904634Y-63926128D01*
X180850258Y-63874527D01*
X180850255Y-63874525D01*
X180847149Y-63871577D01*
X180613683Y-63703814D01*
X180591843Y-63692250D01*
X180528349Y-63658632D01*
X180359608Y-63569288D01*
X180089627Y-63470489D01*
X179808736Y-63409245D01*
X179777685Y-63406801D01*
X179585718Y-63391693D01*
X179585709Y-63391693D01*
X179583261Y-63391500D01*
X179427729Y-63391500D01*
X179425593Y-63391646D01*
X179425582Y-63391646D01*
X179217452Y-63405835D01*
X179217446Y-63405836D01*
X179213175Y-63406127D01*
X179208980Y-63406996D01*
X179208978Y-63406996D01*
X179072416Y-63435277D01*
X178931658Y-63464426D01*
X178660657Y-63560393D01*
X178405188Y-63692250D01*
X178401687Y-63694711D01*
X178401683Y-63694713D01*
X178391594Y-63701804D01*
X178169977Y-63857559D01*
X178154892Y-63871577D01*
X177991265Y-64023629D01*
X177959378Y-64053260D01*
X177777287Y-64275732D01*
X177693282Y-64412815D01*
X177639025Y-64501355D01*
X177627073Y-64520858D01*
X177511517Y-64784102D01*
X177510342Y-64788229D01*
X177510341Y-64788230D01*
X177505574Y-64804964D01*
X177432756Y-65060594D01*
X177392249Y-65345216D01*
X177392227Y-65349505D01*
X177392226Y-65349512D01*
X177390765Y-65628417D01*
X177390743Y-65632703D01*
X165243182Y-65632703D01*
X165368007Y-65369823D01*
X165371488Y-65358983D01*
X165456416Y-65094460D01*
X165457694Y-65090480D01*
X165509649Y-64801730D01*
X165518422Y-64608540D01*
X165522769Y-64512815D01*
X165522769Y-64512810D01*
X165522958Y-64508645D01*
X165521956Y-64497185D01*
X165497751Y-64220537D01*
X165497387Y-64216375D01*
X165496476Y-64212298D01*
X165434299Y-63934131D01*
X165434297Y-63934124D01*
X165433387Y-63930053D01*
X165431024Y-63923629D01*
X165395150Y-63826128D01*
X165332081Y-63654712D01*
X165231434Y-63463817D01*
X165197202Y-63398891D01*
X165197201Y-63398890D01*
X165195249Y-63395187D01*
X165025295Y-63156039D01*
X164825206Y-62941469D01*
X164598496Y-62755248D01*
X164349149Y-62600646D01*
X164345332Y-62598930D01*
X164345329Y-62598929D01*
X164271291Y-62565655D01*
X164081544Y-62480380D01*
X163907270Y-62428426D01*
X163804382Y-62397753D01*
X163804374Y-62397751D01*
X163800385Y-62396562D01*
X163796269Y-62395910D01*
X163796264Y-62395909D01*
X163514078Y-62351216D01*
X163514073Y-62351216D01*
X163510610Y-62350667D01*
X163461514Y-62348437D01*
X163420268Y-62346564D01*
X163420249Y-62346564D01*
X163418849Y-62346500D01*
X163235580Y-62346500D01*
X163017258Y-62361001D01*
X162729659Y-62418991D01*
X162452256Y-62514508D01*
X162448514Y-62516382D01*
X162448509Y-62516384D01*
X162193667Y-62644000D01*
X162189923Y-62645875D01*
X162186458Y-62648230D01*
X161984664Y-62785369D01*
X161947268Y-62810783D01*
X161728555Y-63006335D01*
X161537627Y-63229095D01*
X161535353Y-63232597D01*
X161380864Y-63470489D01*
X161377837Y-63475150D01*
X161251993Y-63740177D01*
X161250714Y-63744160D01*
X161250713Y-63744163D01*
X161219017Y-63842886D01*
X161162306Y-64019520D01*
X161110351Y-64308270D01*
X161110162Y-64312442D01*
X161099614Y-64544723D01*
X161097042Y-64601355D01*
X157898748Y-64601355D01*
X157902769Y-64512815D01*
X157902769Y-64512810D01*
X157902958Y-64508645D01*
X157901956Y-64497185D01*
X157877751Y-64220537D01*
X157877387Y-64216375D01*
X157876476Y-64212298D01*
X157814299Y-63934131D01*
X157814297Y-63934124D01*
X157813387Y-63930053D01*
X157811024Y-63923629D01*
X157775150Y-63826128D01*
X157712081Y-63654712D01*
X157611434Y-63463817D01*
X157577202Y-63398891D01*
X157577201Y-63398890D01*
X157575249Y-63395187D01*
X157405295Y-63156039D01*
X157205206Y-62941469D01*
X156978496Y-62755248D01*
X156729149Y-62600646D01*
X156725332Y-62598930D01*
X156725329Y-62598929D01*
X156651291Y-62565655D01*
X156461544Y-62480380D01*
X156287270Y-62428426D01*
X156184382Y-62397753D01*
X156184374Y-62397751D01*
X156180385Y-62396562D01*
X156176269Y-62395910D01*
X156176264Y-62395909D01*
X155894078Y-62351216D01*
X155894073Y-62351216D01*
X155890610Y-62350667D01*
X155841514Y-62348437D01*
X155800268Y-62346564D01*
X155800249Y-62346564D01*
X155798849Y-62346500D01*
X155615580Y-62346500D01*
X155397258Y-62361001D01*
X155109659Y-62418991D01*
X154832256Y-62514508D01*
X154828514Y-62516382D01*
X154828509Y-62516384D01*
X154573667Y-62644000D01*
X154569923Y-62645875D01*
X154566458Y-62648230D01*
X154364664Y-62785369D01*
X154327268Y-62810783D01*
X154108555Y-63006335D01*
X153917627Y-63229095D01*
X153915353Y-63232597D01*
X153760864Y-63470489D01*
X153757837Y-63475150D01*
X153631993Y-63740177D01*
X153630714Y-63744160D01*
X153630713Y-63744163D01*
X153599017Y-63842886D01*
X153542306Y-64019520D01*
X153490351Y-64308270D01*
X153490162Y-64312442D01*
X153479614Y-64544723D01*
X153477042Y-64601355D01*
X148014207Y-64601355D01*
X148017862Y-64520858D01*
X148022769Y-64412815D01*
X148022769Y-64412810D01*
X148022958Y-64408645D01*
X147997387Y-64116375D01*
X147986903Y-64069472D01*
X147934299Y-63834131D01*
X147934297Y-63834124D01*
X147933387Y-63830053D01*
X147832081Y-63554712D01*
X147784021Y-63463557D01*
X147697202Y-63298891D01*
X147697201Y-63298890D01*
X147695249Y-63295187D01*
X147525295Y-63056039D01*
X147325206Y-62841469D01*
X147098496Y-62655248D01*
X146849149Y-62500646D01*
X146845332Y-62498930D01*
X146845329Y-62498929D01*
X146771291Y-62465655D01*
X146581544Y-62380380D01*
X146481875Y-62350667D01*
X146304382Y-62297753D01*
X146304374Y-62297751D01*
X146300385Y-62296562D01*
X146296269Y-62295910D01*
X146296264Y-62295909D01*
X146014078Y-62251216D01*
X146014073Y-62251216D01*
X146010610Y-62250667D01*
X145961514Y-62248437D01*
X145920268Y-62246564D01*
X145920249Y-62246564D01*
X145918849Y-62246500D01*
X145735580Y-62246500D01*
X145517258Y-62261001D01*
X145229659Y-62318991D01*
X144952256Y-62414508D01*
X144948514Y-62416382D01*
X144948509Y-62416384D01*
X144755287Y-62513143D01*
X144689923Y-62545875D01*
X144447268Y-62710783D01*
X144444152Y-62713569D01*
X144338054Y-62808432D01*
X144228555Y-62906335D01*
X144037627Y-63129095D01*
X144017917Y-63159446D01*
X143929766Y-63295187D01*
X143877837Y-63375150D01*
X143876043Y-63378929D01*
X143876042Y-63378930D01*
X143861214Y-63410158D01*
X143751993Y-63640177D01*
X143750714Y-63644160D01*
X143750713Y-63644163D01*
X143718607Y-63744163D01*
X143662306Y-63919520D01*
X143610351Y-64208270D01*
X143605810Y-64308270D01*
X143601063Y-64412815D01*
X143597042Y-64501355D01*
X140398748Y-64501355D01*
X140402769Y-64412815D01*
X140402769Y-64412810D01*
X140402958Y-64408645D01*
X140377387Y-64116375D01*
X140366903Y-64069472D01*
X140314299Y-63834131D01*
X140314297Y-63834124D01*
X140313387Y-63830053D01*
X140212081Y-63554712D01*
X140164021Y-63463557D01*
X140077202Y-63298891D01*
X140077201Y-63298890D01*
X140075249Y-63295187D01*
X139905295Y-63056039D01*
X139705206Y-62841469D01*
X139478496Y-62655248D01*
X139229149Y-62500646D01*
X139225332Y-62498930D01*
X139225329Y-62498929D01*
X139151291Y-62465655D01*
X138961544Y-62380380D01*
X138861875Y-62350667D01*
X138684382Y-62297753D01*
X138684374Y-62297751D01*
X138680385Y-62296562D01*
X138676269Y-62295910D01*
X138676264Y-62295909D01*
X138394078Y-62251216D01*
X138394073Y-62251216D01*
X138390610Y-62250667D01*
X138341514Y-62248437D01*
X138300268Y-62246564D01*
X138300249Y-62246564D01*
X138298849Y-62246500D01*
X138115580Y-62246500D01*
X137897258Y-62261001D01*
X137609659Y-62318991D01*
X137332256Y-62414508D01*
X137328514Y-62416382D01*
X137328509Y-62416384D01*
X137135287Y-62513143D01*
X137069923Y-62545875D01*
X136827268Y-62710783D01*
X136824152Y-62713569D01*
X136718054Y-62808432D01*
X136608555Y-62906335D01*
X136417627Y-63129095D01*
X136397917Y-63159446D01*
X136309766Y-63295187D01*
X136257837Y-63375150D01*
X136256043Y-63378929D01*
X136256042Y-63378930D01*
X136241214Y-63410158D01*
X136131993Y-63640177D01*
X136130714Y-63644160D01*
X136130713Y-63644163D01*
X136098607Y-63744163D01*
X136042306Y-63919520D01*
X135990351Y-64208270D01*
X135985810Y-64308270D01*
X135981063Y-64412815D01*
X135977042Y-64501355D01*
X92359635Y-64501355D01*
X92235439Y-64293839D01*
X92055687Y-64069472D01*
X91904634Y-63926128D01*
X91850258Y-63874527D01*
X91850255Y-63874525D01*
X91847149Y-63871577D01*
X91613683Y-63703814D01*
X91591843Y-63692250D01*
X91528349Y-63658632D01*
X91359608Y-63569288D01*
X91089627Y-63470489D01*
X90808736Y-63409245D01*
X90777685Y-63406801D01*
X90585718Y-63391693D01*
X90585709Y-63391693D01*
X90583261Y-63391500D01*
X90427729Y-63391500D01*
X90425593Y-63391646D01*
X90425582Y-63391646D01*
X90217452Y-63405835D01*
X90217446Y-63405836D01*
X90213175Y-63406127D01*
X90208980Y-63406996D01*
X90208978Y-63406996D01*
X90072416Y-63435277D01*
X89931658Y-63464426D01*
X89660657Y-63560393D01*
X89405188Y-63692250D01*
X89401687Y-63694711D01*
X89401683Y-63694713D01*
X89391594Y-63701804D01*
X89169977Y-63857559D01*
X89154892Y-63871577D01*
X88991265Y-64023629D01*
X88959378Y-64053260D01*
X88777287Y-64275732D01*
X88693282Y-64412815D01*
X88639025Y-64501355D01*
X88627073Y-64520858D01*
X88511517Y-64784102D01*
X88510342Y-64788229D01*
X88510341Y-64788230D01*
X88505574Y-64804964D01*
X88432756Y-65060594D01*
X88392249Y-65345216D01*
X88392227Y-65349505D01*
X88392226Y-65349512D01*
X88390765Y-65628417D01*
X88390743Y-65632703D01*
X85508500Y-65632703D01*
X85508500Y-65053250D01*
X85510246Y-65032345D01*
X85512770Y-65017344D01*
X85512770Y-65017341D01*
X85513576Y-65012552D01*
X85513729Y-65000000D01*
X85513039Y-64995184D01*
X85513039Y-64995178D01*
X85511387Y-64983644D01*
X85510234Y-64960284D01*
X85512967Y-64897702D01*
X85525352Y-64614035D01*
X85526310Y-64603086D01*
X85535032Y-64536837D01*
X85576019Y-64225502D01*
X85577927Y-64214685D01*
X85578425Y-64212442D01*
X85660353Y-63842885D01*
X85663198Y-63832268D01*
X85707965Y-63690285D01*
X85777718Y-63469061D01*
X85781474Y-63458739D01*
X85801975Y-63409245D01*
X85927220Y-63106877D01*
X85931862Y-63096924D01*
X85953146Y-63056039D01*
X86107706Y-62759132D01*
X86113201Y-62749613D01*
X86137939Y-62710783D01*
X86271811Y-62500646D01*
X86317820Y-62428426D01*
X86324124Y-62419422D01*
X86555962Y-62117284D01*
X86563028Y-62108863D01*
X86820314Y-61828086D01*
X86828086Y-61820314D01*
X87108863Y-61563028D01*
X87117284Y-61555962D01*
X87419422Y-61324124D01*
X87428426Y-61317820D01*
X87749613Y-61113201D01*
X87759133Y-61107705D01*
X88096933Y-60931858D01*
X88106877Y-60927220D01*
X88458746Y-60781471D01*
X88469061Y-60777718D01*
X88832269Y-60663198D01*
X88842886Y-60660353D01*
X89214693Y-60577926D01*
X89225502Y-60576019D01*
X89603087Y-60526310D01*
X89614035Y-60525352D01*
X89956554Y-60510397D01*
X89981429Y-60511777D01*
X89993724Y-60513691D01*
X90002626Y-60512527D01*
X90002628Y-60512527D01*
X90021399Y-60510072D01*
X90025286Y-60509564D01*
X90041621Y-60508500D01*
X179950633Y-60508500D01*
X179970018Y-60510000D01*
G37*
%TD.AperFunction*%
%TA.AperFunction,Conductor*%
G36*
X141869726Y-92065971D02*
G01*
X141875405Y-92071310D01*
X143294635Y-93490539D01*
X144702818Y-94898722D01*
X144736843Y-94961033D01*
X144731778Y-95031848D01*
X144689231Y-95088684D01*
X144622711Y-95113495D01*
X144587525Y-95111063D01*
X144501944Y-95092872D01*
X144501939Y-95092872D01*
X144495487Y-95091500D01*
X144304513Y-95091500D01*
X144298061Y-95092872D01*
X144298056Y-95092872D01*
X144235915Y-95106081D01*
X144117712Y-95131206D01*
X144111682Y-95133891D01*
X144111681Y-95133891D01*
X143949278Y-95206197D01*
X143949276Y-95206198D01*
X143943248Y-95208882D01*
X143788747Y-95321134D01*
X143784326Y-95326044D01*
X143784325Y-95326045D01*
X143673105Y-95449568D01*
X143660960Y-95463056D01*
X143634502Y-95508882D01*
X143571494Y-95618016D01*
X143565473Y-95628444D01*
X143506458Y-95810072D01*
X143505768Y-95816633D01*
X143505768Y-95816635D01*
X143498819Y-95882749D01*
X143486496Y-96000000D01*
X143487186Y-96006565D01*
X143504235Y-96168774D01*
X143506458Y-96189928D01*
X143565473Y-96371556D01*
X143568776Y-96377278D01*
X143568777Y-96377279D01*
X143588737Y-96411851D01*
X143660960Y-96536944D01*
X143665378Y-96541851D01*
X143665379Y-96541852D01*
X143779388Y-96668472D01*
X143788747Y-96678866D01*
X143943248Y-96791118D01*
X143949276Y-96793802D01*
X143949278Y-96793803D01*
X144080946Y-96852425D01*
X144117712Y-96868794D01*
X144211112Y-96888647D01*
X144298056Y-96907128D01*
X144298061Y-96907128D01*
X144304513Y-96908500D01*
X144360406Y-96908500D01*
X144428527Y-96928502D01*
X144449501Y-96945405D01*
X144502817Y-96998721D01*
X144536843Y-97061033D01*
X144531778Y-97131848D01*
X144489231Y-97188684D01*
X144422711Y-97213495D01*
X144387525Y-97211063D01*
X144301944Y-97192872D01*
X144301939Y-97192872D01*
X144295487Y-97191500D01*
X144104513Y-97191500D01*
X144098061Y-97192872D01*
X144098056Y-97192872D01*
X144012477Y-97211063D01*
X143917712Y-97231206D01*
X143911682Y-97233891D01*
X143911681Y-97233891D01*
X143749278Y-97306197D01*
X143749276Y-97306198D01*
X143743248Y-97308882D01*
X143588747Y-97421134D01*
X143584326Y-97426044D01*
X143584325Y-97426045D01*
X143519881Y-97497618D01*
X143460960Y-97563056D01*
X143428562Y-97619171D01*
X143390612Y-97684902D01*
X143339229Y-97733895D01*
X143269516Y-97747331D01*
X143203605Y-97720945D01*
X143187865Y-97706221D01*
X143111253Y-97621134D01*
X142982322Y-97527460D01*
X142962094Y-97512763D01*
X142962093Y-97512762D01*
X142956752Y-97508882D01*
X142950724Y-97506198D01*
X142950722Y-97506197D01*
X142788319Y-97433891D01*
X142788318Y-97433891D01*
X142782288Y-97431206D01*
X142682668Y-97410031D01*
X142601944Y-97392872D01*
X142601939Y-97392872D01*
X142595487Y-97391500D01*
X142404513Y-97391500D01*
X142398061Y-97392872D01*
X142398056Y-97392872D01*
X142317332Y-97410031D01*
X142217712Y-97431206D01*
X142211682Y-97433891D01*
X142211681Y-97433891D01*
X142049278Y-97506197D01*
X142049276Y-97506198D01*
X142043248Y-97508882D01*
X142037907Y-97512762D01*
X142037906Y-97512763D01*
X142017678Y-97527460D01*
X141888747Y-97621134D01*
X141884326Y-97626044D01*
X141884325Y-97626045D01*
X141787217Y-97733895D01*
X141760960Y-97763056D01*
X141719018Y-97835702D01*
X141669034Y-97922277D01*
X141665473Y-97928444D01*
X141606458Y-98110072D01*
X141605768Y-98116633D01*
X141605768Y-98116635D01*
X141598179Y-98188841D01*
X141586496Y-98300000D01*
X141587186Y-98306565D01*
X141604246Y-98468879D01*
X141606458Y-98489928D01*
X141665473Y-98671556D01*
X141760960Y-98836944D01*
X141765378Y-98841851D01*
X141765379Y-98841852D01*
X141808667Y-98889928D01*
X141888747Y-98978866D01*
X142043248Y-99091118D01*
X142049276Y-99093802D01*
X142049278Y-99093803D01*
X142094334Y-99113863D01*
X142217712Y-99168794D01*
X142311108Y-99188646D01*
X142398056Y-99207128D01*
X142398061Y-99207128D01*
X142404513Y-99208500D01*
X142595487Y-99208500D01*
X142707623Y-99184664D01*
X142778411Y-99190066D01*
X142822912Y-99218816D01*
X143429595Y-99825499D01*
X143463621Y-99887811D01*
X143466500Y-99914594D01*
X143466500Y-102048165D01*
X143446498Y-102116286D01*
X143392842Y-102162779D01*
X143322568Y-102172883D01*
X143298440Y-102166938D01*
X143233087Y-102143795D01*
X143233083Y-102143794D01*
X143228212Y-102142069D01*
X143223119Y-102141162D01*
X143223116Y-102141161D01*
X143013373Y-102103800D01*
X143013367Y-102103799D01*
X143008284Y-102102894D01*
X142934452Y-102101992D01*
X142790081Y-102100228D01*
X142790079Y-102100228D01*
X142784911Y-102100165D01*
X142564091Y-102133955D01*
X142533986Y-102143795D01*
X142498645Y-102155346D01*
X142427681Y-102157497D01*
X142366819Y-102120941D01*
X142335383Y-102057283D01*
X142333500Y-102035581D01*
X142333500Y-101802524D01*
X142353502Y-101734403D01*
X142365858Y-101718221D01*
X142439040Y-101636944D01*
X142534527Y-101471556D01*
X142593542Y-101289928D01*
X142595755Y-101268879D01*
X142612814Y-101106565D01*
X142613504Y-101100000D01*
X142606620Y-101034500D01*
X142594232Y-100916635D01*
X142594232Y-100916633D01*
X142593542Y-100910072D01*
X142534527Y-100728444D01*
X142439040Y-100563056D01*
X142424744Y-100547178D01*
X142315675Y-100426045D01*
X142315674Y-100426044D01*
X142311253Y-100421134D01*
X142184911Y-100329341D01*
X142162094Y-100312763D01*
X142162093Y-100312762D01*
X142156752Y-100308882D01*
X142150724Y-100306198D01*
X142150722Y-100306197D01*
X141988319Y-100233891D01*
X141988318Y-100233891D01*
X141982288Y-100231206D01*
X141888888Y-100211353D01*
X141801944Y-100192872D01*
X141801939Y-100192872D01*
X141795487Y-100191500D01*
X141604513Y-100191500D01*
X141598061Y-100192872D01*
X141598056Y-100192872D01*
X141511112Y-100211353D01*
X141417712Y-100231206D01*
X141411682Y-100233891D01*
X141411681Y-100233891D01*
X141249278Y-100306197D01*
X141249276Y-100306198D01*
X141243248Y-100308882D01*
X141237907Y-100312762D01*
X141237906Y-100312763D01*
X141215089Y-100329341D01*
X141088747Y-100421134D01*
X141084326Y-100426044D01*
X141084325Y-100426045D01*
X140975257Y-100547178D01*
X140960960Y-100563056D01*
X140865473Y-100728444D01*
X140806458Y-100910072D01*
X140805768Y-100916633D01*
X140805768Y-100916635D01*
X140793380Y-101034500D01*
X140786496Y-101100000D01*
X140787186Y-101106565D01*
X140804246Y-101268879D01*
X140806458Y-101289928D01*
X140865473Y-101471556D01*
X140960960Y-101636944D01*
X140965375Y-101641847D01*
X140965379Y-101641852D01*
X141026025Y-101709206D01*
X141056742Y-101773213D01*
X141047978Y-101843667D01*
X141021484Y-101882611D01*
X140797345Y-102106750D01*
X140735033Y-102140776D01*
X140686154Y-102141702D01*
X140473373Y-102103800D01*
X140473367Y-102103799D01*
X140468284Y-102102894D01*
X140394452Y-102101992D01*
X140250081Y-102100228D01*
X140250079Y-102100228D01*
X140244911Y-102100165D01*
X140024091Y-102133955D01*
X139811756Y-102203357D01*
X139783769Y-102217926D01*
X139707017Y-102257881D01*
X139613607Y-102306507D01*
X139609474Y-102309610D01*
X139609471Y-102309612D01*
X139439100Y-102437530D01*
X139434965Y-102440635D01*
X139280629Y-102602138D01*
X139173201Y-102759621D01*
X139118293Y-102804621D01*
X139047768Y-102812792D01*
X138984021Y-102781538D01*
X138963324Y-102757054D01*
X138882822Y-102632617D01*
X138882820Y-102632614D01*
X138880014Y-102628277D01*
X138729670Y-102463051D01*
X138725619Y-102459852D01*
X138725615Y-102459848D01*
X138558414Y-102327800D01*
X138558410Y-102327798D01*
X138554359Y-102324598D01*
X138549695Y-102322023D01*
X138446500Y-102265057D01*
X138358789Y-102216638D01*
X138353920Y-102214914D01*
X138353916Y-102214912D01*
X138153087Y-102143795D01*
X138153083Y-102143794D01*
X138148212Y-102142069D01*
X138143119Y-102141162D01*
X138143116Y-102141161D01*
X137933373Y-102103800D01*
X137933367Y-102103799D01*
X137928284Y-102102894D01*
X137854452Y-102101992D01*
X137710081Y-102100228D01*
X137710079Y-102100228D01*
X137704911Y-102100165D01*
X137484091Y-102133955D01*
X137471532Y-102138060D01*
X137400568Y-102140210D01*
X137343294Y-102107389D01*
X136643652Y-101407747D01*
X136636112Y-101399461D01*
X136632000Y-101392982D01*
X136582348Y-101346356D01*
X136579507Y-101343602D01*
X136559770Y-101323865D01*
X136556573Y-101321385D01*
X136547551Y-101313680D01*
X136521100Y-101288841D01*
X136515321Y-101283414D01*
X136508375Y-101279595D01*
X136508372Y-101279593D01*
X136497566Y-101273652D01*
X136481047Y-101262801D01*
X136480583Y-101262441D01*
X136465041Y-101250386D01*
X136457772Y-101247241D01*
X136457768Y-101247238D01*
X136424463Y-101232826D01*
X136413813Y-101227609D01*
X136375060Y-101206305D01*
X136355437Y-101201267D01*
X136336734Y-101194863D01*
X136325420Y-101189967D01*
X136325419Y-101189967D01*
X136318145Y-101186819D01*
X136310322Y-101185580D01*
X136310312Y-101185577D01*
X136274476Y-101179901D01*
X136262856Y-101177495D01*
X136227711Y-101168472D01*
X136227710Y-101168472D01*
X136220030Y-101166500D01*
X136199776Y-101166500D01*
X136180065Y-101164949D01*
X136167886Y-101163020D01*
X136160057Y-101161780D01*
X136152165Y-101162526D01*
X136116039Y-101165941D01*
X136104181Y-101166500D01*
X135714594Y-101166500D01*
X135646473Y-101146498D01*
X135625499Y-101129595D01*
X134227780Y-99731875D01*
X132803652Y-98307747D01*
X132796112Y-98299461D01*
X132792000Y-98292982D01*
X132742348Y-98246356D01*
X132739507Y-98243602D01*
X132719770Y-98223865D01*
X132716573Y-98221385D01*
X132707551Y-98213680D01*
X132675321Y-98183414D01*
X132668375Y-98179595D01*
X132668372Y-98179593D01*
X132657566Y-98173652D01*
X132641047Y-98162801D01*
X132635048Y-98158148D01*
X132625041Y-98150386D01*
X132617772Y-98147241D01*
X132617768Y-98147238D01*
X132584463Y-98132826D01*
X132573813Y-98127609D01*
X132535060Y-98106305D01*
X132525281Y-98103794D01*
X132515438Y-98101267D01*
X132496734Y-98094863D01*
X132485420Y-98089967D01*
X132485419Y-98089967D01*
X132478145Y-98086819D01*
X132470320Y-98085579D01*
X132470311Y-98085577D01*
X132460026Y-98083948D01*
X132395873Y-98053535D01*
X132358347Y-97993267D01*
X132359362Y-97922277D01*
X132398595Y-97863106D01*
X132463591Y-97834539D01*
X132479738Y-97833500D01*
X140121233Y-97833500D01*
X140132416Y-97834027D01*
X140139909Y-97835702D01*
X140147835Y-97835453D01*
X140147836Y-97835453D01*
X140207986Y-97833562D01*
X140211945Y-97833500D01*
X140239856Y-97833500D01*
X140243791Y-97833003D01*
X140243856Y-97832995D01*
X140255693Y-97832062D01*
X140287951Y-97831048D01*
X140291970Y-97830922D01*
X140299889Y-97830673D01*
X140319343Y-97825021D01*
X140338700Y-97821013D01*
X140350930Y-97819468D01*
X140350931Y-97819468D01*
X140358797Y-97818474D01*
X140366168Y-97815555D01*
X140366170Y-97815555D01*
X140399912Y-97802196D01*
X140411142Y-97798351D01*
X140445983Y-97788229D01*
X140445984Y-97788229D01*
X140453593Y-97786018D01*
X140460412Y-97781985D01*
X140460417Y-97781983D01*
X140471028Y-97775707D01*
X140488776Y-97767012D01*
X140507617Y-97759552D01*
X140543387Y-97733564D01*
X140553307Y-97727048D01*
X140584535Y-97708580D01*
X140584538Y-97708578D01*
X140591362Y-97704542D01*
X140605683Y-97690221D01*
X140620717Y-97677380D01*
X140630693Y-97670132D01*
X140637107Y-97665472D01*
X140646442Y-97654187D01*
X140705275Y-97614447D01*
X140743529Y-97608500D01*
X140795487Y-97608500D01*
X140801939Y-97607128D01*
X140801944Y-97607128D01*
X140888888Y-97588647D01*
X140982288Y-97568794D01*
X140995176Y-97563056D01*
X141150722Y-97493803D01*
X141150724Y-97493802D01*
X141156752Y-97491118D01*
X141311253Y-97378866D01*
X141374267Y-97308882D01*
X141434621Y-97241852D01*
X141434622Y-97241851D01*
X141439040Y-97236944D01*
X141534527Y-97071556D01*
X141593542Y-96889928D01*
X141596046Y-96866109D01*
X141612814Y-96706565D01*
X141613504Y-96700000D01*
X141596882Y-96541852D01*
X141594232Y-96516635D01*
X141594232Y-96516633D01*
X141593542Y-96510072D01*
X141534527Y-96328444D01*
X141439040Y-96163056D01*
X141414411Y-96135702D01*
X141315675Y-96026045D01*
X141315674Y-96026044D01*
X141311253Y-96021134D01*
X141193512Y-95935590D01*
X141162094Y-95912763D01*
X141162093Y-95912762D01*
X141156752Y-95908882D01*
X141150724Y-95906198D01*
X141150722Y-95906197D01*
X140988319Y-95833891D01*
X140988318Y-95833891D01*
X140982288Y-95831206D01*
X140882061Y-95809902D01*
X140801944Y-95792872D01*
X140801939Y-95792872D01*
X140795487Y-95791500D01*
X140604513Y-95791500D01*
X140598053Y-95792873D01*
X140598054Y-95792873D01*
X140558274Y-95801328D01*
X140487484Y-95795926D01*
X140438442Y-95762392D01*
X140311253Y-95621134D01*
X140156752Y-95508882D01*
X140150724Y-95506198D01*
X140150722Y-95506197D01*
X139988319Y-95433891D01*
X139988318Y-95433891D01*
X139982288Y-95431206D01*
X139888887Y-95411353D01*
X139801944Y-95392872D01*
X139801939Y-95392872D01*
X139795487Y-95391500D01*
X139604513Y-95391500D01*
X139598061Y-95392872D01*
X139598056Y-95392872D01*
X139511112Y-95411353D01*
X139417712Y-95431206D01*
X139411682Y-95433891D01*
X139411681Y-95433891D01*
X139249278Y-95506197D01*
X139249276Y-95506198D01*
X139243248Y-95508882D01*
X139237907Y-95512762D01*
X139237906Y-95512763D01*
X139197065Y-95542436D01*
X139130197Y-95566294D01*
X139123004Y-95566500D01*
X138378564Y-95566500D01*
X138310443Y-95546498D01*
X138263950Y-95492842D01*
X138253846Y-95422568D01*
X138258731Y-95401563D01*
X138269006Y-95369942D01*
X138293542Y-95294428D01*
X138295083Y-95279771D01*
X138305499Y-95180659D01*
X138310907Y-95129206D01*
X138337920Y-95063550D01*
X138347122Y-95053282D01*
X139382247Y-94018157D01*
X139390537Y-94010613D01*
X139397018Y-94006500D01*
X139443659Y-93956832D01*
X139446413Y-93953991D01*
X139466135Y-93934269D01*
X139468612Y-93931076D01*
X139476317Y-93922055D01*
X139501159Y-93895600D01*
X139506586Y-93889821D01*
X139510407Y-93882871D01*
X139516346Y-93872068D01*
X139527202Y-93855541D01*
X139534757Y-93845802D01*
X139534758Y-93845800D01*
X139539614Y-93839540D01*
X139557174Y-93798960D01*
X139562391Y-93788312D01*
X139579875Y-93756509D01*
X139579876Y-93756507D01*
X139583695Y-93749560D01*
X139588733Y-93729937D01*
X139595137Y-93711234D01*
X139600033Y-93699920D01*
X139600033Y-93699919D01*
X139603181Y-93692645D01*
X139604420Y-93684822D01*
X139604423Y-93684812D01*
X139610099Y-93648976D01*
X139612505Y-93637356D01*
X139621528Y-93602211D01*
X139621528Y-93602210D01*
X139623500Y-93594530D01*
X139623500Y-93574276D01*
X139625051Y-93554565D01*
X139626980Y-93542386D01*
X139628220Y-93534557D01*
X139624059Y-93490538D01*
X139623500Y-93478681D01*
X139623500Y-92495889D01*
X139643502Y-92427768D01*
X139697158Y-92381275D01*
X139767432Y-92371171D01*
X139832012Y-92400665D01*
X139853187Y-92426310D01*
X139853776Y-92425882D01*
X139857659Y-92431226D01*
X139860960Y-92436944D01*
X139865378Y-92441851D01*
X139865379Y-92441852D01*
X139955435Y-92541869D01*
X139988747Y-92578866D01*
X140012651Y-92596233D01*
X140131234Y-92682389D01*
X140143248Y-92691118D01*
X140149276Y-92693802D01*
X140149278Y-92693803D01*
X140304251Y-92762801D01*
X140317712Y-92768794D01*
X140411112Y-92788647D01*
X140498056Y-92807128D01*
X140498061Y-92807128D01*
X140504513Y-92808500D01*
X140695487Y-92808500D01*
X140701939Y-92807128D01*
X140701944Y-92807128D01*
X140788888Y-92788647D01*
X140882288Y-92768794D01*
X140895749Y-92762801D01*
X141050722Y-92693803D01*
X141050724Y-92693802D01*
X141056752Y-92691118D01*
X141068767Y-92682389D01*
X141187349Y-92596233D01*
X141211253Y-92578866D01*
X141244565Y-92541869D01*
X141334621Y-92441852D01*
X141334622Y-92441851D01*
X141339040Y-92436944D01*
X141434527Y-92271556D01*
X141439262Y-92256985D01*
X141464436Y-92179507D01*
X141504510Y-92120902D01*
X141558072Y-92095197D01*
X141576500Y-92091280D01*
X141682288Y-92068794D01*
X141688321Y-92066108D01*
X141688324Y-92066107D01*
X141735062Y-92045298D01*
X141805429Y-92035864D01*
X141869726Y-92065971D01*
G37*
%TD.AperFunction*%
M02*
