%TF.GenerationSoftware,KiCad,Pcbnew,(6.0.7-1)-1*%
%TF.CreationDate,2022-11-21T17:19:16-08:00*%
%TF.ProjectId,telemetry-emulator-pcb,74656c65-6d65-4747-9279-2d656d756c61,rev?*%
%TF.SameCoordinates,Original*%
%TF.FileFunction,Drillmap*%
%TF.FilePolarity,Positive*%
%FSLAX45Y45*%
G04 Gerber Fmt 4.5, Leading zero omitted, Abs format (unit mm)*
G04 Created by KiCad (PCBNEW (6.0.7-1)-1) date 2022-11-21 17:19:16*
%MOMM*%
%LPD*%
G01*
G04 APERTURE LIST*
%ADD10C,0.200000*%
%ADD11C,0.100000*%
%ADD12C,0.040000*%
%ADD13C,0.109000*%
%ADD14C,0.110000*%
%ADD15C,0.116840*%
G04 APERTURE END LIST*
D10*
X18500000Y-6500000D02*
G75*
G03*
X18000000Y-6000000I-500000J0D01*
G01*
X9000000Y-11000000D02*
X18000000Y-11000000D01*
D11*
X18500000Y-11000000D02*
X18500000Y-11000000D01*
X18500000Y-11000000D02*
X18500000Y-11000000D01*
X18500000Y-11000000D02*
X18500000Y-11000000D01*
X18500000Y-11000000D02*
X18500000Y-11000000D01*
D10*
X18500000Y-10500000D02*
X18500000Y-6500000D01*
X18000000Y-11000000D02*
G75*
G03*
X18500000Y-10500000I0J500000D01*
G01*
X8500000Y-10500000D02*
X8500000Y-6500000D01*
X9000000Y-6000000D02*
G75*
G03*
X8500000Y-6500000I0J-500000D01*
G01*
X8500000Y-10500000D02*
G75*
G03*
X9000000Y-11000000I500000J0D01*
G01*
X9000000Y-6000000D02*
X18000000Y-6000000D01*
D12*
X8740000Y-9100000D02*
X8780000Y-9140000D01*
X8780000Y-9100000D02*
X8740000Y-9140000D01*
X9160000Y-7070000D02*
X9200000Y-7110000D01*
X9200000Y-7070000D02*
X9160000Y-7110000D01*
X9200000Y-8310000D02*
X9240000Y-8350000D01*
X9240000Y-8310000D02*
X9200000Y-8350000D01*
X9200000Y-8440000D02*
X9240000Y-8480000D01*
X9240000Y-8440000D02*
X9200000Y-8480000D01*
X9420000Y-9890000D02*
X9460000Y-9930000D01*
X9460000Y-9890000D02*
X9420000Y-9930000D01*
X10030000Y-8090000D02*
X10070000Y-8130000D01*
X10070000Y-8090000D02*
X10030000Y-8130000D01*
X10170000Y-7270000D02*
X10210000Y-7310000D01*
X10210000Y-7270000D02*
X10170000Y-7310000D01*
X10210000Y-9880000D02*
X10250000Y-9920000D01*
X10250000Y-9880000D02*
X10210000Y-9920000D01*
X10230000Y-6210000D02*
X10270000Y-6250000D01*
X10270000Y-6210000D02*
X10230000Y-6250000D01*
X10360000Y-10220000D02*
X10400000Y-10260000D01*
X10400000Y-10220000D02*
X10360000Y-10260000D01*
X10595870Y-8743410D02*
X10635870Y-8783410D01*
X10635870Y-8743410D02*
X10595870Y-8783410D01*
X10600000Y-8510000D02*
X10640000Y-8550000D01*
X10640000Y-8510000D02*
X10600000Y-8550000D01*
X10610000Y-9630000D02*
X10650000Y-9670000D01*
X10650000Y-9630000D02*
X10610000Y-9670000D01*
X10780000Y-9860000D02*
X10820000Y-9900000D01*
X10820000Y-9860000D02*
X10780000Y-9900000D01*
X10840000Y-7770000D02*
X10880000Y-7810000D01*
X10880000Y-7770000D02*
X10840000Y-7810000D01*
X10902000Y-6210000D02*
X10942000Y-6250000D01*
X10942000Y-6210000D02*
X10902000Y-6250000D01*
X10902338Y-9862338D02*
X10942338Y-9902338D01*
X10942338Y-9862338D02*
X10902338Y-9902338D01*
X11110000Y-8100000D02*
X11150000Y-8140000D01*
X11150000Y-8100000D02*
X11110000Y-8140000D01*
X11222192Y-8462550D02*
X11262192Y-8502550D01*
X11262192Y-8462550D02*
X11222192Y-8502550D01*
X11298770Y-9501230D02*
X11338770Y-9541230D01*
X11338770Y-9501230D02*
X11298770Y-9541230D01*
X11420000Y-9500000D02*
X11460000Y-9540000D01*
X11460000Y-9500000D02*
X11420000Y-9540000D01*
X11480000Y-6480000D02*
X11520000Y-6520000D01*
X11520000Y-6480000D02*
X11480000Y-6520000D01*
X11530000Y-7380000D02*
X11570000Y-7420000D01*
X11570000Y-7380000D02*
X11530000Y-7420000D01*
X11560000Y-8870000D02*
X11600000Y-8910000D01*
X11600000Y-8870000D02*
X11560000Y-8910000D01*
X11560000Y-9500000D02*
X11600000Y-9540000D01*
X11600000Y-9500000D02*
X11560000Y-9540000D01*
X11560000Y-9910000D02*
X11600000Y-9950000D01*
X11600000Y-9910000D02*
X11560000Y-9950000D01*
X11700000Y-9860000D02*
X11740000Y-9900000D01*
X11740000Y-9860000D02*
X11700000Y-9900000D01*
X11880000Y-8060000D02*
X11920000Y-8100000D01*
X11920000Y-8060000D02*
X11880000Y-8100000D01*
X12120000Y-8797550D02*
X12160000Y-8837550D01*
X12160000Y-8797550D02*
X12120000Y-8837550D01*
X12150000Y-6680000D02*
X12190000Y-6720000D01*
X12190000Y-6680000D02*
X12150000Y-6720000D01*
X12260000Y-6780000D02*
X12300000Y-6820000D01*
X12300000Y-6780000D02*
X12260000Y-6820000D01*
X12260000Y-8790000D02*
X12300000Y-8830000D01*
X12300000Y-8790000D02*
X12260000Y-8830000D01*
X12287550Y-9980000D02*
X12327550Y-10020000D01*
X12327550Y-9980000D02*
X12287550Y-10020000D01*
X12600000Y-8980000D02*
X12640000Y-9020000D01*
X12640000Y-8980000D02*
X12600000Y-9020000D01*
X12680000Y-6220000D02*
X12720000Y-6260000D01*
X12720000Y-6220000D02*
X12680000Y-6260000D01*
X12790000Y-9600000D02*
X12830000Y-9640000D01*
X12830000Y-9600000D02*
X12790000Y-9640000D01*
X12790000Y-9740000D02*
X12830000Y-9780000D01*
X12830000Y-9740000D02*
X12790000Y-9780000D01*
X12910000Y-9450000D02*
X12950000Y-9490000D01*
X12950000Y-9450000D02*
X12910000Y-9490000D01*
X13140000Y-9850000D02*
X13180000Y-9890000D01*
X13180000Y-9850000D02*
X13140000Y-9890000D01*
X13266265Y-9053735D02*
X13306265Y-9093735D01*
X13306265Y-9053735D02*
X13266265Y-9093735D01*
X13417000Y-8953000D02*
X13457000Y-8993000D01*
X13457000Y-8953000D02*
X13417000Y-8993000D01*
X13580000Y-9110000D02*
X13620000Y-9150000D01*
X13620000Y-9110000D02*
X13580000Y-9150000D01*
X13679950Y-9110000D02*
X13719950Y-9150000D01*
X13719950Y-9110000D02*
X13679950Y-9150000D01*
X13700000Y-9220000D02*
X13740000Y-9260000D01*
X13740000Y-9220000D02*
X13700000Y-9260000D01*
X13720000Y-9490450D02*
X13760000Y-9530450D01*
X13760000Y-9490450D02*
X13720000Y-9530450D01*
X13800000Y-9280000D02*
X13840000Y-9320000D01*
X13840000Y-9280000D02*
X13800000Y-9320000D01*
X13900000Y-7010000D02*
X13940000Y-7050000D01*
X13940000Y-7010000D02*
X13900000Y-7050000D01*
X13950000Y-9610000D02*
X13990000Y-9650000D01*
X13990000Y-9610000D02*
X13950000Y-9650000D01*
X13960000Y-9100000D02*
X14000000Y-9140000D01*
X14000000Y-9100000D02*
X13960000Y-9140000D01*
X14040000Y-9170000D02*
X14080000Y-9210000D01*
X14080000Y-9170000D02*
X14040000Y-9210000D01*
X14050000Y-9650000D02*
X14090000Y-9690000D01*
X14090000Y-9650000D02*
X14050000Y-9690000D01*
X14090000Y-9370000D02*
X14130000Y-9410000D01*
X14130000Y-9370000D02*
X14090000Y-9410000D01*
X14120000Y-9100000D02*
X14160000Y-9140000D01*
X14160000Y-9100000D02*
X14120000Y-9140000D01*
X14150000Y-10090000D02*
X14190000Y-10130000D01*
X14190000Y-10090000D02*
X14150000Y-10130000D01*
X14230000Y-9810000D02*
X14270000Y-9850000D01*
X14270000Y-9810000D02*
X14230000Y-9850000D01*
X14400000Y-9790000D02*
X14440000Y-9830000D01*
X14440000Y-9790000D02*
X14400000Y-9830000D01*
X14420000Y-9580000D02*
X14460000Y-9620000D01*
X14460000Y-9580000D02*
X14420000Y-9620000D01*
X14870000Y-10810000D02*
X14910000Y-10850000D01*
X14910000Y-10810000D02*
X14870000Y-10850000D01*
X15590000Y-7020000D02*
X15630000Y-7060000D01*
X15630000Y-7020000D02*
X15590000Y-7060000D01*
X15670000Y-8060000D02*
X15710000Y-8100000D01*
X15710000Y-8060000D02*
X15670000Y-8100000D01*
X16010000Y-9900000D02*
X16050000Y-9940000D01*
X16050000Y-9900000D02*
X16010000Y-9940000D01*
X16030000Y-9250000D02*
X16070000Y-9290000D01*
X16070000Y-9250000D02*
X16030000Y-9290000D01*
X16750000Y-7763500D02*
X16790000Y-7803500D01*
X16790000Y-7763500D02*
X16750000Y-7803500D01*
X16753050Y-8180000D02*
X16793050Y-8220000D01*
X16793050Y-8180000D02*
X16753050Y-8220000D01*
X16850000Y-8760000D02*
X16890000Y-8800000D01*
X16890000Y-8760000D02*
X16850000Y-8800000D01*
D11*
X11290000Y-10346000D02*
G75*
G03*
X11290000Y-10346000I-50000J0D01*
G01*
X11290000Y-10600000D02*
G75*
G03*
X11290000Y-10600000I-50000J0D01*
G01*
X11544000Y-10346000D02*
G75*
G03*
X11544000Y-10346000I-50000J0D01*
G01*
X11544000Y-10600000D02*
G75*
G03*
X11544000Y-10600000I-50000J0D01*
G01*
X11798000Y-10346000D02*
G75*
G03*
X11798000Y-10346000I-50000J0D01*
G01*
X11798000Y-10600000D02*
G75*
G03*
X11798000Y-10600000I-50000J0D01*
G01*
X12052000Y-10346000D02*
G75*
G03*
X12052000Y-10346000I-50000J0D01*
G01*
X12052000Y-10600000D02*
G75*
G03*
X12052000Y-10600000I-50000J0D01*
G01*
X12093500Y-7630000D02*
G75*
G03*
X12093500Y-7630000I-50000J0D01*
G01*
X12306000Y-10346000D02*
G75*
G03*
X12306000Y-10346000I-50000J0D01*
G01*
X12306000Y-10600000D02*
G75*
G03*
X12306000Y-10600000I-50000J0D01*
G01*
X12347500Y-7630000D02*
G75*
G03*
X12347500Y-7630000I-50000J0D01*
G01*
X12560000Y-10346000D02*
G75*
G03*
X12560000Y-10346000I-50000J0D01*
G01*
X12560000Y-10600000D02*
G75*
G03*
X12560000Y-10600000I-50000J0D01*
G01*
X12814000Y-10346000D02*
G75*
G03*
X12814000Y-10346000I-50000J0D01*
G01*
X12814000Y-10600000D02*
G75*
G03*
X12814000Y-10600000I-50000J0D01*
G01*
X13068000Y-10346000D02*
G75*
G03*
X13068000Y-10346000I-50000J0D01*
G01*
X13068000Y-10600000D02*
G75*
G03*
X13068000Y-10600000I-50000J0D01*
G01*
X13131000Y-7823200D02*
G75*
G03*
X13131000Y-7823200I-50000J0D01*
G01*
X13131000Y-8077200D02*
G75*
G03*
X13131000Y-8077200I-50000J0D01*
G01*
X13131000Y-8331200D02*
G75*
G03*
X13131000Y-8331200I-50000J0D01*
G01*
X13322000Y-10346000D02*
G75*
G03*
X13322000Y-10346000I-50000J0D01*
G01*
X13322000Y-10600000D02*
G75*
G03*
X13322000Y-10600000I-50000J0D01*
G01*
X13385000Y-7823200D02*
G75*
G03*
X13385000Y-7823200I-50000J0D01*
G01*
X13385000Y-8077200D02*
G75*
G03*
X13385000Y-8077200I-50000J0D01*
G01*
X13385000Y-8331200D02*
G75*
G03*
X13385000Y-8331200I-50000J0D01*
G01*
X13576000Y-10346000D02*
G75*
G03*
X13576000Y-10346000I-50000J0D01*
G01*
X13576000Y-10600000D02*
G75*
G03*
X13576000Y-10600000I-50000J0D01*
G01*
X13830000Y-10346000D02*
G75*
G03*
X13830000Y-10346000I-50000J0D01*
G01*
X13830000Y-10600000D02*
G75*
G03*
X13830000Y-10600000I-50000J0D01*
G01*
X14084000Y-10346000D02*
G75*
G03*
X14084000Y-10346000I-50000J0D01*
G01*
X14084000Y-10600000D02*
G75*
G03*
X14084000Y-10600000I-50000J0D01*
G01*
X14338000Y-10346000D02*
G75*
G03*
X14338000Y-10346000I-50000J0D01*
G01*
X14338000Y-10600000D02*
G75*
G03*
X14338000Y-10600000I-50000J0D01*
G01*
X16892500Y-9403500D02*
G75*
G03*
X16892500Y-9403500I-50000J0D01*
G01*
X16892500Y-9657500D02*
G75*
G03*
X16892500Y-9657500I-50000J0D01*
G01*
X17146500Y-9403500D02*
G75*
G03*
X17146500Y-9403500I-50000J0D01*
G01*
X17146500Y-9657500D02*
G75*
G03*
X17146500Y-9657500I-50000J0D01*
G01*
X17540000Y-9390000D02*
G75*
G03*
X17540000Y-9390000I-50000J0D01*
G01*
X17540000Y-9644000D02*
G75*
G03*
X17540000Y-9644000I-50000J0D01*
G01*
D13*
X13946000Y-7255000D02*
X13946000Y-7364000D01*
X13891500Y-7309500D02*
X14000500Y-7309500D01*
X14200000Y-7255000D02*
X14200000Y-7364000D01*
X14145500Y-7309500D02*
X14254500Y-7309500D01*
X14454000Y-7255000D02*
X14454000Y-7364000D01*
X14399500Y-7309500D02*
X14508500Y-7309500D01*
X15696000Y-7265000D02*
X15696000Y-7374000D01*
X15641500Y-7319500D02*
X15750500Y-7319500D01*
X15950000Y-7265000D02*
X15950000Y-7374000D01*
X15895500Y-7319500D02*
X16004500Y-7319500D01*
X16204000Y-7265000D02*
X16204000Y-7374000D01*
X16149500Y-7319500D02*
X16258500Y-7319500D01*
D14*
X13937891Y-7891091D02*
X13937891Y-7813309D01*
X13860109Y-7813309D01*
X13860109Y-7891091D01*
X13937891Y-7891091D01*
X13937891Y-8341091D02*
X13937891Y-8263309D01*
X13860109Y-8263309D01*
X13860109Y-8341091D01*
X13937891Y-8341091D01*
X14587891Y-7891091D02*
X14587891Y-7813309D01*
X14510109Y-7813309D01*
X14510109Y-7891091D01*
X14587891Y-7891091D01*
X14587891Y-8341091D02*
X14587891Y-8263309D01*
X14510109Y-8263309D01*
X14510109Y-8341091D01*
X14587891Y-8341091D01*
D15*
X17128850Y-7883370D02*
X17187270Y-7824950D01*
X17128850Y-7766530D01*
X17070430Y-7824950D01*
X17128850Y-7883370D01*
X17128850Y-8137370D02*
X17187270Y-8078950D01*
X17128850Y-8020530D01*
X17070430Y-8078950D01*
X17128850Y-8137370D01*
X17128850Y-8391370D02*
X17187270Y-8332950D01*
X17128850Y-8274530D01*
X17070430Y-8332950D01*
X17128850Y-8391370D01*
X17128850Y-8645370D02*
X17187270Y-8586950D01*
X17128850Y-8528530D01*
X17070430Y-8586950D01*
X17128850Y-8645370D01*
D10*
X8747619Y-11320476D02*
X8747619Y-11120476D01*
X8795238Y-11120476D01*
X8823810Y-11130000D01*
X8842857Y-11149048D01*
X8852381Y-11168095D01*
X8861905Y-11206190D01*
X8861905Y-11234762D01*
X8852381Y-11272857D01*
X8842857Y-11291905D01*
X8823810Y-11310952D01*
X8795238Y-11320476D01*
X8747619Y-11320476D01*
X8947619Y-11320476D02*
X8947619Y-11187143D01*
X8947619Y-11225238D02*
X8957143Y-11206190D01*
X8966667Y-11196667D01*
X8985714Y-11187143D01*
X9004762Y-11187143D01*
X9071429Y-11320476D02*
X9071429Y-11187143D01*
X9071429Y-11120476D02*
X9061905Y-11130000D01*
X9071429Y-11139524D01*
X9080952Y-11130000D01*
X9071429Y-11120476D01*
X9071429Y-11139524D01*
X9195238Y-11320476D02*
X9176190Y-11310952D01*
X9166667Y-11291905D01*
X9166667Y-11120476D01*
X9300000Y-11320476D02*
X9280952Y-11310952D01*
X9271429Y-11291905D01*
X9271429Y-11120476D01*
X9528571Y-11320476D02*
X9528571Y-11120476D01*
X9595238Y-11263333D01*
X9661905Y-11120476D01*
X9661905Y-11320476D01*
X9842857Y-11320476D02*
X9842857Y-11215714D01*
X9833333Y-11196667D01*
X9814286Y-11187143D01*
X9776190Y-11187143D01*
X9757143Y-11196667D01*
X9842857Y-11310952D02*
X9823810Y-11320476D01*
X9776190Y-11320476D01*
X9757143Y-11310952D01*
X9747619Y-11291905D01*
X9747619Y-11272857D01*
X9757143Y-11253809D01*
X9776190Y-11244286D01*
X9823810Y-11244286D01*
X9842857Y-11234762D01*
X9938095Y-11187143D02*
X9938095Y-11387143D01*
X9938095Y-11196667D02*
X9957143Y-11187143D01*
X9995238Y-11187143D01*
X10014286Y-11196667D01*
X10023810Y-11206190D01*
X10033333Y-11225238D01*
X10033333Y-11282381D01*
X10023810Y-11301428D01*
X10014286Y-11310952D01*
X9995238Y-11320476D01*
X9957143Y-11320476D01*
X9938095Y-11310952D01*
X10119048Y-11301428D02*
X10128571Y-11310952D01*
X10119048Y-11320476D01*
X10109524Y-11310952D01*
X10119048Y-11301428D01*
X10119048Y-11320476D01*
X10119048Y-11196667D02*
X10128571Y-11206190D01*
X10119048Y-11215714D01*
X10109524Y-11206190D01*
X10119048Y-11196667D01*
X10119048Y-11215714D01*
D12*
X8450000Y-11630000D02*
X8490000Y-11670000D01*
X8490000Y-11630000D02*
X8450000Y-11670000D01*
D10*
X8785714Y-11540476D02*
X8804762Y-11540476D01*
X8823810Y-11550000D01*
X8833333Y-11559524D01*
X8842857Y-11578571D01*
X8852381Y-11616667D01*
X8852381Y-11664286D01*
X8842857Y-11702381D01*
X8833333Y-11721428D01*
X8823810Y-11730952D01*
X8804762Y-11740476D01*
X8785714Y-11740476D01*
X8766667Y-11730952D01*
X8757143Y-11721428D01*
X8747619Y-11702381D01*
X8738095Y-11664286D01*
X8738095Y-11616667D01*
X8747619Y-11578571D01*
X8757143Y-11559524D01*
X8766667Y-11550000D01*
X8785714Y-11540476D01*
X8938095Y-11721428D02*
X8947619Y-11730952D01*
X8938095Y-11740476D01*
X8928571Y-11730952D01*
X8938095Y-11721428D01*
X8938095Y-11740476D01*
X9119048Y-11607143D02*
X9119048Y-11740476D01*
X9071429Y-11530952D02*
X9023810Y-11673809D01*
X9147619Y-11673809D01*
X9261905Y-11540476D02*
X9280952Y-11540476D01*
X9300000Y-11550000D01*
X9309524Y-11559524D01*
X9319048Y-11578571D01*
X9328571Y-11616667D01*
X9328571Y-11664286D01*
X9319048Y-11702381D01*
X9309524Y-11721428D01*
X9300000Y-11730952D01*
X9280952Y-11740476D01*
X9261905Y-11740476D01*
X9242857Y-11730952D01*
X9233333Y-11721428D01*
X9223810Y-11702381D01*
X9214286Y-11664286D01*
X9214286Y-11616667D01*
X9223810Y-11578571D01*
X9233333Y-11559524D01*
X9242857Y-11550000D01*
X9261905Y-11540476D01*
X9452381Y-11540476D02*
X9471429Y-11540476D01*
X9490476Y-11550000D01*
X9500000Y-11559524D01*
X9509524Y-11578571D01*
X9519048Y-11616667D01*
X9519048Y-11664286D01*
X9509524Y-11702381D01*
X9500000Y-11721428D01*
X9490476Y-11730952D01*
X9471429Y-11740476D01*
X9452381Y-11740476D01*
X9433333Y-11730952D01*
X9423810Y-11721428D01*
X9414286Y-11702381D01*
X9404762Y-11664286D01*
X9404762Y-11616667D01*
X9414286Y-11578571D01*
X9423810Y-11559524D01*
X9433333Y-11550000D01*
X9452381Y-11540476D01*
X9604762Y-11740476D02*
X9604762Y-11607143D01*
X9604762Y-11626190D02*
X9614286Y-11616667D01*
X9633333Y-11607143D01*
X9661905Y-11607143D01*
X9680952Y-11616667D01*
X9690476Y-11635714D01*
X9690476Y-11740476D01*
X9690476Y-11635714D02*
X9700000Y-11616667D01*
X9719048Y-11607143D01*
X9747619Y-11607143D01*
X9766667Y-11616667D01*
X9776190Y-11635714D01*
X9776190Y-11740476D01*
X9871429Y-11740476D02*
X9871429Y-11607143D01*
X9871429Y-11626190D02*
X9880952Y-11616667D01*
X9900000Y-11607143D01*
X9928571Y-11607143D01*
X9947619Y-11616667D01*
X9957143Y-11635714D01*
X9957143Y-11740476D01*
X9957143Y-11635714D02*
X9966667Y-11616667D01*
X9985714Y-11607143D01*
X10014286Y-11607143D01*
X10033333Y-11616667D01*
X10042857Y-11635714D01*
X10042857Y-11740476D01*
X10433333Y-11530952D02*
X10261905Y-11788095D01*
X10690476Y-11540476D02*
X10709524Y-11540476D01*
X10728571Y-11550000D01*
X10738095Y-11559524D01*
X10747619Y-11578571D01*
X10757143Y-11616667D01*
X10757143Y-11664286D01*
X10747619Y-11702381D01*
X10738095Y-11721428D01*
X10728571Y-11730952D01*
X10709524Y-11740476D01*
X10690476Y-11740476D01*
X10671429Y-11730952D01*
X10661905Y-11721428D01*
X10652381Y-11702381D01*
X10642857Y-11664286D01*
X10642857Y-11616667D01*
X10652381Y-11578571D01*
X10661905Y-11559524D01*
X10671429Y-11550000D01*
X10690476Y-11540476D01*
X10842857Y-11721428D02*
X10852381Y-11730952D01*
X10842857Y-11740476D01*
X10833333Y-11730952D01*
X10842857Y-11721428D01*
X10842857Y-11740476D01*
X10976190Y-11540476D02*
X10995238Y-11540476D01*
X11014286Y-11550000D01*
X11023810Y-11559524D01*
X11033333Y-11578571D01*
X11042857Y-11616667D01*
X11042857Y-11664286D01*
X11033333Y-11702381D01*
X11023810Y-11721428D01*
X11014286Y-11730952D01*
X10995238Y-11740476D01*
X10976190Y-11740476D01*
X10957143Y-11730952D01*
X10947619Y-11721428D01*
X10938095Y-11702381D01*
X10928571Y-11664286D01*
X10928571Y-11616667D01*
X10938095Y-11578571D01*
X10947619Y-11559524D01*
X10957143Y-11550000D01*
X10976190Y-11540476D01*
X11233333Y-11740476D02*
X11119048Y-11740476D01*
X11176190Y-11740476D02*
X11176190Y-11540476D01*
X11157143Y-11569048D01*
X11138095Y-11588095D01*
X11119048Y-11597619D01*
X11414286Y-11540476D02*
X11319048Y-11540476D01*
X11309524Y-11635714D01*
X11319048Y-11626190D01*
X11338095Y-11616667D01*
X11385714Y-11616667D01*
X11404762Y-11626190D01*
X11414286Y-11635714D01*
X11423809Y-11654762D01*
X11423809Y-11702381D01*
X11414286Y-11721428D01*
X11404762Y-11730952D01*
X11385714Y-11740476D01*
X11338095Y-11740476D01*
X11319048Y-11730952D01*
X11309524Y-11721428D01*
X11490476Y-11540476D02*
X11623809Y-11540476D01*
X11538095Y-11740476D01*
X11690476Y-11540476D02*
X11690476Y-11578571D01*
X11766667Y-11540476D02*
X11766667Y-11578571D01*
X12061905Y-11816667D02*
X12052381Y-11807143D01*
X12033333Y-11778571D01*
X12023809Y-11759524D01*
X12014286Y-11730952D01*
X12004762Y-11683333D01*
X12004762Y-11645238D01*
X12014286Y-11597619D01*
X12023809Y-11569048D01*
X12033333Y-11550000D01*
X12052381Y-11521428D01*
X12061905Y-11511905D01*
X12223809Y-11540476D02*
X12185714Y-11540476D01*
X12166667Y-11550000D01*
X12157143Y-11559524D01*
X12138095Y-11588095D01*
X12128571Y-11626190D01*
X12128571Y-11702381D01*
X12138095Y-11721428D01*
X12147619Y-11730952D01*
X12166667Y-11740476D01*
X12204762Y-11740476D01*
X12223809Y-11730952D01*
X12233333Y-11721428D01*
X12242857Y-11702381D01*
X12242857Y-11654762D01*
X12233333Y-11635714D01*
X12223809Y-11626190D01*
X12204762Y-11616667D01*
X12166667Y-11616667D01*
X12147619Y-11626190D01*
X12138095Y-11635714D01*
X12128571Y-11654762D01*
X12423809Y-11540476D02*
X12328571Y-11540476D01*
X12319048Y-11635714D01*
X12328571Y-11626190D01*
X12347619Y-11616667D01*
X12395238Y-11616667D01*
X12414286Y-11626190D01*
X12423809Y-11635714D01*
X12433333Y-11654762D01*
X12433333Y-11702381D01*
X12423809Y-11721428D01*
X12414286Y-11730952D01*
X12395238Y-11740476D01*
X12347619Y-11740476D01*
X12328571Y-11730952D01*
X12319048Y-11721428D01*
X12671428Y-11740476D02*
X12671428Y-11540476D01*
X12757143Y-11740476D02*
X12757143Y-11635714D01*
X12747619Y-11616667D01*
X12728571Y-11607143D01*
X12700000Y-11607143D01*
X12680952Y-11616667D01*
X12671428Y-11626190D01*
X12880952Y-11740476D02*
X12861905Y-11730952D01*
X12852381Y-11721428D01*
X12842857Y-11702381D01*
X12842857Y-11645238D01*
X12852381Y-11626190D01*
X12861905Y-11616667D01*
X12880952Y-11607143D01*
X12909524Y-11607143D01*
X12928571Y-11616667D01*
X12938095Y-11626190D01*
X12947619Y-11645238D01*
X12947619Y-11702381D01*
X12938095Y-11721428D01*
X12928571Y-11730952D01*
X12909524Y-11740476D01*
X12880952Y-11740476D01*
X13061905Y-11740476D02*
X13042857Y-11730952D01*
X13033333Y-11711905D01*
X13033333Y-11540476D01*
X13214286Y-11730952D02*
X13195238Y-11740476D01*
X13157143Y-11740476D01*
X13138095Y-11730952D01*
X13128571Y-11711905D01*
X13128571Y-11635714D01*
X13138095Y-11616667D01*
X13157143Y-11607143D01*
X13195238Y-11607143D01*
X13214286Y-11616667D01*
X13223809Y-11635714D01*
X13223809Y-11654762D01*
X13128571Y-11673809D01*
X13300000Y-11730952D02*
X13319048Y-11740476D01*
X13357143Y-11740476D01*
X13376190Y-11730952D01*
X13385714Y-11711905D01*
X13385714Y-11702381D01*
X13376190Y-11683333D01*
X13357143Y-11673809D01*
X13328571Y-11673809D01*
X13309524Y-11664286D01*
X13300000Y-11645238D01*
X13300000Y-11635714D01*
X13309524Y-11616667D01*
X13328571Y-11607143D01*
X13357143Y-11607143D01*
X13376190Y-11616667D01*
X13452381Y-11816667D02*
X13461905Y-11807143D01*
X13480952Y-11778571D01*
X13490476Y-11759524D01*
X13500000Y-11730952D01*
X13509524Y-11683333D01*
X13509524Y-11645238D01*
X13500000Y-11597619D01*
X13490476Y-11569048D01*
X13480952Y-11550000D01*
X13461905Y-11521428D01*
X13452381Y-11511905D01*
D11*
X8490000Y-11914000D02*
G75*
G03*
X8490000Y-11914000I-50000J0D01*
G01*
D10*
X8852381Y-12004476D02*
X8738095Y-12004476D01*
X8795238Y-12004476D02*
X8795238Y-11804476D01*
X8776190Y-11833048D01*
X8757143Y-11852095D01*
X8738095Y-11861619D01*
X8938095Y-11985428D02*
X8947619Y-11994952D01*
X8938095Y-12004476D01*
X8928571Y-11994952D01*
X8938095Y-11985428D01*
X8938095Y-12004476D01*
X9071429Y-11804476D02*
X9090476Y-11804476D01*
X9109524Y-11814000D01*
X9119048Y-11823524D01*
X9128571Y-11842571D01*
X9138095Y-11880667D01*
X9138095Y-11928286D01*
X9128571Y-11966381D01*
X9119048Y-11985428D01*
X9109524Y-11994952D01*
X9090476Y-12004476D01*
X9071429Y-12004476D01*
X9052381Y-11994952D01*
X9042857Y-11985428D01*
X9033333Y-11966381D01*
X9023810Y-11928286D01*
X9023810Y-11880667D01*
X9033333Y-11842571D01*
X9042857Y-11823524D01*
X9052381Y-11814000D01*
X9071429Y-11804476D01*
X9261905Y-11804476D02*
X9280952Y-11804476D01*
X9300000Y-11814000D01*
X9309524Y-11823524D01*
X9319048Y-11842571D01*
X9328571Y-11880667D01*
X9328571Y-11928286D01*
X9319048Y-11966381D01*
X9309524Y-11985428D01*
X9300000Y-11994952D01*
X9280952Y-12004476D01*
X9261905Y-12004476D01*
X9242857Y-11994952D01*
X9233333Y-11985428D01*
X9223810Y-11966381D01*
X9214286Y-11928286D01*
X9214286Y-11880667D01*
X9223810Y-11842571D01*
X9233333Y-11823524D01*
X9242857Y-11814000D01*
X9261905Y-11804476D01*
X9452381Y-11804476D02*
X9471429Y-11804476D01*
X9490476Y-11814000D01*
X9500000Y-11823524D01*
X9509524Y-11842571D01*
X9519048Y-11880667D01*
X9519048Y-11928286D01*
X9509524Y-11966381D01*
X9500000Y-11985428D01*
X9490476Y-11994952D01*
X9471429Y-12004476D01*
X9452381Y-12004476D01*
X9433333Y-11994952D01*
X9423810Y-11985428D01*
X9414286Y-11966381D01*
X9404762Y-11928286D01*
X9404762Y-11880667D01*
X9414286Y-11842571D01*
X9423810Y-11823524D01*
X9433333Y-11814000D01*
X9452381Y-11804476D01*
X9604762Y-12004476D02*
X9604762Y-11871143D01*
X9604762Y-11890190D02*
X9614286Y-11880667D01*
X9633333Y-11871143D01*
X9661905Y-11871143D01*
X9680952Y-11880667D01*
X9690476Y-11899714D01*
X9690476Y-12004476D01*
X9690476Y-11899714D02*
X9700000Y-11880667D01*
X9719048Y-11871143D01*
X9747619Y-11871143D01*
X9766667Y-11880667D01*
X9776190Y-11899714D01*
X9776190Y-12004476D01*
X9871429Y-12004476D02*
X9871429Y-11871143D01*
X9871429Y-11890190D02*
X9880952Y-11880667D01*
X9900000Y-11871143D01*
X9928571Y-11871143D01*
X9947619Y-11880667D01*
X9957143Y-11899714D01*
X9957143Y-12004476D01*
X9957143Y-11899714D02*
X9966667Y-11880667D01*
X9985714Y-11871143D01*
X10014286Y-11871143D01*
X10033333Y-11880667D01*
X10042857Y-11899714D01*
X10042857Y-12004476D01*
X10433333Y-11794952D02*
X10261905Y-12052095D01*
X10690476Y-11804476D02*
X10709524Y-11804476D01*
X10728571Y-11814000D01*
X10738095Y-11823524D01*
X10747619Y-11842571D01*
X10757143Y-11880667D01*
X10757143Y-11928286D01*
X10747619Y-11966381D01*
X10738095Y-11985428D01*
X10728571Y-11994952D01*
X10709524Y-12004476D01*
X10690476Y-12004476D01*
X10671429Y-11994952D01*
X10661905Y-11985428D01*
X10652381Y-11966381D01*
X10642857Y-11928286D01*
X10642857Y-11880667D01*
X10652381Y-11842571D01*
X10661905Y-11823524D01*
X10671429Y-11814000D01*
X10690476Y-11804476D01*
X10842857Y-11985428D02*
X10852381Y-11994952D01*
X10842857Y-12004476D01*
X10833333Y-11994952D01*
X10842857Y-11985428D01*
X10842857Y-12004476D01*
X10976190Y-11804476D02*
X10995238Y-11804476D01*
X11014286Y-11814000D01*
X11023810Y-11823524D01*
X11033333Y-11842571D01*
X11042857Y-11880667D01*
X11042857Y-11928286D01*
X11033333Y-11966381D01*
X11023810Y-11985428D01*
X11014286Y-11994952D01*
X10995238Y-12004476D01*
X10976190Y-12004476D01*
X10957143Y-11994952D01*
X10947619Y-11985428D01*
X10938095Y-11966381D01*
X10928571Y-11928286D01*
X10928571Y-11880667D01*
X10938095Y-11842571D01*
X10947619Y-11823524D01*
X10957143Y-11814000D01*
X10976190Y-11804476D01*
X11109524Y-11804476D02*
X11233333Y-11804476D01*
X11166667Y-11880667D01*
X11195238Y-11880667D01*
X11214286Y-11890190D01*
X11223809Y-11899714D01*
X11233333Y-11918762D01*
X11233333Y-11966381D01*
X11223809Y-11985428D01*
X11214286Y-11994952D01*
X11195238Y-12004476D01*
X11138095Y-12004476D01*
X11119048Y-11994952D01*
X11109524Y-11985428D01*
X11328571Y-12004476D02*
X11366667Y-12004476D01*
X11385714Y-11994952D01*
X11395238Y-11985428D01*
X11414286Y-11956857D01*
X11423809Y-11918762D01*
X11423809Y-11842571D01*
X11414286Y-11823524D01*
X11404762Y-11814000D01*
X11385714Y-11804476D01*
X11347619Y-11804476D01*
X11328571Y-11814000D01*
X11319048Y-11823524D01*
X11309524Y-11842571D01*
X11309524Y-11890190D01*
X11319048Y-11909238D01*
X11328571Y-11918762D01*
X11347619Y-11928286D01*
X11385714Y-11928286D01*
X11404762Y-11918762D01*
X11414286Y-11909238D01*
X11423809Y-11890190D01*
X11595238Y-11871143D02*
X11595238Y-12004476D01*
X11547619Y-11794952D02*
X11500000Y-11937809D01*
X11623809Y-11937809D01*
X11690476Y-11804476D02*
X11690476Y-11842571D01*
X11766667Y-11804476D02*
X11766667Y-11842571D01*
X12061905Y-12080667D02*
X12052381Y-12071143D01*
X12033333Y-12042571D01*
X12023809Y-12023524D01*
X12014286Y-11994952D01*
X12004762Y-11947333D01*
X12004762Y-11909238D01*
X12014286Y-11861619D01*
X12023809Y-11833048D01*
X12033333Y-11814000D01*
X12052381Y-11785428D01*
X12061905Y-11775905D01*
X12223809Y-11871143D02*
X12223809Y-12004476D01*
X12176190Y-11794952D02*
X12128571Y-11937809D01*
X12252381Y-11937809D01*
X12366667Y-11804476D02*
X12385714Y-11804476D01*
X12404762Y-11814000D01*
X12414286Y-11823524D01*
X12423809Y-11842571D01*
X12433333Y-11880667D01*
X12433333Y-11928286D01*
X12423809Y-11966381D01*
X12414286Y-11985428D01*
X12404762Y-11994952D01*
X12385714Y-12004476D01*
X12366667Y-12004476D01*
X12347619Y-11994952D01*
X12338095Y-11985428D01*
X12328571Y-11966381D01*
X12319048Y-11928286D01*
X12319048Y-11880667D01*
X12328571Y-11842571D01*
X12338095Y-11823524D01*
X12347619Y-11814000D01*
X12366667Y-11804476D01*
X12671428Y-12004476D02*
X12671428Y-11804476D01*
X12757143Y-12004476D02*
X12757143Y-11899714D01*
X12747619Y-11880667D01*
X12728571Y-11871143D01*
X12700000Y-11871143D01*
X12680952Y-11880667D01*
X12671428Y-11890190D01*
X12880952Y-12004476D02*
X12861905Y-11994952D01*
X12852381Y-11985428D01*
X12842857Y-11966381D01*
X12842857Y-11909238D01*
X12852381Y-11890190D01*
X12861905Y-11880667D01*
X12880952Y-11871143D01*
X12909524Y-11871143D01*
X12928571Y-11880667D01*
X12938095Y-11890190D01*
X12947619Y-11909238D01*
X12947619Y-11966381D01*
X12938095Y-11985428D01*
X12928571Y-11994952D01*
X12909524Y-12004476D01*
X12880952Y-12004476D01*
X13061905Y-12004476D02*
X13042857Y-11994952D01*
X13033333Y-11975905D01*
X13033333Y-11804476D01*
X13214286Y-11994952D02*
X13195238Y-12004476D01*
X13157143Y-12004476D01*
X13138095Y-11994952D01*
X13128571Y-11975905D01*
X13128571Y-11899714D01*
X13138095Y-11880667D01*
X13157143Y-11871143D01*
X13195238Y-11871143D01*
X13214286Y-11880667D01*
X13223809Y-11899714D01*
X13223809Y-11918762D01*
X13128571Y-11937809D01*
X13300000Y-11994952D02*
X13319048Y-12004476D01*
X13357143Y-12004476D01*
X13376190Y-11994952D01*
X13385714Y-11975905D01*
X13385714Y-11966381D01*
X13376190Y-11947333D01*
X13357143Y-11937809D01*
X13328571Y-11937809D01*
X13309524Y-11928286D01*
X13300000Y-11909238D01*
X13300000Y-11899714D01*
X13309524Y-11880667D01*
X13328571Y-11871143D01*
X13357143Y-11871143D01*
X13376190Y-11880667D01*
X13452381Y-12080667D02*
X13461905Y-12071143D01*
X13480952Y-12042571D01*
X13490476Y-12023524D01*
X13500000Y-11994952D01*
X13509524Y-11947333D01*
X13509524Y-11909238D01*
X13500000Y-11861619D01*
X13490476Y-11833048D01*
X13480952Y-11814000D01*
X13461905Y-11785428D01*
X13452381Y-11775905D01*
D13*
X8435500Y-12123500D02*
X8435500Y-12232500D01*
X8381000Y-12178000D02*
X8490000Y-12178000D01*
D10*
X8852381Y-12268476D02*
X8738095Y-12268476D01*
X8795238Y-12268476D02*
X8795238Y-12068476D01*
X8776190Y-12097048D01*
X8757143Y-12116095D01*
X8738095Y-12125619D01*
X8938095Y-12249428D02*
X8947619Y-12258952D01*
X8938095Y-12268476D01*
X8928571Y-12258952D01*
X8938095Y-12249428D01*
X8938095Y-12268476D01*
X9071429Y-12068476D02*
X9090476Y-12068476D01*
X9109524Y-12078000D01*
X9119048Y-12087524D01*
X9128571Y-12106571D01*
X9138095Y-12144667D01*
X9138095Y-12192286D01*
X9128571Y-12230381D01*
X9119048Y-12249428D01*
X9109524Y-12258952D01*
X9090476Y-12268476D01*
X9071429Y-12268476D01*
X9052381Y-12258952D01*
X9042857Y-12249428D01*
X9033333Y-12230381D01*
X9023810Y-12192286D01*
X9023810Y-12144667D01*
X9033333Y-12106571D01*
X9042857Y-12087524D01*
X9052381Y-12078000D01*
X9071429Y-12068476D01*
X9233333Y-12268476D02*
X9271429Y-12268476D01*
X9290476Y-12258952D01*
X9300000Y-12249428D01*
X9319048Y-12220857D01*
X9328571Y-12182762D01*
X9328571Y-12106571D01*
X9319048Y-12087524D01*
X9309524Y-12078000D01*
X9290476Y-12068476D01*
X9252381Y-12068476D01*
X9233333Y-12078000D01*
X9223810Y-12087524D01*
X9214286Y-12106571D01*
X9214286Y-12154190D01*
X9223810Y-12173238D01*
X9233333Y-12182762D01*
X9252381Y-12192286D01*
X9290476Y-12192286D01*
X9309524Y-12182762D01*
X9319048Y-12173238D01*
X9328571Y-12154190D01*
X9452381Y-12068476D02*
X9471429Y-12068476D01*
X9490476Y-12078000D01*
X9500000Y-12087524D01*
X9509524Y-12106571D01*
X9519048Y-12144667D01*
X9519048Y-12192286D01*
X9509524Y-12230381D01*
X9500000Y-12249428D01*
X9490476Y-12258952D01*
X9471429Y-12268476D01*
X9452381Y-12268476D01*
X9433333Y-12258952D01*
X9423810Y-12249428D01*
X9414286Y-12230381D01*
X9404762Y-12192286D01*
X9404762Y-12144667D01*
X9414286Y-12106571D01*
X9423810Y-12087524D01*
X9433333Y-12078000D01*
X9452381Y-12068476D01*
X9604762Y-12268476D02*
X9604762Y-12135143D01*
X9604762Y-12154190D02*
X9614286Y-12144667D01*
X9633333Y-12135143D01*
X9661905Y-12135143D01*
X9680952Y-12144667D01*
X9690476Y-12163714D01*
X9690476Y-12268476D01*
X9690476Y-12163714D02*
X9700000Y-12144667D01*
X9719048Y-12135143D01*
X9747619Y-12135143D01*
X9766667Y-12144667D01*
X9776190Y-12163714D01*
X9776190Y-12268476D01*
X9871429Y-12268476D02*
X9871429Y-12135143D01*
X9871429Y-12154190D02*
X9880952Y-12144667D01*
X9900000Y-12135143D01*
X9928571Y-12135143D01*
X9947619Y-12144667D01*
X9957143Y-12163714D01*
X9957143Y-12268476D01*
X9957143Y-12163714D02*
X9966667Y-12144667D01*
X9985714Y-12135143D01*
X10014286Y-12135143D01*
X10033333Y-12144667D01*
X10042857Y-12163714D01*
X10042857Y-12268476D01*
X10433333Y-12058952D02*
X10261905Y-12316095D01*
X10690476Y-12068476D02*
X10709524Y-12068476D01*
X10728571Y-12078000D01*
X10738095Y-12087524D01*
X10747619Y-12106571D01*
X10757143Y-12144667D01*
X10757143Y-12192286D01*
X10747619Y-12230381D01*
X10738095Y-12249428D01*
X10728571Y-12258952D01*
X10709524Y-12268476D01*
X10690476Y-12268476D01*
X10671429Y-12258952D01*
X10661905Y-12249428D01*
X10652381Y-12230381D01*
X10642857Y-12192286D01*
X10642857Y-12144667D01*
X10652381Y-12106571D01*
X10661905Y-12087524D01*
X10671429Y-12078000D01*
X10690476Y-12068476D01*
X10842857Y-12249428D02*
X10852381Y-12258952D01*
X10842857Y-12268476D01*
X10833333Y-12258952D01*
X10842857Y-12249428D01*
X10842857Y-12268476D01*
X10976190Y-12068476D02*
X10995238Y-12068476D01*
X11014286Y-12078000D01*
X11023810Y-12087524D01*
X11033333Y-12106571D01*
X11042857Y-12144667D01*
X11042857Y-12192286D01*
X11033333Y-12230381D01*
X11023810Y-12249428D01*
X11014286Y-12258952D01*
X10995238Y-12268476D01*
X10976190Y-12268476D01*
X10957143Y-12258952D01*
X10947619Y-12249428D01*
X10938095Y-12230381D01*
X10928571Y-12192286D01*
X10928571Y-12144667D01*
X10938095Y-12106571D01*
X10947619Y-12087524D01*
X10957143Y-12078000D01*
X10976190Y-12068476D01*
X11214286Y-12135143D02*
X11214286Y-12268476D01*
X11166667Y-12058952D02*
X11119048Y-12201809D01*
X11242857Y-12201809D01*
X11309524Y-12087524D02*
X11319048Y-12078000D01*
X11338095Y-12068476D01*
X11385714Y-12068476D01*
X11404762Y-12078000D01*
X11414286Y-12087524D01*
X11423809Y-12106571D01*
X11423809Y-12125619D01*
X11414286Y-12154190D01*
X11300000Y-12268476D01*
X11423809Y-12268476D01*
X11519048Y-12268476D02*
X11557143Y-12268476D01*
X11576190Y-12258952D01*
X11585714Y-12249428D01*
X11604762Y-12220857D01*
X11614286Y-12182762D01*
X11614286Y-12106571D01*
X11604762Y-12087524D01*
X11595238Y-12078000D01*
X11576190Y-12068476D01*
X11538095Y-12068476D01*
X11519048Y-12078000D01*
X11509524Y-12087524D01*
X11500000Y-12106571D01*
X11500000Y-12154190D01*
X11509524Y-12173238D01*
X11519048Y-12182762D01*
X11538095Y-12192286D01*
X11576190Y-12192286D01*
X11595238Y-12182762D01*
X11604762Y-12173238D01*
X11614286Y-12154190D01*
X11690476Y-12068476D02*
X11690476Y-12106571D01*
X11766667Y-12068476D02*
X11766667Y-12106571D01*
X12061905Y-12344667D02*
X12052381Y-12335143D01*
X12033333Y-12306571D01*
X12023809Y-12287524D01*
X12014286Y-12258952D01*
X12004762Y-12211333D01*
X12004762Y-12173238D01*
X12014286Y-12125619D01*
X12023809Y-12097048D01*
X12033333Y-12078000D01*
X12052381Y-12049428D01*
X12061905Y-12039905D01*
X12223809Y-12068476D02*
X12185714Y-12068476D01*
X12166667Y-12078000D01*
X12157143Y-12087524D01*
X12138095Y-12116095D01*
X12128571Y-12154190D01*
X12128571Y-12230381D01*
X12138095Y-12249428D01*
X12147619Y-12258952D01*
X12166667Y-12268476D01*
X12204762Y-12268476D01*
X12223809Y-12258952D01*
X12233333Y-12249428D01*
X12242857Y-12230381D01*
X12242857Y-12182762D01*
X12233333Y-12163714D01*
X12223809Y-12154190D01*
X12204762Y-12144667D01*
X12166667Y-12144667D01*
X12147619Y-12154190D01*
X12138095Y-12163714D01*
X12128571Y-12182762D01*
X12480952Y-12268476D02*
X12480952Y-12068476D01*
X12566667Y-12268476D02*
X12566667Y-12163714D01*
X12557143Y-12144667D01*
X12538095Y-12135143D01*
X12509524Y-12135143D01*
X12490476Y-12144667D01*
X12480952Y-12154190D01*
X12690476Y-12268476D02*
X12671428Y-12258952D01*
X12661905Y-12249428D01*
X12652381Y-12230381D01*
X12652381Y-12173238D01*
X12661905Y-12154190D01*
X12671428Y-12144667D01*
X12690476Y-12135143D01*
X12719048Y-12135143D01*
X12738095Y-12144667D01*
X12747619Y-12154190D01*
X12757143Y-12173238D01*
X12757143Y-12230381D01*
X12747619Y-12249428D01*
X12738095Y-12258952D01*
X12719048Y-12268476D01*
X12690476Y-12268476D01*
X12871428Y-12268476D02*
X12852381Y-12258952D01*
X12842857Y-12239905D01*
X12842857Y-12068476D01*
X13023809Y-12258952D02*
X13004762Y-12268476D01*
X12966667Y-12268476D01*
X12947619Y-12258952D01*
X12938095Y-12239905D01*
X12938095Y-12163714D01*
X12947619Y-12144667D01*
X12966667Y-12135143D01*
X13004762Y-12135143D01*
X13023809Y-12144667D01*
X13033333Y-12163714D01*
X13033333Y-12182762D01*
X12938095Y-12201809D01*
X13109524Y-12258952D02*
X13128571Y-12268476D01*
X13166667Y-12268476D01*
X13185714Y-12258952D01*
X13195238Y-12239905D01*
X13195238Y-12230381D01*
X13185714Y-12211333D01*
X13166667Y-12201809D01*
X13138095Y-12201809D01*
X13119048Y-12192286D01*
X13109524Y-12173238D01*
X13109524Y-12163714D01*
X13119048Y-12144667D01*
X13138095Y-12135143D01*
X13166667Y-12135143D01*
X13185714Y-12144667D01*
X13261905Y-12344667D02*
X13271428Y-12335143D01*
X13290476Y-12306571D01*
X13300000Y-12287524D01*
X13309524Y-12258952D01*
X13319048Y-12211333D01*
X13319048Y-12173238D01*
X13309524Y-12125619D01*
X13300000Y-12097048D01*
X13290476Y-12078000D01*
X13271428Y-12049428D01*
X13261905Y-12039905D01*
D14*
X8473891Y-12480891D02*
X8473891Y-12403109D01*
X8396109Y-12403109D01*
X8396109Y-12480891D01*
X8473891Y-12480891D01*
D10*
X8852381Y-12532476D02*
X8738095Y-12532476D01*
X8795238Y-12532476D02*
X8795238Y-12332476D01*
X8776190Y-12361048D01*
X8757143Y-12380095D01*
X8738095Y-12389619D01*
X8938095Y-12513428D02*
X8947619Y-12522952D01*
X8938095Y-12532476D01*
X8928571Y-12522952D01*
X8938095Y-12513428D01*
X8938095Y-12532476D01*
X9138095Y-12532476D02*
X9023810Y-12532476D01*
X9080952Y-12532476D02*
X9080952Y-12332476D01*
X9061905Y-12361048D01*
X9042857Y-12380095D01*
X9023810Y-12389619D01*
X9261905Y-12332476D02*
X9280952Y-12332476D01*
X9300000Y-12342000D01*
X9309524Y-12351524D01*
X9319048Y-12370571D01*
X9328571Y-12408667D01*
X9328571Y-12456286D01*
X9319048Y-12494381D01*
X9309524Y-12513428D01*
X9300000Y-12522952D01*
X9280952Y-12532476D01*
X9261905Y-12532476D01*
X9242857Y-12522952D01*
X9233333Y-12513428D01*
X9223810Y-12494381D01*
X9214286Y-12456286D01*
X9214286Y-12408667D01*
X9223810Y-12370571D01*
X9233333Y-12351524D01*
X9242857Y-12342000D01*
X9261905Y-12332476D01*
X9452381Y-12332476D02*
X9471429Y-12332476D01*
X9490476Y-12342000D01*
X9500000Y-12351524D01*
X9509524Y-12370571D01*
X9519048Y-12408667D01*
X9519048Y-12456286D01*
X9509524Y-12494381D01*
X9500000Y-12513428D01*
X9490476Y-12522952D01*
X9471429Y-12532476D01*
X9452381Y-12532476D01*
X9433333Y-12522952D01*
X9423810Y-12513428D01*
X9414286Y-12494381D01*
X9404762Y-12456286D01*
X9404762Y-12408667D01*
X9414286Y-12370571D01*
X9423810Y-12351524D01*
X9433333Y-12342000D01*
X9452381Y-12332476D01*
X9604762Y-12532476D02*
X9604762Y-12399143D01*
X9604762Y-12418190D02*
X9614286Y-12408667D01*
X9633333Y-12399143D01*
X9661905Y-12399143D01*
X9680952Y-12408667D01*
X9690476Y-12427714D01*
X9690476Y-12532476D01*
X9690476Y-12427714D02*
X9700000Y-12408667D01*
X9719048Y-12399143D01*
X9747619Y-12399143D01*
X9766667Y-12408667D01*
X9776190Y-12427714D01*
X9776190Y-12532476D01*
X9871429Y-12532476D02*
X9871429Y-12399143D01*
X9871429Y-12418190D02*
X9880952Y-12408667D01*
X9900000Y-12399143D01*
X9928571Y-12399143D01*
X9947619Y-12408667D01*
X9957143Y-12427714D01*
X9957143Y-12532476D01*
X9957143Y-12427714D02*
X9966667Y-12408667D01*
X9985714Y-12399143D01*
X10014286Y-12399143D01*
X10033333Y-12408667D01*
X10042857Y-12427714D01*
X10042857Y-12532476D01*
X10433333Y-12322952D02*
X10261905Y-12580095D01*
X10690476Y-12332476D02*
X10709524Y-12332476D01*
X10728571Y-12342000D01*
X10738095Y-12351524D01*
X10747619Y-12370571D01*
X10757143Y-12408667D01*
X10757143Y-12456286D01*
X10747619Y-12494381D01*
X10738095Y-12513428D01*
X10728571Y-12522952D01*
X10709524Y-12532476D01*
X10690476Y-12532476D01*
X10671429Y-12522952D01*
X10661905Y-12513428D01*
X10652381Y-12494381D01*
X10642857Y-12456286D01*
X10642857Y-12408667D01*
X10652381Y-12370571D01*
X10661905Y-12351524D01*
X10671429Y-12342000D01*
X10690476Y-12332476D01*
X10842857Y-12513428D02*
X10852381Y-12522952D01*
X10842857Y-12532476D01*
X10833333Y-12522952D01*
X10842857Y-12513428D01*
X10842857Y-12532476D01*
X10976190Y-12332476D02*
X10995238Y-12332476D01*
X11014286Y-12342000D01*
X11023810Y-12351524D01*
X11033333Y-12370571D01*
X11042857Y-12408667D01*
X11042857Y-12456286D01*
X11033333Y-12494381D01*
X11023810Y-12513428D01*
X11014286Y-12522952D01*
X10995238Y-12532476D01*
X10976190Y-12532476D01*
X10957143Y-12522952D01*
X10947619Y-12513428D01*
X10938095Y-12494381D01*
X10928571Y-12456286D01*
X10928571Y-12408667D01*
X10938095Y-12370571D01*
X10947619Y-12351524D01*
X10957143Y-12342000D01*
X10976190Y-12332476D01*
X11214286Y-12399143D02*
X11214286Y-12532476D01*
X11166667Y-12322952D02*
X11119048Y-12465809D01*
X11242857Y-12465809D01*
X11300000Y-12332476D02*
X11423809Y-12332476D01*
X11357143Y-12408667D01*
X11385714Y-12408667D01*
X11404762Y-12418190D01*
X11414286Y-12427714D01*
X11423809Y-12446762D01*
X11423809Y-12494381D01*
X11414286Y-12513428D01*
X11404762Y-12522952D01*
X11385714Y-12532476D01*
X11328571Y-12532476D01*
X11309524Y-12522952D01*
X11300000Y-12513428D01*
X11490476Y-12332476D02*
X11614286Y-12332476D01*
X11547619Y-12408667D01*
X11576190Y-12408667D01*
X11595238Y-12418190D01*
X11604762Y-12427714D01*
X11614286Y-12446762D01*
X11614286Y-12494381D01*
X11604762Y-12513428D01*
X11595238Y-12522952D01*
X11576190Y-12532476D01*
X11519048Y-12532476D01*
X11500000Y-12522952D01*
X11490476Y-12513428D01*
X11690476Y-12332476D02*
X11690476Y-12370571D01*
X11766667Y-12332476D02*
X11766667Y-12370571D01*
X12061905Y-12608667D02*
X12052381Y-12599143D01*
X12033333Y-12570571D01*
X12023809Y-12551524D01*
X12014286Y-12522952D01*
X12004762Y-12475333D01*
X12004762Y-12437238D01*
X12014286Y-12389619D01*
X12023809Y-12361048D01*
X12033333Y-12342000D01*
X12052381Y-12313428D01*
X12061905Y-12303905D01*
X12223809Y-12399143D02*
X12223809Y-12532476D01*
X12176190Y-12322952D02*
X12128571Y-12465809D01*
X12252381Y-12465809D01*
X12480952Y-12532476D02*
X12480952Y-12332476D01*
X12566667Y-12532476D02*
X12566667Y-12427714D01*
X12557143Y-12408667D01*
X12538095Y-12399143D01*
X12509524Y-12399143D01*
X12490476Y-12408667D01*
X12480952Y-12418190D01*
X12690476Y-12532476D02*
X12671428Y-12522952D01*
X12661905Y-12513428D01*
X12652381Y-12494381D01*
X12652381Y-12437238D01*
X12661905Y-12418190D01*
X12671428Y-12408667D01*
X12690476Y-12399143D01*
X12719048Y-12399143D01*
X12738095Y-12408667D01*
X12747619Y-12418190D01*
X12757143Y-12437238D01*
X12757143Y-12494381D01*
X12747619Y-12513428D01*
X12738095Y-12522952D01*
X12719048Y-12532476D01*
X12690476Y-12532476D01*
X12871428Y-12532476D02*
X12852381Y-12522952D01*
X12842857Y-12503905D01*
X12842857Y-12332476D01*
X13023809Y-12522952D02*
X13004762Y-12532476D01*
X12966667Y-12532476D01*
X12947619Y-12522952D01*
X12938095Y-12503905D01*
X12938095Y-12427714D01*
X12947619Y-12408667D01*
X12966667Y-12399143D01*
X13004762Y-12399143D01*
X13023809Y-12408667D01*
X13033333Y-12427714D01*
X13033333Y-12446762D01*
X12938095Y-12465809D01*
X13109524Y-12522952D02*
X13128571Y-12532476D01*
X13166667Y-12532476D01*
X13185714Y-12522952D01*
X13195238Y-12503905D01*
X13195238Y-12494381D01*
X13185714Y-12475333D01*
X13166667Y-12465809D01*
X13138095Y-12465809D01*
X13119048Y-12456286D01*
X13109524Y-12437238D01*
X13109524Y-12427714D01*
X13119048Y-12408667D01*
X13138095Y-12399143D01*
X13166667Y-12399143D01*
X13185714Y-12408667D01*
X13261905Y-12608667D02*
X13271428Y-12599143D01*
X13290476Y-12570571D01*
X13300000Y-12551524D01*
X13309524Y-12522952D01*
X13319048Y-12475333D01*
X13319048Y-12437238D01*
X13309524Y-12389619D01*
X13300000Y-12361048D01*
X13290476Y-12342000D01*
X13271428Y-12313428D01*
X13261905Y-12303905D01*
D15*
X8431580Y-12764420D02*
X8490000Y-12706000D01*
X8431580Y-12647580D01*
X8373160Y-12706000D01*
X8431580Y-12764420D01*
D10*
X8852381Y-12796476D02*
X8738095Y-12796476D01*
X8795238Y-12796476D02*
X8795238Y-12596476D01*
X8776190Y-12625048D01*
X8757143Y-12644095D01*
X8738095Y-12653619D01*
X8938095Y-12777428D02*
X8947619Y-12786952D01*
X8938095Y-12796476D01*
X8928571Y-12786952D01*
X8938095Y-12777428D01*
X8938095Y-12796476D01*
X9138095Y-12796476D02*
X9023810Y-12796476D01*
X9080952Y-12796476D02*
X9080952Y-12596476D01*
X9061905Y-12625048D01*
X9042857Y-12644095D01*
X9023810Y-12653619D01*
X9309524Y-12596476D02*
X9271429Y-12596476D01*
X9252381Y-12606000D01*
X9242857Y-12615524D01*
X9223810Y-12644095D01*
X9214286Y-12682190D01*
X9214286Y-12758381D01*
X9223810Y-12777428D01*
X9233333Y-12786952D01*
X9252381Y-12796476D01*
X9290476Y-12796476D01*
X9309524Y-12786952D01*
X9319048Y-12777428D01*
X9328571Y-12758381D01*
X9328571Y-12710762D01*
X9319048Y-12691714D01*
X9309524Y-12682190D01*
X9290476Y-12672667D01*
X9252381Y-12672667D01*
X9233333Y-12682190D01*
X9223810Y-12691714D01*
X9214286Y-12710762D01*
X9442857Y-12682190D02*
X9423810Y-12672667D01*
X9414286Y-12663143D01*
X9404762Y-12644095D01*
X9404762Y-12634571D01*
X9414286Y-12615524D01*
X9423810Y-12606000D01*
X9442857Y-12596476D01*
X9480952Y-12596476D01*
X9500000Y-12606000D01*
X9509524Y-12615524D01*
X9519048Y-12634571D01*
X9519048Y-12644095D01*
X9509524Y-12663143D01*
X9500000Y-12672667D01*
X9480952Y-12682190D01*
X9442857Y-12682190D01*
X9423810Y-12691714D01*
X9414286Y-12701238D01*
X9404762Y-12720286D01*
X9404762Y-12758381D01*
X9414286Y-12777428D01*
X9423810Y-12786952D01*
X9442857Y-12796476D01*
X9480952Y-12796476D01*
X9500000Y-12786952D01*
X9509524Y-12777428D01*
X9519048Y-12758381D01*
X9519048Y-12720286D01*
X9509524Y-12701238D01*
X9500000Y-12691714D01*
X9480952Y-12682190D01*
X9604762Y-12796476D02*
X9604762Y-12663143D01*
X9604762Y-12682190D02*
X9614286Y-12672667D01*
X9633333Y-12663143D01*
X9661905Y-12663143D01*
X9680952Y-12672667D01*
X9690476Y-12691714D01*
X9690476Y-12796476D01*
X9690476Y-12691714D02*
X9700000Y-12672667D01*
X9719048Y-12663143D01*
X9747619Y-12663143D01*
X9766667Y-12672667D01*
X9776190Y-12691714D01*
X9776190Y-12796476D01*
X9871429Y-12796476D02*
X9871429Y-12663143D01*
X9871429Y-12682190D02*
X9880952Y-12672667D01*
X9900000Y-12663143D01*
X9928571Y-12663143D01*
X9947619Y-12672667D01*
X9957143Y-12691714D01*
X9957143Y-12796476D01*
X9957143Y-12691714D02*
X9966667Y-12672667D01*
X9985714Y-12663143D01*
X10014286Y-12663143D01*
X10033333Y-12672667D01*
X10042857Y-12691714D01*
X10042857Y-12796476D01*
X10433333Y-12586952D02*
X10261905Y-12844095D01*
X10690476Y-12596476D02*
X10709524Y-12596476D01*
X10728571Y-12606000D01*
X10738095Y-12615524D01*
X10747619Y-12634571D01*
X10757143Y-12672667D01*
X10757143Y-12720286D01*
X10747619Y-12758381D01*
X10738095Y-12777428D01*
X10728571Y-12786952D01*
X10709524Y-12796476D01*
X10690476Y-12796476D01*
X10671429Y-12786952D01*
X10661905Y-12777428D01*
X10652381Y-12758381D01*
X10642857Y-12720286D01*
X10642857Y-12672667D01*
X10652381Y-12634571D01*
X10661905Y-12615524D01*
X10671429Y-12606000D01*
X10690476Y-12596476D01*
X10842857Y-12777428D02*
X10852381Y-12786952D01*
X10842857Y-12796476D01*
X10833333Y-12786952D01*
X10842857Y-12777428D01*
X10842857Y-12796476D01*
X10976190Y-12596476D02*
X10995238Y-12596476D01*
X11014286Y-12606000D01*
X11023810Y-12615524D01*
X11033333Y-12634571D01*
X11042857Y-12672667D01*
X11042857Y-12720286D01*
X11033333Y-12758381D01*
X11023810Y-12777428D01*
X11014286Y-12786952D01*
X10995238Y-12796476D01*
X10976190Y-12796476D01*
X10957143Y-12786952D01*
X10947619Y-12777428D01*
X10938095Y-12758381D01*
X10928571Y-12720286D01*
X10928571Y-12672667D01*
X10938095Y-12634571D01*
X10947619Y-12615524D01*
X10957143Y-12606000D01*
X10976190Y-12596476D01*
X11214286Y-12663143D02*
X11214286Y-12796476D01*
X11166667Y-12586952D02*
X11119048Y-12729809D01*
X11242857Y-12729809D01*
X11404762Y-12596476D02*
X11366667Y-12596476D01*
X11347619Y-12606000D01*
X11338095Y-12615524D01*
X11319048Y-12644095D01*
X11309524Y-12682190D01*
X11309524Y-12758381D01*
X11319048Y-12777428D01*
X11328571Y-12786952D01*
X11347619Y-12796476D01*
X11385714Y-12796476D01*
X11404762Y-12786952D01*
X11414286Y-12777428D01*
X11423809Y-12758381D01*
X11423809Y-12710762D01*
X11414286Y-12691714D01*
X11404762Y-12682190D01*
X11385714Y-12672667D01*
X11347619Y-12672667D01*
X11328571Y-12682190D01*
X11319048Y-12691714D01*
X11309524Y-12710762D01*
X11547619Y-12596476D02*
X11566667Y-12596476D01*
X11585714Y-12606000D01*
X11595238Y-12615524D01*
X11604762Y-12634571D01*
X11614286Y-12672667D01*
X11614286Y-12720286D01*
X11604762Y-12758381D01*
X11595238Y-12777428D01*
X11585714Y-12786952D01*
X11566667Y-12796476D01*
X11547619Y-12796476D01*
X11528571Y-12786952D01*
X11519048Y-12777428D01*
X11509524Y-12758381D01*
X11500000Y-12720286D01*
X11500000Y-12672667D01*
X11509524Y-12634571D01*
X11519048Y-12615524D01*
X11528571Y-12606000D01*
X11547619Y-12596476D01*
X11690476Y-12596476D02*
X11690476Y-12634571D01*
X11766667Y-12596476D02*
X11766667Y-12634571D01*
X12061905Y-12872667D02*
X12052381Y-12863143D01*
X12033333Y-12834571D01*
X12023809Y-12815524D01*
X12014286Y-12786952D01*
X12004762Y-12739333D01*
X12004762Y-12701238D01*
X12014286Y-12653619D01*
X12023809Y-12625048D01*
X12033333Y-12606000D01*
X12052381Y-12577428D01*
X12061905Y-12567905D01*
X12223809Y-12663143D02*
X12223809Y-12796476D01*
X12176190Y-12586952D02*
X12128571Y-12729809D01*
X12252381Y-12729809D01*
X12480952Y-12796476D02*
X12480952Y-12596476D01*
X12566667Y-12796476D02*
X12566667Y-12691714D01*
X12557143Y-12672667D01*
X12538095Y-12663143D01*
X12509524Y-12663143D01*
X12490476Y-12672667D01*
X12480952Y-12682190D01*
X12690476Y-12796476D02*
X12671428Y-12786952D01*
X12661905Y-12777428D01*
X12652381Y-12758381D01*
X12652381Y-12701238D01*
X12661905Y-12682190D01*
X12671428Y-12672667D01*
X12690476Y-12663143D01*
X12719048Y-12663143D01*
X12738095Y-12672667D01*
X12747619Y-12682190D01*
X12757143Y-12701238D01*
X12757143Y-12758381D01*
X12747619Y-12777428D01*
X12738095Y-12786952D01*
X12719048Y-12796476D01*
X12690476Y-12796476D01*
X12871428Y-12796476D02*
X12852381Y-12786952D01*
X12842857Y-12767905D01*
X12842857Y-12596476D01*
X13023809Y-12786952D02*
X13004762Y-12796476D01*
X12966667Y-12796476D01*
X12947619Y-12786952D01*
X12938095Y-12767905D01*
X12938095Y-12691714D01*
X12947619Y-12672667D01*
X12966667Y-12663143D01*
X13004762Y-12663143D01*
X13023809Y-12672667D01*
X13033333Y-12691714D01*
X13033333Y-12710762D01*
X12938095Y-12729809D01*
X13109524Y-12786952D02*
X13128571Y-12796476D01*
X13166667Y-12796476D01*
X13185714Y-12786952D01*
X13195238Y-12767905D01*
X13195238Y-12758381D01*
X13185714Y-12739333D01*
X13166667Y-12729809D01*
X13138095Y-12729809D01*
X13119048Y-12720286D01*
X13109524Y-12701238D01*
X13109524Y-12691714D01*
X13119048Y-12672667D01*
X13138095Y-12663143D01*
X13166667Y-12663143D01*
X13185714Y-12672667D01*
X13261905Y-12872667D02*
X13271428Y-12863143D01*
X13290476Y-12834571D01*
X13300000Y-12815524D01*
X13309524Y-12786952D01*
X13319048Y-12739333D01*
X13319048Y-12701238D01*
X13309524Y-12653619D01*
X13300000Y-12625048D01*
X13290476Y-12606000D01*
X13271428Y-12577428D01*
X13261905Y-12567905D01*
M02*
