%TF.GenerationSoftware,KiCad,Pcbnew,(6.0.7-1)-1*%
%TF.CreationDate,2022-11-21T17:18:22-08:00*%
%TF.ProjectId,telemetry-emulator-pcb,74656c65-6d65-4747-9279-2d656d756c61,rev?*%
%TF.SameCoordinates,Original*%
%TF.FileFunction,Legend,Top*%
%TF.FilePolarity,Positive*%
%FSLAX46Y46*%
G04 Gerber Fmt 4.6, Leading zero omitted, Abs format (unit mm)*
G04 Created by KiCad (PCBNEW (6.0.7-1)-1) date 2022-11-21 17:18:22*
%MOMM*%
%LPD*%
G01*
G04 APERTURE LIST*
G04 Aperture macros list*
%AMRoundRect*
0 Rectangle with rounded corners*
0 $1 Rounding radius*
0 $2 $3 $4 $5 $6 $7 $8 $9 X,Y pos of 4 corners*
0 Add a 4 corners polygon primitive as box body*
4,1,4,$2,$3,$4,$5,$6,$7,$8,$9,$2,$3,0*
0 Add four circle primitives for the rounded corners*
1,1,$1+$1,$2,$3*
1,1,$1+$1,$4,$5*
1,1,$1+$1,$6,$7*
1,1,$1+$1,$8,$9*
0 Add four rect primitives between the rounded corners*
20,1,$1+$1,$2,$3,$4,$5,0*
20,1,$1+$1,$4,$5,$6,$7,0*
20,1,$1+$1,$6,$7,$8,$9,0*
20,1,$1+$1,$8,$9,$2,$3,0*%
G04 Aperture macros list end*
%ADD10C,0.250000*%
%ADD11C,0.100000*%
%ADD12C,0.080000*%
%ADD13C,0.120000*%
%ADD14C,0.050000*%
%ADD15C,0.150000*%
%ADD16C,0.075000*%
%ADD17RoundRect,0.250000X-0.250000X-0.475000X0.250000X-0.475000X0.250000X0.475000X-0.250000X0.475000X0*%
%ADD18RoundRect,0.250000X-0.262500X-0.450000X0.262500X-0.450000X0.262500X0.450000X-0.262500X0.450000X0*%
%ADD19C,3.200000*%
%ADD20RoundRect,0.250000X0.650000X-0.325000X0.650000X0.325000X-0.650000X0.325000X-0.650000X-0.325000X0*%
%ADD21RoundRect,0.150000X0.150000X-0.825000X0.150000X0.825000X-0.150000X0.825000X-0.150000X-0.825000X0*%
%ADD22RoundRect,0.250000X0.625000X-0.375000X0.625000X0.375000X-0.625000X0.375000X-0.625000X-0.375000X0*%
%ADD23RoundRect,0.070000X0.650000X0.300000X-0.650000X0.300000X-0.650000X-0.300000X0.650000X-0.300000X0*%
%ADD24RoundRect,0.250000X0.475000X-0.250000X0.475000X0.250000X-0.475000X0.250000X-0.475000X-0.250000X0*%
%ADD25RoundRect,0.250000X-0.450000X0.262500X-0.450000X-0.262500X0.450000X-0.262500X0.450000X0.262500X0*%
%ADD26RoundRect,0.243750X-0.243750X-0.456250X0.243750X-0.456250X0.243750X0.456250X-0.243750X0.456250X0*%
%ADD27C,2.000000*%
%ADD28R,4.500000X2.000000*%
%ADD29R,1.700000X1.700000*%
%ADD30O,1.700000X1.700000*%
%ADD31RoundRect,0.250000X0.250000X0.475000X-0.250000X0.475000X-0.250000X-0.475000X0.250000X-0.475000X0*%
%ADD32RoundRect,0.250000X0.262500X0.450000X-0.262500X0.450000X-0.262500X-0.450000X0.262500X-0.450000X0*%
%ADD33RoundRect,0.150000X-0.825000X-0.150000X0.825000X-0.150000X0.825000X0.150000X-0.825000X0.150000X0*%
%ADD34RoundRect,0.250000X-0.475000X0.250000X-0.475000X-0.250000X0.475000X-0.250000X0.475000X0.250000X0*%
%ADD35C,3.400000*%
%ADD36R,1.690000X1.690000*%
%ADD37C,1.690000*%
%ADD38RoundRect,0.150000X-0.150000X0.875000X-0.150000X-0.875000X0.150000X-0.875000X0.150000X0.875000X0*%
%ADD39C,3.454400*%
%ADD40C,1.676400*%
%ADD41RoundRect,0.250000X0.450000X-0.262500X0.450000X0.262500X-0.450000X0.262500X-0.450000X-0.262500X0*%
%ADD42R,1.600000X0.550000*%
%ADD43R,0.550000X1.600000*%
%ADD44R,1.380000X0.450000*%
%ADD45R,1.300000X1.650000*%
%ADD46R,1.900000X1.000000*%
%ADD47R,1.900000X1.800000*%
%ADD48R,1.550000X1.425000*%
%ADD49RoundRect,0.243750X0.243750X0.456250X-0.243750X0.456250X-0.243750X-0.456250X0.243750X-0.456250X0*%
%ADD50R,0.600000X0.450000*%
%ADD51RoundRect,0.250000X-0.325000X-0.650000X0.325000X-0.650000X0.325000X0.650000X-0.325000X0.650000X0*%
%ADD52R,2.000000X4.500000*%
G04 APERTURE END LIST*
D10*
X151109523Y-106188095D02*
X151852380Y-106188095D01*
X151480952Y-107488095D02*
X151480952Y-106188095D01*
X152780952Y-107426190D02*
X152657142Y-107488095D01*
X152409523Y-107488095D01*
X152285714Y-107426190D01*
X152223809Y-107302380D01*
X152223809Y-106807142D01*
X152285714Y-106683333D01*
X152409523Y-106621428D01*
X152657142Y-106621428D01*
X152780952Y-106683333D01*
X152842857Y-106807142D01*
X152842857Y-106930952D01*
X152223809Y-107054761D01*
X153585714Y-107488095D02*
X153461904Y-107426190D01*
X153400000Y-107302380D01*
X153400000Y-106188095D01*
X154576190Y-107426190D02*
X154452380Y-107488095D01*
X154204761Y-107488095D01*
X154080952Y-107426190D01*
X154019047Y-107302380D01*
X154019047Y-106807142D01*
X154080952Y-106683333D01*
X154204761Y-106621428D01*
X154452380Y-106621428D01*
X154576190Y-106683333D01*
X154638095Y-106807142D01*
X154638095Y-106930952D01*
X154019047Y-107054761D01*
X155195238Y-107488095D02*
X155195238Y-106621428D01*
X155195238Y-106745238D02*
X155257142Y-106683333D01*
X155380952Y-106621428D01*
X155566666Y-106621428D01*
X155690476Y-106683333D01*
X155752380Y-106807142D01*
X155752380Y-107488095D01*
X155752380Y-106807142D02*
X155814285Y-106683333D01*
X155938095Y-106621428D01*
X156123809Y-106621428D01*
X156247619Y-106683333D01*
X156309523Y-106807142D01*
X156309523Y-107488095D01*
X157423809Y-107426190D02*
X157300000Y-107488095D01*
X157052380Y-107488095D01*
X156928571Y-107426190D01*
X156866666Y-107302380D01*
X156866666Y-106807142D01*
X156928571Y-106683333D01*
X157052380Y-106621428D01*
X157300000Y-106621428D01*
X157423809Y-106683333D01*
X157485714Y-106807142D01*
X157485714Y-106930952D01*
X156866666Y-107054761D01*
X157857142Y-106621428D02*
X158352380Y-106621428D01*
X158042857Y-106188095D02*
X158042857Y-107302380D01*
X158104761Y-107426190D01*
X158228571Y-107488095D01*
X158352380Y-107488095D01*
X158785714Y-107488095D02*
X158785714Y-106621428D01*
X158785714Y-106869047D02*
X158847619Y-106745238D01*
X158909523Y-106683333D01*
X159033333Y-106621428D01*
X159157142Y-106621428D01*
X159466666Y-106621428D02*
X159776190Y-107488095D01*
X160085714Y-106621428D02*
X159776190Y-107488095D01*
X159652380Y-107797619D01*
X159590476Y-107859523D01*
X159466666Y-107921428D01*
X161571428Y-106807142D02*
X162004761Y-106807142D01*
X162190476Y-107488095D02*
X161571428Y-107488095D01*
X161571428Y-106188095D01*
X162190476Y-106188095D01*
X162747619Y-107488095D02*
X162747619Y-106621428D01*
X162747619Y-106745238D02*
X162809523Y-106683333D01*
X162933333Y-106621428D01*
X163119047Y-106621428D01*
X163242857Y-106683333D01*
X163304761Y-106807142D01*
X163304761Y-107488095D01*
X163304761Y-106807142D02*
X163366666Y-106683333D01*
X163490476Y-106621428D01*
X163676190Y-106621428D01*
X163800000Y-106683333D01*
X163861904Y-106807142D01*
X163861904Y-107488095D01*
X165038095Y-106621428D02*
X165038095Y-107488095D01*
X164480952Y-106621428D02*
X164480952Y-107302380D01*
X164542857Y-107426190D01*
X164666666Y-107488095D01*
X164852380Y-107488095D01*
X164976190Y-107426190D01*
X165038095Y-107364285D01*
X165842857Y-107488095D02*
X165719047Y-107426190D01*
X165657142Y-107302380D01*
X165657142Y-106188095D01*
X166895238Y-107488095D02*
X166895238Y-106807142D01*
X166833333Y-106683333D01*
X166709523Y-106621428D01*
X166461904Y-106621428D01*
X166338095Y-106683333D01*
X166895238Y-107426190D02*
X166771428Y-107488095D01*
X166461904Y-107488095D01*
X166338095Y-107426190D01*
X166276190Y-107302380D01*
X166276190Y-107178571D01*
X166338095Y-107054761D01*
X166461904Y-106992857D01*
X166771428Y-106992857D01*
X166895238Y-106930952D01*
X167328571Y-106621428D02*
X167823809Y-106621428D01*
X167514285Y-106188095D02*
X167514285Y-107302380D01*
X167576190Y-107426190D01*
X167700000Y-107488095D01*
X167823809Y-107488095D01*
X168442857Y-107488095D02*
X168319047Y-107426190D01*
X168257142Y-107364285D01*
X168195238Y-107240476D01*
X168195238Y-106869047D01*
X168257142Y-106745238D01*
X168319047Y-106683333D01*
X168442857Y-106621428D01*
X168628571Y-106621428D01*
X168752380Y-106683333D01*
X168814285Y-106745238D01*
X168876190Y-106869047D01*
X168876190Y-107240476D01*
X168814285Y-107364285D01*
X168752380Y-107426190D01*
X168628571Y-107488095D01*
X168442857Y-107488095D01*
X169433333Y-107488095D02*
X169433333Y-106621428D01*
X169433333Y-106869047D02*
X169495238Y-106745238D01*
X169557142Y-106683333D01*
X169680952Y-106621428D01*
X169804761Y-106621428D01*
X171909523Y-107488095D02*
X171166666Y-107488095D01*
X171538095Y-107488095D02*
X171538095Y-106188095D01*
X171414285Y-106373809D01*
X171290476Y-106497619D01*
X171166666Y-106559523D01*
X172466666Y-107364285D02*
X172528571Y-107426190D01*
X172466666Y-107488095D01*
X172404761Y-107426190D01*
X172466666Y-107364285D01*
X172466666Y-107488095D01*
X173766666Y-107488095D02*
X173023809Y-107488095D01*
X173395238Y-107488095D02*
X173395238Y-106188095D01*
X173271428Y-106373809D01*
X173147619Y-106497619D01*
X173023809Y-106559523D01*
D11*
X169283333Y-83183333D02*
X169616666Y-82950000D01*
X169283333Y-82783333D02*
X169983333Y-82783333D01*
X169983333Y-83050000D01*
X169950000Y-83116666D01*
X169916666Y-83150000D01*
X169850000Y-83183333D01*
X169750000Y-83183333D01*
X169683333Y-83150000D01*
X169650000Y-83116666D01*
X169616666Y-83050000D01*
X169616666Y-82783333D01*
X169983333Y-83416666D02*
X169283333Y-83883333D01*
X169983333Y-83883333D02*
X169283333Y-83416666D01*
X169850000Y-85466666D02*
X169883333Y-85400000D01*
X169883333Y-85300000D01*
X169850000Y-85200000D01*
X169783333Y-85133333D01*
X169716666Y-85100000D01*
X169583333Y-85066666D01*
X169483333Y-85066666D01*
X169350000Y-85100000D01*
X169283333Y-85133333D01*
X169216666Y-85200000D01*
X169183333Y-85300000D01*
X169183333Y-85366666D01*
X169216666Y-85466666D01*
X169250000Y-85500000D01*
X169483333Y-85500000D01*
X169483333Y-85366666D01*
X169183333Y-85800000D02*
X169883333Y-85800000D01*
X169183333Y-86200000D01*
X169883333Y-86200000D01*
X169183333Y-86533333D02*
X169883333Y-86533333D01*
X169883333Y-86700000D01*
X169850000Y-86800000D01*
X169783333Y-86866666D01*
X169716666Y-86900000D01*
X169583333Y-86933333D01*
X169483333Y-86933333D01*
X169350000Y-86900000D01*
X169283333Y-86866666D01*
X169216666Y-86800000D01*
X169183333Y-86700000D01*
X169183333Y-86533333D01*
X169183333Y-78116666D02*
X169183333Y-77783333D01*
X169883333Y-77783333D01*
X169883333Y-78250000D02*
X169183333Y-78483333D01*
X169883333Y-78716666D01*
X169883333Y-80266666D02*
X169883333Y-80666666D01*
X169183333Y-80466666D02*
X169883333Y-80466666D01*
X169883333Y-80833333D02*
X169183333Y-81300000D01*
X169883333Y-81300000D02*
X169183333Y-80833333D01*
D12*
X157396666Y-92820571D02*
X157372857Y-92844380D01*
X157301428Y-92868190D01*
X157253809Y-92868190D01*
X157182380Y-92844380D01*
X157134761Y-92796761D01*
X157110952Y-92749142D01*
X157087142Y-92653904D01*
X157087142Y-92582476D01*
X157110952Y-92487238D01*
X157134761Y-92439619D01*
X157182380Y-92392000D01*
X157253809Y-92368190D01*
X157301428Y-92368190D01*
X157372857Y-92392000D01*
X157396666Y-92415809D01*
X157825238Y-92368190D02*
X157730000Y-92368190D01*
X157682380Y-92392000D01*
X157658571Y-92415809D01*
X157610952Y-92487238D01*
X157587142Y-92582476D01*
X157587142Y-92772952D01*
X157610952Y-92820571D01*
X157634761Y-92844380D01*
X157682380Y-92868190D01*
X157777619Y-92868190D01*
X157825238Y-92844380D01*
X157849047Y-92820571D01*
X157872857Y-92772952D01*
X157872857Y-92653904D01*
X157849047Y-92606285D01*
X157825238Y-92582476D01*
X157777619Y-92558666D01*
X157682380Y-92558666D01*
X157634761Y-92582476D01*
X157610952Y-92606285D01*
X157587142Y-92653904D01*
X97226190Y-97383333D02*
X96988095Y-97550000D01*
X97226190Y-97669047D02*
X96726190Y-97669047D01*
X96726190Y-97478571D01*
X96750000Y-97430952D01*
X96773809Y-97407142D01*
X96821428Y-97383333D01*
X96892857Y-97383333D01*
X96940476Y-97407142D01*
X96964285Y-97430952D01*
X96988095Y-97478571D01*
X96988095Y-97669047D01*
X96892857Y-96954761D02*
X97226190Y-96954761D01*
X96702380Y-97073809D02*
X97059523Y-97192857D01*
X97059523Y-96883333D01*
X97226190Y-90189333D02*
X96988095Y-90356000D01*
X97226190Y-90475047D02*
X96726190Y-90475047D01*
X96726190Y-90284571D01*
X96750000Y-90236952D01*
X96773809Y-90213142D01*
X96821428Y-90189333D01*
X96892857Y-90189333D01*
X96940476Y-90213142D01*
X96964285Y-90236952D01*
X96988095Y-90284571D01*
X96988095Y-90475047D01*
X96726190Y-89736952D02*
X96726190Y-89975047D01*
X96964285Y-89998857D01*
X96940476Y-89975047D01*
X96916666Y-89927428D01*
X96916666Y-89808380D01*
X96940476Y-89760761D01*
X96964285Y-89736952D01*
X97011904Y-89713142D01*
X97130952Y-89713142D01*
X97178571Y-89736952D01*
X97202380Y-89760761D01*
X97226190Y-89808380D01*
X97226190Y-89927428D01*
X97202380Y-89975047D01*
X97178571Y-89998857D01*
D13*
X94685714Y-73333333D02*
X94723809Y-73371428D01*
X94761904Y-73485714D01*
X94761904Y-73561904D01*
X94723809Y-73676190D01*
X94647619Y-73752380D01*
X94571428Y-73790476D01*
X94419047Y-73828571D01*
X94304761Y-73828571D01*
X94152380Y-73790476D01*
X94076190Y-73752380D01*
X94000000Y-73676190D01*
X93961904Y-73561904D01*
X93961904Y-73485714D01*
X94000000Y-73371428D01*
X94038095Y-73333333D01*
X93961904Y-73066666D02*
X93961904Y-72571428D01*
X94266666Y-72838095D01*
X94266666Y-72723809D01*
X94304761Y-72647619D01*
X94342857Y-72609523D01*
X94419047Y-72571428D01*
X94609523Y-72571428D01*
X94685714Y-72609523D01*
X94723809Y-72647619D01*
X94761904Y-72723809D01*
X94761904Y-72952380D01*
X94723809Y-73028571D01*
X94685714Y-73066666D01*
D12*
X157616666Y-99378571D02*
X157592857Y-99402380D01*
X157521428Y-99426190D01*
X157473809Y-99426190D01*
X157402380Y-99402380D01*
X157354761Y-99354761D01*
X157330952Y-99307142D01*
X157307142Y-99211904D01*
X157307142Y-99140476D01*
X157330952Y-99045238D01*
X157354761Y-98997619D01*
X157402380Y-98950000D01*
X157473809Y-98926190D01*
X157521428Y-98926190D01*
X157592857Y-98950000D01*
X157616666Y-98973809D01*
X158069047Y-98926190D02*
X157830952Y-98926190D01*
X157807142Y-99164285D01*
X157830952Y-99140476D01*
X157878571Y-99116666D01*
X157997619Y-99116666D01*
X158045238Y-99140476D01*
X158069047Y-99164285D01*
X158092857Y-99211904D01*
X158092857Y-99330952D01*
X158069047Y-99378571D01*
X158045238Y-99402380D01*
X157997619Y-99426190D01*
X157878571Y-99426190D01*
X157830952Y-99402380D01*
X157807142Y-99378571D01*
D13*
X91742857Y-78066666D02*
X91742857Y-78333333D01*
X92161904Y-78333333D02*
X91361904Y-78333333D01*
X91361904Y-77952380D01*
X92161904Y-77228571D02*
X92161904Y-77685714D01*
X92161904Y-77457142D02*
X91361904Y-77457142D01*
X91476190Y-77533333D01*
X91552380Y-77609523D01*
X91590476Y-77685714D01*
D14*
X163436904Y-79923809D02*
X163425000Y-79947619D01*
X163401190Y-79971428D01*
X163365476Y-80007142D01*
X163353571Y-80030952D01*
X163353571Y-80054761D01*
X163413095Y-80042857D02*
X163401190Y-80066666D01*
X163377380Y-80090476D01*
X163329761Y-80102380D01*
X163246428Y-80102380D01*
X163198809Y-80090476D01*
X163175000Y-80066666D01*
X163163095Y-80042857D01*
X163163095Y-79995238D01*
X163175000Y-79971428D01*
X163198809Y-79947619D01*
X163246428Y-79935714D01*
X163329761Y-79935714D01*
X163377380Y-79947619D01*
X163401190Y-79971428D01*
X163413095Y-79995238D01*
X163413095Y-80042857D01*
X163413095Y-79697619D02*
X163413095Y-79840476D01*
X163413095Y-79769047D02*
X163163095Y-79769047D01*
X163198809Y-79792857D01*
X163222619Y-79816666D01*
X163234523Y-79840476D01*
D12*
X104423000Y-63371000D02*
X104406333Y-63387666D01*
X104356333Y-63404333D01*
X104323000Y-63404333D01*
X104273000Y-63387666D01*
X104239666Y-63354333D01*
X104223000Y-63321000D01*
X104206333Y-63254333D01*
X104206333Y-63204333D01*
X104223000Y-63137666D01*
X104239666Y-63104333D01*
X104273000Y-63071000D01*
X104323000Y-63054333D01*
X104356333Y-63054333D01*
X104406333Y-63071000D01*
X104423000Y-63087666D01*
X104756333Y-63404333D02*
X104556333Y-63404333D01*
X104656333Y-63404333D02*
X104656333Y-63054333D01*
X104623000Y-63104333D01*
X104589666Y-63137666D01*
X104556333Y-63154333D01*
X104973000Y-63054333D02*
X105006333Y-63054333D01*
X105039666Y-63071000D01*
X105056333Y-63087666D01*
X105073000Y-63121000D01*
X105089666Y-63187666D01*
X105089666Y-63271000D01*
X105073000Y-63337666D01*
X105056333Y-63371000D01*
X105039666Y-63387666D01*
X105006333Y-63404333D01*
X104973000Y-63404333D01*
X104939666Y-63387666D01*
X104923000Y-63371000D01*
X104906333Y-63337666D01*
X104889666Y-63271000D01*
X104889666Y-63187666D01*
X104906333Y-63121000D01*
X104923000Y-63087666D01*
X104939666Y-63071000D01*
X104973000Y-63054333D01*
X167411071Y-85726190D02*
X167244404Y-85488095D01*
X167125357Y-85726190D02*
X167125357Y-85226190D01*
X167315833Y-85226190D01*
X167363452Y-85250000D01*
X167387261Y-85273809D01*
X167411071Y-85321428D01*
X167411071Y-85392857D01*
X167387261Y-85440476D01*
X167363452Y-85464285D01*
X167315833Y-85488095D01*
X167125357Y-85488095D01*
X167887261Y-85726190D02*
X167601547Y-85726190D01*
X167744404Y-85726190D02*
X167744404Y-85226190D01*
X167696785Y-85297619D01*
X167649166Y-85345238D01*
X167601547Y-85369047D01*
X168053928Y-85226190D02*
X168363452Y-85226190D01*
X168196785Y-85416666D01*
X168268214Y-85416666D01*
X168315833Y-85440476D01*
X168339642Y-85464285D01*
X168363452Y-85511904D01*
X168363452Y-85630952D01*
X168339642Y-85678571D01*
X168315833Y-85702380D01*
X168268214Y-85726190D01*
X168125357Y-85726190D01*
X168077738Y-85702380D01*
X168053928Y-85678571D01*
X101526190Y-101269047D02*
X101026190Y-101269047D01*
X101026190Y-101150000D01*
X101050000Y-101078571D01*
X101097619Y-101030952D01*
X101145238Y-101007142D01*
X101240476Y-100983333D01*
X101311904Y-100983333D01*
X101407142Y-101007142D01*
X101454761Y-101030952D01*
X101502380Y-101078571D01*
X101526190Y-101150000D01*
X101526190Y-101269047D01*
X101026190Y-100816666D02*
X101026190Y-100507142D01*
X101216666Y-100673809D01*
X101216666Y-100602380D01*
X101240476Y-100554761D01*
X101264285Y-100530952D01*
X101311904Y-100507142D01*
X101430952Y-100507142D01*
X101478571Y-100530952D01*
X101502380Y-100554761D01*
X101526190Y-100602380D01*
X101526190Y-100745238D01*
X101502380Y-100792857D01*
X101478571Y-100816666D01*
D11*
X141706666Y-81055333D02*
X141806666Y-81088666D01*
X141973333Y-81088666D01*
X142040000Y-81055333D01*
X142073333Y-81022000D01*
X142106666Y-80955333D01*
X142106666Y-80888666D01*
X142073333Y-80822000D01*
X142040000Y-80788666D01*
X141973333Y-80755333D01*
X141840000Y-80722000D01*
X141773333Y-80688666D01*
X141740000Y-80655333D01*
X141706666Y-80588666D01*
X141706666Y-80522000D01*
X141740000Y-80455333D01*
X141773333Y-80422000D01*
X141840000Y-80388666D01*
X142006666Y-80388666D01*
X142106666Y-80422000D01*
X142773333Y-81088666D02*
X142373333Y-81088666D01*
X142573333Y-81088666D02*
X142573333Y-80388666D01*
X142506666Y-80488666D01*
X142440000Y-80555333D01*
X142373333Y-80588666D01*
X107616666Y-68817333D02*
X107616666Y-69150666D01*
X107383333Y-68450666D02*
X107616666Y-68817333D01*
X107850000Y-68450666D01*
X108050000Y-68517333D02*
X108083333Y-68484000D01*
X108150000Y-68450666D01*
X108316666Y-68450666D01*
X108383333Y-68484000D01*
X108416666Y-68517333D01*
X108450000Y-68584000D01*
X108450000Y-68650666D01*
X108416666Y-68750666D01*
X108016666Y-69150666D01*
X108450000Y-69150666D01*
D12*
X113078571Y-88983333D02*
X113102380Y-89007142D01*
X113126190Y-89078571D01*
X113126190Y-89126190D01*
X113102380Y-89197619D01*
X113054761Y-89245238D01*
X113007142Y-89269047D01*
X112911904Y-89292857D01*
X112840476Y-89292857D01*
X112745238Y-89269047D01*
X112697619Y-89245238D01*
X112650000Y-89197619D01*
X112626190Y-89126190D01*
X112626190Y-89078571D01*
X112650000Y-89007142D01*
X112673809Y-88983333D01*
X112840476Y-88697619D02*
X112816666Y-88745238D01*
X112792857Y-88769047D01*
X112745238Y-88792857D01*
X112721428Y-88792857D01*
X112673809Y-88769047D01*
X112650000Y-88745238D01*
X112626190Y-88697619D01*
X112626190Y-88602380D01*
X112650000Y-88554761D01*
X112673809Y-88530952D01*
X112721428Y-88507142D01*
X112745238Y-88507142D01*
X112792857Y-88530952D01*
X112816666Y-88554761D01*
X112840476Y-88602380D01*
X112840476Y-88697619D01*
X112864285Y-88745238D01*
X112888095Y-88769047D01*
X112935714Y-88792857D01*
X113030952Y-88792857D01*
X113078571Y-88769047D01*
X113102380Y-88745238D01*
X113126190Y-88697619D01*
X113126190Y-88602380D01*
X113102380Y-88554761D01*
X113078571Y-88530952D01*
X113030952Y-88507142D01*
X112935714Y-88507142D01*
X112888095Y-88530952D01*
X112864285Y-88554761D01*
X112840476Y-88602380D01*
X130516666Y-92078571D02*
X130492857Y-92102380D01*
X130421428Y-92126190D01*
X130373809Y-92126190D01*
X130302380Y-92102380D01*
X130254761Y-92054761D01*
X130230952Y-92007142D01*
X130207142Y-91911904D01*
X130207142Y-91840476D01*
X130230952Y-91745238D01*
X130254761Y-91697619D01*
X130302380Y-91650000D01*
X130373809Y-91626190D01*
X130421428Y-91626190D01*
X130492857Y-91650000D01*
X130516666Y-91673809D01*
X130992857Y-92126190D02*
X130707142Y-92126190D01*
X130850000Y-92126190D02*
X130850000Y-91626190D01*
X130802380Y-91697619D01*
X130754761Y-91745238D01*
X130707142Y-91769047D01*
X119726190Y-97683333D02*
X119488095Y-97850000D01*
X119726190Y-97969047D02*
X119226190Y-97969047D01*
X119226190Y-97778571D01*
X119250000Y-97730952D01*
X119273809Y-97707142D01*
X119321428Y-97683333D01*
X119392857Y-97683333D01*
X119440476Y-97707142D01*
X119464285Y-97730952D01*
X119488095Y-97778571D01*
X119488095Y-97969047D01*
X119226190Y-97516666D02*
X119226190Y-97207142D01*
X119416666Y-97373809D01*
X119416666Y-97302380D01*
X119440476Y-97254761D01*
X119464285Y-97230952D01*
X119511904Y-97207142D01*
X119630952Y-97207142D01*
X119678571Y-97230952D01*
X119702380Y-97254761D01*
X119726190Y-97302380D01*
X119726190Y-97445238D01*
X119702380Y-97492857D01*
X119678571Y-97516666D01*
X112833333Y-99442857D02*
X112814285Y-99461904D01*
X112757142Y-99480952D01*
X112719047Y-99480952D01*
X112661904Y-99461904D01*
X112623809Y-99423809D01*
X112604761Y-99385714D01*
X112585714Y-99309523D01*
X112585714Y-99252380D01*
X112604761Y-99176190D01*
X112623809Y-99138095D01*
X112661904Y-99100000D01*
X112719047Y-99080952D01*
X112757142Y-99080952D01*
X112814285Y-99100000D01*
X112833333Y-99119047D01*
X113176190Y-99214285D02*
X113176190Y-99480952D01*
X113080952Y-99061904D02*
X112985714Y-99347619D01*
X113233333Y-99347619D01*
X91716666Y-73878571D02*
X91692857Y-73902380D01*
X91621428Y-73926190D01*
X91573809Y-73926190D01*
X91502380Y-73902380D01*
X91454761Y-73854761D01*
X91430952Y-73807142D01*
X91407142Y-73711904D01*
X91407142Y-73640476D01*
X91430952Y-73545238D01*
X91454761Y-73497619D01*
X91502380Y-73450000D01*
X91573809Y-73426190D01*
X91621428Y-73426190D01*
X91692857Y-73450000D01*
X91716666Y-73473809D01*
X91907142Y-73473809D02*
X91930952Y-73450000D01*
X91978571Y-73426190D01*
X92097619Y-73426190D01*
X92145238Y-73450000D01*
X92169047Y-73473809D01*
X92192857Y-73521428D01*
X92192857Y-73569047D01*
X92169047Y-73640476D01*
X91883333Y-73926190D01*
X92192857Y-73926190D01*
X110914666Y-63424571D02*
X110890857Y-63448380D01*
X110819428Y-63472190D01*
X110771809Y-63472190D01*
X110700380Y-63448380D01*
X110652761Y-63400761D01*
X110628952Y-63353142D01*
X110605142Y-63257904D01*
X110605142Y-63186476D01*
X110628952Y-63091238D01*
X110652761Y-63043619D01*
X110700380Y-62996000D01*
X110771809Y-62972190D01*
X110819428Y-62972190D01*
X110890857Y-62996000D01*
X110914666Y-63019809D01*
X111152761Y-63472190D02*
X111248000Y-63472190D01*
X111295619Y-63448380D01*
X111319428Y-63424571D01*
X111367047Y-63353142D01*
X111390857Y-63257904D01*
X111390857Y-63067428D01*
X111367047Y-63019809D01*
X111343238Y-62996000D01*
X111295619Y-62972190D01*
X111200380Y-62972190D01*
X111152761Y-62996000D01*
X111128952Y-63019809D01*
X111105142Y-63067428D01*
X111105142Y-63186476D01*
X111128952Y-63234095D01*
X111152761Y-63257904D01*
X111200380Y-63281714D01*
X111295619Y-63281714D01*
X111343238Y-63257904D01*
X111367047Y-63234095D01*
X111390857Y-63186476D01*
D15*
X145992023Y-74047380D02*
X145992023Y-74761666D01*
X145944404Y-74904523D01*
X145849166Y-74999761D01*
X145706309Y-75047380D01*
X145611071Y-75047380D01*
X146372976Y-74047380D02*
X147039642Y-74047380D01*
X146611071Y-75047380D01*
D11*
X141550000Y-75250000D02*
X141516666Y-75283333D01*
X141416666Y-75316666D01*
X141350000Y-75316666D01*
X141250000Y-75283333D01*
X141183333Y-75216666D01*
X141150000Y-75150000D01*
X141116666Y-75016666D01*
X141116666Y-74916666D01*
X141150000Y-74783333D01*
X141183333Y-74716666D01*
X141250000Y-74650000D01*
X141350000Y-74616666D01*
X141416666Y-74616666D01*
X141516666Y-74650000D01*
X141550000Y-74683333D01*
X141816666Y-75116666D02*
X142150000Y-75116666D01*
X141750000Y-75316666D02*
X141983333Y-74616666D01*
X142216666Y-75316666D01*
X142450000Y-75316666D02*
X142450000Y-74616666D01*
X142850000Y-75316666D01*
X142850000Y-74616666D01*
X143900000Y-75316666D02*
X143900000Y-74616666D01*
X143900000Y-74950000D02*
X144300000Y-74950000D01*
X144300000Y-75316666D02*
X144300000Y-74616666D01*
X140116666Y-75216666D02*
X139783333Y-75216666D01*
X139783333Y-74516666D01*
D12*
X108016666Y-88878571D02*
X107992857Y-88902380D01*
X107921428Y-88926190D01*
X107873809Y-88926190D01*
X107802380Y-88902380D01*
X107754761Y-88854761D01*
X107730952Y-88807142D01*
X107707142Y-88711904D01*
X107707142Y-88640476D01*
X107730952Y-88545238D01*
X107754761Y-88497619D01*
X107802380Y-88450000D01*
X107873809Y-88426190D01*
X107921428Y-88426190D01*
X107992857Y-88450000D01*
X108016666Y-88473809D01*
X108183333Y-88426190D02*
X108516666Y-88426190D01*
X108302380Y-88926190D01*
X116625000Y-69725000D02*
X116641666Y-69741666D01*
X116658333Y-69791666D01*
X116658333Y-69825000D01*
X116641666Y-69875000D01*
X116608333Y-69908333D01*
X116575000Y-69925000D01*
X116508333Y-69941666D01*
X116458333Y-69941666D01*
X116391666Y-69925000D01*
X116358333Y-69908333D01*
X116325000Y-69875000D01*
X116308333Y-69825000D01*
X116308333Y-69791666D01*
X116325000Y-69741666D01*
X116341666Y-69725000D01*
X116658333Y-69391666D02*
X116658333Y-69591666D01*
X116658333Y-69491666D02*
X116308333Y-69491666D01*
X116358333Y-69525000D01*
X116391666Y-69558333D01*
X116408333Y-69591666D01*
X116308333Y-69275000D02*
X116308333Y-69058333D01*
X116441666Y-69175000D01*
X116441666Y-69125000D01*
X116458333Y-69091666D01*
X116475000Y-69075000D01*
X116508333Y-69058333D01*
X116591666Y-69058333D01*
X116625000Y-69075000D01*
X116641666Y-69091666D01*
X116658333Y-69125000D01*
X116658333Y-69225000D01*
X116641666Y-69258333D01*
X116625000Y-69275000D01*
D11*
X157716666Y-75516666D02*
X157383333Y-75516666D01*
X157383333Y-74816666D01*
X161400000Y-75516666D02*
X161400000Y-74816666D01*
X161400000Y-75150000D02*
X161800000Y-75150000D01*
X161800000Y-75516666D02*
X161800000Y-74816666D01*
D16*
X116307142Y-80907142D02*
X116292857Y-80921428D01*
X116250000Y-80935714D01*
X116221428Y-80935714D01*
X116178571Y-80921428D01*
X116150000Y-80892857D01*
X116135714Y-80864285D01*
X116121428Y-80807142D01*
X116121428Y-80764285D01*
X116135714Y-80707142D01*
X116150000Y-80678571D01*
X116178571Y-80650000D01*
X116221428Y-80635714D01*
X116250000Y-80635714D01*
X116292857Y-80650000D01*
X116307142Y-80664285D01*
X116592857Y-80935714D02*
X116421428Y-80935714D01*
X116507142Y-80935714D02*
X116507142Y-80635714D01*
X116478571Y-80678571D01*
X116450000Y-80707142D01*
X116421428Y-80721428D01*
X116878571Y-80935714D02*
X116707142Y-80935714D01*
X116792857Y-80935714D02*
X116792857Y-80635714D01*
X116764285Y-80678571D01*
X116735714Y-80707142D01*
X116707142Y-80721428D01*
D12*
X97326190Y-100983333D02*
X97088095Y-101150000D01*
X97326190Y-101269047D02*
X96826190Y-101269047D01*
X96826190Y-101078571D01*
X96850000Y-101030952D01*
X96873809Y-101007142D01*
X96921428Y-100983333D01*
X96992857Y-100983333D01*
X97040476Y-101007142D01*
X97064285Y-101030952D01*
X97088095Y-101078571D01*
X97088095Y-101269047D01*
X96826190Y-100554761D02*
X96826190Y-100650000D01*
X96850000Y-100697619D01*
X96873809Y-100721428D01*
X96945238Y-100769047D01*
X97040476Y-100792857D01*
X97230952Y-100792857D01*
X97278571Y-100769047D01*
X97302380Y-100745238D01*
X97326190Y-100697619D01*
X97326190Y-100602380D01*
X97302380Y-100554761D01*
X97278571Y-100530952D01*
X97230952Y-100507142D01*
X97111904Y-100507142D01*
X97064285Y-100530952D01*
X97040476Y-100554761D01*
X97016666Y-100602380D01*
X97016666Y-100697619D01*
X97040476Y-100745238D01*
X97064285Y-100769047D01*
X97111904Y-100792857D01*
D16*
X124521142Y-63381714D02*
X124421142Y-63238857D01*
X124349714Y-63381714D02*
X124349714Y-63081714D01*
X124464000Y-63081714D01*
X124492571Y-63096000D01*
X124506857Y-63110285D01*
X124521142Y-63138857D01*
X124521142Y-63181714D01*
X124506857Y-63210285D01*
X124492571Y-63224571D01*
X124464000Y-63238857D01*
X124349714Y-63238857D01*
X124806857Y-63381714D02*
X124635428Y-63381714D01*
X124721142Y-63381714D02*
X124721142Y-63081714D01*
X124692571Y-63124571D01*
X124664000Y-63153142D01*
X124635428Y-63167428D01*
X125092571Y-63381714D02*
X124921142Y-63381714D01*
X125006857Y-63381714D02*
X125006857Y-63081714D01*
X124978285Y-63124571D01*
X124949714Y-63153142D01*
X124921142Y-63167428D01*
D11*
X155666666Y-79616666D02*
X156066666Y-79616666D01*
X155866666Y-80316666D02*
X155866666Y-79616666D01*
X156233333Y-79616666D02*
X156700000Y-80316666D01*
X156700000Y-79616666D02*
X156233333Y-80316666D01*
X156083333Y-85716666D02*
X155850000Y-85383333D01*
X155683333Y-85716666D02*
X155683333Y-85016666D01*
X155950000Y-85016666D01*
X156016666Y-85050000D01*
X156050000Y-85083333D01*
X156083333Y-85150000D01*
X156083333Y-85250000D01*
X156050000Y-85316666D01*
X156016666Y-85350000D01*
X155950000Y-85383333D01*
X155683333Y-85383333D01*
X156316666Y-85016666D02*
X156783333Y-85716666D01*
X156783333Y-85016666D02*
X156316666Y-85716666D01*
D12*
X172916666Y-71116666D02*
X172583333Y-71116666D01*
X172583333Y-70416666D01*
X173050000Y-70416666D02*
X173283333Y-71116666D01*
X173516666Y-70416666D01*
X172900000Y-71516666D02*
X172566666Y-71516666D01*
X172533333Y-71850000D01*
X172566666Y-71816666D01*
X172633333Y-71783333D01*
X172800000Y-71783333D01*
X172866666Y-71816666D01*
X172900000Y-71850000D01*
X172933333Y-71916666D01*
X172933333Y-72083333D01*
X172900000Y-72150000D01*
X172866666Y-72183333D01*
X172800000Y-72216666D01*
X172633333Y-72216666D01*
X172566666Y-72183333D01*
X172533333Y-72150000D01*
X173133333Y-71516666D02*
X173366666Y-72216666D01*
X173600000Y-71516666D01*
X174366666Y-72216666D02*
X174366666Y-71516666D01*
X174600000Y-72016666D01*
X174833333Y-71516666D01*
X174833333Y-72216666D01*
X175133333Y-72016666D02*
X175466666Y-72016666D01*
X175066666Y-72216666D02*
X175300000Y-71516666D01*
X175533333Y-72216666D01*
X175700000Y-71516666D02*
X176166666Y-72216666D01*
X176166666Y-71516666D02*
X175700000Y-72216666D01*
X176433333Y-72150000D02*
X176466666Y-72183333D01*
X176433333Y-72216666D01*
X176400000Y-72183333D01*
X176433333Y-72150000D01*
X176433333Y-72216666D01*
X176433333Y-71950000D02*
X176400000Y-71550000D01*
X176433333Y-71516666D01*
X176466666Y-71550000D01*
X176433333Y-71950000D01*
X176433333Y-71516666D01*
D16*
X127535714Y-71792857D02*
X127392857Y-71892857D01*
X127535714Y-71964285D02*
X127235714Y-71964285D01*
X127235714Y-71850000D01*
X127250000Y-71821428D01*
X127264285Y-71807142D01*
X127292857Y-71792857D01*
X127335714Y-71792857D01*
X127364285Y-71807142D01*
X127378571Y-71821428D01*
X127392857Y-71850000D01*
X127392857Y-71964285D01*
X127535714Y-71507142D02*
X127535714Y-71678571D01*
X127535714Y-71592857D02*
X127235714Y-71592857D01*
X127278571Y-71621428D01*
X127307142Y-71650000D01*
X127321428Y-71678571D01*
X127335714Y-71250000D02*
X127535714Y-71250000D01*
X127221428Y-71321428D02*
X127435714Y-71392857D01*
X127435714Y-71207142D01*
D12*
X119726190Y-95683333D02*
X119488095Y-95850000D01*
X119726190Y-95969047D02*
X119226190Y-95969047D01*
X119226190Y-95778571D01*
X119250000Y-95730952D01*
X119273809Y-95707142D01*
X119321428Y-95683333D01*
X119392857Y-95683333D01*
X119440476Y-95707142D01*
X119464285Y-95730952D01*
X119488095Y-95778571D01*
X119488095Y-95969047D01*
X119273809Y-95492857D02*
X119250000Y-95469047D01*
X119226190Y-95421428D01*
X119226190Y-95302380D01*
X119250000Y-95254761D01*
X119273809Y-95230952D01*
X119321428Y-95207142D01*
X119369047Y-95207142D01*
X119440476Y-95230952D01*
X119726190Y-95516666D01*
X119726190Y-95207142D01*
X100416666Y-78726190D02*
X100250000Y-78488095D01*
X100130952Y-78726190D02*
X100130952Y-78226190D01*
X100321428Y-78226190D01*
X100369047Y-78250000D01*
X100392857Y-78273809D01*
X100416666Y-78321428D01*
X100416666Y-78392857D01*
X100392857Y-78440476D01*
X100369047Y-78464285D01*
X100321428Y-78488095D01*
X100130952Y-78488095D01*
X100702380Y-78440476D02*
X100654761Y-78416666D01*
X100630952Y-78392857D01*
X100607142Y-78345238D01*
X100607142Y-78321428D01*
X100630952Y-78273809D01*
X100654761Y-78250000D01*
X100702380Y-78226190D01*
X100797619Y-78226190D01*
X100845238Y-78250000D01*
X100869047Y-78273809D01*
X100892857Y-78321428D01*
X100892857Y-78345238D01*
X100869047Y-78392857D01*
X100845238Y-78416666D01*
X100797619Y-78440476D01*
X100702380Y-78440476D01*
X100654761Y-78464285D01*
X100630952Y-78488095D01*
X100607142Y-78535714D01*
X100607142Y-78630952D01*
X100630952Y-78678571D01*
X100654761Y-78702380D01*
X100702380Y-78726190D01*
X100797619Y-78726190D01*
X100845238Y-78702380D01*
X100869047Y-78678571D01*
X100892857Y-78630952D01*
X100892857Y-78535714D01*
X100869047Y-78488095D01*
X100845238Y-78464285D01*
X100797619Y-78440476D01*
X158649166Y-80085690D02*
X158482500Y-79847595D01*
X158363452Y-80085690D02*
X158363452Y-79585690D01*
X158553928Y-79585690D01*
X158601547Y-79609500D01*
X158625357Y-79633309D01*
X158649166Y-79680928D01*
X158649166Y-79752357D01*
X158625357Y-79799976D01*
X158601547Y-79823785D01*
X158553928Y-79847595D01*
X158363452Y-79847595D01*
X158887261Y-80085690D02*
X158982500Y-80085690D01*
X159030119Y-80061880D01*
X159053928Y-80038071D01*
X159101547Y-79966642D01*
X159125357Y-79871404D01*
X159125357Y-79680928D01*
X159101547Y-79633309D01*
X159077738Y-79609500D01*
X159030119Y-79585690D01*
X158934880Y-79585690D01*
X158887261Y-79609500D01*
X158863452Y-79633309D01*
X158839642Y-79680928D01*
X158839642Y-79799976D01*
X158863452Y-79847595D01*
X158887261Y-79871404D01*
X158934880Y-79895214D01*
X159030119Y-79895214D01*
X159077738Y-79871404D01*
X159101547Y-79847595D01*
X159125357Y-79799976D01*
D14*
X163494404Y-85523809D02*
X163482500Y-85547619D01*
X163458690Y-85571428D01*
X163422976Y-85607142D01*
X163411071Y-85630952D01*
X163411071Y-85654761D01*
X163470595Y-85642857D02*
X163458690Y-85666666D01*
X163434880Y-85690476D01*
X163387261Y-85702380D01*
X163303928Y-85702380D01*
X163256309Y-85690476D01*
X163232500Y-85666666D01*
X163220595Y-85642857D01*
X163220595Y-85595238D01*
X163232500Y-85571428D01*
X163256309Y-85547619D01*
X163303928Y-85535714D01*
X163387261Y-85535714D01*
X163434880Y-85547619D01*
X163458690Y-85571428D01*
X163470595Y-85595238D01*
X163470595Y-85642857D01*
X163244404Y-85440476D02*
X163232500Y-85428571D01*
X163220595Y-85404761D01*
X163220595Y-85345238D01*
X163232500Y-85321428D01*
X163244404Y-85309523D01*
X163268214Y-85297619D01*
X163292023Y-85297619D01*
X163327738Y-85309523D01*
X163470595Y-85452380D01*
X163470595Y-85297619D01*
D12*
X142433333Y-85780952D02*
X142300000Y-85590476D01*
X142204761Y-85780952D02*
X142204761Y-85380952D01*
X142357142Y-85380952D01*
X142395238Y-85400000D01*
X142414285Y-85419047D01*
X142433333Y-85457142D01*
X142433333Y-85514285D01*
X142414285Y-85552380D01*
X142395238Y-85571428D01*
X142357142Y-85590476D01*
X142204761Y-85590476D01*
X142814285Y-85780952D02*
X142585714Y-85780952D01*
X142700000Y-85780952D02*
X142700000Y-85380952D01*
X142661904Y-85438095D01*
X142623809Y-85476190D01*
X142585714Y-85495238D01*
X101026190Y-90475047D02*
X100526190Y-90475047D01*
X100526190Y-90356000D01*
X100550000Y-90284571D01*
X100597619Y-90236952D01*
X100645238Y-90213142D01*
X100740476Y-90189333D01*
X100811904Y-90189333D01*
X100907142Y-90213142D01*
X100954761Y-90236952D01*
X101002380Y-90284571D01*
X101026190Y-90356000D01*
X101026190Y-90475047D01*
X100573809Y-89998857D02*
X100550000Y-89975047D01*
X100526190Y-89927428D01*
X100526190Y-89808380D01*
X100550000Y-89760761D01*
X100573809Y-89736952D01*
X100621428Y-89713142D01*
X100669047Y-89713142D01*
X100740476Y-89736952D01*
X101026190Y-90022666D01*
X101026190Y-89713142D01*
X167411071Y-80085690D02*
X167244404Y-79847595D01*
X167125357Y-80085690D02*
X167125357Y-79585690D01*
X167315833Y-79585690D01*
X167363452Y-79609500D01*
X167387261Y-79633309D01*
X167411071Y-79680928D01*
X167411071Y-79752357D01*
X167387261Y-79799976D01*
X167363452Y-79823785D01*
X167315833Y-79847595D01*
X167125357Y-79847595D01*
X167887261Y-80085690D02*
X167601547Y-80085690D01*
X167744404Y-80085690D02*
X167744404Y-79585690D01*
X167696785Y-79657119D01*
X167649166Y-79704738D01*
X167601547Y-79728547D01*
X168077738Y-79633309D02*
X168101547Y-79609500D01*
X168149166Y-79585690D01*
X168268214Y-79585690D01*
X168315833Y-79609500D01*
X168339642Y-79633309D01*
X168363452Y-79680928D01*
X168363452Y-79728547D01*
X168339642Y-79799976D01*
X168053928Y-80085690D01*
X168363452Y-80085690D01*
X101226190Y-94069047D02*
X100726190Y-94069047D01*
X100726190Y-93950000D01*
X100750000Y-93878571D01*
X100797619Y-93830952D01*
X100845238Y-93807142D01*
X100940476Y-93783333D01*
X101011904Y-93783333D01*
X101107142Y-93807142D01*
X101154761Y-93830952D01*
X101202380Y-93878571D01*
X101226190Y-93950000D01*
X101226190Y-94069047D01*
X100892857Y-93354761D02*
X101226190Y-93354761D01*
X100702380Y-93473809D02*
X101059523Y-93592857D01*
X101059523Y-93283333D01*
X101526190Y-97669047D02*
X101026190Y-97669047D01*
X101026190Y-97550000D01*
X101050000Y-97478571D01*
X101097619Y-97430952D01*
X101145238Y-97407142D01*
X101240476Y-97383333D01*
X101311904Y-97383333D01*
X101407142Y-97407142D01*
X101454761Y-97430952D01*
X101502380Y-97478571D01*
X101526190Y-97550000D01*
X101526190Y-97669047D01*
X101526190Y-96907142D02*
X101526190Y-97192857D01*
X101526190Y-97050000D02*
X101026190Y-97050000D01*
X101097619Y-97097619D01*
X101145238Y-97145238D01*
X101169047Y-97192857D01*
D13*
X116778571Y-83378571D02*
X116754761Y-83402380D01*
X116683333Y-83426190D01*
X116635714Y-83426190D01*
X116564285Y-83402380D01*
X116516666Y-83354761D01*
X116492857Y-83307142D01*
X116469047Y-83211904D01*
X116469047Y-83140476D01*
X116492857Y-83045238D01*
X116516666Y-82997619D01*
X116564285Y-82950000D01*
X116635714Y-82926190D01*
X116683333Y-82926190D01*
X116754761Y-82950000D01*
X116778571Y-82973809D01*
X117254761Y-83426190D02*
X116969047Y-83426190D01*
X117111904Y-83426190D02*
X117111904Y-82926190D01*
X117064285Y-82997619D01*
X117016666Y-83045238D01*
X116969047Y-83069047D01*
X117445238Y-82973809D02*
X117469047Y-82950000D01*
X117516666Y-82926190D01*
X117635714Y-82926190D01*
X117683333Y-82950000D01*
X117707142Y-82973809D01*
X117730952Y-83021428D01*
X117730952Y-83069047D01*
X117707142Y-83140476D01*
X117421428Y-83426190D01*
X117730952Y-83426190D01*
D12*
X97226190Y-93789333D02*
X96988095Y-93956000D01*
X97226190Y-94075047D02*
X96726190Y-94075047D01*
X96726190Y-93884571D01*
X96750000Y-93836952D01*
X96773809Y-93813142D01*
X96821428Y-93789333D01*
X96892857Y-93789333D01*
X96940476Y-93813142D01*
X96964285Y-93836952D01*
X96988095Y-93884571D01*
X96988095Y-94075047D01*
X96726190Y-93622666D02*
X96726190Y-93289333D01*
X97226190Y-93503619D01*
D11*
X151875333Y-96277333D02*
X152208666Y-96277333D01*
X151508666Y-96510666D02*
X151875333Y-96277333D01*
X151508666Y-96044000D01*
X152208666Y-95444000D02*
X152208666Y-95844000D01*
X152208666Y-95644000D02*
X151508666Y-95644000D01*
X151608666Y-95710666D01*
X151675333Y-95777333D01*
X151708666Y-95844000D01*
D12*
X158411071Y-85585690D02*
X158244404Y-85347595D01*
X158125357Y-85585690D02*
X158125357Y-85085690D01*
X158315833Y-85085690D01*
X158363452Y-85109500D01*
X158387261Y-85133309D01*
X158411071Y-85180928D01*
X158411071Y-85252357D01*
X158387261Y-85299976D01*
X158363452Y-85323785D01*
X158315833Y-85347595D01*
X158125357Y-85347595D01*
X158887261Y-85585690D02*
X158601547Y-85585690D01*
X158744404Y-85585690D02*
X158744404Y-85085690D01*
X158696785Y-85157119D01*
X158649166Y-85204738D01*
X158601547Y-85228547D01*
X159196785Y-85085690D02*
X159244404Y-85085690D01*
X159292023Y-85109500D01*
X159315833Y-85133309D01*
X159339642Y-85180928D01*
X159363452Y-85276166D01*
X159363452Y-85395214D01*
X159339642Y-85490452D01*
X159315833Y-85538071D01*
X159292023Y-85561880D01*
X159244404Y-85585690D01*
X159196785Y-85585690D01*
X159149166Y-85561880D01*
X159125357Y-85538071D01*
X159101547Y-85490452D01*
X159077738Y-85395214D01*
X159077738Y-85276166D01*
X159101547Y-85180928D01*
X159125357Y-85133309D01*
X159149166Y-85109500D01*
X159196785Y-85085690D01*
X117726190Y-101985714D02*
X117226190Y-101985714D01*
X117583333Y-101819047D01*
X117226190Y-101652380D01*
X117726190Y-101652380D01*
X117726190Y-101414285D02*
X117226190Y-101414285D01*
X117702380Y-101200000D02*
X117726190Y-101128571D01*
X117726190Y-101009523D01*
X117702380Y-100961904D01*
X117678571Y-100938095D01*
X117630952Y-100914285D01*
X117583333Y-100914285D01*
X117535714Y-100938095D01*
X117511904Y-100961904D01*
X117488095Y-101009523D01*
X117464285Y-101104761D01*
X117440476Y-101152380D01*
X117416666Y-101176190D01*
X117369047Y-101200000D01*
X117321428Y-101200000D01*
X117273809Y-101176190D01*
X117250000Y-101152380D01*
X117226190Y-101104761D01*
X117226190Y-100985714D01*
X117250000Y-100914285D01*
X117226190Y-100604761D02*
X117226190Y-100509523D01*
X117250000Y-100461904D01*
X117297619Y-100414285D01*
X117392857Y-100390476D01*
X117559523Y-100390476D01*
X117654761Y-100414285D01*
X117702380Y-100461904D01*
X117726190Y-100509523D01*
X117726190Y-100604761D01*
X117702380Y-100652380D01*
X117654761Y-100700000D01*
X117559523Y-100723809D01*
X117392857Y-100723809D01*
X117297619Y-100700000D01*
X117250000Y-100652380D01*
X117226190Y-100604761D01*
X133026190Y-108769047D02*
X132526190Y-108769047D01*
X132526190Y-108650000D01*
X132550000Y-108578571D01*
X132597619Y-108530952D01*
X132645238Y-108507142D01*
X132740476Y-108483333D01*
X132811904Y-108483333D01*
X132907142Y-108507142D01*
X132954761Y-108530952D01*
X133002380Y-108578571D01*
X133026190Y-108650000D01*
X133026190Y-108769047D01*
X132573809Y-108292857D02*
X132550000Y-108269047D01*
X132526190Y-108221428D01*
X132526190Y-108102380D01*
X132550000Y-108054761D01*
X132573809Y-108030952D01*
X132621428Y-108007142D01*
X132669047Y-108007142D01*
X132740476Y-108030952D01*
X133026190Y-108316666D01*
X133026190Y-108007142D01*
X142626190Y-101980952D02*
X142626190Y-101695238D01*
X143126190Y-101838095D02*
X142626190Y-101838095D01*
X142626190Y-101576190D02*
X143126190Y-101242857D01*
X142626190Y-101242857D02*
X143126190Y-101576190D01*
X115126190Y-108769047D02*
X114626190Y-108769047D01*
X114626190Y-108650000D01*
X114650000Y-108578571D01*
X114697619Y-108530952D01*
X114745238Y-108507142D01*
X114840476Y-108483333D01*
X114911904Y-108483333D01*
X115007142Y-108507142D01*
X115054761Y-108530952D01*
X115102380Y-108578571D01*
X115126190Y-108650000D01*
X115126190Y-108769047D01*
X115126190Y-108245238D02*
X115126190Y-108150000D01*
X115102380Y-108102380D01*
X115078571Y-108078571D01*
X115007142Y-108030952D01*
X114911904Y-108007142D01*
X114721428Y-108007142D01*
X114673809Y-108030952D01*
X114650000Y-108054761D01*
X114626190Y-108102380D01*
X114626190Y-108197619D01*
X114650000Y-108245238D01*
X114673809Y-108269047D01*
X114721428Y-108292857D01*
X114840476Y-108292857D01*
X114888095Y-108269047D01*
X114911904Y-108245238D01*
X114935714Y-108197619D01*
X114935714Y-108102380D01*
X114911904Y-108054761D01*
X114888095Y-108030952D01*
X114840476Y-108007142D01*
X137426190Y-101595238D02*
X137426190Y-101833333D01*
X137664285Y-101857142D01*
X137640476Y-101833333D01*
X137616666Y-101785714D01*
X137616666Y-101666666D01*
X137640476Y-101619047D01*
X137664285Y-101595238D01*
X137711904Y-101571428D01*
X137830952Y-101571428D01*
X137878571Y-101595238D01*
X137902380Y-101619047D01*
X137926190Y-101666666D01*
X137926190Y-101785714D01*
X137902380Y-101833333D01*
X137878571Y-101857142D01*
X137426190Y-101428571D02*
X137926190Y-101261904D01*
X137426190Y-101095238D01*
X130183333Y-101757142D02*
X130183333Y-101519047D01*
X130326190Y-101804761D02*
X129826190Y-101638095D01*
X130326190Y-101471428D01*
X129826190Y-101352380D02*
X129826190Y-101042857D01*
X130016666Y-101209523D01*
X130016666Y-101138095D01*
X130040476Y-101090476D01*
X130064285Y-101066666D01*
X130111904Y-101042857D01*
X130230952Y-101042857D01*
X130278571Y-101066666D01*
X130302380Y-101090476D01*
X130326190Y-101138095D01*
X130326190Y-101280952D01*
X130302380Y-101328571D01*
X130278571Y-101352380D01*
X125326190Y-108769047D02*
X124826190Y-108769047D01*
X124826190Y-108650000D01*
X124850000Y-108578571D01*
X124897619Y-108530952D01*
X124945238Y-108507142D01*
X125040476Y-108483333D01*
X125111904Y-108483333D01*
X125207142Y-108507142D01*
X125254761Y-108530952D01*
X125302380Y-108578571D01*
X125326190Y-108650000D01*
X125326190Y-108769047D01*
X124826190Y-108030952D02*
X124826190Y-108269047D01*
X125064285Y-108292857D01*
X125040476Y-108269047D01*
X125016666Y-108221428D01*
X125016666Y-108102380D01*
X125040476Y-108054761D01*
X125064285Y-108030952D01*
X125111904Y-108007142D01*
X125230952Y-108007142D01*
X125278571Y-108030952D01*
X125302380Y-108054761D01*
X125326190Y-108102380D01*
X125326190Y-108221428D01*
X125302380Y-108269047D01*
X125278571Y-108292857D01*
X134950000Y-108780952D02*
X134926190Y-108828571D01*
X134926190Y-108900000D01*
X134950000Y-108971428D01*
X134997619Y-109019047D01*
X135045238Y-109042857D01*
X135140476Y-109066666D01*
X135211904Y-109066666D01*
X135307142Y-109042857D01*
X135354761Y-109019047D01*
X135402380Y-108971428D01*
X135426190Y-108900000D01*
X135426190Y-108852380D01*
X135402380Y-108780952D01*
X135378571Y-108757142D01*
X135211904Y-108757142D01*
X135211904Y-108852380D01*
X135426190Y-108542857D02*
X134926190Y-108542857D01*
X135426190Y-108257142D01*
X134926190Y-108257142D01*
X135426190Y-108019047D02*
X134926190Y-108019047D01*
X134926190Y-107900000D01*
X134950000Y-107828571D01*
X134997619Y-107780952D01*
X135045238Y-107757142D01*
X135140476Y-107733333D01*
X135211904Y-107733333D01*
X135307142Y-107757142D01*
X135354761Y-107780952D01*
X135402380Y-107828571D01*
X135426190Y-107900000D01*
X135426190Y-108019047D01*
X132783333Y-101857142D02*
X132783333Y-101619047D01*
X132926190Y-101904761D02*
X132426190Y-101738095D01*
X132926190Y-101571428D01*
X132592857Y-101190476D02*
X132926190Y-101190476D01*
X132402380Y-101309523D02*
X132759523Y-101428571D01*
X132759523Y-101119047D01*
X117726190Y-108769047D02*
X117226190Y-108769047D01*
X117226190Y-108650000D01*
X117250000Y-108578571D01*
X117297619Y-108530952D01*
X117345238Y-108507142D01*
X117440476Y-108483333D01*
X117511904Y-108483333D01*
X117607142Y-108507142D01*
X117654761Y-108530952D01*
X117702380Y-108578571D01*
X117726190Y-108650000D01*
X117726190Y-108769047D01*
X117440476Y-108197619D02*
X117416666Y-108245238D01*
X117392857Y-108269047D01*
X117345238Y-108292857D01*
X117321428Y-108292857D01*
X117273809Y-108269047D01*
X117250000Y-108245238D01*
X117226190Y-108197619D01*
X117226190Y-108102380D01*
X117250000Y-108054761D01*
X117273809Y-108030952D01*
X117321428Y-108007142D01*
X117345238Y-108007142D01*
X117392857Y-108030952D01*
X117416666Y-108054761D01*
X117440476Y-108102380D01*
X117440476Y-108197619D01*
X117464285Y-108245238D01*
X117488095Y-108269047D01*
X117535714Y-108292857D01*
X117630952Y-108292857D01*
X117678571Y-108269047D01*
X117702380Y-108245238D01*
X117726190Y-108197619D01*
X117726190Y-108102380D01*
X117702380Y-108054761D01*
X117678571Y-108030952D01*
X117630952Y-108007142D01*
X117535714Y-108007142D01*
X117488095Y-108030952D01*
X117464285Y-108054761D01*
X117440476Y-108102380D01*
X143226190Y-108673809D02*
X142988095Y-108840476D01*
X143226190Y-108959523D02*
X142726190Y-108959523D01*
X142726190Y-108769047D01*
X142750000Y-108721428D01*
X142773809Y-108697619D01*
X142821428Y-108673809D01*
X142892857Y-108673809D01*
X142940476Y-108697619D01*
X142964285Y-108721428D01*
X142988095Y-108769047D01*
X142988095Y-108959523D01*
X143202380Y-108483333D02*
X143226190Y-108411904D01*
X143226190Y-108292857D01*
X143202380Y-108245238D01*
X143178571Y-108221428D01*
X143130952Y-108197619D01*
X143083333Y-108197619D01*
X143035714Y-108221428D01*
X143011904Y-108245238D01*
X142988095Y-108292857D01*
X142964285Y-108388095D01*
X142940476Y-108435714D01*
X142916666Y-108459523D01*
X142869047Y-108483333D01*
X142821428Y-108483333D01*
X142773809Y-108459523D01*
X142750000Y-108435714D01*
X142726190Y-108388095D01*
X142726190Y-108269047D01*
X142750000Y-108197619D01*
X142726190Y-108054761D02*
X142726190Y-107769047D01*
X143226190Y-107911904D02*
X142726190Y-107911904D01*
X112150000Y-108780952D02*
X112126190Y-108828571D01*
X112126190Y-108900000D01*
X112150000Y-108971428D01*
X112197619Y-109019047D01*
X112245238Y-109042857D01*
X112340476Y-109066666D01*
X112411904Y-109066666D01*
X112507142Y-109042857D01*
X112554761Y-109019047D01*
X112602380Y-108971428D01*
X112626190Y-108900000D01*
X112626190Y-108852380D01*
X112602380Y-108780952D01*
X112578571Y-108757142D01*
X112411904Y-108757142D01*
X112411904Y-108852380D01*
X112626190Y-108542857D02*
X112126190Y-108542857D01*
X112626190Y-108257142D01*
X112126190Y-108257142D01*
X112626190Y-108019047D02*
X112126190Y-108019047D01*
X112126190Y-107900000D01*
X112150000Y-107828571D01*
X112197619Y-107780952D01*
X112245238Y-107757142D01*
X112340476Y-107733333D01*
X112411904Y-107733333D01*
X112507142Y-107757142D01*
X112554761Y-107780952D01*
X112602380Y-107828571D01*
X112626190Y-107900000D01*
X112626190Y-108019047D01*
X122583333Y-101757142D02*
X122583333Y-101519047D01*
X122726190Y-101804761D02*
X122226190Y-101638095D01*
X122726190Y-101471428D01*
X122226190Y-101209523D02*
X122226190Y-101161904D01*
X122250000Y-101114285D01*
X122273809Y-101090476D01*
X122321428Y-101066666D01*
X122416666Y-101042857D01*
X122535714Y-101042857D01*
X122630952Y-101066666D01*
X122678571Y-101090476D01*
X122702380Y-101114285D01*
X122726190Y-101161904D01*
X122726190Y-101209523D01*
X122702380Y-101257142D01*
X122678571Y-101280952D01*
X122630952Y-101304761D01*
X122535714Y-101328571D01*
X122416666Y-101328571D01*
X122321428Y-101304761D01*
X122273809Y-101280952D01*
X122250000Y-101257142D01*
X122226190Y-101209523D01*
X135283333Y-101857142D02*
X135283333Y-101619047D01*
X135426190Y-101904761D02*
X134926190Y-101738095D01*
X135426190Y-101571428D01*
X134926190Y-101166666D02*
X134926190Y-101404761D01*
X135164285Y-101428571D01*
X135140476Y-101404761D01*
X135116666Y-101357142D01*
X135116666Y-101238095D01*
X135140476Y-101190476D01*
X135164285Y-101166666D01*
X135211904Y-101142857D01*
X135330952Y-101142857D01*
X135378571Y-101166666D01*
X135402380Y-101190476D01*
X135426190Y-101238095D01*
X135426190Y-101357142D01*
X135402380Y-101404761D01*
X135378571Y-101428571D01*
X127783333Y-101757142D02*
X127783333Y-101519047D01*
X127926190Y-101804761D02*
X127426190Y-101638095D01*
X127926190Y-101471428D01*
X127473809Y-101328571D02*
X127450000Y-101304761D01*
X127426190Y-101257142D01*
X127426190Y-101138095D01*
X127450000Y-101090476D01*
X127473809Y-101066666D01*
X127521428Y-101042857D01*
X127569047Y-101042857D01*
X127640476Y-101066666D01*
X127926190Y-101352380D01*
X127926190Y-101042857D01*
X120202380Y-101842857D02*
X120226190Y-101771428D01*
X120226190Y-101652380D01*
X120202380Y-101604761D01*
X120178571Y-101580952D01*
X120130952Y-101557142D01*
X120083333Y-101557142D01*
X120035714Y-101580952D01*
X120011904Y-101604761D01*
X119988095Y-101652380D01*
X119964285Y-101747619D01*
X119940476Y-101795238D01*
X119916666Y-101819047D01*
X119869047Y-101842857D01*
X119821428Y-101842857D01*
X119773809Y-101819047D01*
X119750000Y-101795238D01*
X119726190Y-101747619D01*
X119726190Y-101628571D01*
X119750000Y-101557142D01*
X120178571Y-101057142D02*
X120202380Y-101080952D01*
X120226190Y-101152380D01*
X120226190Y-101200000D01*
X120202380Y-101271428D01*
X120154761Y-101319047D01*
X120107142Y-101342857D01*
X120011904Y-101366666D01*
X119940476Y-101366666D01*
X119845238Y-101342857D01*
X119797619Y-101319047D01*
X119750000Y-101271428D01*
X119726190Y-101200000D01*
X119726190Y-101152380D01*
X119750000Y-101080952D01*
X119773809Y-101057142D01*
X120226190Y-100842857D02*
X119726190Y-100842857D01*
X120226190Y-100557142D02*
X119940476Y-100771428D01*
X119726190Y-100557142D02*
X120011904Y-100842857D01*
X127826190Y-108769047D02*
X127326190Y-108769047D01*
X127326190Y-108650000D01*
X127350000Y-108578571D01*
X127397619Y-108530952D01*
X127445238Y-108507142D01*
X127540476Y-108483333D01*
X127611904Y-108483333D01*
X127707142Y-108507142D01*
X127754761Y-108530952D01*
X127802380Y-108578571D01*
X127826190Y-108650000D01*
X127826190Y-108769047D01*
X127492857Y-108054761D02*
X127826190Y-108054761D01*
X127302380Y-108173809D02*
X127659523Y-108292857D01*
X127659523Y-107983333D01*
X112626190Y-101907142D02*
X112126190Y-101907142D01*
X112126190Y-101788095D01*
X112150000Y-101716666D01*
X112197619Y-101669047D01*
X112245238Y-101645238D01*
X112340476Y-101621428D01*
X112411904Y-101621428D01*
X112507142Y-101645238D01*
X112554761Y-101669047D01*
X112602380Y-101716666D01*
X112626190Y-101788095D01*
X112626190Y-101907142D01*
X112626190Y-101145238D02*
X112626190Y-101430952D01*
X112626190Y-101288095D02*
X112126190Y-101288095D01*
X112197619Y-101335714D01*
X112245238Y-101383333D01*
X112269047Y-101430952D01*
X112126190Y-100835714D02*
X112126190Y-100788095D01*
X112150000Y-100740476D01*
X112173809Y-100716666D01*
X112221428Y-100692857D01*
X112316666Y-100669047D01*
X112435714Y-100669047D01*
X112530952Y-100692857D01*
X112578571Y-100716666D01*
X112602380Y-100740476D01*
X112626190Y-100788095D01*
X112626190Y-100835714D01*
X112602380Y-100883333D01*
X112578571Y-100907142D01*
X112530952Y-100930952D01*
X112435714Y-100954761D01*
X112316666Y-100954761D01*
X112221428Y-100930952D01*
X112173809Y-100907142D01*
X112150000Y-100883333D01*
X112126190Y-100835714D01*
X125083333Y-101657142D02*
X125083333Y-101419047D01*
X125226190Y-101704761D02*
X124726190Y-101538095D01*
X125226190Y-101371428D01*
X125226190Y-100942857D02*
X125226190Y-101228571D01*
X125226190Y-101085714D02*
X124726190Y-101085714D01*
X124797619Y-101133333D01*
X124845238Y-101180952D01*
X124869047Y-101228571D01*
X115126190Y-101985714D02*
X114626190Y-101985714D01*
X114983333Y-101819047D01*
X114626190Y-101652380D01*
X115126190Y-101652380D01*
X114626190Y-101319047D02*
X114626190Y-101223809D01*
X114650000Y-101176190D01*
X114697619Y-101128571D01*
X114792857Y-101104761D01*
X114959523Y-101104761D01*
X115054761Y-101128571D01*
X115102380Y-101176190D01*
X115126190Y-101223809D01*
X115126190Y-101319047D01*
X115102380Y-101366666D01*
X115054761Y-101414285D01*
X114959523Y-101438095D01*
X114792857Y-101438095D01*
X114697619Y-101414285D01*
X114650000Y-101366666D01*
X114626190Y-101319047D01*
X115102380Y-100914285D02*
X115126190Y-100842857D01*
X115126190Y-100723809D01*
X115102380Y-100676190D01*
X115078571Y-100652380D01*
X115030952Y-100628571D01*
X114983333Y-100628571D01*
X114935714Y-100652380D01*
X114911904Y-100676190D01*
X114888095Y-100723809D01*
X114864285Y-100819047D01*
X114840476Y-100866666D01*
X114816666Y-100890476D01*
X114769047Y-100914285D01*
X114721428Y-100914285D01*
X114673809Y-100890476D01*
X114650000Y-100866666D01*
X114626190Y-100819047D01*
X114626190Y-100700000D01*
X114650000Y-100628571D01*
X115126190Y-100414285D02*
X114626190Y-100414285D01*
X140150000Y-108780952D02*
X140126190Y-108828571D01*
X140126190Y-108900000D01*
X140150000Y-108971428D01*
X140197619Y-109019047D01*
X140245238Y-109042857D01*
X140340476Y-109066666D01*
X140411904Y-109066666D01*
X140507142Y-109042857D01*
X140554761Y-109019047D01*
X140602380Y-108971428D01*
X140626190Y-108900000D01*
X140626190Y-108852380D01*
X140602380Y-108780952D01*
X140578571Y-108757142D01*
X140411904Y-108757142D01*
X140411904Y-108852380D01*
X140626190Y-108542857D02*
X140126190Y-108542857D01*
X140626190Y-108257142D01*
X140126190Y-108257142D01*
X140626190Y-108019047D02*
X140126190Y-108019047D01*
X140126190Y-107900000D01*
X140150000Y-107828571D01*
X140197619Y-107780952D01*
X140245238Y-107757142D01*
X140340476Y-107733333D01*
X140411904Y-107733333D01*
X140507142Y-107757142D01*
X140554761Y-107780952D01*
X140602380Y-107828571D01*
X140626190Y-107900000D01*
X140626190Y-108019047D01*
X120226190Y-108769047D02*
X119726190Y-108769047D01*
X119726190Y-108650000D01*
X119750000Y-108578571D01*
X119797619Y-108530952D01*
X119845238Y-108507142D01*
X119940476Y-108483333D01*
X120011904Y-108483333D01*
X120107142Y-108507142D01*
X120154761Y-108530952D01*
X120202380Y-108578571D01*
X120226190Y-108650000D01*
X120226190Y-108769047D01*
X119726190Y-108316666D02*
X119726190Y-107983333D01*
X120226190Y-108197619D01*
X140526190Y-101583333D02*
X140288095Y-101750000D01*
X140526190Y-101869047D02*
X140026190Y-101869047D01*
X140026190Y-101678571D01*
X140050000Y-101630952D01*
X140073809Y-101607142D01*
X140121428Y-101583333D01*
X140192857Y-101583333D01*
X140240476Y-101607142D01*
X140264285Y-101630952D01*
X140288095Y-101678571D01*
X140288095Y-101869047D01*
X140026190Y-101416666D02*
X140526190Y-101083333D01*
X140026190Y-101083333D02*
X140526190Y-101416666D01*
X130326190Y-108769047D02*
X129826190Y-108769047D01*
X129826190Y-108650000D01*
X129850000Y-108578571D01*
X129897619Y-108530952D01*
X129945238Y-108507142D01*
X130040476Y-108483333D01*
X130111904Y-108483333D01*
X130207142Y-108507142D01*
X130254761Y-108530952D01*
X130302380Y-108578571D01*
X130326190Y-108650000D01*
X130326190Y-108769047D01*
X129826190Y-108316666D02*
X129826190Y-108007142D01*
X130016666Y-108173809D01*
X130016666Y-108102380D01*
X130040476Y-108054761D01*
X130064285Y-108030952D01*
X130111904Y-108007142D01*
X130230952Y-108007142D01*
X130278571Y-108030952D01*
X130302380Y-108054761D01*
X130326190Y-108102380D01*
X130326190Y-108245238D01*
X130302380Y-108292857D01*
X130278571Y-108316666D01*
X122826190Y-108769047D02*
X122326190Y-108769047D01*
X122326190Y-108650000D01*
X122350000Y-108578571D01*
X122397619Y-108530952D01*
X122445238Y-108507142D01*
X122540476Y-108483333D01*
X122611904Y-108483333D01*
X122707142Y-108507142D01*
X122754761Y-108530952D01*
X122802380Y-108578571D01*
X122826190Y-108650000D01*
X122826190Y-108769047D01*
X122326190Y-108054761D02*
X122326190Y-108150000D01*
X122350000Y-108197619D01*
X122373809Y-108221428D01*
X122445238Y-108269047D01*
X122540476Y-108292857D01*
X122730952Y-108292857D01*
X122778571Y-108269047D01*
X122802380Y-108245238D01*
X122826190Y-108197619D01*
X122826190Y-108102380D01*
X122802380Y-108054761D01*
X122778571Y-108030952D01*
X122730952Y-108007142D01*
X122611904Y-108007142D01*
X122564285Y-108030952D01*
X122540476Y-108054761D01*
X122516666Y-108102380D01*
X122516666Y-108197619D01*
X122540476Y-108245238D01*
X122564285Y-108269047D01*
X122611904Y-108292857D01*
X138026190Y-108673809D02*
X137788095Y-108840476D01*
X138026190Y-108959523D02*
X137526190Y-108959523D01*
X137526190Y-108769047D01*
X137550000Y-108721428D01*
X137573809Y-108697619D01*
X137621428Y-108673809D01*
X137692857Y-108673809D01*
X137740476Y-108697619D01*
X137764285Y-108721428D01*
X137788095Y-108769047D01*
X137788095Y-108959523D01*
X138002380Y-108483333D02*
X138026190Y-108411904D01*
X138026190Y-108292857D01*
X138002380Y-108245238D01*
X137978571Y-108221428D01*
X137930952Y-108197619D01*
X137883333Y-108197619D01*
X137835714Y-108221428D01*
X137811904Y-108245238D01*
X137788095Y-108292857D01*
X137764285Y-108388095D01*
X137740476Y-108435714D01*
X137716666Y-108459523D01*
X137669047Y-108483333D01*
X137621428Y-108483333D01*
X137573809Y-108459523D01*
X137550000Y-108435714D01*
X137526190Y-108388095D01*
X137526190Y-108269047D01*
X137550000Y-108197619D01*
X137526190Y-108054761D02*
X137526190Y-107769047D01*
X138026190Y-107911904D02*
X137526190Y-107911904D01*
D13*
X157218748Y-93377000D02*
X157741252Y-93377000D01*
X157218748Y-91907000D02*
X157741252Y-91907000D01*
X96772936Y-96565000D02*
X97227064Y-96565000D01*
X96772936Y-98035000D02*
X97227064Y-98035000D01*
X96772936Y-90841000D02*
X97227064Y-90841000D01*
X96772936Y-89371000D02*
X97227064Y-89371000D01*
X95310000Y-73911252D02*
X95310000Y-72488748D01*
X93490000Y-73911252D02*
X93490000Y-72488748D01*
X107540000Y-94500000D02*
X107540000Y-92550000D01*
X117660000Y-94500000D02*
X117660000Y-92550000D01*
X107540000Y-94500000D02*
X107540000Y-97950000D01*
X117660000Y-94500000D02*
X117660000Y-96450000D01*
X157438748Y-98465000D02*
X157961252Y-98465000D01*
X157438748Y-99935000D02*
X157961252Y-99935000D01*
X90890000Y-78402064D02*
X90890000Y-77197936D01*
X92710000Y-78402064D02*
X92710000Y-77197936D01*
D11*
X162407500Y-81597000D02*
X162407500Y-81297000D01*
X163582500Y-78297000D02*
X164057500Y-78297000D01*
X162782500Y-81597000D02*
X162407500Y-81597000D01*
X162407500Y-78597000D02*
X162407500Y-78297000D01*
X162407500Y-78522000D02*
X162407500Y-78647000D01*
X163407500Y-81597000D02*
X163682500Y-81597000D01*
X163682500Y-81597000D02*
X164057500Y-81322000D01*
X162407500Y-78297000D02*
X162857500Y-78297000D01*
X164057500Y-81322000D02*
X164057500Y-81272000D01*
X164057500Y-78297000D02*
X164057500Y-78647000D01*
X164057500Y-81272000D02*
X164832500Y-81272000D01*
D13*
X103913000Y-63507252D02*
X103913000Y-62984748D01*
X105383000Y-63507252D02*
X105383000Y-62984748D01*
X166997500Y-85219936D02*
X166997500Y-85674064D01*
X168467500Y-85219936D02*
X168467500Y-85674064D01*
X99615000Y-101860000D02*
X102300000Y-101860000D01*
X99615000Y-99940000D02*
X99615000Y-101860000D01*
X102300000Y-99940000D02*
X99615000Y-99940000D01*
X138740000Y-80022000D02*
X138740000Y-81522000D01*
X139990000Y-84022000D02*
X144490000Y-84022000D01*
X144490000Y-77522000D02*
X139990000Y-77522000D01*
X145740000Y-81522000D02*
X145740000Y-80022000D01*
X113850000Y-66284000D02*
X101250000Y-66284000D01*
X101250000Y-71384000D02*
X113850000Y-71384000D01*
X101250000Y-66284000D02*
X101250000Y-71384000D01*
X112638748Y-88165000D02*
X113161252Y-88165000D01*
X112638748Y-89635000D02*
X113161252Y-89635000D01*
X129480000Y-79502000D02*
X129480000Y-84642000D01*
X134680000Y-76902000D02*
X134680000Y-84642000D01*
X129480000Y-79502000D02*
X132080000Y-79502000D01*
X132080000Y-76902000D02*
X134680000Y-76902000D01*
X129480000Y-76902000D02*
X130810000Y-76902000D01*
X129480000Y-84642000D02*
X134680000Y-84642000D01*
X132080000Y-79502000D02*
X132080000Y-76902000D01*
X129480000Y-78232000D02*
X129480000Y-76902000D01*
X130861252Y-91165000D02*
X130338748Y-91165000D01*
X130861252Y-92635000D02*
X130338748Y-92635000D01*
X119727064Y-98335000D02*
X119272936Y-98335000D01*
X119727064Y-96865000D02*
X119272936Y-96865000D01*
X113161252Y-98565000D02*
X112638748Y-98565000D01*
X113161252Y-100035000D02*
X112638748Y-100035000D01*
X121920000Y-66274000D02*
X118470000Y-66274000D01*
X121920000Y-66274000D02*
X123870000Y-66274000D01*
X121920000Y-71394000D02*
X119970000Y-71394000D01*
X121920000Y-71394000D02*
X123870000Y-71394000D01*
X92535000Y-73438748D02*
X92535000Y-73961252D01*
X91065000Y-73438748D02*
X91065000Y-73961252D01*
X110263000Y-63507252D02*
X110263000Y-62984748D01*
X111733000Y-63507252D02*
X111733000Y-62984748D01*
D15*
X147280000Y-60075000D02*
X136720000Y-60075000D01*
X138240000Y-73795000D02*
X136720000Y-73795000D01*
X147280000Y-60075000D02*
X147280000Y-73795000D01*
X136720000Y-60075000D02*
X136720000Y-73795000D01*
X147280000Y-73795000D02*
X145760000Y-73795000D01*
D13*
X108835000Y-88961252D02*
X108835000Y-88438748D01*
X107365000Y-88961252D02*
X107365000Y-88438748D01*
X114352000Y-74626000D02*
X114352000Y-72811000D01*
X102827000Y-74626000D02*
X103072000Y-74626000D01*
X102827000Y-78486000D02*
X102827000Y-82346000D01*
X114597000Y-78486000D02*
X114597000Y-82346000D01*
X114597000Y-78486000D02*
X114597000Y-74626000D01*
X114597000Y-82346000D02*
X114352000Y-82346000D01*
X114597000Y-74626000D02*
X114352000Y-74626000D01*
X102827000Y-78486000D02*
X102827000Y-74626000D01*
X102827000Y-82346000D02*
X103072000Y-82346000D01*
X116761252Y-70235000D02*
X116238748Y-70235000D01*
X116761252Y-68765000D02*
X116238748Y-68765000D01*
D15*
X154220000Y-60175000D02*
X154220000Y-73895000D01*
X155740000Y-73895000D02*
X154220000Y-73895000D01*
X164780000Y-60175000D02*
X164780000Y-73895000D01*
X164780000Y-60175000D02*
X154220000Y-60175000D01*
X164780000Y-73895000D02*
X163260000Y-73895000D01*
D13*
X116238748Y-81535000D02*
X116761252Y-81535000D01*
X116238748Y-80065000D02*
X116761252Y-80065000D01*
X96872936Y-100165000D02*
X97327064Y-100165000D01*
X96872936Y-101635000D02*
X97327064Y-101635000D01*
X125449000Y-63018936D02*
X125449000Y-63473064D01*
X123979000Y-63018936D02*
X123979000Y-63473064D01*
X170452500Y-74947500D02*
X170452500Y-77429620D01*
X180266626Y-89171500D02*
X184295500Y-89171500D01*
X170452500Y-79069380D02*
X170452500Y-79969620D01*
X184295500Y-74947500D02*
X180266626Y-74947500D01*
X170452500Y-84149380D02*
X170452500Y-85049620D01*
X170452500Y-86689380D02*
X170452500Y-89171500D01*
X170452500Y-89171500D02*
X179590375Y-89171500D01*
X179590375Y-74947500D02*
X170452500Y-74947500D01*
X170452500Y-81609380D02*
X170452500Y-82509620D01*
X184295500Y-89171500D02*
X184295500Y-74947500D01*
X171669500Y-73169500D02*
G75*
G03*
X171669500Y-73169500I-381000J0D01*
G01*
X127172936Y-72335000D02*
X127627064Y-72335000D01*
X127172936Y-70865000D02*
X127627064Y-70865000D01*
X119272936Y-94865000D02*
X119727064Y-94865000D01*
X119272936Y-96335000D02*
X119727064Y-96335000D01*
X101235000Y-78727064D02*
X101235000Y-78272936D01*
X99765000Y-78727064D02*
X99765000Y-78272936D01*
X159467500Y-79632436D02*
X159467500Y-80086564D01*
X157997500Y-79632436D02*
X157997500Y-80086564D01*
D11*
X162407500Y-87097000D02*
X162407500Y-86797000D01*
X162782500Y-87097000D02*
X162407500Y-87097000D01*
X163682500Y-87097000D02*
X164057500Y-86822000D01*
X163582500Y-83797000D02*
X164057500Y-83797000D01*
X162407500Y-83797000D02*
X162857500Y-83797000D01*
X162407500Y-84097000D02*
X162407500Y-83797000D01*
X163407500Y-87097000D02*
X163682500Y-87097000D01*
X164057500Y-83797000D02*
X164057500Y-84147000D01*
X164057500Y-86822000D02*
X164057500Y-86772000D01*
X162407500Y-84022000D02*
X162407500Y-84147000D01*
X164057500Y-86772000D02*
X164832500Y-86772000D01*
D15*
X142309000Y-97605000D02*
X141984000Y-97605000D01*
X135059000Y-97605000D02*
X135384000Y-97605000D01*
X135059000Y-90355000D02*
X135059000Y-90680000D01*
X135059000Y-90355000D02*
X135384000Y-90355000D01*
X135059000Y-97605000D02*
X135059000Y-97280000D01*
X142309000Y-97380000D02*
X143734000Y-97380000D01*
X142309000Y-90355000D02*
X141984000Y-90355000D01*
X142309000Y-97605000D02*
X142309000Y-97380000D01*
X142309000Y-90355000D02*
X142309000Y-90680000D01*
D13*
X142727064Y-86335000D02*
X142272936Y-86335000D01*
X142727064Y-84865000D02*
X142272936Y-84865000D01*
X89810000Y-81190000D02*
X89810000Y-81570000D01*
X89810000Y-88810000D02*
X89810000Y-88430000D01*
X85500000Y-81190000D02*
X85760000Y-81190000D01*
X85760000Y-88810000D02*
X85500000Y-88810000D01*
X89810000Y-88810000D02*
X88040000Y-88810000D01*
X88040000Y-81190000D02*
X89810000Y-81190000D01*
X102485000Y-89146000D02*
X99800000Y-89146000D01*
X99800000Y-91066000D02*
X102485000Y-91066000D01*
X102485000Y-91066000D02*
X102485000Y-89146000D01*
X166997500Y-79632436D02*
X166997500Y-80086564D01*
X168467500Y-79632436D02*
X168467500Y-80086564D01*
X173570000Y-97770000D02*
X176230000Y-97770000D01*
X176230000Y-95170000D02*
X176230000Y-97770000D01*
X173570000Y-95170000D02*
X176230000Y-95170000D01*
X173570000Y-93900000D02*
X173570000Y-92570000D01*
X173570000Y-92570000D02*
X174900000Y-92570000D01*
X173570000Y-95170000D02*
X173570000Y-97770000D01*
X121705000Y-74970000D02*
X119105000Y-74970000D01*
X122975000Y-74970000D02*
X124305000Y-74970000D01*
X124305000Y-74970000D02*
X124305000Y-76300000D01*
X121705000Y-77630000D02*
X119105000Y-77630000D01*
X121705000Y-74970000D02*
X121705000Y-77630000D01*
X119105000Y-74970000D02*
X119105000Y-77630000D01*
X168900000Y-70550000D02*
X168900000Y-72250000D01*
X168900000Y-72250000D02*
X171450000Y-72250000D01*
X168900000Y-70550000D02*
X171450000Y-70550000D01*
X100000000Y-94660000D02*
X102685000Y-94660000D01*
X102685000Y-94660000D02*
X102685000Y-92740000D01*
X102685000Y-92740000D02*
X100000000Y-92740000D01*
X99615000Y-98260000D02*
X102300000Y-98260000D01*
X102300000Y-96340000D02*
X99615000Y-96340000D01*
X99615000Y-96340000D02*
X99615000Y-98260000D01*
X116388748Y-84010000D02*
X117811252Y-84010000D01*
X116388748Y-82190000D02*
X117811252Y-82190000D01*
X96772936Y-92971000D02*
X97227064Y-92971000D01*
X96772936Y-94441000D02*
X97227064Y-94441000D01*
X154442000Y-89244000D02*
X149342000Y-89244000D01*
X149342000Y-89244000D02*
X149342000Y-101844000D01*
X154442000Y-101844000D02*
X154442000Y-89244000D01*
X167095000Y-92705000D02*
X172295000Y-92705000D01*
X169695000Y-95305000D02*
X167095000Y-95305000D01*
X167095000Y-95305000D02*
X167095000Y-92705000D01*
X172295000Y-97905000D02*
X172295000Y-92705000D01*
X167095000Y-97905000D02*
X167095000Y-96575000D01*
X168425000Y-97905000D02*
X167095000Y-97905000D01*
X169695000Y-97905000D02*
X172295000Y-97905000D01*
X169695000Y-97905000D02*
X169695000Y-95305000D01*
X157997500Y-85132436D02*
X157997500Y-85586564D01*
X159467500Y-85132436D02*
X159467500Y-85586564D01*
X113670000Y-107330000D02*
X113670000Y-104730000D01*
X144210000Y-107330000D02*
X144210000Y-102130000D01*
X113670000Y-107330000D02*
X144210000Y-107330000D01*
X111070000Y-107330000D02*
X111070000Y-106000000D01*
X111070000Y-104730000D02*
X111070000Y-102130000D01*
X111070000Y-102130000D02*
X144210000Y-102130000D01*
X113670000Y-104730000D02*
X111070000Y-104730000D01*
X112400000Y-107330000D02*
X111070000Y-107330000D01*
%LPC*%
D17*
X156530000Y-92642000D03*
X158430000Y-92642000D03*
D18*
X96087500Y-97300000D03*
X97912500Y-97300000D03*
X96087500Y-90106000D03*
X97912500Y-90106000D03*
D19*
X179500000Y-104000000D03*
D20*
X94400000Y-74675000D03*
X94400000Y-71725000D03*
D21*
X108155000Y-96975000D03*
X109425000Y-96975000D03*
X110695000Y-96975000D03*
X111965000Y-96975000D03*
X113235000Y-96975000D03*
X114505000Y-96975000D03*
X115775000Y-96975000D03*
X117045000Y-96975000D03*
X117045000Y-92025000D03*
X115775000Y-92025000D03*
X114505000Y-92025000D03*
X113235000Y-92025000D03*
X111965000Y-92025000D03*
X110695000Y-92025000D03*
X109425000Y-92025000D03*
X108155000Y-92025000D03*
D17*
X156750000Y-99200000D03*
X158650000Y-99200000D03*
D22*
X91800000Y-79200000D03*
X91800000Y-76400000D03*
D23*
X164282500Y-80897000D03*
X164282500Y-78997000D03*
X162182500Y-79947000D03*
D24*
X104648000Y-64196000D03*
X104648000Y-62296000D03*
D25*
X167732500Y-84534500D03*
X167732500Y-86359500D03*
D26*
X100362500Y-100900000D03*
X102237500Y-100900000D03*
D27*
X138990000Y-78522000D03*
X145490000Y-78522000D03*
X138990000Y-83022000D03*
X145490000Y-83022000D03*
D28*
X103700000Y-68834000D03*
X112200000Y-68834000D03*
D17*
X111950000Y-88900000D03*
X113850000Y-88900000D03*
D29*
X130810000Y-78232000D03*
D30*
X133350000Y-78232000D03*
X130810000Y-80772000D03*
X133350000Y-80772000D03*
X130810000Y-83312000D03*
X133350000Y-83312000D03*
D31*
X131550000Y-91900000D03*
X129650000Y-91900000D03*
D32*
X120412500Y-97600000D03*
X118587500Y-97600000D03*
D19*
X90500000Y-104000000D03*
D31*
X113850000Y-99300000D03*
X111950000Y-99300000D03*
D33*
X119445000Y-66929000D03*
X119445000Y-68199000D03*
X119445000Y-69469000D03*
X119445000Y-70739000D03*
X124395000Y-70739000D03*
X124395000Y-69469000D03*
X124395000Y-68199000D03*
X124395000Y-66929000D03*
D34*
X91800000Y-72750000D03*
X91800000Y-74650000D03*
D24*
X110998000Y-64196000D03*
X110998000Y-62296000D03*
D35*
X138190000Y-64455000D03*
X145810000Y-64455000D03*
D36*
X139460000Y-73095000D03*
D37*
X142000000Y-73095000D03*
X144540000Y-73095000D03*
D24*
X108100000Y-89650000D03*
X108100000Y-87750000D03*
D38*
X113792000Y-73836000D03*
X112522000Y-73836000D03*
X111252000Y-73836000D03*
X109982000Y-73836000D03*
X108712000Y-73836000D03*
X107442000Y-73836000D03*
X106172000Y-73836000D03*
X104902000Y-73836000D03*
X103632000Y-73836000D03*
X103632000Y-83136000D03*
X104902000Y-83136000D03*
X106172000Y-83136000D03*
X107442000Y-83136000D03*
X108712000Y-83136000D03*
X109982000Y-83136000D03*
X111252000Y-83136000D03*
X112522000Y-83136000D03*
X113792000Y-83136000D03*
D19*
X179500000Y-65500000D03*
D31*
X117450000Y-69500000D03*
X115550000Y-69500000D03*
D19*
X90500000Y-65500000D03*
D35*
X163310000Y-64555000D03*
X155690000Y-64555000D03*
D36*
X156960000Y-73195000D03*
D37*
X159500000Y-73195000D03*
X162040000Y-73195000D03*
D17*
X115550000Y-80800000D03*
X117450000Y-80800000D03*
D18*
X96187500Y-100900000D03*
X98012500Y-100900000D03*
D25*
X124714000Y-62333500D03*
X124714000Y-64158500D03*
D39*
X179928501Y-87139500D03*
X179928501Y-76979500D03*
D40*
X171288500Y-78249500D03*
X171288500Y-80789500D03*
X171288500Y-83329500D03*
X171288500Y-85869500D03*
D18*
X126487500Y-71600000D03*
X128312500Y-71600000D03*
X118587500Y-95600000D03*
X120412500Y-95600000D03*
D41*
X100500000Y-79412500D03*
X100500000Y-77587500D03*
D25*
X158732500Y-78947000D03*
X158732500Y-80772000D03*
D23*
X164282500Y-86397000D03*
X164282500Y-84497000D03*
X162182500Y-85447000D03*
D42*
X142934000Y-96780000D03*
X142934000Y-95980000D03*
X142934000Y-95180000D03*
X142934000Y-94380000D03*
X142934000Y-93580000D03*
X142934000Y-92780000D03*
X142934000Y-91980000D03*
X142934000Y-91180000D03*
D43*
X141484000Y-89730000D03*
X140684000Y-89730000D03*
X139884000Y-89730000D03*
X139084000Y-89730000D03*
X138284000Y-89730000D03*
X137484000Y-89730000D03*
X136684000Y-89730000D03*
X135884000Y-89730000D03*
D42*
X134434000Y-91180000D03*
X134434000Y-91980000D03*
X134434000Y-92780000D03*
X134434000Y-93580000D03*
X134434000Y-94380000D03*
X134434000Y-95180000D03*
X134434000Y-95980000D03*
X134434000Y-96780000D03*
D43*
X135884000Y-98230000D03*
X136684000Y-98230000D03*
X137484000Y-98230000D03*
X138284000Y-98230000D03*
X139084000Y-98230000D03*
X139884000Y-98230000D03*
X140684000Y-98230000D03*
X141484000Y-98230000D03*
D32*
X143412500Y-85600000D03*
X141587500Y-85600000D03*
D44*
X89560000Y-83700000D03*
X89560000Y-84350000D03*
X89560000Y-85000000D03*
X89560000Y-85650000D03*
X89560000Y-86300000D03*
D45*
X86900000Y-81625000D03*
X86900000Y-88375000D03*
D46*
X86900000Y-86550000D03*
D47*
X86900000Y-83850000D03*
D48*
X89475000Y-82512500D03*
X89475000Y-87487500D03*
D49*
X101737500Y-90106000D03*
X99862500Y-90106000D03*
D25*
X167732500Y-78947000D03*
X167732500Y-80772000D03*
D29*
X174900000Y-93900000D03*
D30*
X174900000Y-96440000D03*
D29*
X122975000Y-76300000D03*
D30*
X120435000Y-76300000D03*
D50*
X169350000Y-71400000D03*
X171450000Y-71400000D03*
D49*
X101937500Y-93700000D03*
X100062500Y-93700000D03*
D26*
X100362500Y-97300000D03*
X102237500Y-97300000D03*
D51*
X115625000Y-83100000D03*
X118575000Y-83100000D03*
D18*
X96087500Y-93706000D03*
X97912500Y-93706000D03*
D52*
X151892000Y-91694000D03*
X151892000Y-100194000D03*
D29*
X168425000Y-96575000D03*
D30*
X168425000Y-94035000D03*
X170965000Y-96575000D03*
X170965000Y-94035000D03*
D25*
X158732500Y-84447000D03*
X158732500Y-86272000D03*
D29*
X112400000Y-106000000D03*
D30*
X112400000Y-103460000D03*
X114940000Y-106000000D03*
X114940000Y-103460000D03*
X117480000Y-106000000D03*
X117480000Y-103460000D03*
X120020000Y-106000000D03*
X120020000Y-103460000D03*
X122560000Y-106000000D03*
X122560000Y-103460000D03*
X125100000Y-106000000D03*
X125100000Y-103460000D03*
X127640000Y-106000000D03*
X127640000Y-103460000D03*
X130180000Y-106000000D03*
X130180000Y-103460000D03*
X132720000Y-106000000D03*
X132720000Y-103460000D03*
X135260000Y-106000000D03*
X135260000Y-103460000D03*
X137800000Y-106000000D03*
X137800000Y-103460000D03*
X140340000Y-106000000D03*
X140340000Y-103460000D03*
X142880000Y-106000000D03*
X142880000Y-103460000D03*
M02*
