M48
; DRILL file {KiCad (6.0.7-1)-1} date Thursday, November 17, 2022 at 12:13:58 pm
; FORMAT={-:-/ absolute / metric / decimal}
; #@! TF.CreationDate,2022-11-17T12:13:58-08:00
; #@! TF.GenerationSoftware,Kicad,Pcbnew,(6.0.7-1)-1
; #@! TF.FileFunction,Plated,1,2,PTH
FMAT,2
METRIC
; #@! TA.AperFunction,Plated,PTH,ViaDrill
T1C0.400
; #@! TA.AperFunction,Plated,PTH,ComponentDrill
T2C1.000
; #@! TA.AperFunction,Plated,PTH,ComponentDrill
T3C1.090
; #@! TA.AperFunction,Plated,PTH,ComponentDrill
T4C1.100
; #@! TA.AperFunction,Plated,PTH,ComponentDrill
T5C1.168
%
G90
G05
T1
X87.6Y-91.2
X91.8Y-70.9
X92.2Y-83.3
X92.2Y-84.6
X94.4Y-99.1
X100.5Y-81.1
X101.9Y-72.9
X102.3Y-99.0
X102.5Y-62.3
X103.8Y-102.4
X106.159Y-87.634
X106.2Y-85.3
X106.3Y-96.5
X108.0Y-98.8
X108.6Y-77.9
X109.22Y-62.3
X109.223Y-98.823
X111.3Y-81.2
X112.422Y-84.825
X113.188Y-95.212
X114.4Y-95.2
X115.0Y-65.0
X115.5Y-74.0
X115.8Y-88.9
X115.8Y-95.2
X115.8Y-99.3
X117.2Y-98.8
X119.0Y-80.8
X121.4Y-88.175
X121.7Y-67.0
X122.8Y-68.0
X122.8Y-88.1
X123.075Y-100.0
X126.2Y-90.0
X127.0Y-62.4
X128.1Y-96.2
X128.1Y-97.6
X129.3Y-94.7
X131.6Y-98.7
X132.863Y-90.737
X134.37Y-89.73
X136.0Y-91.3
X137.0Y-91.3
X137.2Y-92.4
X137.4Y-95.105
X138.2Y-93.0
X139.2Y-70.3
X139.7Y-96.3
X139.8Y-91.2
X140.6Y-91.9
X140.7Y-96.7
X141.1Y-93.9
X141.4Y-91.2
X141.7Y-101.1
X142.5Y-98.3
X144.2Y-98.1
X144.4Y-96.0
X148.9Y-108.3
X156.1Y-70.4
X156.9Y-80.8
X160.3Y-99.2
X160.5Y-92.7
X167.7Y-77.835
X167.731Y-82.0
X168.7Y-87.8
T2
X112.4Y-103.46
X112.4Y-106.0
X114.94Y-103.46
X114.94Y-106.0
X117.48Y-103.46
X117.48Y-106.0
X120.02Y-103.46
X120.02Y-106.0
X120.435Y-76.3
X122.56Y-103.46
X122.56Y-106.0
X122.975Y-76.3
X125.1Y-103.46
X125.1Y-106.0
X127.64Y-103.46
X127.64Y-106.0
X130.18Y-103.46
X130.18Y-106.0
X130.81Y-78.232
X130.81Y-80.772
X130.81Y-83.312
X132.72Y-103.46
X132.72Y-106.0
X133.35Y-78.232
X133.35Y-80.772
X133.35Y-83.312
X135.26Y-103.46
X135.26Y-106.0
X137.8Y-103.46
X137.8Y-106.0
X140.34Y-103.46
X140.34Y-106.0
X142.88Y-103.46
X142.88Y-106.0
X168.425Y-94.035
X168.425Y-96.575
X170.965Y-94.035
X170.965Y-96.575
X174.9Y-93.9
X174.9Y-96.44
T3
X139.46Y-73.095
X142.0Y-73.095
X144.54Y-73.095
X156.96Y-73.195
X159.5Y-73.195
X162.04Y-73.195
T4
X138.99Y-78.522
X138.99Y-83.022
X145.49Y-78.522
X145.49Y-83.022
T5
X171.288Y-78.249
X171.288Y-80.789
X171.288Y-83.329
X171.288Y-85.87
T0
M30
