G04 #@! TF.GenerationSoftware,KiCad,Pcbnew,(6.0.7-1)-1*
G04 #@! TF.CreationDate,2022-11-17T12:13:48-08:00*
G04 #@! TF.ProjectId,telemetry-emulator-pcb,74656c65-6d65-4747-9279-2d656d756c61,rev?*
G04 #@! TF.SameCoordinates,Original*
G04 #@! TF.FileFunction,Paste,Top*
G04 #@! TF.FilePolarity,Positive*
%FSLAX46Y46*%
G04 Gerber Fmt 4.6, Leading zero omitted, Abs format (unit mm)*
G04 Created by KiCad (PCBNEW (6.0.7-1)-1) date 2022-11-17 12:13:48*
%MOMM*%
%LPD*%
G01*
G04 APERTURE LIST*
G04 Aperture macros list*
%AMRoundRect*
0 Rectangle with rounded corners*
0 $1 Rounding radius*
0 $2 $3 $4 $5 $6 $7 $8 $9 X,Y pos of 4 corners*
0 Add a 4 corners polygon primitive as box body*
4,1,4,$2,$3,$4,$5,$6,$7,$8,$9,$2,$3,0*
0 Add four circle primitives for the rounded corners*
1,1,$1+$1,$2,$3*
1,1,$1+$1,$4,$5*
1,1,$1+$1,$6,$7*
1,1,$1+$1,$8,$9*
0 Add four rect primitives between the rounded corners*
20,1,$1+$1,$2,$3,$4,$5,0*
20,1,$1+$1,$4,$5,$6,$7,0*
20,1,$1+$1,$6,$7,$8,$9,0*
20,1,$1+$1,$8,$9,$2,$3,0*%
G04 Aperture macros list end*
%ADD10RoundRect,0.250000X-0.250000X-0.475000X0.250000X-0.475000X0.250000X0.475000X-0.250000X0.475000X0*%
%ADD11RoundRect,0.250000X-0.262500X-0.450000X0.262500X-0.450000X0.262500X0.450000X-0.262500X0.450000X0*%
%ADD12RoundRect,0.250000X0.650000X-0.325000X0.650000X0.325000X-0.650000X0.325000X-0.650000X-0.325000X0*%
%ADD13RoundRect,0.150000X0.150000X-0.825000X0.150000X0.825000X-0.150000X0.825000X-0.150000X-0.825000X0*%
%ADD14RoundRect,0.250000X0.625000X-0.375000X0.625000X0.375000X-0.625000X0.375000X-0.625000X-0.375000X0*%
%ADD15R,1.300000X0.600000*%
%ADD16RoundRect,0.250000X0.475000X-0.250000X0.475000X0.250000X-0.475000X0.250000X-0.475000X-0.250000X0*%
%ADD17RoundRect,0.250000X-0.450000X0.262500X-0.450000X-0.262500X0.450000X-0.262500X0.450000X0.262500X0*%
%ADD18RoundRect,0.243750X-0.243750X-0.456250X0.243750X-0.456250X0.243750X0.456250X-0.243750X0.456250X0*%
%ADD19R,4.500000X2.000000*%
%ADD20RoundRect,0.250000X0.250000X0.475000X-0.250000X0.475000X-0.250000X-0.475000X0.250000X-0.475000X0*%
%ADD21RoundRect,0.250000X0.262500X0.450000X-0.262500X0.450000X-0.262500X-0.450000X0.262500X-0.450000X0*%
%ADD22RoundRect,0.150000X-0.825000X-0.150000X0.825000X-0.150000X0.825000X0.150000X-0.825000X0.150000X0*%
%ADD23RoundRect,0.250000X-0.475000X0.250000X-0.475000X-0.250000X0.475000X-0.250000X0.475000X0.250000X0*%
%ADD24RoundRect,0.150000X-0.150000X0.875000X-0.150000X-0.875000X0.150000X-0.875000X0.150000X0.875000X0*%
%ADD25RoundRect,0.250000X0.450000X-0.262500X0.450000X0.262500X-0.450000X0.262500X-0.450000X-0.262500X0*%
%ADD26R,1.600000X0.550000*%
%ADD27R,0.550000X1.600000*%
%ADD28R,1.380000X0.450000*%
%ADD29R,1.300000X1.650000*%
%ADD30R,1.900000X1.000000*%
%ADD31R,1.900000X1.800000*%
%ADD32R,1.550000X1.425000*%
%ADD33RoundRect,0.243750X0.243750X0.456250X-0.243750X0.456250X-0.243750X-0.456250X0.243750X-0.456250X0*%
%ADD34R,0.600000X0.450000*%
%ADD35RoundRect,0.250000X-0.325000X-0.650000X0.325000X-0.650000X0.325000X0.650000X-0.325000X0.650000X0*%
%ADD36R,2.000000X4.500000*%
G04 APERTURE END LIST*
D10*
X156530000Y-92642000D03*
X158430000Y-92642000D03*
D11*
X96087500Y-97300000D03*
X97912500Y-97300000D03*
X96087500Y-90106000D03*
X97912500Y-90106000D03*
D12*
X94400000Y-74675000D03*
X94400000Y-71725000D03*
D13*
X108155000Y-96975000D03*
X109425000Y-96975000D03*
X110695000Y-96975000D03*
X111965000Y-96975000D03*
X113235000Y-96975000D03*
X114505000Y-96975000D03*
X115775000Y-96975000D03*
X117045000Y-96975000D03*
X117045000Y-92025000D03*
X115775000Y-92025000D03*
X114505000Y-92025000D03*
X113235000Y-92025000D03*
X111965000Y-92025000D03*
X110695000Y-92025000D03*
X109425000Y-92025000D03*
X108155000Y-92025000D03*
D10*
X156750000Y-99200000D03*
X158650000Y-99200000D03*
D14*
X91800000Y-79200000D03*
X91800000Y-76400000D03*
D15*
X164282500Y-80897000D03*
X164282500Y-78997000D03*
X162182500Y-79947000D03*
D16*
X104648000Y-64196000D03*
X104648000Y-62296000D03*
D17*
X167732500Y-84534500D03*
X167732500Y-86359500D03*
D18*
X100362500Y-100900000D03*
X102237500Y-100900000D03*
D19*
X103700000Y-68834000D03*
X112200000Y-68834000D03*
D10*
X111950000Y-88900000D03*
X113850000Y-88900000D03*
D20*
X131550000Y-91900000D03*
X129650000Y-91900000D03*
D21*
X120412500Y-97600000D03*
X118587500Y-97600000D03*
D20*
X113850000Y-99300000D03*
X111950000Y-99300000D03*
D22*
X119445000Y-66929000D03*
X119445000Y-68199000D03*
X119445000Y-69469000D03*
X119445000Y-70739000D03*
X124395000Y-70739000D03*
X124395000Y-69469000D03*
X124395000Y-68199000D03*
X124395000Y-66929000D03*
D23*
X91800000Y-72750000D03*
X91800000Y-74650000D03*
D16*
X110998000Y-64196000D03*
X110998000Y-62296000D03*
X108100000Y-89650000D03*
X108100000Y-87750000D03*
D24*
X113792000Y-73836000D03*
X112522000Y-73836000D03*
X111252000Y-73836000D03*
X109982000Y-73836000D03*
X108712000Y-73836000D03*
X107442000Y-73836000D03*
X106172000Y-73836000D03*
X104902000Y-73836000D03*
X103632000Y-73836000D03*
X103632000Y-83136000D03*
X104902000Y-83136000D03*
X106172000Y-83136000D03*
X107442000Y-83136000D03*
X108712000Y-83136000D03*
X109982000Y-83136000D03*
X111252000Y-83136000D03*
X112522000Y-83136000D03*
X113792000Y-83136000D03*
D20*
X117450000Y-69500000D03*
X115550000Y-69500000D03*
D10*
X115550000Y-80800000D03*
X117450000Y-80800000D03*
D11*
X96187500Y-100900000D03*
X98012500Y-100900000D03*
D17*
X124714000Y-62333500D03*
X124714000Y-64158500D03*
D11*
X126487500Y-71600000D03*
X128312500Y-71600000D03*
X118587500Y-95600000D03*
X120412500Y-95600000D03*
D25*
X100500000Y-79412500D03*
X100500000Y-77587500D03*
D17*
X158732500Y-78947000D03*
X158732500Y-80772000D03*
D15*
X164282500Y-86397000D03*
X164282500Y-84497000D03*
X162182500Y-85447000D03*
D26*
X142934000Y-96780000D03*
X142934000Y-95980000D03*
X142934000Y-95180000D03*
X142934000Y-94380000D03*
X142934000Y-93580000D03*
X142934000Y-92780000D03*
X142934000Y-91980000D03*
X142934000Y-91180000D03*
D27*
X141484000Y-89730000D03*
X140684000Y-89730000D03*
X139884000Y-89730000D03*
X139084000Y-89730000D03*
X138284000Y-89730000D03*
X137484000Y-89730000D03*
X136684000Y-89730000D03*
X135884000Y-89730000D03*
D26*
X134434000Y-91180000D03*
X134434000Y-91980000D03*
X134434000Y-92780000D03*
X134434000Y-93580000D03*
X134434000Y-94380000D03*
X134434000Y-95180000D03*
X134434000Y-95980000D03*
X134434000Y-96780000D03*
D27*
X135884000Y-98230000D03*
X136684000Y-98230000D03*
X137484000Y-98230000D03*
X138284000Y-98230000D03*
X139084000Y-98230000D03*
X139884000Y-98230000D03*
X140684000Y-98230000D03*
X141484000Y-98230000D03*
D21*
X143412500Y-85600000D03*
X141587500Y-85600000D03*
D28*
X89560000Y-83700000D03*
X89560000Y-84350000D03*
X89560000Y-85000000D03*
X89560000Y-85650000D03*
X89560000Y-86300000D03*
D29*
X86900000Y-81625000D03*
X86900000Y-88375000D03*
D30*
X86900000Y-86550000D03*
D31*
X86900000Y-83850000D03*
D32*
X89475000Y-82512500D03*
X89475000Y-87487500D03*
D33*
X101737500Y-90106000D03*
X99862500Y-90106000D03*
D17*
X167732500Y-78947000D03*
X167732500Y-80772000D03*
D34*
X169350000Y-71400000D03*
X171450000Y-71400000D03*
D33*
X101937500Y-93700000D03*
X100062500Y-93700000D03*
D18*
X100362500Y-97300000D03*
X102237500Y-97300000D03*
D35*
X115625000Y-83100000D03*
X118575000Y-83100000D03*
D11*
X96087500Y-93706000D03*
X97912500Y-93706000D03*
D36*
X151892000Y-91694000D03*
X151892000Y-100194000D03*
D17*
X158732500Y-84447000D03*
X158732500Y-86272000D03*
M02*
