%TF.GenerationSoftware,KiCad,Pcbnew,(6.0.7-1)-1*%
%TF.CreationDate,2022-11-21T17:18:22-08:00*%
%TF.ProjectId,telemetry-emulator-pcb,74656c65-6d65-4747-9279-2d656d756c61,rev?*%
%TF.SameCoordinates,Original*%
%TF.FileFunction,Soldermask,Bot*%
%TF.FilePolarity,Negative*%
%FSLAX46Y46*%
G04 Gerber Fmt 4.6, Leading zero omitted, Abs format (unit mm)*
G04 Created by KiCad (PCBNEW (6.0.7-1)-1) date 2022-11-21 17:18:22*
%MOMM*%
%LPD*%
G01*
G04 APERTURE LIST*
%ADD10C,3.200000*%
%ADD11C,2.000000*%
%ADD12R,1.700000X1.700000*%
%ADD13O,1.700000X1.700000*%
%ADD14C,3.400000*%
%ADD15R,1.690000X1.690000*%
%ADD16C,1.690000*%
%ADD17C,3.454400*%
%ADD18C,1.676400*%
G04 APERTURE END LIST*
D10*
X179500000Y-104000000D03*
D11*
X138990000Y-78522000D03*
X145490000Y-78522000D03*
X138990000Y-83022000D03*
X145490000Y-83022000D03*
D12*
X130810000Y-78232000D03*
D13*
X133350000Y-78232000D03*
X130810000Y-80772000D03*
X133350000Y-80772000D03*
X130810000Y-83312000D03*
X133350000Y-83312000D03*
D10*
X90500000Y-104000000D03*
D14*
X138190000Y-64455000D03*
X145810000Y-64455000D03*
D15*
X139460000Y-73095000D03*
D16*
X142000000Y-73095000D03*
X144540000Y-73095000D03*
D10*
X179500000Y-65500000D03*
X90500000Y-65500000D03*
D14*
X163310000Y-64555000D03*
X155690000Y-64555000D03*
D15*
X156960000Y-73195000D03*
D16*
X159500000Y-73195000D03*
X162040000Y-73195000D03*
D17*
X179928501Y-87139500D03*
X179928501Y-76979500D03*
D18*
X171288500Y-78249500D03*
X171288500Y-80789500D03*
X171288500Y-83329500D03*
X171288500Y-85869500D03*
D12*
X174900000Y-93900000D03*
D13*
X174900000Y-96440000D03*
D12*
X122975000Y-76300000D03*
D13*
X120435000Y-76300000D03*
D12*
X168425000Y-96575000D03*
D13*
X168425000Y-94035000D03*
X170965000Y-96575000D03*
X170965000Y-94035000D03*
D12*
X112400000Y-106000000D03*
D13*
X112400000Y-103460000D03*
X114940000Y-106000000D03*
X114940000Y-103460000D03*
X117480000Y-106000000D03*
X117480000Y-103460000D03*
X120020000Y-106000000D03*
X120020000Y-103460000D03*
X122560000Y-106000000D03*
X122560000Y-103460000D03*
X125100000Y-106000000D03*
X125100000Y-103460000D03*
X127640000Y-106000000D03*
X127640000Y-103460000D03*
X130180000Y-106000000D03*
X130180000Y-103460000D03*
X132720000Y-106000000D03*
X132720000Y-103460000D03*
X135260000Y-106000000D03*
X135260000Y-103460000D03*
X137800000Y-106000000D03*
X137800000Y-103460000D03*
X140340000Y-106000000D03*
X140340000Y-103460000D03*
X142880000Y-106000000D03*
X142880000Y-103460000D03*
M02*
